<svg width="60" height="60" viewBox="0 0 60 60" fill="none" xmlns="http://www.w3.org/2000/svg">
<path fill-rule="evenodd" clip-rule="evenodd" d="M9.97582 51.4C9.97582 54.3453 12.0246 56.4242 14.2 56.4242C16.3754 56.4242 18.4242 54.3453 18.4242 51.4H20.5758C20.5758 55.2547 17.8246 58.5758 14.2 58.5758C10.5754 58.5758 7.82422 55.2547 7.82422 51.4H9.97582Z" fill="#222160"/>
<path fill-rule="evenodd" clip-rule="evenodd" d="M24.8001 58.5758C21.1755 58.5758 18.4243 55.2547 18.4243 51.4H20.5759C20.5759 54.3453 22.6247 56.4242 24.8001 56.4242C26.9755 56.4242 29.0243 54.3453 29.0243 51.4H31.1759C31.1759 55.2547 28.4247 58.5758 24.8001 58.5758Z" fill="#222160"/>
<path fill-rule="evenodd" clip-rule="evenodd" d="M46.0001 58.5758C42.3755 58.5758 39.6243 55.2547 39.6243 51.4H41.7759C41.7759 54.3453 43.8247 56.4242 46.0001 56.4242C48.1755 56.4242 50.2243 54.3453 50.2243 51.4H52.3759C52.3759 55.2547 49.6247 58.5758 46.0001 58.5758Z" fill="#222160"/>
<path fill-rule="evenodd" clip-rule="evenodd" d="M31.1758 51.4C31.1758 54.3453 33.2246 56.4242 35.4 56.4242C37.5754 56.4242 39.6242 54.3453 39.6242 51.4H41.7758C41.7758 55.2547 39.0246 58.5758 35.4 58.5758C31.7754 58.5758 29.0242 55.2547 29.0242 51.4H31.1758Z" fill="#222160"/>
<path fill-rule="evenodd" clip-rule="evenodd" d="M30.1 16.9758C29.2941 16.9758 28.6758 17.5942 28.6758 18.4C28.6758 19.2059 29.2941 19.8242 30.1 19.8242C30.9058 19.8242 31.5242 19.2059 31.5242 18.4C31.5242 17.5942 30.9058 16.9758 30.1 16.9758ZM26.5242 18.4C26.5242 16.4059 28.1058 14.8242 30.1 14.8242C32.0941 14.8242 33.6758 16.4059 33.6758 18.4C33.6758 20.3942 32.0941 21.9758 30.1 21.9758C28.1058 21.9758 26.5242 20.3942 26.5242 18.4Z" fill="#222160"/>
<path fill-rule="evenodd" clip-rule="evenodd" d="M9.12572 17.9C9.12572 22.9939 11.6801 28.1621 16.9378 32.0337L15.662 33.7662C9.91977 29.5379 6.97412 23.756 6.97412 17.9C6.97412 12.0439 9.91977 6.26208 15.662 2.03369L16.9378 3.76625C11.6801 7.63786 9.12572 12.806 9.12572 17.9Z" fill="#222160"/>
<path fill-rule="evenodd" clip-rule="evenodd" d="M15.6008 17.85C15.6008 21.4928 17.4293 25.2125 21.2404 28.0355L19.9597 29.7645C15.6708 26.5875 13.4492 22.2572 13.4492 17.85C13.4492 13.4428 15.6708 9.11252 19.9597 5.93555L21.2404 7.66448C17.4293 10.4875 15.6008 14.2072 15.6008 17.85Z" fill="#222160"/>
<path fill-rule="evenodd" clip-rule="evenodd" d="M21.8259 17.85C21.8259 19.7405 22.7773 21.7106 24.8395 23.2349L23.5606 24.9651C21.0229 23.0894 19.6743 20.5095 19.6743 17.85C19.6743 15.1905 21.0229 12.6106 23.5606 10.7349L24.8395 12.4651C22.7773 13.9894 21.8259 15.9595 21.8259 17.85Z" fill="#222160"/>
<path fill-rule="evenodd" clip-rule="evenodd" d="M53.2259 17.9C53.2259 23.756 50.2803 29.5379 44.538 33.7662L43.2622 32.0337C48.52 28.1621 51.0743 22.9939 51.0743 17.9C51.0743 12.806 48.52 7.63786 43.2622 3.76625L44.538 2.03369C50.2803 6.26208 53.2259 12.0439 53.2259 17.9Z" fill="#222160"/>
<path fill-rule="evenodd" clip-rule="evenodd" d="M46.6508 17.85C46.6508 22.2572 44.4292 26.5875 40.1403 29.7645L38.8596 28.0355C42.6707 25.2125 44.4992 21.4928 44.4992 17.85C44.4992 14.2072 42.6707 10.4875 38.8596 7.66448L40.1403 5.93555C44.4292 9.11252 46.6508 13.4428 46.6508 17.85Z" fill="#222160"/>
<path fill-rule="evenodd" clip-rule="evenodd" d="M40.4258 17.85C40.4258 20.5095 39.0771 23.0894 36.5394 24.9651L35.2605 23.2349C37.3228 21.7106 38.2742 19.7405 38.2742 17.85C38.2742 15.9595 37.3228 13.9894 35.2605 12.4651L36.5394 10.7349C39.0771 12.6106 40.4258 15.1905 40.4258 17.85Z" fill="#222160"/>
<path fill-rule="evenodd" clip-rule="evenodd" d="M30.0999 20.4242C30.5834 20.4242 31.0075 20.7468 31.1366 21.2128L37.5366 44.3128C37.6953 44.8853 37.3597 45.4781 36.7871 45.6367C36.2145 45.7954 35.6218 45.4598 35.4631 44.8872L30.0999 25.5292L24.7366 44.8872C24.578 45.4598 23.9852 45.7954 23.4126 45.6367C22.8401 45.4781 22.5045 44.8853 22.6631 44.3128L29.0631 21.2128C29.1922 20.7468 29.6163 20.4242 30.0999 20.4242Z" fill="#222160"/>
</svg>
