<svg width="60" height="60" viewBox="0 0 60 60" fill="none" xmlns="http://www.w3.org/2000/svg">
<path d="M32.9516 23.6541L29.0303 26.799C28.0434 27.5885 27.8855 29.036 28.675 30.0229L31.0962 33.0363C31.8857 34.0232 33.3332 34.1811 34.3201 33.3915L38.2414 30.2466C39.2283 29.4571 39.3862 28.0096 38.5967 27.0227L36.1755 24.0094C35.3728 23.0224 33.9385 22.8645 32.9516 23.6541Z" stroke="#21255A" stroke-width="2.1054" stroke-miterlimit="10"/>
<path d="M16.069 23.1012L12.1477 26.2462C11.1608 27.0357 11.0029 28.4832 11.7924 29.4701L13.911 32.1018C14.7005 33.0887 16.148 33.2466 17.1349 32.4571L21.0562 29.3122C22.0431 28.5226 22.201 27.0752 21.4115 26.0883L19.2929 23.4565C18.5034 22.4564 17.0559 22.2985 16.069 23.1012Z" stroke="#21255A" stroke-width="2.1054" stroke-miterlimit="10"/>
<path d="M22.8459 31.7992L18.9246 34.9441C17.9376 35.7337 17.7797 37.1811 18.5693 38.168L20.9378 41.1156C21.7274 42.1025 23.1748 42.2604 24.1617 41.4709L28.0831 38.3259C29.07 37.5364 29.2279 36.089 28.4383 35.1021L26.0698 32.1545C25.2802 31.1676 23.8328 31.0097 22.8459 31.7992Z" stroke="#21255A" stroke-width="2.1054" stroke-miterlimit="10"/>
<path d="M25.8327 14.8509L21.9114 17.9959C20.9245 18.7854 20.7666 20.2328 21.5561 21.2197L23.7931 24.0094C24.5826 24.9963 26.0301 25.1542 27.017 24.3647L30.9383 21.2197C31.9252 20.4302 32.0831 18.9828 31.2936 17.9959L29.0566 15.2062C28.2671 14.2193 26.8196 14.0614 25.8327 14.8509Z" stroke="#21255A" stroke-width="2.1054" stroke-miterlimit="10"/>
<path d="M26.4907 7.56104L4.85766 24.9306C3.87075 25.7201 3.71285 27.1676 4.50238 28.1545L20.3324 47.8663C21.1219 48.8532 22.5694 49.0112 23.5563 48.2216L45.1893 30.852C46.1762 30.0625 46.3341 28.6151 45.5445 27.6282L29.7146 7.91633C28.9119 6.92942 27.4776 6.77151 26.4907 7.56104Z" stroke="#21255A" stroke-width="2.36858" stroke-miterlimit="10"/>
<path d="M53.9925 3.06037L37.0704 16.6534C36.952 16.7455 36.9388 16.9165 37.0309 17.035L38.202 18.4956C38.2941 18.614 38.4652 18.6272 38.5836 18.5351L55.5058 4.94207C55.6242 4.84996 55.6374 4.6789 55.5453 4.56047L54.3873 3.09985C54.282 2.98142 54.111 2.96826 53.9925 3.06037Z" stroke="#21255A" stroke-width="1.84223" stroke-miterlimit="10"/>
<path d="M51.2819 44.7342C49.7949 52.6953 42.9392 58.7089 34.7545 57.9325C34.6755 57.9193 34.6229 57.6825 34.6492 57.3667C34.6755 57.1298 34.7808 56.8272 34.8597 56.8272C42.4523 57.1561 48.6764 52.0374 49.9528 44.4447C50.4265 44.5763 50.8213 44.6158 51.2819 44.7342Z" fill="#21255A"/>
<path d="M51.2819 44.7342C49.7949 52.6953 42.9392 58.7089 34.7545 57.9325C34.6755 57.9193 34.6229 57.6825 34.6492 57.3667C34.6755 57.1298 34.7808 56.8272 34.8597 56.8272C42.4523 57.1561 48.6764 52.0374 49.9528 44.4447C50.4265 44.5763 50.8213 44.6158 51.2819 44.7342Z" stroke="#21255A" stroke-width="1.0527" stroke-miterlimit="10" stroke-linecap="round" stroke-linejoin="round"/>
<path d="M47.0711 43.9317C46.0053 50.1031 40.8734 53.8271 34.7019 53.5507C34.465 53.5244 34.4914 52.498 34.7282 52.4454C39.8601 52.7744 45.4526 49.182 45.821 43.6553C46.2027 43.8527 46.5974 43.8922 47.0711 43.9317Z" fill="#21255A"/>
<path d="M47.0711 43.9317C46.0053 50.1031 40.8734 53.8271 34.7019 53.5507C34.465 53.5244 34.4914 52.498 34.7282 52.4454C39.8601 52.7744 45.4526 49.182 45.821 43.6553C46.2027 43.8527 46.5974 43.8922 47.0711 43.9317Z" stroke="#21255A" stroke-width="1.0527" stroke-miterlimit="10" stroke-linecap="round" stroke-linejoin="round"/>
<path d="M43.0709 43.392C42.3735 47.3002 38.8995 49.5898 34.7151 49.3398C34.5572 49.3266 34.544 48.6818 34.7019 48.6292C38.2548 48.8924 41.9655 46.6291 42.2156 43.2341C42.4392 43.2472 42.7551 43.2867 43.0709 43.392Z" fill="#21255A"/>
<path d="M43.0709 43.392C42.3735 47.3002 38.8995 49.5898 34.7151 49.3398C34.5572 49.3266 34.544 48.6818 34.7019 48.6292C38.2548 48.8924 41.9655 46.6291 42.2156 43.2341C42.4392 43.2472 42.7551 43.2867 43.0709 43.392Z" stroke="#21255A" stroke-width="1.0527" stroke-miterlimit="10" stroke-linecap="round" stroke-linejoin="round"/>
</svg>
