<svg width="64" height="64" viewBox="0 0 64 64" fill="none" xmlns="http://www.w3.org/2000/svg">
<path d="M55.4005 43.2246C55.6263 47.4807 53.9573 51.4494 50.9102 54.0313C47.6818 56.7664 43.0051 57.8643 37.6434 56.2448L38.1657 54.3116C42.9682 55.7815 46.9425 54.767 49.6098 52.5074C52.1752 50.3339 53.6204 46.9364 53.3915 43.2246H55.4005Z" fill="#000667"/>
<path d="M51.362 43.2246C51.2954 49.2324 45.856 54.3891 38.6283 52.5992L39.1496 50.668C45.0227 52.0967 49.2905 47.9944 49.354 43.2246H51.362Z" fill="#000667"/>
<path fill-rule="evenodd" clip-rule="evenodd" d="M33.9861 39.0818L25.5525 45.8259L19.6736 38.5221L28.1083 31.778L33.9861 39.0818ZM22.495 38.8308L25.8622 43.0136L31.1648 38.7731L27.7986 34.5903L22.495 38.8308Z" fill="#000667"/>
<path fill-rule="evenodd" clip-rule="evenodd" d="M43.9985 31.0747L35.5639 37.8198L29.686 30.516L38.1196 23.771L43.9985 31.0747ZM32.5073 30.8247L35.8736 35.0075L41.1772 30.767L37.81 26.5833L32.5073 30.8247Z" fill="#000667"/>
<path fill-rule="evenodd" clip-rule="evenodd" d="M26.8421 30.2053L18.4085 36.9504L12.5296 29.6466L20.9643 22.9016L26.8421 30.2053ZM15.351 29.9553L18.7182 34.1381L24.0208 29.8967L20.6546 25.7139L15.351 29.9553Z" fill="#000667"/>
<path fill-rule="evenodd" clip-rule="evenodd" d="M36.8535 22.1992L28.4199 28.9443L22.541 21.6405L30.9757 14.8955L36.8535 22.1992ZM25.3624 21.9492L28.7296 26.132L34.0322 21.8906L30.666 17.7078L25.3624 21.9492Z" fill="#000667"/>
<path fill-rule="evenodd" clip-rule="evenodd" d="M53.4405 7.22049C53.8727 6.87484 54.5048 6.94315 54.8517 7.37385L56.7793 9.76904C57.126 10.1999 57.0567 10.83 56.6245 11.1757L43.0156 22.0576L50.3076 31.1167C50.6543 31.5476 50.5849 32.1767 50.1527 32.5224L25.6368 52.1294C25.2045 52.4749 24.5724 52.4058 24.2256 51.975L6.22058 29.6046C6.05422 29.3978 5.97702 29.1335 6.00596 28.87C6.03498 28.6064 6.16796 28.3649 6.37541 28.1989L30.8914 8.59196C31.3236 8.24629 31.9557 8.31553 32.3025 8.7463L39.8326 18.1024L53.4405 7.22049ZM8.41376 29.1338L25.1634 49.9432L48.1144 31.5885L31.3647 10.7791L8.41376 29.1338ZM41.088 19.6624L41.7602 20.4966L54.5851 10.2409L53.9139 9.40664L41.088 19.6624Z" fill="#000667"/>
<path d="M47.006 43.2246C46.7949 46.5928 43.7254 49.4327 39.7072 48.605L40.2295 46.6699C42.878 47.1472 44.7979 45.3586 44.9971 43.2246H47.006Z" fill="#000667"/>
</svg>
