<svg width="60" height="60" viewBox="0 0 60 60" fill="none" xmlns="http://www.w3.org/2000/svg">
<path d="M17.6449 30.1331C17.167 29.4935 16.6891 28.741 16.2112 27.8567C15.8176 26.9819 15.4521 26.1823 15.1335 25.4674C13.8591 21.2344 14.0559 18.2431 15.7332 16.4935C17.4106 14.7439 19.5471 13.7373 22.1709 13.5022C23.9232 13.5022 25.9472 13.5022 28.2524 13.5022C30.6325 13.5022 32.4692 13.6621 33.7342 13.9819C34.8493 14.3017 36.6391 15.1389 39.1035 16.4935C41.568 17.848 42.7956 18.5253 42.7956 18.5253L45.7754 19.3625C45.7754 19.3625 45.8504 19.2873 46.0097 19.1274C46.2439 18.8922 46.4876 18.8075 46.7218 18.8922C47.0404 18.9674 47.2747 19.0897 47.434 19.2496C47.5933 19.4096 47.6308 19.6071 47.5558 19.8517C47.4809 20.0116 47.3965 20.2467 47.3216 20.5666C47.3216 20.8017 47.3216 20.924 47.3216 20.924C47.3216 20.924 47.5183 21.1592 47.9213 21.6389C48.3148 22.034 48.5585 22.3538 48.6335 22.5984C48.6335 22.9935 48.6709 23.4732 48.7553 24.0376C48.9146 24.5174 48.9895 24.7525 48.9895 24.7525C48.9895 24.7525 49.2238 25.11 49.7017 25.8343C50.2546 26.5492 50.4982 27.0289 50.4139 27.2735C50.3389 27.4334 50.0578 27.631 49.5799 27.8755C49.102 28.1107 48.6616 28.1577 48.268 27.9978C47.9494 27.8379 47.2372 27.3958 46.1221 26.6809C45.0914 25.966 44.576 25.5991 44.576 25.5991C44.576 25.5991 43.817 25.5991 42.3083 25.5991C40.7996 25.5239 39.9188 25.4768 39.6845 25.4768C39.3659 25.5521 39.0848 26.0789 38.8505 27.0289C38.6163 27.9038 38.4945 28.3459 38.4945 28.3459L38.2602 31.8169C38.2602 31.8169 38.5413 32.0991 39.0942 32.6541C39.647 33.1339 40.0125 33.4913 40.1718 33.7359C40.3311 33.9711 40.2936 34.2156 40.05 34.4508C39.8907 34.6107 39.6939 34.733 39.4503 34.8082C39.1317 34.8082 38.5319 34.686 37.6605 34.4508C36.864 34.131 36.2736 33.8958 35.8707 33.7359C35.4771 33.5007 35.196 33.2185 35.0367 32.8987C34.9524 32.5036 34.9149 32.2967 34.9149 32.2967L34.2027 28.5904L33.1251 31.3466L34.0809 33.7359C34.0809 33.7359 34.1652 33.7735 34.3152 33.8582C34.4651 33.9428 34.8305 34.0557 35.3928 34.2156C36.1893 34.4508 36.3486 34.7706 35.8707 35.1751C35.4771 35.4949 35.1585 35.6925 34.9149 35.7771C34.5963 35.937 34.1184 35.9747 33.4812 35.8994C32.844 35.8242 32.3661 35.7771 32.0475 35.7771C31.7289 35.7019 31.3728 35.542 30.9699 35.2974C30.6513 34.9776 30.417 34.6577 30.2577 34.3379C30.1827 34.1027 29.7798 33.1809 29.0676 31.5818C28.3555 29.9074 27.99 29.0702 27.99 29.0702L23.3703 30.4906L22.5363 33.9616C22.5363 33.9616 22.7706 34.0839 23.2485 34.3191C23.7264 34.5543 24.2043 34.8365 24.6822 35.1563C25.0757 35.4761 25.1601 35.7583 24.9164 35.9935C24.6728 36.2287 24.5604 36.3509 24.5604 36.3509L20.8683 36.4732C20.8683 36.4732 20.5872 36.4732 20.0344 36.4732C19.5565 36.398 19.2753 36.0781 19.2004 35.5137C19.0411 35.034 18.8443 34.1968 18.6007 33.0022C18.4414 31.8075 18.1228 30.848 17.6449 30.1331ZM25.1601 33.8394L25.638 31.563L27.1841 31.2055L28.6178 35.1563C28.6178 35.1563 28.6928 35.3162 28.8521 35.636C29.0114 35.8712 29.2925 36.1534 29.6861 36.4732L26.5844 36.7084C26.6594 36.5485 26.7062 36.4262 26.7062 36.3509C26.7062 36.2757 26.7062 36.1534 26.7062 35.9935C26.7062 35.7583 26.5469 35.3915 26.2283 34.9117C25.9097 34.3567 25.5536 33.9993 25.1601 33.8394ZM42.2052 44.9768C41.8866 44.9016 41.5305 44.8546 41.1276 44.8546C40.734 44.7699 40.3311 44.7323 39.9375 44.7323C39.3003 44.7323 38.71 44.8169 38.1477 44.9674C37.6698 45.0521 37.2294 45.165 36.8359 45.3249C36.358 45.4096 35.9175 45.5601 35.524 45.8046C35.2054 45.9645 34.8868 46.1245 34.5682 46.2844C34.2496 46.5195 33.931 46.7265 33.6124 46.8864C33.3781 46.9711 33.097 47.0839 32.7784 47.2438C32.4598 47.3285 32.1037 47.4038 31.7008 47.479C31.3072 47.5543 30.8293 47.6013 30.2671 47.6013C29.2363 47.6013 28.4023 47.479 27.7651 47.2438C27.1279 46.924 26.5376 46.6042 25.9753 46.2844C25.2632 45.8893 24.5041 45.5224 23.7076 45.2026C22.9955 44.8828 21.9553 44.7229 20.606 44.7229C20.531 44.7229 20.4467 44.7229 20.3717 44.7229C20.2967 44.7229 20.2124 44.7229 20.1374 44.7229C20.0625 44.7229 19.9781 43.848 20.1374 42.089C20.3717 40.2547 20.4935 39.3329 20.4935 39.3329L39.5721 37.301L42.4489 39.7091C42.3739 39.7091 42.327 40.5839 42.327 42.343C42.327 44.0926 42.2896 44.9768 42.2052 44.9768ZM59.2597 44.7323C57.9104 44.7323 56.8327 44.8922 56.0362 45.212C55.2397 45.5318 54.5276 45.8893 53.8904 46.2938C53.3375 46.6136 52.7378 46.9334 52.1006 47.2533C51.4634 47.4884 50.5919 47.6107 49.4768 47.6107C48.3617 47.6107 47.4902 47.4884 46.853 47.2533C46.3002 46.9334 45.7005 46.6136 45.0633 46.2938C44.9883 46.2185 44.8665 46.1715 44.7072 46.1715C44.5479 46.0868 44.426 46.0116 44.3511 45.9363V38.759L41.493 36.1252C41.6524 36.1252 41.7742 36.0876 41.8491 36.0029C41.9335 35.843 42.0084 35.6831 42.0834 35.5232C42.3177 35.1281 42.4395 34.7236 42.4395 34.3285C42.4395 33.9334 42.3177 33.5289 42.0834 33.1339C42.0834 33.1339 41.9616 33.0116 41.7273 32.7764C41.493 32.4566 41.0526 31.9768 40.4154 31.3372L40.5372 29.0608C40.6216 28.8256 40.6965 28.581 40.7715 28.3459C40.8465 28.1107 40.9308 27.9038 41.0058 27.7438C41.4837 27.7438 42.0365 27.7815 42.6737 27.8661C43.3859 27.8661 43.9481 27.8661 44.3417 27.8661C44.8946 28.2612 45.5693 28.7033 46.3658 29.1831C47.1623 29.6628 47.7151 29.945 48.0337 30.0203C48.268 30.0955 48.4742 30.1802 48.6335 30.2554C48.8677 30.3307 49.0739 30.3777 49.2332 30.3777C49.786 30.3777 50.4232 30.2178 51.1448 29.898C51.8569 29.5029 52.3723 28.9761 52.6909 28.3459C52.9252 27.9508 52.972 27.4711 52.8127 26.9067C52.6534 26.267 52.1381 25.3922 51.2666 24.2728C51.2666 23.953 51.2291 23.5955 51.1448 23.191C51.0698 22.7959 50.9855 22.4761 50.9105 22.2315C50.8355 21.9964 50.6762 21.7142 50.4326 21.3944C50.2733 21.0745 50.114 20.7547 49.9547 20.4349V20.1997C49.9547 19.8799 49.9172 19.5601 49.8329 19.2402C49.8329 18.8452 49.7111 18.4407 49.4768 18.0456C49.3175 17.7258 49.0364 17.4906 48.6428 17.3307C48.3242 17.1708 47.9681 17.0485 47.5652 16.9732C47.4902 16.9732 47.4059 16.9732 47.3309 16.9732C47.3309 16.9732 47.2935 16.9732 47.2091 16.9732C46.8905 16.9732 46.6094 17.0109 46.3751 17.0955C46.2158 17.0955 46.0565 17.1708 45.8972 17.3307L43.9856 16.8509C43.2735 16.4559 41.8023 15.6187 39.5721 14.3394C37.3419 13.0601 35.5989 12.2605 34.3245 11.9501C33.1345 11.6302 31.3822 11.3951 29.077 11.2352C26.8468 11.0753 24.8602 11 23.1173 11C19.6221 11.0753 17.1951 11.6397 15.8457 12.6744C14.5713 13.6339 13.6623 14.5463 13.1001 15.4305C12.3879 16.5499 11.9475 18.1397 11.7882 20.2185C11.7133 22.2127 11.985 23.9718 12.6222 25.4863C12.7815 26.0412 13.2219 26.9255 13.9341 28.1201C14.6463 29.3148 15.4053 30.6317 16.2018 32.0709C16.7546 33.0304 16.9983 34.1498 16.9139 35.4197C16.9139 36.699 17.3544 37.6114 18.2258 38.1758L17.5137 45.1179C16.9608 45.2779 16.4829 45.4754 16.08 45.72C15.6864 45.9551 15.3209 46.1621 15.0023 46.322C14.4495 46.6418 13.8498 46.9616 13.2126 47.2815C12.5754 47.5166 11.7039 47.6389 10.5888 47.6389C9.55802 47.6389 8.72404 47.5166 8.08683 47.2815C7.44963 46.9616 6.81243 46.6418 6.17523 46.322C5.62236 45.9269 4.94768 45.5601 4.15118 45.2402C3.35468 44.9204 2.28643 44.7605 0.92769 44.7605C0.693425 44.7605 0.449789 44.9204 0.215524 45.2402C0.0749649 45.4472 0 45.6918 0 45.9269C0 46.1621 0.0749649 46.4443 0.234265 46.7641C0.393566 46.9993 0.590348 47.1216 0.833984 47.1216C1.94909 47.1216 2.78307 47.2815 3.33594 47.6013C3.97314 47.8365 4.61034 48.1187 5.24754 48.4385C5.88474 48.7583 6.59691 49.1158 7.39341 49.5203C8.26488 49.8401 9.37998 50 10.7293 50C12.163 50 13.2313 49.8401 13.9528 49.5203C14.7493 49.1252 15.4615 48.7583 16.0987 48.4385C16.6516 48.1187 17.2513 47.8365 17.8885 47.6013C18.5257 47.2815 19.3972 47.1216 20.5123 47.1216C21.6274 47.1216 22.4988 47.2815 23.136 47.6013C23.7732 47.8365 24.3636 48.1187 24.9258 48.4385C25.563 48.7583 26.2377 49.1158 26.9499 49.5203C27.7464 49.8401 28.8146 50 30.1734 50C31.6071 50 32.6753 49.8401 33.3968 49.5203C34.1933 49.1252 34.9055 48.7583 35.5427 48.4385C36.0956 48.1187 36.6953 47.8365 37.3325 47.6013C37.9697 47.2815 38.8412 47.1216 39.9563 47.1216C41.0714 47.1216 41.9054 47.2815 42.4582 47.6013C43.0954 47.8365 43.7326 48.1187 44.3698 48.4385C45.007 48.7583 45.6817 49.1158 46.3939 49.5203C47.1904 49.8401 48.2586 50 49.6174 50C50.9761 50 52.0444 49.8401 52.8409 49.5203C53.6374 49.1252 54.3495 48.7583 54.9867 48.4385C55.5396 48.1187 56.1393 47.8365 56.7765 47.6013C57.4137 47.2815 58.2852 47.1216 59.4003 47.1216C59.6345 47.1216 59.7938 46.9616 59.8782 46.6418C59.9531 46.322 60 46.0868 60 45.9269C60 45.6918 59.925 45.4472 59.7657 45.212C59.6533 44.8922 59.494 44.7323 59.2597 44.7323Z" fill="#21255A"/>
</svg>
