<svg width="60" height="60" viewBox="0 0 60 60" fill="none" xmlns="http://www.w3.org/2000/svg">
<mask id="mask0_15239_41003" style="mask-type:luminance" maskUnits="userSpaceOnUse" x="8" y="1" width="45" height="58">
<path d="M52.5 1H8V58.7H52.5V1Z" fill="white"/>
</mask>
<g mask="url(#mask0_15239_41003)">
<path fill-rule="evenodd" clip-rule="evenodd" d="M10.1758 51.5C10.1758 54.4453 12.2246 56.5242 14.4 56.5242C16.5754 56.5242 18.6242 54.4453 18.6242 51.5H20.7758C20.7758 55.3547 18.0246 58.6758 14.4 58.6758C10.7754 58.6758 8.02417 55.3547 8.02417 51.5H10.1758Z" fill="#000667"/>
<path fill-rule="evenodd" clip-rule="evenodd" d="M24.9998 58.6758C21.3753 58.6758 18.624 55.3547 18.624 51.5H20.7756C20.7756 54.4453 22.8244 56.5242 24.9998 56.5242C27.1753 56.5242 29.224 54.4453 29.224 51.5H31.3756C31.3756 55.3547 28.6244 58.6758 24.9998 58.6758Z" fill="#000667"/>
<path fill-rule="evenodd" clip-rule="evenodd" d="M46.0999 58.6758C42.4753 58.6758 39.7241 55.3547 39.7241 51.5H41.8757C41.8757 54.4453 43.9245 56.5242 46.0999 56.5242C48.2753 56.5242 50.3241 54.4453 50.3241 51.5H52.4757C52.4757 55.3547 49.7245 58.6758 46.0999 58.6758Z" fill="#000667"/>
<path fill-rule="evenodd" clip-rule="evenodd" d="M31.2756 51.5C31.2756 54.4453 33.3244 56.5242 35.4998 56.5242C37.6753 56.5242 39.724 54.4453 39.724 51.5H41.8756C41.8756 55.3547 39.1244 58.6758 35.4998 58.6758C31.8753 58.6758 29.124 55.3547 29.124 51.5H31.2756Z" fill="#000667"/>
<path fill-rule="evenodd" clip-rule="evenodd" d="M16.3 3C15.7523 3 15.3 3.45228 15.3 4V42.1C15.3 42.6477 15.7523 43.1 16.3 43.1H44.3C44.8477 43.1 45.3 42.6477 45.3 42.1V4C45.3 3.45228 44.8477 3 44.3 3H16.3ZM13.3 4C13.3 2.34772 14.6477 1 16.3 1H44.3C45.9524 1 47.3 2.34772 47.3 4V42.1C47.3 43.7523 45.9524 45.1 44.3 45.1H16.3C14.6477 45.1 13.3 43.7523 13.3 42.1V4Z" fill="#000667"/>
<path fill-rule="evenodd" clip-rule="evenodd" d="M16.8999 17.5H43.5999V41.5H16.8999V17.5ZM18.8999 19.5V39.5H41.5999V19.5H18.8999Z" fill="#000667"/>
<path fill-rule="evenodd" clip-rule="evenodd" d="M16.8999 4.69995H43.5999V15.9H16.8999V4.69995ZM18.8999 6.69995V13.9H41.5999V6.69995H18.8999Z" fill="#000667"/>
<path fill-rule="evenodd" clip-rule="evenodd" d="M25.1001 40.5V18.5H27.1001V40.5H25.1001Z" fill="#000667"/>
<path fill-rule="evenodd" clip-rule="evenodd" d="M33.3 40.5V18.5H35.3V40.5H33.3Z" fill="#000667"/>
<path fill-rule="evenodd" clip-rule="evenodd" d="M42.5999 26.8H17.8999V24.8H42.5999V26.8Z" fill="#000667"/>
<path fill-rule="evenodd" clip-rule="evenodd" d="M34.2999 34.1H17.8999V32.1H34.2999V34.1Z" fill="#000667"/>
</g>
</svg>
