<svg width="65" height="64" viewBox="0 0 65 64" fill="none" xmlns="http://www.w3.org/2000/svg">
<path d="M13.5 52.5C13.5 54.7091 15.2909 56.5 17.5 56.5C19.7091 56.5 21.5 54.7091 21.5 52.5H23.5C23.5 54.7091 25.2909 56.5 27.5 56.5C29.7091 56.5 31.5 54.7091 31.5 52.5H33.5C33.5 54.7091 35.2909 56.5 37.5 56.5C39.7091 56.5 41.5 54.7091 41.5 52.5H43.5C43.5 54.7091 45.2909 56.5 47.5 56.5C49.7091 56.5 51.5 54.7091 51.5 52.5H53.5C53.5 55.8137 50.8137 58.5 47.5 58.5C45.4126 58.5 43.5748 57.4336 42.5 55.8164C41.4252 57.4336 39.5874 58.5 37.5 58.5C35.4126 58.5 33.5748 57.4336 32.5 55.8164C31.4252 57.4336 29.5874 58.5 27.5 58.5C25.4126 58.5 23.5748 57.4336 22.5 55.8164C21.4252 57.4336 19.5874 58.5 17.5 58.5C14.1863 58.5 11.5 55.8137 11.5 52.5H13.5Z" fill="#000667"/>
<path fill-rule="evenodd" clip-rule="evenodd" d="M46.5 43.5H17.5V20.5H46.5V43.5ZM19.5 36.5V41.5H26.5V36.5H19.5ZM28.5 36.5V41.5H35.5V36.5H28.5ZM37.5 41.5H44.5V29.5H37.5V41.5ZM19.5 34.5H26.5V29.5H19.5V34.5ZM28.5 34.5H35.5V29.5H28.5V34.5ZM19.5 27.5H26.5V22.5H19.5V27.5ZM28.5 27.5H35.5V22.5H28.5V27.5ZM37.5 27.5H44.5V22.5H37.5V27.5Z" fill="#000667"/>
<path fill-rule="evenodd" clip-rule="evenodd" d="M46.5 18.5H17.5V9.5H46.5V18.5ZM19.5 16.5H44.5V11.5H19.5V16.5Z" fill="#000667"/>
<path fill-rule="evenodd" clip-rule="evenodd" d="M47.5 5.5C49.1569 5.5 50.5 6.84315 50.5 8.5V44.5C50.5 46.1569 49.1569 47.5 47.5 47.5H16.5C14.8431 47.5 13.5 46.1569 13.5 44.5V8.5C13.5 6.84315 14.8431 5.5 16.5 5.5H47.5ZM16.5 7.5C15.9477 7.5 15.5 7.94772 15.5 8.5V44.5C15.5 45.0523 15.9477 45.5 16.5 45.5H47.5C48.0523 45.5 48.5 45.0523 48.5 44.5V8.5C48.5 7.94772 48.0523 7.5 47.5 7.5H16.5Z" fill="#000667"/>
</svg>
