<svg width="60" height="60" viewBox="0 0 60 60" fill="none" xmlns="http://www.w3.org/2000/svg">
<g clip-path="url(#clip0_15239_41186)">
<path d="M29.9999 56.1937C37.7999 56.1937 45.5999 56.1937 53.4999 56.1937C55.2999 56.1937 56.2999 55.192 56.2999 53.389C56.2999 37.763 56.2999 22.0368 56.2999 6.41071C56.2999 4.60771 55.2999 3.60604 53.4999 3.60604C37.8999 3.60604 22.2999 3.60604 6.59995 3.60604C4.79995 3.60604 3.79995 4.60771 3.79995 6.41071C3.79995 22.0368 3.79995 37.763 3.79995 53.389C3.79995 55.192 4.79995 56.1937 6.59995 56.1937C14.4 56.1937 22.1999 56.1937 29.9999 56.1937ZM55.0999 0.200363C56.3999 0.500862 57.4999 1.20203 58.3999 2.2037C59.2999 3.20537 59.7999 4.40738 59.7999 5.80971C59.7999 21.7363 59.7999 37.6628 59.7999 53.5893C59.7999 54.7913 59.5999 55.8932 58.8999 56.8948C57.6999 58.6979 56.0999 59.6995 53.9999 59.6995C38.1999 59.6995 22.2999 59.6995 6.49995 59.6995C5.19995 59.6995 3.99995 59.4992 2.99995 58.798C1.29995 57.6962 0.199951 56.0935 0.199951 53.99C0.199951 37.8631 0.199951 21.8364 0.199951 5.70955C0.199951 5.10854 0.299951 4.50754 0.499951 4.00671C1.29995 2.00337 2.59995 0.701199 4.69995 0.100197C4.89995 0.200363 54.9999 0.200363 55.0999 0.200363Z" fill="#25275A"/>
<path d="M27.1 28.8481C27.3 28.6477 27.4 28.4474 27.6 28.2471C28.9 26.9449 30.5 26.5442 32.3 26.5442C35.3 26.6444 37.8 28.5476 38.5 31.3523C39.6 35.4591 37.6 39.7663 32.6 40.7679C30 41.2688 27.5 40.9683 25.3 39.2654C23.8 38.1636 23 36.6611 22.8 34.7579C22.8 34.4574 22.9 34.3573 23.1 34.3573C24.2 34.3573 25.3 34.3573 26.4 34.3573C26.6 34.3573 26.8 34.3573 26.8 34.5576C27.1 36.2604 28.7 37.4624 30.9 37.3623C32.6 37.2621 33.9 36.2604 34.4 34.6578C34.9 32.9549 34.3 31.2521 33 30.2504C31.2 28.9482 28.4 29.4491 27.1 31.2521C26.9 31.4524 26.8 31.5526 26.5 31.5526C25.5 31.5526 24.4 31.5526 23.4 31.5526C23.1 31.5526 23 31.5526 23 31.1519C23.3 27.3456 23.6 23.5392 23.9 19.7329C23.9 19.6327 23.9 19.4324 23.9 19.3322C23.9 19.1319 24 19.0317 24.2 19.0317C28.5 19.0317 32.7 19.0317 37 19.0317C37.3 19.0317 37.3 19.1319 37.3 19.3322C37.3 20.2337 37.3 21.1352 37.3 22.1369C37.3 22.5376 37.2 22.5376 36.9 22.5376C33.9 22.5376 30.9 22.5376 27.9 22.5376C27.6 22.5376 27.4 22.6377 27.4 22.9382C27.3 24.7412 27.1 26.5442 26.9 28.3472C27 28.7479 27 28.7479 27.1 28.8481Z" fill="#25275A"/>
</g>
<defs>
<clipPath id="clip0_15239_41186">
<rect width="60" height="60" fill="white"/>
</clipPath>
</defs>
</svg>
