<svg width="60" height="60" viewBox="0 0 60 60" fill="none" xmlns="http://www.w3.org/2000/svg">
<path fill-rule="evenodd" clip-rule="evenodd" d="M29.3999 40.7373V5.7373H31.2743V40.7373H29.3999Z" fill="#000667"/>
<path fill-rule="evenodd" clip-rule="evenodd" d="M38.6998 6.80001L30.7998 14.7L29.4744 13.3746L37.3744 5.47461L38.6998 6.80001Z" fill="#000667"/>
<path fill-rule="evenodd" clip-rule="evenodd" d="M52.504 33.5958L44.504 41.6958L43.1704 40.3787L51.1704 32.2787L52.504 33.5958Z" fill="#000667"/>
<path fill-rule="evenodd" clip-rule="evenodd" d="M45.2997 6.89999L30.9997 21.2L29.6743 19.8746L43.9743 5.57458L45.2997 6.89999Z" fill="#000667"/>
<path fill-rule="evenodd" clip-rule="evenodd" d="M52.1999 27.1999L38.1999 41.1999L36.8745 39.8745L50.8745 25.8745L52.1999 27.1999Z" fill="#000667"/>
<path fill-rule="evenodd" clip-rule="evenodd" d="M51.8999 7.09994L30.8999 28.0999L29.5745 26.7745L50.5745 5.77454L51.8999 7.09994Z" fill="#000667"/>
<path fill-rule="evenodd" clip-rule="evenodd" d="M52.3013 20.1984L31.2013 41.3984L29.8728 40.0761L50.9728 18.8761L52.3013 20.1984Z" fill="#000667"/>
<path fill-rule="evenodd" clip-rule="evenodd" d="M52.2997 13.5L30.9997 34.8L29.6743 33.4746L50.9743 12.1746L52.2997 13.5Z" fill="#000667"/>
<path fill-rule="evenodd" clip-rule="evenodd" d="M8.09985 5.30005H52.6742V41.6744H8.09985V5.30005ZM9.97425 7.17445V39.8H50.7998V7.17445H9.97425Z" fill="#000667"/>
<path fill-rule="evenodd" clip-rule="evenodd" d="M8.9372 1C9.4548 1 9.8744 1.4196 9.8744 1.9372V58.9372C9.8744 59.4548 9.4548 59.8744 8.9372 59.8744C8.4196 59.8744 8 59.4548 8 58.9372V1.9372C8 1.4196 8.4196 1 8.9372 1Z" fill="#000667"/>
</svg>
