<svg width="60" height="60" viewBox="0 0 60 60" fill="none" xmlns="http://www.w3.org/2000/svg">
<path fill-rule="evenodd" clip-rule="evenodd" d="M9 52C9 54.3477 10.9523 56.3 13.3 56.3C15.6477 56.3 17.6 54.3477 17.6 52H19.6C19.6 55.4523 16.7523 58.3 13.3 58.3C9.84772 58.3 7 55.4523 7 52H9Z" fill="#000667"/>
<path fill-rule="evenodd" clip-rule="evenodd" d="M23.9001 58.3C20.4478 58.3 17.6001 55.4523 17.6001 52H19.6001C19.6001 54.3477 21.5524 56.3 23.9001 56.3C26.2478 56.3 28.2001 54.3477 28.2001 52H30.2001C30.2001 55.4523 27.3524 58.3 23.9001 58.3Z" fill="#000667"/>
<path fill-rule="evenodd" clip-rule="evenodd" d="M45.1 58.3C41.6477 58.3 38.8 55.4523 38.8 52H40.8C40.8 54.3477 42.7523 56.3 45.1 56.3C47.4477 56.3 49.4001 54.3477 49.4001 52H51.4001C51.4001 55.4523 48.5523 58.3 45.1 58.3Z" fill="#000667"/>
<path fill-rule="evenodd" clip-rule="evenodd" d="M30.2 52C30.2 54.3477 32.1523 56.3 34.5 56.3C36.8477 56.3 38.7999 54.3477 38.7999 52H40.7999C40.7999 55.4523 37.9523 58.3 34.5 58.3C31.0477 58.3 28.2 55.4523 28.2 52H30.2Z" fill="#000667"/>
<path fill-rule="evenodd" clip-rule="evenodd" d="M9 42.5C9 44.8477 10.9523 46.8 13.3 46.8C15.6477 46.8 17.6 44.8477 17.6 42.5H19.6C19.6 45.9523 16.7523 48.8 13.3 48.8C9.84772 48.8 7 45.9523 7 42.5H9Z" fill="#000667"/>
<path fill-rule="evenodd" clip-rule="evenodd" d="M23.9001 48.8C20.4478 48.8 17.6001 45.9523 17.6001 42.5H19.6001C19.6001 44.8477 21.5524 46.8 23.9001 46.8C26.2478 46.8 28.2001 44.8477 28.2001 42.5H30.2001C30.2001 45.9523 27.3524 48.8 23.9001 48.8Z" fill="#000667"/>
<path fill-rule="evenodd" clip-rule="evenodd" d="M45.1 48.8C41.6477 48.8 38.8 45.9523 38.8 42.5H40.8C40.8 44.8477 42.7523 46.8 45.1 46.8C47.4477 46.8 49.4001 44.8477 49.4001 42.5H51.4001C51.4001 45.9523 48.5523 48.8 45.1 48.8Z" fill="#000667"/>
<path fill-rule="evenodd" clip-rule="evenodd" d="M30.2 42.5C30.2 44.8477 32.1523 46.8 34.5 46.8C36.8477 46.8 38.7999 44.8477 38.7999 42.5H40.7999C40.7999 45.9523 37.9523 48.8 34.5 48.8C31.0477 48.8 28.2 45.9523 28.2 42.5H30.2Z" fill="#000667"/>
<path fill-rule="evenodd" clip-rule="evenodd" d="M31.4313 6.04578L42.9485 26.1445L14.4014 33.7929L10.3196 26.6189L31.4313 6.04578ZM12.8802 26.9811L15.3985 31.4071L39.8513 24.8556L30.9685 9.35428L12.8802 26.9811Z" fill="#222160"/>
<path fill-rule="evenodd" clip-rule="evenodd" d="M10.0785 27.5052L9.38309 27.9025L9.35768 27.9152C9.25161 27.9683 9.17791 28.0576 9.14277 28.1982C9.10605 28.3451 9.11847 28.5368 9.20561 28.7224L12.1031 33.818L12.1153 33.8424C12.1684 33.9485 12.2578 34.0222 12.3983 34.0573C12.545 34.094 12.7364 34.0816 12.9217 33.9948L13.6171 33.5975L13.6425 33.5848C13.9026 33.4547 14.0127 33.1308 13.8324 32.8423L13.8211 32.8243L10.8971 27.682L10.8849 27.6576C10.8319 27.5515 10.7425 27.4778 10.6019 27.4427C10.4552 27.406 10.2639 27.4184 10.0785 27.5052ZM12.7015 26.7151C11.9775 25.307 10.3031 25.1045 9.14246 25.6848L9.11706 25.6975L8.41415 26.0991C7.00699 26.8235 6.80471 28.4973 7.38485 29.6576L7.39707 29.682L10.2987 34.7849C11.0228 36.193 12.6971 36.3955 13.8577 35.8152L13.8831 35.8025L14.5862 35.4008C15.8978 34.725 16.3768 33.077 15.5803 31.7779L12.7015 26.7151Z" fill="#222160"/>
<path fill-rule="evenodd" clip-rule="evenodd" d="M27.7327 28.4871L28.5046 31.1117L28.5139 31.1857C28.6479 32.2582 28.1394 33.7348 26.7306 34.0915L21.8235 35.3934C20.4889 35.7271 19.2245 34.8753 18.9087 33.533L18.1475 30.9448L27.7327 28.4871ZM20.4527 32.2551L20.6923 33.0699L20.6991 33.1002C20.7959 33.536 21.1183 33.6685 21.372 33.6077L26.2767 32.3065C26.3774 32.2813 26.486 32.2079 26.5758 32.0401C26.6608 31.8815 26.7048 31.6762 26.6922 31.4767L26.4675 30.7128L20.4527 32.2551Z" fill="#222160"/>
<path fill-rule="evenodd" clip-rule="evenodd" d="M49.2885 8.79236C49.5689 9.28303 49.3985 9.90809 48.9078 10.1885L41.9078 14.1885C41.4171 14.4688 40.7921 14.2984 40.5117 13.8077C40.2313 13.317 40.4018 12.692 40.8924 12.4116L47.8924 8.41161C48.3831 8.13123 49.0082 8.3017 49.2885 8.79236Z" fill="#222160"/>
<path fill-rule="evenodd" clip-rule="evenodd" d="M43.3156 1.11612C43.8037 1.40087 43.9686 2.02742 43.6839 2.51556L39.4839 9.71556C39.1991 10.2037 38.5726 10.3686 38.0844 10.0838C37.5963 9.79909 37.4314 9.17254 37.7162 8.68439L41.9162 1.48439C42.2009 0.996249 42.8275 0.831366 43.3156 1.11612Z" fill="#222160"/>
<path fill-rule="evenodd" clip-rule="evenodd" d="M42.077 17.7882C42.0834 17.2231 42.5468 16.7703 43.1119 16.7768L51.8119 16.8768C52.377 16.8833 52.8298 17.3467 52.8233 17.9117C52.8168 18.4768 52.3535 18.9297 51.7884 18.9232L43.0884 18.8232C42.5233 18.8167 42.0705 18.3533 42.077 17.7882Z" fill="#222160"/>
</svg>
