<svg width="64" height="64" viewBox="0 0 64 64" fill="none" xmlns="http://www.w3.org/2000/svg">
<path d="M61.25 23.925C60.25 23.5084 59.1667 22.925 58 22.175C56.8333 21.3417 56 20.5084 55.5 19.675C54.8333 18.675 53.9583 17.8417 52.875 17.175C51.7917 16.5084 50.7917 16.175 49.875 16.175C48.4583 16.175 47.375 16.4667 46.625 17.05C45.875 17.6334 45.2917 18.175 44.875 18.675C44.7917 18.7584 44.75 18.8834 44.75 19.05C44.75 19.1334 44.7917 19.2167 44.875 19.3C44.9583 19.3834 45.0417 19.4667 45.125 19.55C45.2917 19.55 45.4167 19.5084 45.5 19.425C45.75 19.3417 45.9583 19.3 46.125 19.3C46.2917 19.2167 46.5 19.175 46.75 19.175C47.1667 19.175 47.5 19.3 47.75 19.55C48 19.8 48.2083 20.0084 48.375 20.175C48.7083 20.675 48.875 21.2167 48.875 21.8C48.875 22.3834 48.7083 22.925 48.375 23.425C48.2917 23.5917 48.1667 23.7584 48 23.925C47.8333 24.0084 47.6667 24.0917 47.5 24.175C46.75 24.5917 45.7083 24.8 44.375 24.8C43.125 24.8 41.9583 24.5917 40.875 24.175C40.875 24.175 40.8333 24.175 40.75 24.175C39.4167 23.5917 38.25 22.925 37.25 22.175C36.3333 21.425 35.5417 20.5917 34.875 19.675C34.0417 18.5084 33.125 17.6334 32.125 17.05C31.2083 16.4667 30.25 16.175 29.25 16.175C27.9167 16.175 26.875 16.425 26.125 16.925C25.375 17.3417 24.875 17.6334 24.625 17.8C24.4583 17.9667 24.3333 18.1334 24.25 18.3C24.1667 18.3834 24.0833 18.4667 24 18.55C23.9167 18.6334 23.9167 18.7584 24 18.925C24.0833 19.0084 24.1667 19.0917 24.25 19.175C24.25 19.2584 24.3333 19.3 24.5 19.3C24.6667 19.3 24.75 19.2584 24.75 19.175C25 19.0084 25.2083 18.925 25.375 18.925C25.5417 18.8417 25.75 18.8 26 18.8C26.5 18.8 26.875 18.9667 27.125 19.3C27.4583 19.55 27.6667 19.8 27.75 20.05C28 20.6334 28.125 21.2167 28.125 21.8C28.125 22.3834 28 22.925 27.75 23.425C27.6667 23.5917 27.5417 23.7584 27.375 23.925C27.2083 24.0084 27.0417 24.0917 26.875 24.175C26.625 24.425 26.2917 24.5917 25.875 24.675C25.4583 24.7584 25 24.8 24.5 24.8C23.9167 24.8 23.2917 24.7584 22.625 24.675C22.0417 24.5084 21.5 24.3417 21 24.175C21 24.175 20.9583 24.175 20.875 24.175C20.875 24.175 20.875 24.1334 20.875 24.05C20.7917 24.05 20.7083 24.05 20.625 24.05C20.625 23.9667 20.5833 23.925 20.5 23.925C19.25 23.5084 18 22.8834 16.75 22.05C15.5 21.1334 14.5833 20.2167 14 19.3C13.3333 18.4667 12.4583 17.7584 11.375 17.175C10.2917 16.5084 9.29167 16.175 8.375 16.175C6.95833 16.175 5.79167 16.5084 4.875 17.175C3.95833 17.7584 3.41667 18.2584 3.25 18.675C3.25 18.7584 3.25 18.8417 3.25 18.925C3.25 19.0084 3.29167 19.0917 3.375 19.175C3.45833 19.2584 3.54167 19.3 3.625 19.3C3.70833 19.3 3.83333 19.3 4 19.3C4.83333 18.9667 5.58333 18.8834 6.25 19.05C7 19.2167 7.5 19.5917 7.75 20.175C8 20.675 8.08333 21.2167 8 21.8C7.91667 22.3834 7.75 22.925 7.5 23.425C7.33333 23.5917 7.16667 23.7584 7 23.925C6.83333 24.0084 6.66667 24.1334 6.5 24.3C5.91667 24.7167 5.20833 24.9667 4.375 25.05C3.54167 25.1334 2.54167 25.05 1.375 24.8C1.29167 24.8 1.20833 24.8 1.125 24.8C1.04167 24.8 0.958333 24.8417 0.875 24.925C0.875 24.925 0.833333 24.9667 0.75 25.05C0.75 25.1334 0.75 25.2167 0.75 25.3V30.05C0.75 30.2167 0.791667 30.3417 0.875 30.425C0.958333 30.5084 1.08333 30.55 1.25 30.55C1.75 30.7167 2.25 30.925 2.75 31.175C3.33333 31.3417 3.95833 31.5917 4.625 31.925C5.625 32.425 6.58333 32.8834 7.5 33.3C8.5 33.6334 9.54167 33.8 10.625 33.8C11.7083 33.8 12.75 33.6334 13.75 33.3C14.75 32.8834 15.75 32.425 16.75 31.925C17.5 31.5084 18.25 31.175 19 30.925C19.75 30.675 20.4167 30.55 21 30.55C21.5833 30.55 22.25 30.7167 23 31.05C23.8333 31.3834 24.5833 31.7167 25.25 32.05C26.25 32.55 27.2083 33.0084 28.125 33.425C29.125 33.7584 30.2083 33.925 31.375 33.925C31.875 33.925 32.375 33.8834 32.875 33.8C33.375 33.7167 33.9167 33.55 34.5 33.3C34.9167 33.1334 35.2917 32.9667 35.625 32.8C36.0417 32.6334 36.5 32.425 37 32.175L37.625 31.925C38.375 31.5084 39.0833 31.175 39.75 30.925C40.5 30.675 41.2083 30.55 41.875 30.55C42.5417 30.55 43.2083 30.7167 43.875 31.05C44.625 31.3 45.375 31.5917 46.125 31.925C47.125 32.425 48.0833 32.8834 49 33.3C50 33.6334 51.0417 33.8 52.125 33.8C53.2083 33.8 54.25 33.6334 55.25 33.3C56.25 32.8834 57.25 32.425 58.25 31.925C58.6667 31.675 59.125 31.4667 59.625 31.3C60.2083 31.05 60.75 30.8417 61.25 30.675C61.3333 30.675 61.4167 30.6334 61.5 30.55C61.6667 30.4667 61.75 30.3834 61.75 30.3V24.3C61.6667 24.2167 61.5833 24.1334 61.5 24.05C61.4167 23.9667 61.3333 23.925 61.25 23.925ZM60.875 45.05C60.125 45.1334 59.4167 45.3417 58.75 45.675C58.1667 45.925 57.4583 46.2584 56.625 46.675C55.7917 47.0917 55 47.425 54.25 47.675C53.5833 47.925 52.9583 48.05 52.375 48.05C51.7083 48.05 51 47.925 50.25 47.675C49.5833 47.3417 48.8333 47.0084 48 46.675H47.875C46.875 46.2584 45.875 45.8417 44.875 45.425C43.875 45.0084 42.875 44.8 41.875 44.8C40.7083 44.8 39.625 45.0084 38.625 45.425C37.625 45.8417 36.625 46.3 35.625 46.8C34.875 47.2167 34.125 47.55 33.375 47.8C32.625 48.05 31.9583 48.175 31.375 48.175C30.7083 48.175 30 48.05 29.25 47.8C28.5833 47.4667 27.875 47.1334 27.125 46.8L26.875 47.3V46.675C25.9583 46.2584 25 45.8417 24 45.425C23 45.0084 21.9583 44.8 20.875 44.8C19.7083 44.8 18.625 45.0084 17.625 45.425C16.625 45.8417 15.625 46.2584 14.625 46.675L14.5 46.55C13.75 46.8834 13 47.2167 12.25 47.55C11.5 47.8834 10.8333 48.05 10.25 48.05C9.58333 48.05 8.875 47.8834 8.125 47.55C7.375 47.2167 6.58333 46.8834 5.75 46.55C5.08333 46.2167 4.375 45.8834 3.625 45.55C2.875 45.2167 2.125 44.9667 1.375 44.8C1.29167 44.8 1.20833 44.8417 1.125 44.925C1.04167 44.925 0.958333 44.9667 0.875 45.05C0.875 45.05 0.833333 45.0917 0.75 45.175C0.75 45.175 0.75 45.2167 0.75 45.3V48.55C0.75 48.6334 0.791667 48.7167 0.875 48.8C0.958333 48.8834 1.04167 48.925 1.125 48.925C1.54167 49.0917 1.95833 49.3 2.375 49.55C2.875 49.7167 3.41667 49.925 4 50.175C5 50.5917 6 51.0084 7 51.425C8 51.8417 9 52.05 10 52.05C11.1667 52.05 12.25 51.8417 13.25 51.425C14.25 51.0084 15.25 50.5917 16.25 50.175C17 49.8417 17.75 49.5084 18.5 49.175C19.25 48.8417 20 48.675 20.75 48.675C21.4167 48.675 22.125 48.8417 22.875 49.175C23.625 49.425 24.375 49.7584 25.125 50.175C26.125 50.5917 27.125 51.0084 28.125 51.425C29.125 51.8417 30.2083 52.05 31.375 52.05C32.4583 52.05 33.5 51.8417 34.5 51.425C35.5833 51.0084 36.625 50.5917 37.625 50.175C38.2917 49.8417 39 49.5084 39.75 49.175C40.5833 48.8417 41.3333 48.675 42 48.675C42.6667 48.675 43.375 48.8417 44.125 49.175C44.875 49.425 45.625 49.7584 46.375 50.175C47.375 50.5917 48.375 51.0084 49.375 51.425C50.375 51.8417 51.4583 52.05 52.625 52.05C53.7917 52.05 54.875 51.8417 55.875 51.425C56.875 51.0084 57.875 50.5917 58.875 50.175C59.2917 49.925 59.7083 49.7167 60.125 49.55C60.625 49.3834 61.0833 49.2167 61.5 49.05C61.5 49.05 61.5417 49.0084 61.625 48.925C61.7083 48.8417 61.75 48.7584 61.75 48.675V45.3C61.75 45.2167 61.75 45.1334 61.75 45.05C61.75 44.9667 61.7083 44.8834 61.625 44.8C61.4583 44.8834 61.2917 44.925 61.125 44.925C61.0417 44.925 60.9583 44.9667 60.875 45.05ZM60.875 35.3C60.125 35.4667 59.4167 35.7167 58.75 36.05C58.0833 36.3 57.4167 36.5917 56.75 36.925H56.625C55.7917 37.3417 55 37.675 54.25 37.925C53.5833 38.175 52.9583 38.3 52.375 38.3C51.7083 38.3 51 38.175 50.25 37.925C49.5833 37.5917 48.8333 37.2584 48 36.925L47.875 36.8C46.9583 36.3 46 35.8834 45 35.55C44 35.1334 42.9583 34.925 41.875 34.925C40.7917 34.925 39.7083 35.1334 38.625 35.55C37.625 35.8834 36.625 36.3 35.625 36.8H35.5C34.6667 37.2167 33.875 37.55 33.125 37.8C32.4583 38.05 31.8333 38.175 31.25 38.175C30.5833 38.175 29.875 38.05 29.125 37.8C28.4583 37.4667 27.7083 37.1334 26.875 36.8L26.625 36.675C25.7083 36.175 24.75 35.7584 23.75 35.425C22.75 35.0084 21.6667 34.8 20.5 34.8C19.4167 34.8 18.3333 35.0084 17.25 35.425C16.25 35.7584 15.2917 36.175 14.375 36.675H14.125C13.375 37.0084 12.625 37.3417 11.875 37.675C11.2083 37.925 10.5417 38.05 9.875 38.05C9.29167 38.05 8.625 37.8834 7.875 37.55C7.125 37.2167 6.375 36.925 5.625 36.675L5.375 36.55C4.70833 36.2167 4 35.8834 3.25 35.55C2.58333 35.2167 1.875 34.9667 1.125 34.8C1.04167 34.8 0.958333 34.8 0.875 34.8C0.791667 34.8 0.708333 34.8417 0.625 34.925C0.541667 35.0084 0.541667 35.175 0.625 35.425C0.708333 35.5917 0.75 35.675 0.75 35.675V39.05C0.75 39.2167 0.791667 39.3417 0.875 39.425C0.958333 39.5084 1.04167 39.55 1.125 39.55C1.54167 39.7167 1.95833 39.925 2.375 40.175C2.875 40.3417 3.41667 40.55 4 40.8C5 41.2167 6 41.6334 7 42.05C8 42.3834 9 42.55 10 42.55C11.1667 42.55 12.25 42.3834 13.25 42.05C14.25 41.6334 15.25 41.2167 16.25 40.8C17 40.4667 17.75 40.1334 18.5 39.8C19.25 39.3834 20 39.175 20.75 39.175C21.4167 39.175 22.125 39.3417 22.875 39.675C23.625 40.0084 24.375 40.3834 25.125 40.8C26.125 41.2167 27.125 41.6334 28.125 42.05C29.125 42.3834 30.2083 42.55 31.375 42.55C32.375 42.55 33.4167 42.3834 34.5 42.05C35.5833 41.6334 36.625 41.2167 37.625 40.8C38.2917 40.4667 39 40.1334 39.75 39.8C40.5833 39.3834 41.3333 39.175 42 39.175C42.6667 39.175 43.375 39.3417 44.125 39.675C44.875 40.0084 45.625 40.3834 46.375 40.8C47.375 41.2167 48.375 41.6334 49.375 42.05C50.375 42.3834 51.4583 42.55 52.625 42.55C53.7917 42.55 54.875 42.3834 55.875 42.05C56.875 41.6334 57.875 41.2167 58.875 40.8C59.2917 40.55 59.7083 40.3417 60.125 40.175C60.5417 40.0084 61 39.8417 61.5 39.675C61.5 39.675 61.5417 39.6334 61.625 39.55C61.7083 39.3834 61.75 39.2584 61.75 39.175V35.925C61.75 35.8417 61.75 35.7584 61.75 35.675C61.75 35.5917 61.7083 35.5084 61.625 35.425C61.4583 35.3417 61.2917 35.3 61.125 35.3C61.0417 35.3 60.9583 35.3 60.875 35.3Z" fill="#000667"/>
</svg>
