<svg width="64" height="64" viewBox="0 0 64 64" fill="none" xmlns="http://www.w3.org/2000/svg">
<path d="M62.5 49.0499C61.0833 49.0499 59.9583 49.2166 59.125 49.5499C58.2917 49.8833 57.5417 50.2583 56.875 50.6749C56.2917 51.0083 55.6667 51.3416 55 51.6749C54.3333 51.9249 53.4167 52.0499 52.25 52.0499C51.0833 52.0499 50.1667 51.9249 49.5 51.6749C48.9167 51.3416 48.2917 51.0083 47.625 50.6749C47.5417 50.5916 47.4167 50.5499 47.25 50.5499C47.0833 50.4666 46.9583 50.3833 46.875 50.2999V42.7999L43.875 40.0499C44.0417 40.0499 44.1667 40.0083 44.25 39.9249C44.3333 39.7583 44.4167 39.5916 44.5 39.4249C44.75 39.0083 44.875 38.5916 44.875 38.1749C44.875 37.7583 44.75 37.3416 44.5 36.9249C44.5 36.9249 44.375 36.7999 44.125 36.5499C43.875 36.2166 43.4167 35.7166 42.75 35.0499L42.875 32.6749C42.9583 32.4249 43.0417 32.1749 43.125 31.9249C43.2083 31.6749 43.2917 31.4666 43.375 31.2999C43.875 31.2999 44.4583 31.3416 45.125 31.4249C45.875 31.4249 46.4583 31.4249 46.875 31.4249C47.4583 31.8416 48.1667 32.2999 49 32.7999C49.8333 33.2999 50.4167 33.5916 50.75 33.6749C51 33.7583 51.2083 33.8416 51.375 33.9249C51.625 34.0083 51.8333 34.0499 52 34.0499C52.5833 34.0499 53.25 33.8833 54 33.5499C54.75 33.1333 55.2917 32.5916 55.625 31.9249C55.875 31.5083 55.9167 31.0083 55.75 30.4249C55.5833 29.7583 55.0417 28.8416 54.125 27.6749C54.125 27.3416 54.0833 26.9666 54 26.5499C53.9167 26.1333 53.8333 25.7999 53.75 25.5499C53.6667 25.2999 53.5 25.0083 53.25 24.6749C53.0833 24.3416 52.9167 24.0083 52.75 23.6749V23.4249C52.75 23.0916 52.7083 22.7583 52.625 22.4249C52.625 22.0083 52.5 21.5916 52.25 21.1749C52.0833 20.8416 51.7917 20.5916 51.375 20.4249C51.0417 20.2583 50.6667 20.1333 50.25 20.0499C50.1667 20.0499 50.0833 20.0499 50 20.0499C50 20.0499 49.9583 20.0499 49.875 20.0499C49.5417 20.0499 49.25 20.0916 49 20.1749C48.8333 20.1749 48.6667 20.2583 48.5 20.4249L46.5 19.9249C45.75 19.5083 44.2083 18.6333 41.875 17.2999C39.5417 15.9666 37.7083 15.1333 36.375 14.7999C35.125 14.4666 33.2917 14.2166 30.875 14.0499C28.5417 13.8833 26.4583 13.7999 24.625 13.7999C20.9583 13.8833 18.4167 14.4666 17 15.5499C15.6667 16.5499 14.7083 17.5083 14.125 18.4249C13.375 19.5916 12.9167 21.2583 12.75 23.4249C12.6667 25.5083 12.9583 27.3416 13.625 28.9249C13.7917 29.5083 14.25 30.4249 15 31.6749C15.75 32.9249 16.5417 34.2999 17.375 35.7999C17.9583 36.7999 18.2083 37.9666 18.125 39.2999C18.125 40.6333 18.5833 41.5916 19.5 42.1749L18.75 49.4249C18.1667 49.5916 17.6667 49.7999 17.25 50.0499C16.8333 50.2999 16.4583 50.5083 16.125 50.6749C15.5417 51.0083 14.9167 51.3416 14.25 51.6749C13.5833 51.9249 12.6667 52.0499 11.5 52.0499C10.4167 52.0499 9.54167 51.9249 8.875 51.6749C8.20833 51.3416 7.54167 51.0083 6.875 50.6749C6.29167 50.2583 5.58333 49.8833 4.75 49.5499C3.91667 49.2166 2.79167 49.0499 1.375 49.0499C1.125 49.0499 0.875 49.2166 0.625 49.5499C0.458333 49.7999 0.375 50.0499 0.375 50.2999C0.375 50.5499 0.458333 50.8416 0.625 51.1749C0.791667 51.4249 1 51.5499 1.25 51.5499C2.41667 51.5499 3.29167 51.7166 3.875 52.0499C4.54167 52.2999 5.20833 52.5916 5.875 52.9249C6.54167 53.2583 7.29167 53.6333 8.125 54.0499C9.04167 54.3833 10.2083 54.5499 11.625 54.5499C13.125 54.5499 14.25 54.3833 15 54.0499C15.8333 53.6333 16.5833 53.2583 17.25 52.9249C17.8333 52.5916 18.4583 52.2999 19.125 52.0499C19.7917 51.7166 20.7083 51.5499 21.875 51.5499C23.0417 51.5499 23.9583 51.7166 24.625 52.0499C25.2917 52.2999 25.9167 52.5916 26.5 52.9249C27.1667 53.2583 27.875 53.6333 28.625 54.0499C29.4583 54.3833 30.5833 54.5499 32 54.5499C33.5 54.5499 34.625 54.3833 35.375 54.0499C36.2083 53.6333 36.9583 53.2583 37.625 52.9249C38.2083 52.5916 38.8333 52.2999 39.5 52.0499C40.1667 51.7166 41.0833 51.5499 42.25 51.5499C43.4167 51.5499 44.2917 51.7166 44.875 52.0499C45.5417 52.2999 46.2083 52.5916 46.875 52.9249C47.5417 53.2583 48.25 53.6333 49 54.0499C49.8333 54.3833 50.9583 54.5499 52.375 54.5499C53.7917 54.5499 54.9167 54.3833 55.75 54.0499C56.5833 53.6333 57.3333 53.2583 58 52.9249C58.5833 52.5916 59.2083 52.2999 59.875 52.0499C60.5417 51.7166 61.4583 51.5499 62.625 51.5499C62.875 51.5499 63.0417 51.3833 63.125 51.0499C63.2083 50.7166 63.25 50.4666 63.25 50.2999C63.25 50.0499 63.1667 49.7999 63 49.5499C62.9167 49.2166 62.75 49.0499 62.5 49.0499ZM44.625 49.2999C44.2917 49.2166 43.9167 49.1749 43.5 49.1749C43.0833 49.0916 42.6667 49.0499 42.25 49.0499C41.5833 49.0499 40.9583 49.1333 40.375 49.2999C39.875 49.3833 39.4167 49.5083 39 49.6749C38.5 49.7583 38.0417 49.9249 37.625 50.1749C37.2917 50.3416 36.9583 50.5083 36.625 50.6749C36.2917 50.9249 35.9583 51.1333 35.625 51.2999C35.375 51.3833 35.0833 51.5083 34.75 51.6749C34.4167 51.7583 34.0417 51.8416 33.625 51.9249C33.2083 52.0083 32.7083 52.0499 32.125 52.0499C31.0417 52.0499 30.1667 51.9249 29.5 51.6749C28.8333 51.3416 28.2083 51.0083 27.625 50.6749C26.875 50.2583 26.0833 49.8833 25.25 49.5499C24.5 49.2166 23.4167 49.0499 22 49.0499C21.9167 49.0499 21.8333 49.0499 21.75 49.0499C21.6667 49.0499 21.5833 49.0499 21.5 49.0499C21.3333 49.0499 21.3333 48.1333 21.5 46.2999C21.75 44.3833 21.875 43.4249 21.875 43.4249L41.875 41.2999L44.875 43.7999C44.7917 43.7999 44.75 44.7166 44.75 46.5499C44.75 48.3833 44.7083 49.2999 44.625 49.2999ZM26.75 37.6749L27.25 35.2999L28.875 34.9249L30.375 39.0499C30.375 39.0499 30.4583 39.2166 30.625 39.5499C30.7917 39.7999 31.0833 40.0916 31.5 40.4249L28.25 40.6749C28.3333 40.5083 28.375 40.3833 28.375 40.2999C28.375 40.2166 28.375 40.0916 28.375 39.9249C28.375 39.6749 28.2083 39.2999 27.875 38.7999C27.5417 38.2166 27.1667 37.8416 26.75 37.6749ZM18.875 33.7999C18.375 33.1333 17.875 32.3416 17.375 31.4249C16.9583 30.5083 16.5833 29.6749 16.25 28.9249C14.9167 24.5083 15.125 21.3833 16.875 19.5499C18.625 17.7166 20.875 16.6749 23.625 16.4249C25.4583 16.4249 27.5833 16.4249 30 16.4249C32.5 16.4249 34.4167 16.5916 35.75 16.9249C36.9167 17.2583 38.7917 18.1333 41.375 19.5499C43.9583 20.9666 45.25 21.6749 45.25 21.6749L48.375 22.5499C48.375 22.5499 48.4583 22.4666 48.625 22.2999C48.875 22.0499 49.125 21.9666 49.375 22.0499C49.7083 22.1333 49.9583 22.2583 50.125 22.4249C50.2917 22.5916 50.3333 22.7999 50.25 23.0499C50.1667 23.2166 50.0833 23.4666 50 23.7999C50 24.0499 50 24.1749 50 24.1749C50 24.1749 50.2083 24.4249 50.625 24.9249C51.0417 25.3416 51.2917 25.6749 51.375 25.9249C51.375 26.3416 51.4167 26.8416 51.5 27.4249C51.6667 27.9249 51.75 28.1749 51.75 28.1749C51.75 28.1749 52 28.5499 52.5 29.2999C53.0833 30.0499 53.3333 30.5499 53.25 30.7999C53.1667 30.9666 52.875 31.1749 52.375 31.4249C51.875 31.6749 51.4167 31.7166 51 31.5499C50.6667 31.3833 49.9167 30.9249 48.75 30.1749C47.6667 29.4249 47.125 29.0499 47.125 29.0499C47.125 29.0499 46.3333 29.0499 44.75 29.0499C43.1667 28.9666 42.25 28.9249 42 28.9249C41.6667 29.0083 41.375 29.5499 41.125 30.5499C40.875 31.4666 40.75 31.9249 40.75 31.9249L40.5 35.5499C40.5 35.5499 40.7917 35.8416 41.375 36.4249C41.9583 36.9249 42.3333 37.2999 42.5 37.5499C42.6667 37.7999 42.625 38.0499 42.375 38.2999C42.2083 38.4666 42 38.5916 41.75 38.6749C41.4167 38.6749 40.7917 38.5499 39.875 38.2999C39.0417 37.9666 38.4167 37.7166 38 37.5499C37.5833 37.2999 37.2917 37.0083 37.125 36.6749C37.0417 36.2583 37 36.0499 37 36.0499L36.25 32.1749L35.125 35.0499L36.125 37.5499C36.125 37.5499 36.2083 37.5916 36.375 37.6749C36.5417 37.7583 36.9167 37.8833 37.5 38.0499C38.3333 38.2999 38.5 38.6333 38 39.0499C37.5833 39.3833 37.25 39.5916 37 39.6749C36.6667 39.8416 36.1667 39.8833 35.5 39.7999C34.8333 39.7166 34.3333 39.6749 34 39.6749C33.6667 39.5916 33.2917 39.4249 32.875 39.1749C32.5417 38.8416 32.2917 38.5083 32.125 38.1749C32.0417 37.9249 31.625 36.9666 30.875 35.2999C30.125 33.5499 29.75 32.6749 29.75 32.6749L24.875 34.1749L24 37.7999C24 37.7999 24.25 37.9249 24.75 38.1749C25.25 38.4249 25.75 38.7166 26.25 39.0499C26.6667 39.3833 26.75 39.6749 26.5 39.9249C26.25 40.1749 26.125 40.2999 26.125 40.2999L22.25 40.4249C22.25 40.4249 21.9583 40.4249 21.375 40.4249C20.875 40.3416 20.5833 40.0083 20.5 39.4249C20.3333 38.9249 20.125 38.0499 19.875 36.7999C19.7083 35.5499 19.375 34.5499 18.875 33.7999Z" fill="#000667"/>
</svg>
