<svg width="65" height="64" viewBox="0 0 65 64" fill="none" xmlns="http://www.w3.org/2000/svg">
<path fill-rule="evenodd" clip-rule="evenodd" d="M54.9737 25.1523C55.6257 24.7584 56.5 25.2206 56.5 26.0215V53.9902C56.4999 54.5478 56.048 54.9999 55.4903 55H9.50979C8.98717 54.9998 8.55682 54.6027 8.50491 54.0938L8.50002 53.9902V50.0039L8.50491 49.9043C8.52787 49.673 8.63029 49.4557 8.79592 49.29L20.7871 37.2988L20.8526 37.2393C21.1649 36.9769 21.606 36.9278 21.9678 37.1162L22.044 37.1611L32.4229 43.7656L54.8467 25.2422L54.9737 25.1523ZM10.5 50.4141V53H20.5V40.4131L10.5 50.4141ZM22.5 53H31.5V45.5488L22.5 39.8203V53ZM33.5 45.4707V53H42.5V38.0352L33.5 45.4707ZM44.5 36.3828V53H54.5V28.1221L44.5 36.3828Z" fill="#000667"/>
<path fill-rule="evenodd" clip-rule="evenodd" d="M55.5938 9.00488C56.1028 9.0568 56.4999 9.48712 56.5 10.0098V18.9756C56.5 19.8754 55.4117 20.3267 54.7754 19.6904L50.9883 15.9033L33.1699 31.7422C32.8327 32.0419 32.3376 32.0818 31.9571 31.8398L21.6094 25.2549L10.1758 35.7373C9.76868 36.1104 9.13587 36.0829 8.76272 35.6758C8.38966 35.2687 8.41723 34.6359 8.82424 34.2627L20.8184 23.2676C21.1551 22.959 21.6575 22.9152 22.043 23.1602L32.3994 29.751L49.5713 14.4863L45.8096 10.7246C45.1735 10.0884 45.6247 9.00011 46.5244 9H55.4903L55.5938 9.00488ZM54.5 16.585V11H48.9151L54.5 16.585Z" fill="#000667"/>
</svg>
