<svg width="60" height="60" viewBox="0 0 60 60" fill="none" xmlns="http://www.w3.org/2000/svg">
<g clip-path="url(#clip0_15239_41247)">
<path d="M6.17302 36.0343H17.9294C18.2793 36.0343 18.5541 36.3092 18.5541 36.659V43.4306C18.5541 43.7804 18.2793 44.0552 17.9294 44.0552H6.17302C5.8232 44.0552 5.54834 43.7804 5.54834 43.4306V36.659C5.54834 36.3092 5.83569 36.0343 6.17302 36.0343Z" stroke="#21255A" stroke-width="1.87404" stroke-miterlimit="10"/>
<path d="M50.9249 38.5956H52.0618C52.2242 38.5956 52.3491 38.7205 52.3491 38.8829V43.7929C52.3491 43.9553 52.2242 44.0803 52.0618 44.0803H50.9249C50.7624 44.0803 50.6375 43.9553 50.6375 43.7929V38.8829C50.625 38.7205 50.7624 38.5956 50.9249 38.5956Z" stroke="#21255A" stroke-width="1.3743" stroke-miterlimit="10"/>
<path d="M2 44.0801C5.01096 54 5.01096 54 5.01096 54H52.6865L58.9707 44.0801H2Z" stroke="#21255A" stroke-width="1.87404" stroke-miterlimit="10"/>
<path d="M8.95898 33.0359H10.4332V35.9969H8.95898V33.0359Z" stroke="#21255A" stroke-width="1.3743" stroke-miterlimit="10"/>
<path fill-rule="evenodd" clip-rule="evenodd" d="M40.0556 12.359C37.6318 12.359 35.8078 14.2455 35.6953 16.6818C35.6953 16.6943 35.6953 16.7068 35.6953 16.7193C35.6953 19.218 37.6693 21.0795 40.0556 21.0795C42.4419 21.0795 44.4158 19.218 44.4158 16.7193C44.4158 14.2455 42.4793 12.3965 40.118 12.359H40.0556ZM37.4444 16.7318C37.4569 18.231 38.6188 19.3304 40.0556 19.3304C41.5048 19.3304 42.6667 18.231 42.6667 16.7193C42.6667 15.2075 41.5048 14.1081 40.0556 14.1081C38.6438 14.0956 37.5194 15.1701 37.4444 16.7318Z" fill="#21255A"/>
<path fill-rule="evenodd" clip-rule="evenodd" d="M40.1431 35.4597C39.3935 35.9719 39.3935 35.9719 39.3935 35.9719L39.0936 35.5347C38.9062 35.2598 38.6314 34.86 38.294 34.3728C37.6319 33.3983 36.7198 32.0739 35.7703 30.6871C33.8838 27.9136 31.7974 24.8526 31.0977 23.7532C29.5985 21.4044 29.2112 19.5678 29.2112 17.0691C29.2112 11.0847 34.0587 6.13722 40.1431 6.13722C46.14 6.13722 50.9875 10.9847 50.9875 16.9817C50.9875 19.4804 50.6002 21.3045 49.101 23.6532C48.5138 24.5903 46.8521 27.064 45.153 29.5877C45.0281 29.7626 44.9156 29.9375 44.7907 30.1124C43.1915 32.4862 41.6173 34.81 40.8927 35.9345C40.7303 36.1968 40.4429 36.3467 40.1431 36.3467C39.8432 36.3467 39.5559 36.1968 39.381 35.9469L40.1431 35.4597ZM40.1431 7.9488C35.0707 7.9488 31.0352 12.0717 31.0352 17.0566C31.0352 19.268 31.3476 20.7422 32.6344 22.7537C33.3216 23.8282 35.383 26.8641 37.282 29.6502C38.2316 31.037 39.1311 32.3613 39.8058 33.3358C39.9182 33.5107 40.0306 33.6731 40.1306 33.8105C40.9552 32.5612 42.1171 30.8371 43.2915 29.1005C43.4164 28.9255 43.5288 28.7381 43.6538 28.5632C45.3654 26.0145 47.0146 23.5783 47.5643 22.6787L47.5768 22.6663C48.8636 20.6548 49.1759 19.1805 49.1759 16.9692C49.1635 11.9842 45.128 7.9488 40.1431 7.9488Z" fill="#21255A"/>
</g>
<defs>
<clipPath id="clip0_15239_41247">
<rect width="60" height="60" fill="white"/>
</clipPath>
</defs>
</svg>
