<svg width="65" height="64" viewBox="0 0 65 64" fill="none" xmlns="http://www.w3.org/2000/svg">
<path fill-rule="evenodd" clip-rule="evenodd" d="M33.5 6.53027L39.1406 11.2314C39.464 11.501 39.5837 11.945 39.4404 12.3408C39.297 12.7365 38.9209 13 38.5 13H37.5V15H39.5V21H37.6699L43.3545 57H47.5V59H17.5V57H21.6455L27.3301 21H25.5V15H27.5V13H26.5C26.0791 13 25.703 12.7365 25.5596 12.3408C25.4163 11.945 25.536 11.501 25.8594 11.2314L31.5 6.53027V5H33.5V6.53027ZM23.6699 57H41.3301L39.5928 46H25.4072L23.6699 57ZM25.7227 44H39.2773L38.6455 40H26.3545L25.7227 44ZM26.6699 38H38.3301L37.6982 34H27.3018L26.6699 38ZM27.6172 32H37.3828L35.6455 21H29.3545L27.6172 32ZM27.5 19H37.5V17H27.5V19ZM29.5 15H35.5V13H29.5V15ZM29.2627 11H35.7373L32.5 8.30176L29.2627 11Z" fill="#000667"/>
<path d="M51.5 29H49.5V27H51.5V29Z" fill="#000667"/>
<path d="M51.5 25.5H49.5V21H51.5V25.5Z" fill="#000667"/>
<path fill-rule="evenodd" clip-rule="evenodd" d="M50.5 17C54.9183 17 58.5 20.5817 58.5 25C58.5 29.4183 54.9183 33 50.5 33C46.0817 33 42.5 29.4183 42.5 25C42.5 20.5817 46.0817 17 50.5 17ZM50.5 19C47.1863 19 44.5 21.6863 44.5 25C44.5 28.3137 47.1863 31 50.5 31C53.8137 31 56.5 28.3137 56.5 25C56.5 21.6863 53.8137 19 50.5 19Z" fill="#000667"/>
</svg>
