<svg width="65" height="64" viewBox="0 0 65 64" fill="none" xmlns="http://www.w3.org/2000/svg">
<path d="M34.445 45C34.9985 45.0003 35.4476 45.4479 35.4476 46C35.4476 46.5521 34.9985 46.9997 34.445 47H32.9411C32.3874 47 31.9385 46.5523 31.9385 46C31.9385 45.4477 32.3874 45 32.9411 45H34.445Z" fill="#000667"/>
<path d="M39.4581 45C40.0116 45.0003 40.4607 45.4479 40.4607 46C40.4607 46.5521 40.0116 46.9997 39.4581 47H37.9542C37.4005 47 36.9516 46.5523 36.9516 46C36.9516 45.4477 37.4005 45 37.9542 45H39.4581Z" fill="#000667"/>
<path d="M44.4712 45C45.0247 45.0003 45.4738 45.4479 45.4738 46C45.4738 46.5521 45.0247 46.9997 44.4712 47H42.9673C42.4135 47 41.9647 46.5523 41.9647 46C41.9647 45.4477 42.4135 45 42.9673 45H44.4712Z" fill="#000667"/>
<path fill-rule="evenodd" clip-rule="evenodd" d="M45.4738 36C45.9164 36.0002 46.3071 36.29 46.4343 36.7129L47.7238 41H49.4833C49.8728 41 50.2272 41.2252 50.3919 41.5771L53.6309 48.5H54.4974C55.0509 48.5002 55.5 48.9478 55.5 49.5V52.5C55.5 52.674 55.4543 52.845 55.3678 52.9961L53.3626 56.4961C53.1841 56.8076 52.8518 56.9999 52.4921 57H27.928C27.6485 57 27.3815 56.8834 27.1917 56.6787L21.176 50.1787C20.9059 49.8868 20.8342 49.4625 20.9939 49.0986C21.1537 48.735 21.5142 48.5 21.9123 48.5H24.4365L30.1516 41.375L30.228 41.291C30.4146 41.1059 30.6686 41.0001 30.9349 41H33.3758L36.0919 36.4854L36.1663 36.3779C36.355 36.1411 36.6435 36 36.9516 36H45.4738ZM28.3666 55H51.9105L53.4948 52.2344V50.5H24.2025L28.3666 55ZM27.0057 48.5H51.4181L48.8449 43H31.4176L27.0057 48.5ZM35.7149 41H45.6305L44.7277 38H37.5195L35.7149 41Z" fill="#000667"/>
<path fill-rule="evenodd" clip-rule="evenodd" d="M17.7285 9.93066C20.0957 9.93093 22.0156 11.8451 22.0161 14.2061C22.0161 16.5674 20.096 18.4822 17.7285 18.4824C15.3611 18.4822 13.4419 16.5674 13.4419 14.2061C13.4424 11.8451 15.3613 9.93092 17.7285 9.93066ZM17.7285 11.9307C16.4688 11.9309 15.4476 12.9497 15.4472 14.2061C15.4472 15.4628 16.4685 16.4822 17.7285 16.4824C18.9885 16.4822 20.0108 15.4628 20.0108 14.2061C20.0104 12.9497 18.9882 11.9309 17.7285 11.9307Z" fill="#000667"/>
<path fill-rule="evenodd" clip-rule="evenodd" d="M17.7285 6C22.2729 6.00007 25.957 9.67453 25.957 14.207L25.9512 14.5098C25.8318 17.6378 23.8935 20.6931 22.1218 22.8818C21.4652 23.6931 20.808 24.4098 20.2341 25H30.9359C33.7043 25.0003 35.9489 27.2387 35.9489 30C35.9489 32.7613 33.7043 34.9997 30.9359 35H17.9018C16.2406 35 14.894 36.3431 14.894 38C14.894 39.6569 16.2406 41 17.9018 41H26.9254C27.4789 41.0003 27.928 41.4479 27.928 42C27.928 42.5521 27.4789 42.9997 26.9254 43H17.9018C15.1332 43 12.8887 40.7614 12.8887 38C12.8887 35.2386 15.1332 33 17.9018 33H30.9359C32.5968 32.9997 33.9437 31.6567 33.9437 30C33.9437 28.3433 32.5968 27.0003 30.9359 27H17.9018C17.8656 27 17.8294 26.9979 17.7941 26.9941C17.5432 27.0105 17.2876 26.9369 17.0833 26.7656L17.1606 26.6729L17.1596 26.6719L17.0823 26.7646L17.0803 26.7637C17.0803 26.7637 17.0775 26.7605 17.0754 26.7588C17.0711 26.7551 17.0646 26.7497 17.0568 26.7432C17.0413 26.7299 17.0186 26.7111 16.9903 26.6865C16.9333 26.6373 16.8516 26.565 16.7484 26.4727C16.542 26.2878 16.249 26.019 15.8995 25.6797C15.2019 25.0023 14.2697 24.0363 13.3352 22.8818C11.5635 20.6931 9.62527 17.6379 9.50587 14.5098L9.5 14.207C9.5 9.67449 13.1841 6 17.7285 6ZM17.7285 8C14.2916 8 11.5052 10.7791 11.5052 14.207L11.5101 14.4414C11.6059 16.8755 13.1675 19.4897 14.8959 21.625C15.7676 22.7018 16.6416 23.6091 17.2987 24.2471C17.4553 24.3992 17.5993 24.5358 17.7275 24.6553C17.856 24.5356 18.0013 24.3995 18.1584 24.2471C18.8154 23.6091 19.6895 22.7018 20.5611 21.625C22.2895 19.4897 23.8512 16.8755 23.9469 14.4414L23.9518 14.207C23.9518 10.7791 21.1654 8.00007 17.7285 8Z" fill="#000667"/>
</svg>
