<svg width="60" height="60" viewBox="0 0 60 60" fill="none" xmlns="http://www.w3.org/2000/svg">
<path fill-rule="evenodd" clip-rule="evenodd" d="M8.36304 8.93173C8.36304 6.64458 10.1216 5.04381 12.2539 5.04381C14.3862 5.04381 16.1448 6.64458 16.1448 8.93173C16.1448 11.2189 14.3862 12.8196 12.2539 12.8196C10.1216 12.8196 8.36304 11.2189 8.36304 8.93173ZM12.2539 7.14538C11.2315 7.14538 10.4662 7.85635 10.4662 8.93173C10.4662 10.0071 11.2315 10.7181 12.2539 10.7181C13.2763 10.7181 14.0416 10.0071 14.0416 8.93173C14.0416 7.85635 13.2763 7.14538 12.2539 7.14538Z" fill="#21255A"/>
<path fill-rule="evenodd" clip-rule="evenodd" d="M12.254 24.2732L11.3893 24.8712C11.5836 25.1516 11.9019 25.3207 12.2433 25.324C12.5846 25.3272 12.9067 25.1651 13.1063 24.8884C13.8018 23.9263 15.2592 21.7813 16.6608 19.7133C16.8157 19.4852 16.9697 19.2578 17.1221 19.0328C18.361 17.2042 19.4857 15.5439 19.945 14.9014C19.9631 14.876 19.9799 14.8502 19.9954 14.8235C21.1461 12.8693 21.5079 11.4232 21.5079 9.24693C21.5079 4.14819 17.3566 -3.8147e-06 12.254 -3.8147e-06C7.15131 -3.8147e-06 3 4.14819 3 9.24693C3 11.3115 3.35984 12.8771 4.62873 14.8432C5.18944 15.7898 6.88512 18.3034 8.41444 20.5442C9.19122 21.682 9.93472 22.7635 10.4843 23.5607C10.7587 23.9592 10.9851 24.2868 11.1428 24.5146L11.3893 24.8712C11.3893 24.8712 11.3893 24.8712 12.254 24.2732ZM12.254 2.10157C8.31298 2.10157 5.10317 5.30889 5.10317 9.24693C5.10317 10.9586 5.37182 12.1218 6.40656 13.7197C6.41479 13.7324 6.42259 13.7452 6.43039 13.758C6.9336 14.6129 8.58985 17.0712 10.152 19.3595C10.9263 20.494 11.6682 21.5732 12.2162 22.3686C12.2314 22.3904 12.2462 22.4121 12.261 22.4335C12.9942 21.3725 13.962 19.9473 14.9191 18.5354C15.0756 18.3046 15.2316 18.0744 15.3861 17.8457C16.593 16.0648 17.7144 14.4098 18.2057 13.719C19.1398 12.1222 19.4048 11.0492 19.4048 9.24693C19.4048 5.30889 16.195 2.10157 12.254 2.10157Z" fill="#21255A"/>
<path fill-rule="evenodd" clip-rule="evenodd" d="M33.252 36.9303C33.5941 36.4172 34.0957 36.042 34.7578 36.042H43.9066C44.4189 36.042 44.8292 36.2924 45.097 36.5601C45.3629 36.8256 45.5547 37.1684 45.6536 37.5377L46.9074 41.5049C47.0823 42.0586 46.7751 42.6484 46.2214 42.8233C45.6676 42.9981 45.077 42.6911 44.902 42.1379L43.6401 38.1449C43.6401 38.1444 43.6396 38.144 43.6396 38.1436H34.9772L32.6197 42.24C32.3301 42.7432 31.6877 42.9165 31.1841 42.6275C30.6805 42.3381 30.5071 41.6958 30.7967 41.1926L33.2154 36.9894C33.2268 36.9692 33.2392 36.9496 33.252 36.9303Z" fill="#21255A"/>
<path fill-rule="evenodd" clip-rule="evenodd" d="M48.6719 43.7149C48.6719 43.7149 48.671 43.7149 48.6693 43.7145L48.6719 43.7149ZM28.7315 43.7054C28.7311 43.7054 28.7307 43.7054 28.7295 43.7059L28.7315 43.7054ZM27.5936 41.9142C27.7703 41.8242 28.1877 41.6112 28.6588 41.6112H48.639C49.0876 41.6112 49.9978 41.7643 50.3461 42.6756L53.7942 49.8792C54.0447 50.4029 53.823 51.0301 53.2992 51.2805C52.7751 51.5309 52.1474 51.3097 51.8968 50.7859L48.5112 43.7128H28.7093C28.7064 43.7141 28.7032 43.7152 28.6995 43.7165L22.7518 51.1968C22.3908 51.6512 21.7294 51.7267 21.2747 51.3655C20.8195 51.0047 20.7439 50.3434 21.1055 49.889L27.2047 42.2183C27.2999 42.0985 27.4203 42.0007 27.5575 41.9322C27.5682 41.9269 27.5801 41.9207 27.5936 41.9142Z" fill="#21255A"/>
<path fill-rule="evenodd" clip-rule="evenodd" d="M28.9741 47.0753C28.9741 46.495 29.4449 46.0245 30.0257 46.0245H31.7082C32.289 46.0245 32.7598 46.495 32.7598 47.0753C32.7598 47.6557 32.289 48.1261 31.7082 48.1261H30.0257C29.4449 48.1261 28.9741 47.6557 28.9741 47.0753Z" fill="#21255A"/>
<path fill-rule="evenodd" clip-rule="evenodd" d="M34.9683 47.0753C34.9683 46.495 35.4391 46.0245 36.0198 46.0245H37.5972C38.178 46.0245 38.6488 46.495 38.6488 47.0753C38.6488 47.6557 38.178 48.1261 37.5972 48.1261H36.0198C35.4391 48.1261 34.9683 47.6557 34.9683 47.0753Z" fill="#21255A"/>
<path fill-rule="evenodd" clip-rule="evenodd" d="M40.8572 47.0753C40.8572 46.495 41.328 46.0245 41.9088 46.0245H43.5913C44.1721 46.0245 44.6429 46.495 44.6429 47.0753C44.6429 47.6557 44.1721 48.1261 43.5913 48.1261H41.9088C41.328 48.1261 40.8572 47.6557 40.8572 47.0753Z" fill="#21255A"/>
<path fill-rule="evenodd" clip-rule="evenodd" d="M16.6546 50.8553C16.8225 50.474 17.2 50.2277 17.617 50.2277H54.9483C55.5291 50.2277 55.9999 50.6981 55.9999 51.2785V54.3258V54.3336C56.0003 54.3886 56.0003 54.5417 55.9724 54.7087C55.9514 54.8352 55.896 55.0954 55.712 55.3437L53.4399 59.2657C53.1487 59.7677 52.5055 59.9393 52.0026 59.6487C51.5003 59.3576 51.3285 58.7149 51.6198 58.2125L53.8967 54.2823V52.3293H20.0077L25.3326 58.1341C25.7252 58.5618 25.6961 59.2267 25.2681 59.6187C24.8401 60.0111 24.1746 59.982 23.7823 59.5543L16.8418 51.9886C16.56 51.6811 16.4865 51.237 16.6546 50.8553Z" fill="#21255A"/>
<path fill-rule="evenodd" clip-rule="evenodd" d="M23.4009 58.9492C23.4009 58.3688 23.8717 57.8984 24.4525 57.8984H52.3195C52.9003 57.8984 53.3711 58.3688 53.3711 58.9492C53.3711 59.5296 52.9003 60 52.3195 60H24.4525C23.8717 60 23.4009 59.5296 23.4009 58.9492Z" fill="#21255A"/>
<path fill-rule="evenodd" clip-rule="evenodd" d="M12.3592 34.676C10.5214 34.676 9.09927 36.097 9.09927 37.9335V38.564C9.09927 40.4004 10.5214 41.8214 12.3592 41.8214H22.8751C23.4559 41.8214 23.9266 42.2918 23.9266 42.8722C23.9266 43.4525 23.4559 43.923 22.8751 43.923H12.3592C9.3597 43.923 6.99609 41.5611 6.99609 38.564V37.9335C6.99609 34.9363 9.3597 32.5745 12.3592 32.5745H27.3969C27.9777 32.5745 28.4485 33.0449 28.4485 33.6253C28.4485 34.2056 27.9777 34.676 27.3969 34.676H12.3592Z" fill="#21255A"/>
<path fill-rule="evenodd" clip-rule="evenodd" d="M11.7282 24.3783C11.7282 23.798 12.1989 23.3275 12.7798 23.3275H28.0278C31.0272 23.3275 33.3909 25.6894 33.3909 28.6865V29.317C33.3909 32.3142 31.0272 34.676 28.0278 34.676H12.254C11.6731 34.676 11.2024 34.2056 11.2024 33.6252C11.2024 33.0449 11.6731 32.5744 12.254 32.5744H28.0278C29.8657 32.5744 31.2877 31.1535 31.2877 29.317V28.6865C31.2877 26.8501 29.8657 25.4291 28.0278 25.4291H12.7798C12.1989 25.4291 11.7282 24.9587 11.7282 24.3783Z" fill="#21255A"/>
</svg>
