<svg width="64" height="64" viewBox="0 0 64 64" fill="none" xmlns="http://www.w3.org/2000/svg">
<path d="M32.1025 22.0049H32.1064C33.1615 22.0603 34 22.9312 34 24C34 24.7398 33.5971 25.3835 33 25.7295V27C33 27.5523 32.5523 28 32 28C31.4477 28 31 27.5523 31 27V25.7295C30.4029 25.3835 30 24.7398 30 24C30 22.9315 30.838 22.0608 31.8926 22.0049C31.9278 22.0012 31.9637 22 32 22L32.1025 22.0049Z" fill="#000667"/>
<path fill-rule="evenodd" clip-rule="evenodd" d="M32 14C34.2091 14 36 15.7909 36 18V19H39C39.5523 19 40 19.4478 40 20V30C40 30.5523 39.5523 31 39 31H25C24.4477 31 24 30.5523 24 30V20C24 19.4478 24.4477 19 25 19H28V18C28 15.7909 29.7909 14 32 14ZM26 29H38V21H26V29ZM32 16C30.8954 16 30 16.8955 30 18V19H34V18C34 16.8955 33.1046 16 32 16Z" fill="#000667"/>
<path fill-rule="evenodd" clip-rule="evenodd" d="M31.1133 6.10551C31.4449 5.93969 31.8476 5.96953 32.1533 6.19437L37.3281 10H48C48.5523 10 49 10.4478 49 11V17.5401L55.6123 23.208C55.6909 23.2688 55.7615 23.3429 55.8213 23.4287C55.8228 23.4309 55.8237 23.4334 55.8252 23.4356C55.8332 23.4473 55.8401 23.4597 55.8477 23.4717C55.9489 23.6339 55.9982 23.8144 55.999 23.9942L56 24V56.0147C55.9974 56.2073 55.9395 56.4013 55.8213 56.5713C55.7902 56.6159 55.7543 56.6555 55.7178 56.6934C55.7122 56.6992 55.7069 56.7053 55.7012 56.711C55.662 56.7497 55.6203 56.7843 55.5762 56.8155C55.5668 56.8221 55.5575 56.8287 55.5479 56.835C55.5283 56.8478 55.5085 56.8598 55.4883 56.8711C55.4827 56.8743 55.4773 56.8779 55.4717 56.8809C55.4503 56.8923 55.4283 56.9023 55.4062 56.9121C55.3968 56.9164 55.3875 56.9209 55.3779 56.9248C55.3624 56.9312 55.3468 56.9369 55.3311 56.9424C55.3146 56.9482 55.2981 56.9541 55.2812 56.959C55.2648 56.9638 55.2481 56.9678 55.2314 56.9717C55.2179 56.9749 55.2042 56.9778 55.1904 56.9805C55.1726 56.984 55.1547 56.9868 55.1367 56.9893C55.1218 56.9913 55.1069 56.9938 55.0918 56.9952C55.07 56.9972 55.0482 56.9975 55.0264 56.9981C55.0176 56.9983 55.0088 57 55 57H9C8.99117 57 8.98241 56.9983 8.97363 56.9981C8.95111 56.9975 8.92865 56.9973 8.90625 56.9952C8.89211 56.9938 8.87822 56.9912 8.86426 56.9893C8.84562 56.9867 8.82706 56.9841 8.80859 56.9805C8.79481 56.9778 8.78116 56.975 8.76758 56.9717C8.7509 56.9677 8.73424 56.9639 8.71777 56.959C8.69694 56.9529 8.6765 56.9459 8.65625 56.9385C8.64812 56.9355 8.63989 56.9329 8.63184 56.9297C8.6139 56.9226 8.59651 56.9144 8.5791 56.9063C8.56193 56.8983 8.54507 56.8898 8.52832 56.8809C8.5224 56.8777 8.51659 56.8744 8.51074 56.8711C8.4905 56.8598 8.47068 56.8478 8.45117 56.835C8.44158 56.8287 8.43221 56.8221 8.42285 56.8155C8.37881 56.7843 8.33699 56.7497 8.29785 56.711C8.29211 56.7053 8.28685 56.6992 8.28125 56.6934C8.24486 56.6556 8.20963 56.6158 8.17871 56.5713C8.17578 56.5671 8.17278 56.5629 8.16992 56.5586C8.16674 56.5539 8.16423 56.5488 8.16113 56.544C8.05504 56.3806 8.00248 56.1973 8 56.0147V23.9854C8.0026 23.7927 8.06045 23.5988 8.17871 23.4287C8.23832 23.3431 8.3083 23.2688 8.38672 23.208L15 17.5401V11C15 10.4478 15.4477 10 16 10H25.6777L30.9766 6.18851L31.1133 6.10551ZM12.1895 55H51.8105L31.999 41.2178L12.1895 55ZM10 54.085L30.2471 39.9991L10 25.9141V54.085ZM33.751 39.9991L54 54.085V25.9141L33.751 39.9991ZM17 28.3457L31.999 38.7803L47 28.3457V12H17V28.3457ZM10.6318 23.9161L15 26.9551V20.1729L10.6318 23.9161ZM49 26.9541L53.3672 23.9161L49 20.1729V26.9541ZM29.1025 10H33.9521L31.5527 8.23637L29.1025 10Z" fill="#000667"/>
</svg>
