<svg width="60" height="60" viewBox="0 0 60 60" fill="none" xmlns="http://www.w3.org/2000/svg">
<g clip-path="url(#clip0_15239_41156)">
<path fill-rule="evenodd" clip-rule="evenodd" d="M57.1381 57.9721H2.86216C1.84001 57.9721 1.12451 57.1498 1.12451 56.2247V19.2212C1.12451 19.1185 1.22673 18.9129 1.43116 18.9129H58.5691C58.6714 18.9129 58.8758 19.0157 58.8758 19.2212V56.3275C58.7736 57.1498 58.0581 57.9721 57.1381 57.9721Z" fill="white"/>
<path d="M57.1381 57.9721H2.86216C1.84001 57.9721 1.12451 57.1498 1.12451 56.2247V19.2212C1.12451 19.1185 1.22673 18.9129 1.43116 18.9129H58.5691C58.6714 18.9129 58.8758 19.0157 58.8758 19.2212V56.3275C58.7736 57.1498 58.0581 57.9721 57.1381 57.9721Z" stroke="#25275B" stroke-width="2.66667" stroke-miterlimit="10"/>
<path d="M20.0342 37.4146L30.1534 47.385" stroke="#25275B" stroke-width="1.33333" stroke-miterlimit="10"/>
<path d="M38.6372 37.4146L29.6423 46.8711" stroke="#25275B" stroke-width="1.33333" stroke-miterlimit="10"/>
<path d="M1.12451 19.0157L10.9371 11.7178" stroke="#25275B" stroke-width="2.66667" stroke-miterlimit="10"/>
<path d="M58.4669 17.7822L50.4941 11.2038" stroke="#25275B" stroke-width="2.66667" stroke-miterlimit="10"/>
<path d="M49.8809 49.0296H11.0393V3.1864C11.0393 2.05573 11.9592 1.02786 13.1858 1.02786H47.9388C49.0632 1.02786 50.0853 1.95295 50.0853 3.1864V49.0296H49.8809Z" fill="white"/>
<path d="M49.8809 49.0296H11.0393V3.1864C11.0393 2.05573 11.9592 1.02786 13.1858 1.02786H47.9388C49.0632 1.02786 50.0853 1.95295 50.0853 3.1864V49.0296H49.8809Z" stroke="#25275B" stroke-width="2.66667" stroke-miterlimit="10"/>
<path d="M35.1619 16.7543H24.0205V11.5122C24.0205 8.8397 26.167 6.68116 28.8246 6.68116H30.3578C33.0154 6.68116 35.1619 8.8397 35.1619 11.5122V16.7543Z" stroke="#25275B" stroke-width="2.66667" stroke-miterlimit="10"/>
<path fill-rule="evenodd" clip-rule="evenodd" d="M31.5845 38.2369L56.9337 56.6358C57.7514 57.1498 58.978 56.6358 58.978 55.608V18.8101C58.978 17.7822 57.8536 17.1655 56.9337 17.7822L31.5845 36.1811C30.869 36.6951 30.869 37.723 31.5845 38.2369Z" fill="white"/>
<path d="M31.5845 38.2369L56.9337 56.6358C57.7514 57.1498 58.978 56.6358 58.978 55.608V18.8101C58.978 17.7822 57.8536 17.1655 56.9337 17.7822L31.5845 36.1811C30.869 36.6951 30.869 37.723 31.5845 38.2369Z" stroke="#25275B" stroke-width="2.66667" stroke-miterlimit="10"/>
<path fill-rule="evenodd" clip-rule="evenodd" d="M28.3135 36.4895L3.06651 18.8101C2.24879 18.2961 1.02222 18.8101 1.02222 19.8379V55.1968C1.02222 56.2247 2.14658 56.8414 3.06651 56.2247L28.3135 38.4425C29.029 38.1341 29.029 37.0035 28.3135 36.4895Z" fill="white"/>
<path d="M28.3135 36.4895L3.06651 18.8101C2.24879 18.2961 1.02222 18.8101 1.02222 19.8379V55.1968C1.02222 56.2247 2.14658 56.8414 3.06651 56.2247L28.3135 38.4425C29.029 38.1341 29.029 37.0035 28.3135 36.4895Z" stroke="#25275B" stroke-width="2.66667" stroke-miterlimit="10"/>
<path fill-rule="evenodd" clip-rule="evenodd" d="M55.6049 17.1655L51.5163 13.9791L51.4141 20.3519L55.6049 17.1655Z" fill="white"/>
<path d="M55.6049 17.1655L51.5163 13.9791L51.4141 20.3519L55.6049 17.1655Z" stroke="white" stroke-width="1.33333" stroke-miterlimit="10"/>
<path fill-rule="evenodd" clip-rule="evenodd" d="M4.39526 18.5017L9.91485 21.9965L9.506 14.6986L4.39526 18.5017Z" fill="white"/>
<path d="M4.39526 18.5017L9.91485 21.9965L9.506 14.6986L4.39526 18.5017Z" stroke="white" stroke-width="1.33333" stroke-miterlimit="10"/>
<path d="M20.7498 14.493H38.5351V26.7247H20.7498V14.493Z" fill="white"/>
<path d="M20.7498 14.493H38.5351V26.7247H20.7498V14.493Z" stroke="#25275B" stroke-width="2.66667" stroke-miterlimit="10"/>
<path d="M29.6424 22.3049C28.9269 22.3049 28.5181 21.8937 28.5181 21.1742V20.0435C28.5181 19.324 28.9269 18.9129 29.6424 18.9129C30.3579 18.9129 30.7668 19.324 30.7668 20.0435V21.1742C30.7668 21.8937 30.2557 22.3049 29.6424 22.3049Z" stroke="#25275B" stroke-width="2.66667" stroke-miterlimit="10"/>
</g>
<defs>
<clipPath id="clip0_15239_41156">
<rect width="60" height="60" fill="white"/>
</clipPath>
</defs>
</svg>
