<svg width="64" height="64" viewBox="0 0 64 64" fill="none" xmlns="http://www.w3.org/2000/svg">
<path d="M13 52C13 54.2091 14.7909 56 17 56C19.2091 56 21 54.2091 21 52H23C23 54.2091 24.7909 56 27 56C29.2091 56 31 54.2091 31 52H33C33 54.2091 34.7909 56 37 56C39.2091 56 41 54.2091 41 52H43C43 54.2091 44.7909 56 47 56C49.2091 56 51 54.2091 51 52H53C53 55.3137 50.3137 58 47 58C44.9126 58 43.0748 56.9336 42 55.3164C40.9252 56.9336 39.0874 58 37 58C34.9126 58 33.0748 56.9336 32 55.3164C30.9252 56.9336 29.0874 58 27 58C24.9126 58 23.0748 56.9336 22 55.3164C20.9252 56.9336 19.0874 58 17 58C13.6863 58 11 55.3137 11 52H13Z" fill="#000667"/>
<path fill-rule="evenodd" clip-rule="evenodd" d="M32 19C33.6569 19 35.0008 20.3431 35.001 22C35.001 23.309 34.1612 24.4192 32.9922 24.8291L38.958 44.7129C39.1162 45.2416 38.8157 45.7993 38.2871 45.958C37.7583 46.1165 37.2008 45.8158 37.042 45.2871L32 28.4805L26.958 45.2871C26.7992 45.8158 26.2417 46.1165 25.7129 45.958C25.1843 45.7993 24.8838 45.2416 25.042 44.7129L31.0068 24.8281C29.8387 24.4177 29 23.3083 29 22C29.0002 20.3432 30.3432 19.0002 32 19ZM32 21C31.4479 21.0002 31.0002 21.4479 31 22C31 22.5522 31.4478 23.0008 32 23.001C32.5524 23.001 33.001 22.5524 33.001 22C33.0008 21.4478 32.5522 21 32 21Z" fill="#000667"/>
<path d="M19.709 8.68945C15.3543 11.7296 12.9006 16.5655 12.9004 21.5088C12.9004 26.4262 15.3303 31.5831 21 35.2773L20.0068 37C13.8338 32.9777 11 27.2015 11 21.5088C11.0002 15.8424 13.8101 10.39 18.666 7L19.709 8.68945Z" fill="#000667"/>
<path d="M45.334 7C50.1899 10.39 52.9998 15.8424 53 21.5088C53 27.2015 50.1662 32.9777 43.9932 37L43 35.2773C48.6697 31.5831 51.0996 26.4262 51.0996 21.5088C51.0994 16.5655 48.6457 11.7296 44.291 8.68945L45.334 7Z" fill="#000667"/>
<path d="M24.0498 12.6934C17.7808 16.9212 16.8545 26.2052 25 31.332L23.8369 33.0303C14.3736 27.074 15.4044 16.0386 22.8311 11.0303L24.0498 12.6934Z" fill="#000667"/>
<path d="M41.1689 11.0303C48.5956 16.0386 49.6264 27.074 40.1631 33.0303L39 31.332C47.1455 26.2052 46.2192 16.9212 39.9502 12.6934L41.1689 11.0303Z" fill="#000667"/>
<path d="M27.5068 17.2227C24.4251 19.3974 23.9558 24.1753 28 26.8389L26.8457 28.5498C21.5241 25.0452 22.0951 18.5153 26.2979 15.5498L27.5068 17.2227Z" fill="#000667"/>
<path d="M37.7021 15.5498C41.9049 18.5153 42.4759 25.0452 37.1543 28.5498L36 26.8389C40.0442 24.1753 39.5749 19.3974 36.4932 17.2227L37.7021 15.5498Z" fill="#000667"/>
</svg>
