<svg width="60" height="60" viewBox="0 0 60 60" fill="none" xmlns="http://www.w3.org/2000/svg">
<mask id="mask0_15239_41052" style="mask-type:luminance" maskUnits="userSpaceOnUse" x="13" y="8" width="45" height="51">
<path d="M57.4 8H13V58.4H57.4V8Z" fill="white"/>
</mask>
<g mask="url(#mask0_15239_41052)">
<path fill-rule="evenodd" clip-rule="evenodd" d="M33.9078 33.3929C34.0974 33.2666 34.4189 33.1 34.8 33.1H44.6C45.6114 33.1 46.1939 33.8743 46.3684 34.6467L47.6553 38.8043C47.8186 39.3319 47.5233 39.892 46.9957 40.0553C46.4681 40.2186 45.908 39.9232 45.7447 39.3957L44.4447 35.1957C44.435 35.1642 44.4268 35.1323 44.4202 35.1H35.0083L32.4659 39.5003C32.1896 39.9785 31.5779 40.1421 31.0997 39.8658C30.6215 39.5895 30.4579 38.9779 30.7342 38.4997L33.3235 34.0182C33.4777 33.7296 33.7145 33.5218 33.9078 33.3929Z" fill="#000667"/>
<path fill-rule="evenodd" clip-rule="evenodd" d="M27.6563 39.1612C27.8919 39.0565 28.1549 39 28.4 39H49.7C50.399 39 50.9422 39.428 51.2071 39.6929C51.2868 39.7726 51.3525 39.8653 51.4013 39.9669L55.1013 47.6669C55.3405 48.1647 55.1309 48.7621 54.6331 49.0013C54.1353 49.2405 53.5378 49.0309 53.2986 48.5331L49.6891 41.0214C49.6779 41.0139 49.6676 41.0078 49.6586 41.0029C49.6567 41.0018 49.6532 41 49.6532 41H28.5195L21.9752 49.0317C21.6264 49.4598 20.9965 49.5241 20.5683 49.1752C20.1402 48.8264 20.0759 48.1965 20.4247 47.7683L26.9774 39.7264C27.1748 39.4187 27.4589 39.249 27.6563 39.1612Z" fill="#000667"/>
<path fill-rule="evenodd" clip-rule="evenodd" d="M35.2 44.7C35.2 44.1477 35.6477 43.7 36.2 43.7H37.9C38.4522 43.7 38.9 44.1477 38.9 44.7C38.9 45.2522 38.4522 45.7 37.9 45.7H36.2C35.6477 45.7 35.2 45.2522 35.2 44.7Z" fill="#000667"/>
<path fill-rule="evenodd" clip-rule="evenodd" d="M41.5 44.7C41.5 44.1477 41.9477 43.7 42.5 43.7H44.2C44.7523 43.7 45.2 44.1477 45.2 44.7C45.2 45.2522 44.7523 45.7 44.2 45.7H42.5C41.9477 45.7 41.5 45.2522 41.5 44.7Z" fill="#000667"/>
<path fill-rule="evenodd" clip-rule="evenodd" d="M15.585 48.7965C15.7449 48.4339 16.1038 48.2 16.5 48.2H56.4C56.9523 48.2 57.4 48.6477 57.4 49.2V52.4V52.4075C57.4001 52.4597 57.4004 52.6055 57.3739 52.7644C57.3538 52.885 57.3009 53.133 57.1255 53.3698L54.6645 57.6026C54.3869 58.08 53.7749 58.242 53.2974 57.9645C52.8199 57.6869 52.6579 57.0748 52.9355 56.5973L55.4 52.3584V50.2H18.7681L24.6383 56.6255C25.0108 57.0332 24.9823 57.6657 24.5745 58.0382C24.1668 58.4107 23.5342 58.3822 23.1617 57.9744L15.7617 49.8744C15.4945 49.5819 15.4251 49.1591 15.585 48.7965Z" fill="#000667"/>
<path fill-rule="evenodd" clip-rule="evenodd" d="M22.8999 57.4C22.8999 56.8477 23.3476 56.4 23.8999 56.4H53.5999C54.1522 56.4 54.5999 56.8477 54.5999 57.4C54.5999 57.9523 54.1522 58.4 53.5999 58.4H23.8999C23.3476 58.4 22.8999 57.9523 22.8999 57.4Z" fill="#000667"/>
<path fill-rule="evenodd" clip-rule="evenodd" d="M22.2897 10L21.4521 12.606C21.283 13.1318 20.7198 13.421 20.194 13.252C19.6682 13.083 19.379 12.5198 19.548 11.994L20.4513 9.18375C20.541 8.9146 20.6889 8.64687 20.9054 8.43039C21.1172 8.21861 21.4571 8 21.9 8H28.5C28.7865 8 29.0931 8.07883 29.3622 8.29413C29.5757 8.46493 29.7015 8.67303 29.7752 8.81493L31.5575 11.7855C31.8417 12.2591 31.6881 12.8733 31.2145 13.1575C30.7409 13.4416 30.1267 13.2881 29.8425 12.8145L28.1538 10H22.2897Z" fill="#000667"/>
<path fill-rule="evenodd" clip-rule="evenodd" d="M18.773 13.9L16.4012 18.8333C16.1619 19.3311 15.5644 19.5406 15.0667 19.3013C14.5689 19.062 14.3594 18.4645 14.5987 17.9667L17.0987 12.7667L17.1056 12.7528C17.3984 12.1671 17.9767 11.9 18.5 11.9H32.8C33.4178 11.9 33.7718 12.2567 33.8949 12.3806C33.8992 12.385 33.9033 12.3891 33.9071 12.3929C33.9311 12.4169 33.9538 12.4421 33.9752 12.4684L38.3752 17.8684C38.7241 18.2965 38.6598 18.9264 38.2317 19.2753C37.8035 19.6241 37.1736 19.5598 36.8248 19.1317L32.5619 13.9H18.773Z" fill="#000667"/>
<path fill-rule="evenodd" clip-rule="evenodd" d="M25.3999 16.1C25.3999 15.5477 25.8476 15.1 26.3999 15.1H27.5999C28.1522 15.1 28.5999 15.5477 28.5999 16.1C28.5999 16.6523 28.1522 17.1 27.5999 17.1H26.3999C25.8476 17.1 25.3999 16.6523 25.3999 16.1Z" fill="#000667"/>
<path fill-rule="evenodd" clip-rule="evenodd" d="M21.2 16.1C21.2 15.5477 21.6477 15.1 22.2 15.1H23.4C23.9522 15.1 24.4 15.5477 24.4 16.1C24.4 16.6523 23.9522 17.1 23.4 17.1H22.2C21.6477 17.1 21.2 16.6523 21.2 16.1Z" fill="#000667"/>
<path fill-rule="evenodd" clip-rule="evenodd" d="M13 19.1C13 18.5477 13.4477 18.1 14 18.1H40.8C41.1975 18.1 41.5572 18.3354 41.7164 18.6996C41.8755 19.0638 41.8038 19.4877 41.5338 19.7794L36.5338 25.1794C36.1585 25.5846 35.5258 25.609 35.1206 25.2337C34.7153 24.8585 34.691 24.2258 35.0662 23.8206L38.5112 20.1H15V21.3285L16.5627 23.9943C16.842 24.4707 16.6822 25.0834 16.2057 25.3627C15.7293 25.642 15.1166 25.4821 14.8373 25.0057L13.1373 22.1057C13.0474 21.9523 13 21.7778 13 21.6V19.1Z" fill="#000667"/>
<path fill-rule="evenodd" clip-rule="evenodd" d="M14.8999 24.6C14.8999 24.0477 15.3476 23.6 15.8999 23.6H35.8999C36.4522 23.6 36.8999 24.0477 36.8999 24.6C36.8999 25.1523 36.4522 25.6 35.8999 25.6H15.8999C15.3476 25.6 14.8999 25.1523 14.8999 24.6Z" fill="#000667"/>
</g>
</svg>
