<svg width="64" height="64" viewBox="0 0 64 64" fill="none" xmlns="http://www.w3.org/2000/svg">
<path d="M13 53C13 55.2091 14.7909 57 17 57C19.2091 57 21 55.2091 21 53H23C23 55.2091 24.7909 57 27 57C29.2091 57 31 55.2091 31 53H33C33 55.2091 34.7909 57 37 57C39.2091 57 41 55.2091 41 53H43C43 55.2091 44.7909 57 47 57C49.2091 57 51 55.2091 51 53H53C53 56.3137 50.3137 59 47 59C44.9126 59 43.0748 57.9336 42 56.3164C40.9252 57.9336 39.0874 59 37 59C34.9126 59 33.0748 57.9336 32 56.3164C30.9252 57.9336 29.0874 59 27 59C24.9126 59 23.0748 57.9336 22 56.3164C20.9252 57.9336 19.0874 59 17 59C13.6863 59 11 56.3137 11 53H13Z" fill="#000667"/>
<path d="M44 28C44.5523 28 45 28.4477 45 29C45 29.5523 44.5523 30 44 30H22C21.4477 30 21 29.5523 21 29C21 28.4477 21.4477 28 22 28H44Z" fill="#000667"/>
<path d="M44 21C44.5523 21 45 21.4477 45 22C45 22.5523 44.5523 23 44 23H22C21.4477 23 21 22.5523 21 22C21 21.4477 21.4477 21 22 21H44Z" fill="#000667"/>
<path d="M44.1025 14.0049C44.6067 14.0562 45 14.4823 45 15C45 15.5177 44.6067 15.9438 44.1025 15.9951L44 16H27C26.4477 16 26 15.5523 26 15C26 14.4477 26.4477 14 27 14H44L44.1025 14.0049Z" fill="#000667"/>
<path fill-rule="evenodd" clip-rule="evenodd" d="M50 36.4395L49.6758 36.7373L37.3887 48H15V5H50V36.4395ZM17 46H36V35H48V7H17V46ZM38 44.7256L46.4287 37H38V44.7256Z" fill="#000667"/>
<path fill-rule="evenodd" clip-rule="evenodd" d="M24.5547 32.7266C24.9233 32.7266 25.2668 32.7756 25.584 32.875C25.9019 32.9734 26.1755 33.1072 26.4023 33.2793C26.6282 33.4442 26.8053 33.6297 26.9297 33.8379L27.0117 33.9932C27.0826 34.1489 27.1201 34.3083 27.1201 34.4707C27.1201 34.6661 27.032 34.8341 26.8789 34.9697C26.7264 35.1047 26.5482 35.1758 26.3496 35.1758C26.1744 35.1758 26.0166 35.1339 25.8945 35.0322L25.8896 35.0283C25.7985 34.9451 25.6768 34.8115 25.5273 34.6328L25.5254 34.6299C25.388 34.4582 25.2514 34.3331 25.1172 34.25L25.1162 34.249C24.999 34.1747 24.8334 34.1309 24.6084 34.1309C24.3537 34.1309 24.1671 34.1915 24.0342 34.2979C23.8984 34.4095 23.8448 34.5262 23.8447 34.6504C23.8447 34.7913 23.8962 34.9122 24.0088 35.0195L24.1221 35.1133C24.2541 35.213 24.4418 35.3302 24.6895 35.4648C25.026 35.6458 25.2551 35.7735 25.3691 35.8457C25.6863 36.0331 25.9687 36.2006 26.2178 36.3486L26.4092 36.4629C26.5959 36.5804 26.7693 36.7068 26.9297 36.8418L27.0869 36.9854C27.2355 37.1348 27.3578 37.3025 27.4521 37.4883C27.5846 37.7382 27.6475 38.0272 27.6475 38.3506C27.6474 38.7202 27.5471 39.0591 27.3457 39.3633L27.3447 39.3643C27.1774 39.6136 26.9486 39.8281 26.6641 40.0117C27.0814 40.4132 27.2998 40.8848 27.2998 41.4248C27.2997 41.7072 27.2377 41.9747 27.1162 42.2266L27.1172 42.2275C26.9983 42.4812 26.8222 42.704 26.5928 42.8945C26.3629 43.0854 26.0917 43.2318 25.7822 43.335C25.4713 43.4386 25.1323 43.4892 24.7666 43.4893C24.3289 43.4893 23.9372 43.4298 23.5947 43.3066C23.2573 43.1889 22.9617 43.0246 22.7109 42.8125L22.71 42.8115C22.4664 42.6022 22.2804 42.3769 22.1572 42.1348L22.1562 42.1338C22.0395 41.9003 21.9776 41.6704 21.9775 41.4463C21.9775 41.2252 22.0582 41.0292 22.2129 40.8652C22.3724 40.6924 22.5766 40.6055 22.8135 40.6055C22.9085 40.6055 23.0014 40.6256 23.0918 40.6631L23.0967 40.6641L23.1006 40.666C23.1681 40.6912 23.2304 40.7235 23.2822 40.7676L23.3311 40.8174L23.333 40.8193C23.4719 40.9944 23.5848 41.1566 23.6689 41.3047L23.7432 41.4482L23.7451 41.4512C23.8408 41.6706 23.9691 41.8269 24.126 41.9287C24.2829 42.0304 24.4794 42.0849 24.7227 42.085C24.9884 42.085 25.1858 42.0133 25.3301 41.8838L25.332 41.8818C25.4853 41.75 25.5527 41.6066 25.5527 41.4463C25.5527 41.3394 25.5156 41.2356 25.4326 41.1318C25.3433 41.024 25.2092 40.9061 25.0254 40.7812L25.0234 40.7803C24.8385 40.6522 24.5511 40.4694 24.1602 40.2305L24.1592 40.2295C23.767 39.9862 23.3698 39.7353 22.9668 39.4775L22.9639 39.4766C22.8108 39.3745 22.6521 39.2671 22.4883 39.1543L22.4873 39.1523C22.3164 39.0308 22.1643 38.8995 22.0332 38.7568C21.8977 38.6093 21.7909 38.4397 21.7119 38.25L21.71 38.2471C21.6329 38.0482 21.5967 37.8198 21.5967 37.5664C21.5968 36.8915 21.9622 36.3509 22.6416 35.9424C22.2833 35.5789 22.0977 35.1538 22.0977 34.6719C22.0977 34.3231 22.1954 33.999 22.3887 33.7031L22.4678 33.5928C22.6611 33.3427 22.9214 33.1425 23.2441 32.9912L23.3877 32.9287C23.7303 32.7927 24.1206 32.7266 24.5547 32.7266ZM23.6367 36.752C23.2785 36.9977 23.1428 37.2207 23.1426 37.4141C23.1426 37.5234 23.1802 37.6279 23.2646 37.7305L23.3447 37.8154C23.431 37.9004 23.5373 37.9862 23.666 38.0713C23.8451 38.1859 24.1245 38.3573 24.5039 38.585C24.6174 38.6509 24.7725 38.7439 24.9678 38.8633C25.1329 38.9611 25.2964 39.0523 25.4561 39.1396C25.6262 39.0117 25.7522 38.8951 25.8359 38.7881C25.9317 38.6657 25.9657 38.5681 25.9658 38.4922C25.9658 38.393 25.9377 38.3028 25.8789 38.2188L25.877 38.2168C25.8113 38.1199 25.7203 38.0236 25.5996 37.9297C25.4755 37.8331 25.3173 37.7282 25.125 37.6143L25.1221 37.6123C25.0271 37.5532 24.9182 37.4869 24.7949 37.4141L24.3818 37.1748C24.1354 37.0335 23.9507 36.9288 23.8281 36.8604L23.8252 36.8584C23.7489 36.8135 23.6858 36.7789 23.6367 36.752Z" fill="#000667"/>
</svg>
