<svg width="60" height="60" viewBox="0 0 60 60" fill="none" xmlns="http://www.w3.org/2000/svg">
<path fill-rule="evenodd" clip-rule="evenodd" d="M10.1758 52.7C10.1758 55.6452 12.2246 57.7241 14.4 57.7241C16.5754 57.7241 18.6242 55.6452 18.6242 52.7H20.7758C20.7758 56.5547 18.0246 59.8757 14.4 59.8757C10.7754 59.8757 8.02417 56.5547 8.02417 52.7H10.1758Z" fill="#222160"/>
<path fill-rule="evenodd" clip-rule="evenodd" d="M25.0001 59.8757C21.3755 59.8757 18.6243 56.5547 18.6243 52.7H20.7759C20.7759 55.6452 22.8247 57.7241 25.0001 57.7241C27.1755 57.7241 29.2243 55.6452 29.2243 52.7H31.3759C31.3759 56.5547 28.6247 59.8757 25.0001 59.8757Z" fill="#222160"/>
<path fill-rule="evenodd" clip-rule="evenodd" d="M46.0999 59.8757C42.4753 59.8757 39.7241 56.5547 39.7241 52.7H41.8757C41.8757 55.6452 43.9245 57.7241 46.0999 57.7241C48.2753 57.7241 50.3241 55.6452 50.3241 52.7H52.4757C52.4757 56.5547 49.7245 59.8757 46.0999 59.8757Z" fill="#222160"/>
<path fill-rule="evenodd" clip-rule="evenodd" d="M31.2759 52.7C31.2759 55.6452 33.3247 57.7241 35.5001 57.7241C37.6755 57.7241 39.7243 55.6452 39.7243 52.7H41.8759C41.8759 56.5547 39.1247 59.8757 35.5001 59.8757C31.8755 59.8757 29.1243 56.5547 29.1243 52.7H31.2759Z" fill="#222160"/>
<path fill-rule="evenodd" clip-rule="evenodd" d="M33.2915 30.9683L47.2311 31.4005C47.7831 31.4176 48.2167 31.879 48.1996 32.431C48.1825 32.983 47.7211 33.4167 47.1691 33.3995L35.3087 33.0318L35.4001 44.0917C35.4046 44.644 34.9606 45.0954 34.4084 45.1C33.8561 45.1045 33.4047 44.6605 33.4001 44.1083L33.2915 30.9683Z" fill="#000667"/>
<path fill-rule="evenodd" clip-rule="evenodd" d="M12 0H48.2V33.2499L34.3794 45.5H12V0ZM14 2V43.5H33.6206L46.2 32.3501V2H14Z" fill="#000667"/>
<path fill-rule="evenodd" clip-rule="evenodd" d="M17.8999 24C17.8999 23.4477 18.3476 23 18.8999 23H42.2999C42.8522 23 43.2999 23.4477 43.2999 24C43.2999 24.5523 42.8522 25 42.2999 25H18.8999C18.3476 25 17.8999 24.5523 17.8999 24Z" fill="#000667"/>
<path fill-rule="evenodd" clip-rule="evenodd" d="M18 16.8C18 16.2478 18.4477 15.8 19 15.8H41.6C42.1523 15.8 42.6 16.2478 42.6 16.8C42.6 17.3523 42.1523 17.8 41.6 17.8H19C18.4477 17.8 18 17.3523 18 16.8Z" fill="#000667"/>
<path fill-rule="evenodd" clip-rule="evenodd" d="M23.3 9.30005C23.3 8.74776 23.7477 8.30005 24.3 8.30005H40.9001C41.4524 8.30005 41.9001 8.74776 41.9001 9.30005C41.9001 9.85233 41.4524 10.3 40.9001 10.3H24.3C23.7477 10.3 23.3 9.85233 23.3 9.30005Z" fill="#000667"/>
</svg>
