<svg width="65" height="64" viewBox="0 0 65 64" fill="none" xmlns="http://www.w3.org/2000/svg">
<path d="M13.8101 49.9487C13.8101 52.1766 15.5872 53.9827 17.7791 53.9829C19.9711 53.9829 21.748 52.1768 21.748 49.9487H23.7325C23.7325 52.1766 25.5097 53.9827 27.7015 53.9829C29.8936 53.9829 31.6705 52.1768 31.6705 49.9487H33.655C33.655 52.1766 35.4322 53.9827 37.624 53.9829C39.816 53.9829 41.593 52.1768 41.593 49.9487H43.5775C43.5775 52.1766 45.3547 53.9827 47.5465 53.9829C49.7385 53.9829 51.5155 52.1768 51.5155 49.9487H53.5C53.5 53.2908 50.8345 56 47.5465 56C45.4751 55.9998 43.6516 54.9239 42.5853 53.2925C41.5188 54.9238 39.6954 56 37.624 56C35.5526 55.9998 33.7291 54.9239 32.6628 53.2925C31.5963 54.9238 29.773 56 27.7015 56C25.6301 55.9998 23.8066 54.9239 22.7403 53.2925C21.6738 54.9238 19.8505 56 17.7791 56C14.4912 55.9998 11.8256 53.2906 11.8256 49.9487H13.8101Z" fill="#000667"/>
<path d="M13.8101 40.8719C13.8101 43.0997 15.5872 44.9058 17.7791 44.906C19.9711 44.906 21.748 43.0999 21.748 40.8719H23.7325C23.7325 43.0997 25.5097 44.9058 27.7015 44.906C29.8936 44.906 31.6705 43.0999 31.6705 40.8719H33.655C33.655 43.0997 35.4322 44.9058 37.624 44.906C39.816 44.906 41.593 43.0999 41.593 40.8719H43.5775C43.5775 43.0997 45.3547 44.9058 47.5465 44.906C49.7385 44.906 51.5155 43.0999 51.5155 40.8719H53.5C53.5 44.2139 50.8345 46.9231 47.5465 46.9231C45.4751 46.923 43.6516 45.8471 42.5853 44.2156C41.5188 45.847 39.6954 46.9231 37.624 46.9231C35.5526 46.923 33.7291 45.8471 32.6628 44.2156C31.5963 45.847 29.773 46.9231 27.7015 46.9231C25.6301 46.923 23.8066 45.8471 22.7403 44.2156C21.6738 45.847 19.8505 46.9231 17.7791 46.9231C14.4912 46.9229 11.8256 44.2137 11.8256 40.8719H13.8101Z" fill="#000667"/>
<path fill-rule="evenodd" clip-rule="evenodd" d="M30.532 7.00005C30.5583 7.00039 30.5843 7.00253 30.6105 7.00497C30.6284 7.00666 30.6467 7.00622 30.6647 7.00891C30.6739 7.01029 30.6828 7.0132 30.6919 7.01482C30.7118 7.0184 30.7313 7.02381 30.751 7.02861C30.781 7.03593 30.8103 7.04423 30.8391 7.05422C30.8554 7.05985 30.8716 7.06546 30.8876 7.07195C30.9174 7.08409 30.9465 7.09742 30.9748 7.11233C30.9921 7.12143 31.0093 7.13072 31.0262 7.14089C31.0551 7.15839 31.0826 7.17771 31.1095 7.19802C31.1221 7.2075 31.1351 7.21643 31.1473 7.22658C31.173 7.24797 31.1965 7.27165 31.22 7.29552C31.2315 7.30724 31.2448 7.31761 31.2558 7.32999L42.4176 19.8629L51.9903 16.8087C52.3794 16.6849 52.8032 16.816 53.0591 17.1386C53.315 17.4615 53.3503 17.9111 53.1483 18.2713L43.5717 35.3407L25.8614 38.0186L11.811 24.5225C11.5146 24.2377 11.4194 23.7971 11.5717 23.4125C11.7242 23.0279 12.093 22.7776 12.5009 22.7812L22.532 22.8698L29.6221 7.5772C29.6255 7.56982 29.6301 7.56281 29.6337 7.55554C29.646 7.53052 29.6601 7.50655 29.6744 7.48265C29.6883 7.45956 29.7016 7.43637 29.717 7.41469C29.7315 7.39448 29.7477 7.37571 29.7636 7.35658C29.7812 7.33536 29.7986 7.31408 29.8178 7.29454C29.837 7.27498 29.858 7.25737 29.8789 7.23938C29.8977 7.22318 29.9162 7.2068 29.936 7.19211C29.9573 7.17634 29.9802 7.16289 30.0029 7.14877C30.0268 7.13392 30.0506 7.11917 30.0756 7.10642C30.0823 7.10297 30.0891 7.09889 30.0959 7.09559C30.1088 7.08939 30.1226 7.08542 30.1356 7.07983C30.165 7.06727 30.1943 7.05502 30.2248 7.04536C30.2463 7.03853 30.268 7.03291 30.2897 7.02763C30.3172 7.02094 30.3449 7.01517 30.3731 7.01088C30.3995 7.00686 30.426 7.00483 30.4525 7.003C30.4789 7.00118 30.5053 6.99971 30.532 7.00005ZM27.9729 35.6598L40.875 33.7087L33.1046 25.6679L27.9729 35.6598ZM25.9196 35.2993L31.2287 24.9647L15.0097 24.8189L25.9196 35.2993ZM34.6996 24.4407L42.7355 32.7563L50.1725 19.5014L34.6996 24.4407ZM24.75 22.8206L31.7025 22.9447L30.0203 11.4498L24.75 22.8206ZM33.6657 22.6472L40.2829 20.4716L31.9835 11.1534L33.6657 22.6472Z" fill="#000667"/>
</svg>
