<svg width="64" height="64" viewBox="0 0 64 64" fill="none" xmlns="http://www.w3.org/2000/svg">
<path fill-rule="evenodd" clip-rule="evenodd" d="M18.1084 48.2572C18.4226 47.9744 18.881 47.9196 19.2529 48.1204L21.9395 49.5706L25.1758 50.5423C25.455 50.6261 25.6843 50.8277 25.8027 51.0941L26.6504 53.0003H28C28.5523 53.0003 29 53.448 29 54.0003C28.9998 54.5525 28.5522 55.0003 28 55.0003H14C13.4478 55.0003 13.0002 54.5525 13 54.0003C13 53.448 13.4477 53.0003 14 53.0003H15V51.5003C15 51.2169 15.1205 50.9468 15.3311 50.7572L18.1084 48.2572ZM17 51.9447V53.0003H24.4619L24.1621 52.3255L21.2686 51.4583C21.2035 51.4388 21.1398 51.4125 21.0801 51.3802L18.9229 50.2142L17 51.9447Z" fill="#000667"/>
<path d="M52 51.0003C52.5523 51.0003 53 51.448 53 52.0003C52.9998 52.5525 52.5522 53.0003 52 53.0003H46C45.4478 53.0003 45.0002 52.5525 45 52.0003C45 51.448 45.4477 51.0003 46 51.0003H52Z" fill="#000667"/>
<path fill-rule="evenodd" clip-rule="evenodd" d="M42.1719 40.1126C42.3777 40.006 42.6152 39.9732 42.8438 40.0228L45.2627 40.5482L47.6826 40.0228L47.8467 40.0013C48.2297 39.9827 48.5961 40.1866 48.7793 40.5345L50.6035 44.0003H52C52.5523 44.0003 53 44.448 53 45.0003C52.9998 45.5525 52.5522 46.0003 52 46.0003H38C37.4478 46.0003 37.0002 45.5525 37 45.0003C37 44.448 37.4477 44.0003 38 44.0003H39V42.7142L39.0078 42.5892C39.0444 42.2998 39.2063 42.0378 39.4541 41.8763L42.0859 40.1624L42.1719 40.1126ZM41 43.2562V44.0003H48.3438L47.3633 42.139L45.4756 42.5492C45.3358 42.5795 45.1906 42.5795 45.0508 42.5492L42.8271 42.0658L41 43.2562Z" fill="#000667"/>
<path d="M19 41.0003C19.5523 41.0003 20 41.448 20 42.0003C19.9998 42.5525 19.5522 43.0003 19 43.0003H9C8.44783 43.0003 8.00019 42.5525 8 42.0003C8 41.448 8.44772 41.0003 9 41.0003H19Z" fill="#000667"/>
<path d="M29 41.0003C29.5523 41.0003 30 41.448 30 42.0003C29.9998 42.5525 29.5522 43.0003 29 43.0003H24C23.4478 43.0003 23.0002 42.5525 23 42.0003C23 41.448 23.4477 41.0003 24 41.0003H29Z" fill="#000667"/>
<path fill-rule="evenodd" clip-rule="evenodd" d="M35.0117 9.0013C35.2657 9.01044 35.5058 9.11539 35.6836 9.2933L35.7559 9.37337L40.3955 15.1419L44.9834 17.6781C45.1369 17.7629 45.2659 17.8863 45.3564 18.0365L48.6963 23.5716L51.8242 24.1488C52.0841 24.1967 52.3132 24.3447 52.4629 24.5589L52.5215 24.6546L57.5957 34.0003H61C61.5523 34.0003 62 34.448 62 35.0003C61.9998 35.5525 61.5522 36.0003 61 36.0003H3C2.44783 36.0003 2.00019 35.5525 2 35.0003C2 34.448 2.44772 34.0003 3 34.0003H6.51562L14.5488 23.8529C14.7148 23.6433 14.9572 23.5108 15.2197 23.4808L15.333 23.474H18.4609L23.5205 17.8822C23.6467 17.7426 23.8101 17.6412 23.9912 17.5902L27.46 16.6126L34.2441 9.31966C34.4418 9.1072 34.7217 8.99099 35.0117 9.0013ZM28.7324 18.181C28.6075 18.3152 28.4479 18.4135 28.2715 18.4632L26.1562 19.0579L28.6582 21.2474C28.7584 21.3351 28.8403 21.4421 28.8984 21.5609L28.9482 21.6839L30.3643 25.93L34.6641 29.7533C34.7817 29.8579 34.8734 29.988 34.9307 30.1331L34.9766 30.2835L35.8027 34.0003H47.1914L46.1719 30.262L41.1582 28.4398C40.8243 28.3183 40.5803 28.0286 40.5166 27.679L39.5967 22.6136L35.9697 20.348C35.7298 20.1979 35.5649 19.9529 35.5156 19.6742L34.2119 12.2894L28.7324 18.181ZM37.4072 18.888L41.0303 21.1527C41.2389 21.2832 41.3915 21.4852 41.46 21.7191L41.4834 21.8216L42.3809 26.7562L47.3418 28.5609C47.6086 28.658 47.8199 28.8629 47.9258 29.1224L47.9648 29.2376L49.2637 34.0003H55.3193L50.9922 26.0286L47.8906 25.4574C47.6092 25.4055 47.3627 25.2355 47.2148 24.9906L43.7822 19.2972L39.2549 16.7962C39.1413 16.7334 39.0404 16.6493 38.959 16.5482L36.4414 13.4163L37.4072 18.888ZM19.6465 25.1449C19.4569 25.3543 19.1868 25.474 18.9043 25.474H15.8174L9.06738 34.0003H33.7529L33.0938 31.0316L28.8359 27.2474C28.7052 27.1312 28.6072 26.9826 28.5518 26.8167L27.1387 22.5745L24.2539 20.0511L19.6465 25.1449Z" fill="#000667"/>
</svg>
