<svg width="60" height="60" viewBox="0 0 60 60" fill="none" xmlns="http://www.w3.org/2000/svg">
<g clip-path="url(#clip0_15239_41179)">
<path d="M10.2898 33.1486C15.2848 25.1419 20.3797 17.1351 25.3747 9.027C28.2718 13.7905 31.1689 18.554 34.066 23.4189C35.4646 21.0878 36.7633 18.6554 38.1619 16.3243C41.9581 21.8986 45.7543 27.5743 49.5505 33.1486H10.2898Z" stroke="currentColor" stroke-width="2.66667" stroke-miterlimit="10" stroke-linejoin="round"/>
<path d="M49.5505 33.5541C45.7543 38.0135 41.9581 42.0676 38.1619 46.527C36.7633 44.8041 35.4646 42.777 34.066 41.0541C31.1689 44.8041 28.2718 48.5541 25.3747 52C20.3797 45.8176 15.2848 39.3311 10.2898 33.25L49.5505 33.5541Z" fill="currentColor"/>
<path d="M49.5505 33.5541C45.7543 38.0135 41.9581 42.0676 38.1619 46.527C36.7633 44.8041 35.4646 42.777 34.066 41.0541C31.1689 44.8041 28.2718 48.5541 25.3747 52C20.3797 45.8176 15.2848 39.3311 10.2898 33.25L49.5505 33.5541Z" stroke="currentColor" stroke-width="2.66667" stroke-miterlimit="10" stroke-linejoin="round"/>
<path d="M0 32.5405C2.0979 32.5405 3.7962 32.6419 4.7952 32.6419C9.49051 32.7432 11.5884 32.8446 14.3856 32.5405C15.8841 32.4392 16.5834 32.3378 17.4825 32.1351C19.8801 31.6284 20.5794 30.9189 23.0769 31.3243C25.7742 31.8311 26.3736 32.9459 29.0709 33.1486C31.7682 33.25 32.6673 32.1351 35.4645 31.527C38.4615 30.8175 39.2607 31.7297 41.958 32.2365C42.4575 32.3378 43.0569 32.4392 45.7542 32.5405C48.5514 32.6419 49.4505 32.7432 55.7443 32.7432C56.7433 32.7432 58.2418 32.7432 59.9401 32.6419" stroke="currentColor" stroke-width="2.66667" stroke-miterlimit="10" stroke-linejoin="round"/>

</g>
<defs>
<clipPath id="clip0_15239_41179">
<rect width="60" height="60" fill="white"/>
</clipPath>
</defs>
</svg>
