<svg width="64" height="64" viewBox="0 0 64 64" fill="none" xmlns="http://www.w3.org/2000/svg">
<path fill-rule="evenodd" clip-rule="evenodd" d="M16 25C21.5228 25 26 29.4772 26 35C26 40.5228 21.5228 45 16 45C10.4772 45 6 40.5228 6 35C6 29.4772 10.4772 25 16 25ZM20.1504 39.875C19.776 39.5542 19.224 39.5542 18.8496 39.875L17.9521 40.6436C16.8287 41.6064 15.1713 41.6064 14.0479 40.6436L13.1504 39.875C12.776 39.5542 12.224 39.5542 11.8496 39.875L10.624 40.9238C12.0444 42.2136 13.9302 43 16 43C18.0695 43 19.9547 42.2133 21.375 40.9238L20.1504 39.875ZM20.1396 35.4561C19.7401 34.9827 19.0099 34.9827 18.6104 35.4561L18.293 35.833C17.0944 37.2535 14.9056 37.2535 13.707 35.833L13.3896 35.4561C12.9901 34.9827 12.2599 34.9827 11.8604 35.4561L11.543 35.833C10.6872 36.8472 9.32712 37.1362 8.18262 36.7021C8.39507 37.6825 8.78761 38.5951 9.32324 39.4053L10.5479 38.3564C11.6713 37.3936 13.3287 37.3936 14.4521 38.3564L15.3496 39.125C15.724 39.4458 16.276 39.4458 16.6504 39.125L17.5479 38.3564C18.6713 37.3936 20.3287 37.3936 21.4521 38.3564L22.6758 39.4053C23.2115 38.595 23.6039 37.6826 23.8164 36.7021C22.6721 37.1357 21.3126 36.847 20.457 35.833L20.1396 35.4561ZM16 27C11.9073 27 8.53378 30.0734 8.05859 34.0381L8.48535 34.5439C8.88486 35.0173 9.61514 35.0173 10.0146 34.5439L10.332 34.167C11.5306 32.7465 13.7194 32.7465 14.918 34.167L15.2354 34.5439C15.6349 35.0173 16.3651 35.0173 16.7646 34.5439L17.082 34.167C18.2806 32.7465 20.4694 32.7465 21.668 34.167L21.9854 34.5439C22.3849 35.0173 23.1151 35.0173 23.5146 34.5439L23.9404 34.0381C23.4652 30.0735 20.0926 27 16 27Z" fill="#000667"/>
<path fill-rule="evenodd" clip-rule="evenodd" d="M48 25C53.5228 25 58 29.4772 58 35C58 40.5228 53.5228 45 48 45C42.4772 45 38 40.5228 38 35C38 29.4772 42.4772 25 48 25ZM52.1504 39.875C51.776 39.5542 51.224 39.5542 50.8496 39.875L49.9521 40.6436C48.8287 41.6064 47.1713 41.6064 46.0479 40.6436L45.1504 39.875C44.776 39.5542 44.224 39.5542 43.8496 39.875L42.624 40.9238C44.0444 42.2136 45.9302 43 48 43C50.0695 43 51.9547 42.2133 53.375 40.9238L52.1504 39.875ZM52.1396 35.4561C51.7401 34.9827 51.0099 34.9827 50.6104 35.4561L50.293 35.833C49.0944 37.2535 46.9056 37.2535 45.707 35.833L45.3896 35.4561C44.9901 34.9827 44.2599 34.9827 43.8604 35.4561L43.543 35.833C42.6872 36.8472 41.3271 37.1362 40.1826 36.7021C40.3951 37.6825 40.7876 38.5951 41.3232 39.4053L42.5479 38.3564C43.6713 37.3936 45.3287 37.3936 46.4521 38.3564L47.3496 39.125C47.724 39.4458 48.276 39.4458 48.6504 39.125L49.5479 38.3564C50.6713 37.3936 52.3287 37.3936 53.4521 38.3564L54.6758 39.4053C55.2115 38.595 55.6039 37.6826 55.8164 36.7021C54.6721 37.1357 53.3126 36.847 52.457 35.833L52.1396 35.4561ZM48 27C43.9073 27 40.5338 30.0734 40.0586 34.0381L40.4854 34.5439C40.8849 35.0173 41.6151 35.0173 42.0146 34.5439L42.332 34.167C43.5306 32.7465 45.7194 32.7465 46.918 34.167L47.2354 34.5439C47.6349 35.0173 48.3651 35.0173 48.7646 34.5439L49.082 34.167C50.2806 32.7465 52.4694 32.7465 53.668 34.167L53.9854 34.5439C54.3849 35.0173 55.1151 35.0173 55.5146 34.5439L55.9404 34.0381C55.4652 30.0735 52.0926 27 48 27Z" fill="#000667"/>
<path fill-rule="evenodd" clip-rule="evenodd" d="M22.5 14.25C25.7609 14.25 29.5546 16.7964 29.9619 21H34.0664C34.5969 16.9458 38.3043 14.5 41.5 14.5C43.2113 14.5 44.6645 15.0468 45.6729 15.5752C46.1799 15.8409 46.585 16.1069 46.8662 16.3096C47.007 16.411 47.1173 16.4976 47.1953 16.5605C47.2343 16.592 47.2656 16.6177 47.2881 16.6367C47.2959 16.6433 47.3028 16.6493 47.3086 16.6543L54.4395 22.5664C58.9311 24.8974 62 29.59 62 35C62 42.732 55.732 49 48 49C40.6043 49 34.5489 43.2652 34.0361 36H29.9639C29.4511 43.2652 23.3957 49 16 49C8.26801 49 2 42.732 2 35C2 30.0759 4.54228 25.7458 8.38574 23.25L8.36621 23.2266L16.6992 16.3975C16.703 16.3942 16.7075 16.3905 16.7119 16.3867C16.7344 16.3677 16.7658 16.3419 16.8047 16.3105C16.8827 16.2476 16.9931 16.1609 17.1338 16.0596C17.415 15.8569 17.8202 15.5909 18.3271 15.3252C19.3355 14.7968 20.7887 14.25 22.5 14.25ZM16 23C9.37258 23 4 28.3726 4 35C4 41.6274 9.37258 47 16 47C22.6274 47 28 41.6274 28 35C28 28.3726 22.6274 23 16 23ZM48 23C41.3726 23 36 28.3726 36 35C36 41.6274 41.3726 47 48 47C54.6274 47 60 41.6274 60 35C60 30.3013 57.2979 26.2364 53.3643 24.2666L53.3623 24.2695L53.3486 24.2588C51.7378 23.4551 49.9225 23 48 23ZM34 30.6045C33.3996 30.8597 32.7131 31 32 31C31.2869 31 30.6004 30.8597 30 30.6045V34H34V30.6045ZM32 27C31.3415 27 30.7907 27.1799 30.4336 27.418C30.0695 27.6607 30 27.8861 30 28C30 28.1139 30.0695 28.3393 30.4336 28.582C30.7907 28.8201 31.3415 29 32 29C32.6585 29 33.2093 28.8201 33.5664 28.582C33.9305 28.3393 34 28.1139 34 28C34 27.8861 33.9305 27.6607 33.5664 27.418C33.2093 27.1799 32.6585 27 32 27ZM22.5 16.25C21.2113 16.25 20.0809 16.6644 19.2559 17.0967C18.8466 17.3112 18.5223 17.5251 18.3037 17.6826C18.1948 17.7611 18.1127 17.8251 18.0605 17.8672C18.0346 17.8882 18.0156 17.904 18.0049 17.9131C18.0017 17.9158 17.9988 17.9184 17.9971 17.9199C17.9874 17.9285 17.9768 17.9371 17.9668 17.9453L14.0771 21.1309C14.7058 21.0445 15.3477 21 16 21C21.0928 21 25.5502 23.7194 28 27.7852V21.75C28 18.3988 25.0494 16.25 22.5 16.25ZM41.5 16.5C38.9506 16.5 36 18.6488 36 22V27.7842C38.4499 23.7188 42.9075 21 48 21C48.5121 21 49.0178 21.0275 49.5156 21.0811L46.0283 18.1914C46.0198 18.1843 46.0112 18.1773 46.0029 18.1699C46.0012 18.1684 45.9983 18.1658 45.9951 18.1631C45.9844 18.154 45.9655 18.1382 45.9395 18.1172C45.8873 18.0751 45.8053 18.0111 45.6963 17.9326C45.4776 17.7751 45.1535 17.5612 44.7441 17.3467C43.9191 16.9144 42.7887 16.5 41.5 16.5ZM30 25.3945C30.6003 25.1394 31.287 25 32 25C32.713 25 33.3997 25.1394 34 25.3945V23H30V25.3945Z" fill="#000667"/>
</svg>
