<svg width="60" height="60" viewBox="0 0 60 60" fill="none" xmlns="http://www.w3.org/2000/svg">
<path d="M46.1495 43.6208C40.7258 43.6208 36.2354 39.519 35.5775 34.234C35.5783 34.2204 35.5789 34.2066 35.5789 34.1928C35.5789 34.1324 35.5711 34.0733 35.556 34.0178L35.5088 33.3772C35.5098 33.3627 35.5105 33.3481 35.5105 33.3334C35.5105 33.2935 35.5066 33.2538 35.5002 33.2162C35.4967 33.1086 35.4945 33.0011 35.4944 32.8929V32.892C35.4945 26.9759 40.2745 22.1629 46.1495 22.1629C47.8968 22.1629 49.6149 22.6001 51.1441 23.4164C51.1697 23.4301 51.1953 23.4438 51.2208 23.4578C51.2265 23.461 51.2323 23.4642 51.2381 23.4674C54.5516 25.2887 56.8045 28.8303 56.8045 32.8918C56.8045 38.808 52.0247 43.6208 46.1495 43.6208ZM29.9999 31.3053C28.4637 31.3053 27.0158 31.7503 25.877 32.5396L26.5466 23.4475C26.598 23.0913 26.6242 22.7289 26.6242 22.3693C26.6242 22.3084 26.6233 22.2475 26.6219 22.1867C26.6213 22.1652 26.6203 22.1438 26.6196 22.1223C26.6184 22.0832 26.6171 22.0441 26.6152 22.0051C26.614 21.9796 26.6123 21.9543 26.6108 21.9289C26.6088 21.8938 26.6067 21.8587 26.6042 21.8236C26.6023 21.7974 26.6 21.7714 26.5979 21.7453C26.595 21.7107 26.5921 21.6761 26.5887 21.6416C26.5863 21.6165 26.5836 21.5914 26.5809 21.5664C26.577 21.5302 26.5729 21.4941 26.5685 21.458C26.5658 21.4355 26.5629 21.413 26.56 21.3905C26.5548 21.3508 26.5492 21.3111 26.5434 21.2715C26.5407 21.2533 26.538 21.235 26.5351 21.2168C26.5281 21.1712 26.5205 21.1258 26.5126 21.0804C26.5106 21.0685 26.5085 21.0565 26.5064 21.0446C26.5033 21.0273 26.5005 21.0098 26.4973 20.9926C27.205 20.6528 28.5086 20.4429 29.9999 20.4429C31.4914 20.4429 32.7952 20.6528 33.5025 20.9926C33.4996 21.0083 33.4971 21.0242 33.4942 21.04C33.4914 21.0559 33.4887 21.0719 33.4859 21.0878C33.4787 21.1295 33.4718 21.1713 33.4652 21.2131C33.462 21.2339 33.4589 21.2549 33.4558 21.2758C33.4503 21.3131 33.4451 21.3504 33.4402 21.3878C33.437 21.4119 33.4339 21.4361 33.431 21.4603C33.4267 21.495 33.4228 21.5298 33.4191 21.5646C33.4163 21.5906 33.4135 21.6166 33.411 21.6427C33.4077 21.6765 33.4048 21.7104 33.402 21.7442C33.3998 21.7709 33.3975 21.7974 33.3956 21.8241C33.393 21.8589 33.391 21.8936 33.389 21.9284C33.3875 21.954 33.3858 21.9796 33.3845 22.0053C33.3826 22.0443 33.3814 22.0833 33.3801 22.1223C33.3794 22.1438 33.3784 22.1652 33.3779 22.1868C33.3764 22.2476 33.3756 22.3084 33.3756 22.3693C33.3756 22.7281 33.4016 23.0907 33.4532 23.4475L34.1227 32.5395C32.9839 31.75 31.5364 31.3053 29.9999 31.3053ZM13.8506 43.6208C7.97548 43.6208 3.19555 38.808 3.19555 32.8918C3.19555 28.7884 5.49529 25.2157 8.86499 23.4116C8.91717 23.3838 8.96939 23.3561 9.022 23.3292C9.02222 23.3291 9.02236 23.329 9.02252 23.3289C10.5093 22.5687 12.1664 22.1629 13.8504 22.1629C19.7255 22.1629 24.5053 26.9759 24.5054 32.892C24.5054 32.9269 24.5051 32.9618 24.5047 32.9966C24.5035 33.0977 24.5005 33.1985 24.4969 33.299L24.4422 34.0412C24.4348 34.0762 24.4303 34.1122 24.4287 34.1486L24.428 34.1632C24.4276 34.1729 24.4274 34.1826 24.4274 34.1922C23.7881 39.4973 19.2886 43.6208 13.8506 43.6208ZM15.4064 17.6747C16.4865 16.7756 17.8538 16.2804 19.2568 16.2804C22.3801 16.2804 24.9578 18.6773 25.2714 21.7403C25.2719 21.745 25.2724 21.7497 25.2729 21.7544C25.2777 21.8022 25.2819 21.8502 25.2856 21.8983C25.2859 21.9021 25.2861 21.9059 25.2864 21.9097C25.2897 21.9537 25.2924 21.9978 25.2947 22.0421C25.2951 22.0493 25.2956 22.0566 25.2959 22.0638C25.2982 22.1091 25.2999 22.1546 25.3011 22.2002C25.3014 22.2097 25.3016 22.2193 25.3018 22.2288C25.3028 22.2755 25.3035 22.3223 25.3035 22.3693C25.3035 22.6717 25.2811 22.9771 25.2368 23.2763C25.2344 23.2926 25.2326 23.3088 25.2314 23.3253L24.8738 28.18C24.8735 28.1793 24.8733 28.1787 24.873 28.178C24.8462 28.1147 24.8187 28.0516 24.7908 27.9888C24.7884 27.9833 24.786 27.9778 24.7835 27.9723C24.7262 27.8436 24.6666 27.716 24.605 27.5897C24.6029 27.5855 24.6008 27.5811 24.5987 27.5768C24.5364 27.4496 24.4719 27.3236 24.4053 27.199C24.4036 27.1957 24.4019 27.1925 24.4002 27.1893C24.333 27.0637 24.2636 26.9395 24.1921 26.8166C24.1908 26.8144 24.1896 26.8122 24.1883 26.81C24.1162 26.6862 24.0419 26.5638 23.9656 26.4429C23.9649 26.4417 23.9642 26.4405 23.9634 26.4394C23.8865 26.3175 23.8074 26.1971 23.7263 26.0783L23.7258 26.0776C22.0138 23.5697 19.385 21.7434 16.3303 21.0932C16.3298 21.0931 16.3293 21.093 16.3288 21.0929C16.1843 21.0622 16.0388 21.034 15.8923 21.0086C15.891 21.0084 15.8897 21.0082 15.8883 21.0079C15.7427 20.9827 15.5961 20.9601 15.4488 20.9402C15.4466 20.9399 15.4445 20.9396 15.4424 20.9394C15.2958 20.9197 15.1484 20.9027 15.0002 20.8884C14.9972 20.8881 14.9942 20.8878 14.9912 20.8875C14.8438 20.8734 14.6956 20.8621 14.5467 20.8534C14.5428 20.8532 14.539 20.853 14.5352 20.8527C14.3869 20.8443 14.238 20.8386 14.0884 20.8356C14.0839 20.8356 14.0794 20.8354 14.0749 20.8354C14.0002 20.834 13.9255 20.833 13.8506 20.833C12.9674 20.833 12.1064 20.9299 11.2772 21.1134L15.4064 17.6747ZM40.7432 16.2804C42.146 16.2804 43.5134 16.7756 44.5935 17.6746L48.7227 21.1134C47.8936 20.9299 47.0325 20.833 46.1495 20.833C46.0746 20.833 45.9999 20.834 45.9253 20.8354C45.9206 20.8354 45.9158 20.8356 45.911 20.8356C45.762 20.8386 45.6136 20.8443 45.4659 20.8527C45.4612 20.8529 45.4565 20.8532 45.4518 20.8535C45.3042 20.8621 45.1573 20.8734 45.0111 20.8873C45.0064 20.8877 45.0017 20.8882 44.997 20.8887C44.851 20.9028 44.7058 20.9195 44.5613 20.9389C44.5565 20.9395 44.5517 20.9401 44.5469 20.9408C44.4027 20.9603 44.2593 20.9824 44.1168 21.007C44.1118 21.0079 44.1068 21.0088 44.1018 21.0096C43.9596 21.0344 43.8182 21.0617 43.6778 21.0915C43.6725 21.0926 43.6674 21.0937 43.6621 21.0948C43.522 21.1248 43.3828 21.1571 43.2445 21.192C43.2391 21.1933 43.2337 21.1947 43.2283 21.1961C43.0904 21.231 42.9534 21.2684 42.8174 21.3081C42.8118 21.3097 42.8061 21.3114 42.8005 21.3131C42.6649 21.3529 42.5303 21.395 42.3968 21.4395C42.3909 21.4415 42.385 21.4435 42.379 21.4455C42.2459 21.49 42.1139 21.5368 41.983 21.5859L41.9643 21.593C41.8338 21.6422 41.7043 21.6935 41.576 21.7472C41.5696 21.7498 41.5632 21.7525 41.5569 21.7552C41.4289 21.8088 41.3021 21.8647 41.1765 21.9227C41.1699 21.9257 41.1633 21.9288 41.1567 21.9318C41.0315 21.9899 40.9074 22.0501 40.7845 22.1124C40.7778 22.1158 40.7711 22.1192 40.7645 22.1225C40.642 22.1849 40.5206 22.2493 40.4005 22.3158C40.3938 22.3195 40.387 22.3233 40.3803 22.327C40.2605 22.3936 40.142 22.4622 40.0248 22.5327C40.018 22.5368 40.0113 22.5409 40.0046 22.545C39.8875 22.6157 39.7718 22.6883 39.6574 22.7629C39.6509 22.7672 39.6443 22.7715 39.6378 22.7758C39.5235 22.8506 39.4106 22.9273 39.299 23.006C39.2927 23.0104 39.2864 23.0149 39.28 23.0194C39.1686 23.0982 39.0585 23.1789 38.95 23.2614C38.9438 23.2661 38.9377 23.2708 38.9316 23.2755C38.823 23.3583 38.7159 23.4429 38.6102 23.5294C38.6045 23.534 38.5988 23.5387 38.5931 23.5434C38.4873 23.6303 38.383 23.7189 38.2802 23.8093C38.2751 23.8138 38.2699 23.8184 38.2648 23.823C38.1618 23.9139 38.0604 24.0065 37.9606 24.1007C37.9559 24.1052 37.9513 24.1096 37.9466 24.114C37.8465 24.2089 37.748 24.3055 37.6512 24.4038C37.6473 24.4078 37.6434 24.4118 37.6394 24.4158C37.5422 24.5147 37.4467 24.6154 37.3528 24.7176C37.3496 24.7212 37.3463 24.7248 37.343 24.7284C37.2487 24.8315 37.1562 24.9361 37.0655 25.0425C37.063 25.0453 37.0606 25.0482 37.0581 25.0511C36.9668 25.1583 36.8773 25.2672 36.7897 25.3776C36.788 25.3797 36.7864 25.3817 36.7847 25.3838C36.6965 25.4952 36.6101 25.6083 36.5256 25.7229C36.5249 25.724 36.5241 25.725 36.5233 25.7261C35.9673 26.4814 35.4967 27.3041 35.1262 28.1797L34.7684 23.3253C34.7671 23.3088 34.7655 23.2926 34.7632 23.2763C34.7188 22.9763 34.6961 22.671 34.6961 22.3693C34.6961 22.3226 34.6968 22.276 34.6979 22.2296C34.6981 22.2195 34.6983 22.2095 34.6986 22.1994C34.6998 22.1549 34.7015 22.1105 34.7036 22.0663C34.7041 22.0564 34.7047 22.0465 34.7053 22.0366C34.7074 21.9979 34.7098 21.9594 34.7126 21.9209C34.7132 21.9118 34.7138 21.9027 34.7145 21.8937C34.7178 21.8505 34.7217 21.8075 34.7259 21.7647C34.7271 21.7526 34.7283 21.7406 34.7296 21.7285C34.7342 21.6847 34.739 21.6409 34.7445 21.5973C34.745 21.5937 34.7455 21.5901 34.746 21.5865C34.7515 21.543 34.7576 21.4997 34.7641 21.4566C34.7652 21.4492 34.7663 21.4418 34.7674 21.4345C34.7746 21.3873 34.7823 21.3402 34.7907 21.2933C34.7907 21.2929 34.7908 21.2924 34.7909 21.2919C35.2975 18.4465 37.7739 16.2804 40.7432 16.2804ZM53.9399 23.7407C53.9193 23.7181 53.8972 23.6968 53.8734 23.677L53.8163 23.6296C53.8011 23.6169 53.7854 23.6049 53.7692 23.5938C53.7551 23.5798 53.7403 23.5663 53.7248 23.5535L45.435 16.6499C44.1186 15.5541 42.4523 14.9506 40.7432 14.9506C37.6133 14.9506 34.9332 16.9264 33.8676 19.7043C32.6017 19.1799 30.8205 19.1132 29.9999 19.1132C29.1793 19.1132 27.398 19.1799 26.1322 19.7043C25.0667 16.9264 22.3867 14.9506 19.2568 14.9506C17.5473 14.9506 15.8811 15.5541 14.5649 16.65L6.27502 23.5535C6.2594 23.5663 6.24465 23.5798 6.23058 23.5938C6.21434 23.6051 6.19835 23.6173 6.1827 23.6302L6.12582 23.6777C6.10232 23.6972 6.08049 23.7183 6.0602 23.7406C3.49969 25.9538 1.875 29.2353 1.875 32.8918C1.875 39.5412 7.24713 44.9506 13.8506 44.9506C19.9293 44.9506 24.9647 40.3663 25.7263 34.4507C26.679 33.3108 28.2616 32.6351 29.9999 32.6351C31.7382 32.6351 33.3206 33.3105 34.2734 34.4497C35.0345 40.3658 40.0703 44.9506 46.1495 44.9506C52.7527 44.9506 58.125 39.5412 58.125 32.8918C58.125 29.2354 56.5003 25.9539 53.9399 23.7407Z" fill="#000667"/>
<path d="M30.0001 26.7681C28.7561 26.7681 27.7442 25.8827 27.7442 24.7944C27.7442 23.7059 28.7561 22.8204 30.0001 22.8204C31.2439 22.8204 32.2558 23.7059 32.2558 24.7944C32.2558 25.8827 31.2439 26.7681 30.0001 26.7681ZM30.0001 21.5131C27.9322 21.5131 26.25 22.985 26.25 24.7944C26.25 26.6036 27.9322 28.0756 30.0001 28.0756C32.0676 28.0756 33.75 26.6036 33.75 24.7944C33.75 22.985 32.0676 21.5131 30.0001 21.5131Z" fill="#000667"/>
<path d="M14.0625 40.7927C9.635 40.7927 6.03276 37.1907 6.03276 32.763C6.03276 28.3355 9.635 24.7333 14.0625 24.7333C18.4901 24.7333 22.0921 28.3355 22.0921 32.763C22.0921 37.1907 18.4901 40.7927 14.0625 40.7927ZM14.0625 23.3881C8.89321 23.3881 4.6875 27.5937 4.6875 32.763C4.6875 37.9324 8.89321 42.1381 14.0625 42.1381C19.2319 42.1381 23.4375 37.9324 23.4375 32.763C23.4375 27.5937 19.2319 23.3881 14.0625 23.3881Z" fill="#000667"/>
<path d="M45.9375 40.7927C41.5098 40.7927 37.9078 37.1907 37.9078 32.763C37.9078 28.3355 41.5098 24.7333 45.9375 24.7333C50.3652 24.7333 53.9672 28.3355 53.9672 32.763C53.9672 37.1907 50.3652 40.7927 45.9375 40.7927ZM45.9375 23.3881C40.7682 23.3881 36.5625 27.5937 36.5625 32.763C36.5625 37.9324 40.7682 42.1381 45.9375 42.1381C51.1068 42.1381 55.3125 37.9324 55.3125 32.763C55.3125 27.5937 51.1068 23.3881 45.9375 23.3881Z" fill="#000667"/>
<path d="M21.5625 33.8876C20.7274 33.5034 19.8659 33.7111 19.0463 34.5113C18.1442 35.3921 17.5585 35.3823 16.6875 34.4719C15.7308 33.4721 14.3313 33.4677 13.3646 34.4616C12.4569 35.3948 11.8943 35.397 10.9635 34.4709C9.9156 33.4284 8.65485 33.4464 7.60808 34.5278C7.22317 34.9255 6.81639 35.2176 6.27642 35.1453C5.89338 35.0941 5.63321 35.323 5.62518 35.7861C5.61719 36.247 5.87704 36.4589 6.25164 36.486C7.00337 36.5404 7.64933 36.2915 8.24022 35.6966C8.98875 34.943 9.61555 34.9723 10.3907 35.6674C11.6404 36.7881 12.6816 36.8026 13.9486 35.6647C14.4387 35.2246 14.9525 34.9927 15.5325 35.2567C15.8246 35.3896 16.0739 35.6657 16.3335 35.8919C17.2639 36.7028 18.5701 36.7446 19.4402 35.8556C20.1709 35.109 20.8469 34.9833 21.5625 35.4669V33.8876Z" fill="#000667" stroke="#000667" stroke-width="0.280687" stroke-miterlimit="10"/>
<path d="M21.5625 30.9139C21.1049 30.9931 20.6444 31.247 20.1718 31.6759C19.2387 32.5226 18.792 32.5153 17.8448 31.6376C16.7754 30.6465 15.5937 30.638 14.5461 31.6137C13.5602 32.5318 13.1058 32.5342 12.1236 31.6266C11.0459 30.6308 9.8383 30.6457 8.77845 31.6679C7.95628 32.4609 7.51899 32.5031 6.63169 31.819C6.29297 31.5579 6.00953 31.5075 5.74622 31.9339C5.46961 32.3817 5.72043 32.6685 5.96065 32.9391C6.8459 33.9367 8.1993 33.954 9.2411 32.9916C10.2605 32.0499 10.7568 31.9766 11.6481 32.9566C12.4656 33.8554 14.1615 33.9063 15.0425 32.9237C15.862 32.0098 16.4111 32.0004 17.2522 32.881C18.2436 33.9191 19.8415 33.942 20.83 32.8308C21.0785 32.5515 21.3211 32.3722 21.5625 32.2908V30.9139Z" fill="#000667" stroke="#000667" stroke-width="0.280687" stroke-miterlimit="10"/>
<path d="M21.5625 36.5427C21.0793 36.6217 20.5918 36.8936 20.084 37.3588C19.3656 38.0168 18.8054 38.0226 18.0863 37.3792C16.8016 36.2299 15.8597 36.225 14.5726 37.3608C13.8045 38.0387 13.2959 38.0359 12.5229 37.3494C11.2619 36.2296 10.2792 36.2398 9.00693 37.3859C8.3251 38.0001 7.7875 38.029 7.09568 37.4374C6.7662 37.1556 6.96121 36.9367 6.68518 37.3964C6.39268 37.8836 6.68518 38.0156 6.91887 38.3729C7.6083 39.4269 8.64304 39.4168 9.53058 38.5945C10.6309 37.5752 10.9111 37.6074 12.0581 38.5899C12.46 38.9342 12.9723 39.0859 13.4342 39.3256C14.2183 39.2131 14.5279 39.0743 15.2913 38.3774C16.0745 37.6625 16.5495 37.6586 17.3338 38.3609C18.6171 39.5103 19.5986 39.5039 20.8824 38.3379C21.1314 38.1118 21.0594 37.7072 21.2704 37.6346L21.5625 36.5427Z" fill="#000667" stroke="#000667" stroke-width="0.280687" stroke-miterlimit="10"/>
<path d="M54.375 33.8876C53.5399 33.5034 52.6784 33.7111 51.8588 34.5113C50.9567 35.3921 50.371 35.3823 49.5 34.4719C48.5433 33.4721 47.1438 33.4677 46.1771 34.4616C45.2695 35.3948 44.7068 35.397 43.776 34.4709C42.7281 33.4284 41.4674 33.4464 40.4206 34.5278C40.0357 34.9255 39.6289 35.2176 39.0889 35.1453C38.7059 35.0941 38.4457 35.323 38.4377 35.7861C38.4297 36.247 38.6895 36.4589 39.0641 36.486C39.8159 36.5404 40.4618 36.2915 41.0527 35.6966C41.8013 34.943 42.4281 34.9723 43.2032 35.6674C44.453 36.7881 45.4941 36.8026 46.7611 35.6647C47.2512 35.2246 47.765 34.9927 48.345 35.2567C48.6371 35.3896 48.8864 35.6657 49.146 35.8919C50.0764 36.7028 51.3826 36.7446 52.2527 35.8556C52.9834 35.109 53.6594 34.9833 54.375 35.4669V33.8876Z" fill="#000667" stroke="#000667" stroke-width="0.280687" stroke-miterlimit="10"/>
<path d="M54.375 36.5427C53.8616 36.6217 53.3437 36.8936 52.8041 37.3588C52.0408 38.0168 51.4456 38.0226 50.6815 37.3792C49.3165 36.2299 48.3157 36.225 46.9483 37.3608C46.1321 38.0387 45.5917 38.0359 44.7704 37.3494C43.4306 36.2296 42.3865 36.2398 41.0347 37.3859C40.3103 38.0001 39.7391 38.029 39.004 37.4374C38.6539 37.1556 38.8611 36.9367 38.5679 37.3964C38.2571 37.8836 38.5679 38.0156 38.8161 38.3729C39.5487 39.4269 40.6481 39.4168 41.5911 38.5945C42.7602 37.5752 43.0579 37.6074 44.2766 38.5899C44.7037 38.9342 45.2479 39.0859 45.7386 39.3256C46.5718 39.2131 46.9007 39.0743 47.7119 38.3774C48.544 37.6625 49.0487 37.6586 49.882 38.3609C51.2456 39.5103 52.2883 39.5039 53.6524 38.3379C53.917 38.1118 53.8404 37.7072 54.0646 37.6346L54.375 36.5427Z" fill="#000667" stroke="#000667" stroke-width="0.280687" stroke-miterlimit="10"/>
<path d="M54.375 30.9139C53.8905 30.993 53.4029 31.247 52.9025 31.6759C51.9145 32.5226 51.4415 32.5153 50.4386 31.6376C49.3063 30.6465 48.0551 30.638 46.9458 31.6137C45.902 32.5318 45.4209 32.5342 44.3809 31.6266C43.2397 30.6308 41.9611 30.6457 40.8389 31.6679C39.9684 32.4609 39.5054 32.5031 38.5659 31.819C38.2073 31.5579 37.9071 31.5075 37.6284 31.9339C37.3355 32.3817 37.601 32.6685 37.8554 32.9391C38.7927 33.9367 40.2257 33.954 41.3288 32.9916C42.4082 32.0499 42.9337 31.9766 43.8774 32.9566C44.7429 33.8554 46.5386 33.9063 47.4715 32.9237C48.3392 32.0098 48.9206 32.0003 49.8112 32.881C50.8609 33.9191 52.5528 33.942 53.5994 32.8308C53.8625 32.5515 54.1194 32.3722 54.375 32.2908V30.9139Z" fill="#000667" stroke="#000667" stroke-width="0.280687" stroke-miterlimit="10"/>
</svg>
