<svg width="64" height="64" viewBox="0 0 64 64" fill="none" xmlns="http://www.w3.org/2000/svg">
<path fill-rule="evenodd" clip-rule="evenodd" d="M47.506 6.02458C49.9825 5.71784 51.7479 8.3431 50.5056 10.4852L44.8845 20.1733C43.7654 22.102 40.9869 22.1927 39.7421 20.3409L37.5372 17.0615L32.9097 20.1148V25.4506L38.1123 28.0244L40.003 24.7041C41.1059 22.7662 43.8832 22.6531 45.1435 24.4945L51.4736 33.7441C52.873 35.7893 51.3094 38.5367 48.8167 38.4123L37.5431 37.85C35.2985 37.7379 33.9566 35.3283 35.0595 33.3904L37.1216 29.766L32.9097 27.6823V59H30.8929V20.0798H26.1572L26.8938 23.673C27.3409 25.8527 25.3144 27.7366 23.1438 27.16L12.2424 24.2636C9.83179 23.6231 9.19765 20.5326 11.1651 19.0126L20.0634 12.139C21.835 10.7705 24.4427 11.7233 24.8898 13.903L25.7475 18.0839H32.3524L36.4204 15.3989L34.1624 12.0406C32.9176 10.1889 34.0754 7.68778 36.3052 7.41139L47.506 6.02458ZM43.4734 25.6133C43.0531 25 42.1274 25.0377 41.7599 25.6835L36.8163 34.3698C36.4487 35.0157 36.8964 35.8186 37.6445 35.856L48.9181 36.4183C49.7491 36.4598 50.27 35.5447 49.8035 34.8629L43.4734 25.6133ZM22.9134 14.2996C22.7643 13.5732 21.8947 13.2559 21.3042 13.712L12.4069 20.5865C11.751 21.0932 11.9618 22.1224 12.7653 22.3359L23.6677 25.2323C24.3909 25.4241 25.0661 24.7969 24.9174 24.0706L22.9134 14.2996ZM47.7561 8.0049L36.5563 9.39268C35.813 9.48475 35.4264 10.3182 35.8414 10.9354L41.4211 19.2358C41.8361 19.853 42.7626 19.8222 43.1356 19.1793L48.7557 9.49111C49.1696 8.77711 48.5816 7.90266 47.7561 8.0049Z" fill="#000667"/>
</svg>
