<svg width="64" height="64" viewBox="0 0 64 64" fill="none" xmlns="http://www.w3.org/2000/svg">
<path d="M13 51.9997C13 54.2088 14.7909 55.9997 17 55.9997C19.2091 55.9997 21 54.2088 21 51.9997H23C23 54.2088 24.7909 55.9997 27 55.9997C29.2091 55.9997 31 54.2088 31 51.9997H33C33 54.2088 34.7909 55.9997 37 55.9997C39.2091 55.9997 41 54.2088 41 51.9997H43C43 54.2088 44.7909 55.9997 47 55.9997C49.2091 55.9997 51 54.2088 51 51.9997H53C53 55.3134 50.3137 57.9997 47 57.9997C44.9125 57.9997 43.0748 56.9334 42 55.3161C40.9252 56.9334 39.0875 57.9997 37 57.9997C34.9125 57.9997 33.0748 56.9334 32 55.3161C30.9252 56.9334 29.0875 57.9997 27 57.9997C24.9125 57.9997 23.0748 56.9334 22 55.3161C20.9252 56.9334 19.0875 57.9997 17 57.9997C13.6863 57.9997 11 55.3134 11 51.9997H13Z" fill="currentColor"/>
<path fill-rule="evenodd" clip-rule="evenodd" d="M31.8516 6.0104C32.1469 5.96615 32.4469 6.05676 32.6689 6.25649C37.8349 10.9055 44.9742 21.1367 45.9951 35.4284C46.0179 35.7479 45.8859 36.0592 45.6406 36.2653C45.3952 36.4714 45.0658 36.5471 44.7549 36.4694C40.9582 35.5203 37.7404 36.0199 35.5117 37.3571C35.1842 37.5535 34.7735 37.5464 34.4531 37.3385C34.1329 37.1307 33.959 36.7585 34.0049 36.3795C34.9906 28.2567 34.2527 20.987 33.2666 15.7467C33.1798 15.2855 33.0896 14.8405 33 14.4118V40.9997H51C51.4043 40.9997 51.769 41.2434 51.9238 41.6168C52.0786 41.9905 51.9929 42.4207 51.707 42.7067L45.707 48.7067C45.5195 48.8942 45.2652 48.9997 45 48.9997H17C16.8026 48.9996 16.6096 48.9412 16.4453 48.8317L13.4453 46.8317C13.2384 46.6937 13.0906 46.4831 13.0303 46.2418L12.0303 42.2418C11.9558 41.9433 12.0225 41.627 12.2119 41.3844C12.4014 41.1418 12.6921 40.9997 13 40.9997H31V37.4577C26.2381 37.0103 22.0736 37.132 19.0781 37.3717C17.5398 37.4948 16.3117 37.648 15.4717 37.7702C15.0518 37.8313 14.7286 37.885 14.5127 37.9225C14.405 37.9412 14.3237 37.9555 14.2705 37.9655C14.244 37.9704 14.2244 37.9748 14.2119 37.9772C14.2058 37.9784 14.2009 37.9796 14.1982 37.9801H14.1963L14.0508 37.9987C13.7115 38.016 13.3822 37.8589 13.1826 37.5758C12.9547 37.2523 12.939 36.8244 13.1426 36.485L31.1426 6.48501L31.2051 6.39321C31.3618 6.1878 31.5932 6.04917 31.8516 6.0104ZM14.875 45.3815L17.3027 46.9997H44.5859L48.5859 42.9997H14.2803L14.875 45.3815ZM15.9541 35.6862C16.7501 35.5831 17.7489 35.4712 18.9189 35.3776C21.9641 35.1339 26.1771 35.0089 31 35.4489V10.6081L15.9541 35.6862ZM34.1865 10.7223C34.5257 12.0127 34.894 13.5794 35.2324 15.3776C36.1724 20.3727 36.8936 27.1721 36.1816 34.817C38.3769 33.9748 41.0122 33.7403 43.8848 34.2428C42.8267 23.7324 38.3385 15.6569 34.1865 10.7223Z" fill="currentColor"/>

</svg>
