<svg width="64" height="64" viewBox="0 0 64 64" fill="none" xmlns="http://www.w3.org/2000/svg">
<path fill-rule="evenodd" clip-rule="evenodd" d="M35 42H22V34H35V42ZM24 40H33V36H24V40Z" fill="currentColor"/>
<path fill-rule="evenodd" clip-rule="evenodd" d="M38 29C38.5523 29 39 29.4477 39 30V43.1221C39.7066 41.9574 40.5524 40.829 41.499 39.7656C40.8808 38.2158 40.8526 36.7142 41.3291 35.3525C41.9408 33.6046 43.3289 32.2366 45.001 31.332C48.313 29.5404 53.1377 29.3612 56.6064 32.0068C56.9289 32.2528 57.0709 32.6698 56.9658 33.0615C56.1398 36.1413 53.8267 39.9177 51.1338 42.1162C49.7882 43.2147 48.2226 44.0213 46.6055 44C45.0441 43.9794 43.6459 43.1922 42.5273 41.6338C40.7925 43.708 39.5348 45.9647 39 48.1211V54H40C40.5523 54 41 54.4477 41 55V60C41 60.5523 40.5523 61 40 61H17C16.4477 61 16 60.5523 16 60V55C16 54.4477 16.4477 54 17 54H18V30C18 29.4477 18.4477 29 19 29H38ZM18 59H39V56H18V59ZM20 54H37V31H20V54ZM54.4961 34.0947C51.2172 34.7147 47.8057 36.5906 44.9736 39.1133C44.6086 39.4385 44.2551 39.7731 43.9141 40.1152C43.9206 40.1256 43.927 40.1361 43.9336 40.1465C44.823 41.5535 45.7645 41.9885 46.6318 42C47.5778 42.0124 48.6934 41.5262 49.8691 40.5664C51.7851 39.0021 53.5255 36.4469 54.4961 34.0947ZM53.0049 32.3838C50.6481 31.6605 47.9773 31.9959 45.9531 33.0908C44.5912 33.8276 43.6227 34.8565 43.2178 36.0137C42.9991 36.6386 42.9289 37.3464 43.0859 38.1309C43.2693 37.958 43.4553 37.7878 43.6436 37.6201C46.3654 35.1956 49.6591 33.2603 53.0049 32.3838Z" fill="currentColor"/>
<path fill-rule="evenodd" clip-rule="evenodd" d="M28.5 8C30.9853 8 33 10.0147 33 12.5C33 14.9853 30.9853 17 28.5 17C26.0147 17 24 14.9853 24 12.5C24 10.0147 26.0147 8 28.5 8ZM28.5 10C27.1193 10 26 11.1193 26 12.5C26 13.8807 27.1193 15 28.5 15C29.8807 15 31 13.8807 31 12.5C31 11.1193 29.8807 10 28.5 10Z" fill="currentColor"/>
<path fill-rule="evenodd" clip-rule="evenodd" d="M28.5 4C33.1283 4 37 7.51786 37 12C37 15.507 34.945 18.9826 33.0449 21.4756C32.0774 22.745 31.1125 23.8083 30.3896 24.5537C30.0279 24.9267 29.7254 25.2216 29.5117 25.4248C29.4048 25.5265 29.3197 25.606 29.2607 25.6602C29.2314 25.6871 29.2084 25.7081 29.1924 25.7227C29.1846 25.7297 29.1783 25.7352 29.1738 25.7393C29.1716 25.7412 29.168 25.7441 29.168 25.7441L29.166 25.7461L28.5 25L29.165 25.7471C28.786 26.0845 28.214 26.0845 27.835 25.7471L28.5 25L27.834 25.7461L27.832 25.7441C27.832 25.7441 27.8284 25.7412 27.8262 25.7393C27.8217 25.7352 27.8154 25.7297 27.8076 25.7227C27.7916 25.7081 27.7686 25.6871 27.7393 25.6602C27.6803 25.606 27.5952 25.5265 27.4883 25.4248C27.2746 25.2216 26.9721 24.9267 26.6104 24.5537C25.8875 23.8083 24.9226 22.745 23.9551 21.4756C22.055 18.9826 20 15.507 20 12C20 7.51786 23.8717 4 28.5 4ZM28.5 6C24.844 6 22 8.75015 22 12C22 14.8124 23.695 17.8365 25.5449 20.2637C26.4524 21.4543 27.3625 22.4565 28.0459 23.1611C28.2119 23.3323 28.3647 23.4853 28.5 23.6191C28.6353 23.4853 28.7881 23.3323 28.9541 23.1611C29.6375 22.4565 30.5476 21.4543 31.4551 20.2637C33.305 17.8365 35 14.8124 35 12C35 8.75015 32.156 6 28.5 6Z" fill="currentColor"/>

</svg>
