<svg width="60" height="60" viewBox="0 0 60 60" fill="none" xmlns="http://www.w3.org/2000/svg">
<mask id="mask0_15239_41097" style="mask-type:luminance" maskUnits="userSpaceOnUse" x="8" y="0" width="44" height="60">
<path d="M51.9 0H8V59.7H51.9V0Z" fill="white"/>
</mask>
<g mask="url(#mask0_15239_41097)">
<path fill-rule="evenodd" clip-rule="evenodd" d="M21.9998 6.80005C21.0275 6.80005 20.2998 7.47666 20.2998 8.50005C20.2998 9.52344 21.0275 10.2 21.9998 10.2C22.9722 10.2 23.6998 9.52344 23.6998 8.50005C23.6998 7.47666 22.9722 6.80005 21.9998 6.80005ZM18.2998 8.50005C18.2998 6.32344 19.9722 4.80005 21.9998 4.80005C24.0275 4.80005 25.6998 6.32344 25.6998 8.50005C25.6998 10.6767 24.0275 12.2 21.9998 12.2C19.9722 12.2 18.2998 10.6767 18.2998 8.50005Z" fill="#000667"/>
<path fill-rule="evenodd" clip-rule="evenodd" d="M13.2002 8.8C13.2002 3.94772 17.1479 0 22.0002 0C26.8439 0 30.8069 3.942 30.7001 8.81146C30.6993 10.7238 30.4754 12.2263 29.2512 14.1255C28.7183 15.0266 27.1058 17.4186 25.6513 19.551C24.9127 20.6338 24.2055 21.6633 23.6831 22.4219C23.4219 22.8012 23.2068 23.1129 23.0569 23.3298L22.8226 23.6688C22.8226 23.6689 22.8223 23.6692 22.0002 23.1L22.8226 23.6688C22.6378 23.9357 22.3347 24.0967 22.0101 24.1C21.6855 24.1032 21.3795 23.9487 21.1895 23.6855C19.8798 21.8722 15.5696 15.5572 14.659 14.1408C14.6518 14.1297 14.6449 14.1184 14.6382 14.107C13.5442 12.2471 13.2002 10.871 13.2002 8.8ZM21.9901 21.354C22.0052 21.3321 22.0205 21.3099 22.0359 21.2875C22.5573 20.5305 23.2626 19.5037 23.999 18.424C25.4845 16.2462 27.0597 13.9065 27.5382 13.093C27.5454 13.0807 27.5529 13.0687 27.5606 13.0567C28.5238 11.5681 28.7002 10.4762 28.7002 8.8L28.7004 8.77675C28.7871 5.05164 25.7525 2 22.0002 2C18.2524 2 15.2002 5.05228 15.2002 8.8C15.2002 10.5227 15.4542 11.5453 16.3521 13.076C17.1186 14.2657 20.2465 18.8589 21.9901 21.354Z" fill="#000667"/>
<path fill-rule="evenodd" clip-rule="evenodd" d="M51.2826 29.0151C51.3847 29.5579 51.0275 30.0807 50.4847 30.1828C45.6613 31.0901 41.3428 33.676 38.2327 36.9061C35.1066 40.1529 33.2998 43.9425 33.2998 47.2C33.2998 47.7523 32.8521 48.2 32.2998 48.2C31.7476 48.2 31.2998 47.7523 31.2998 47.2C31.2998 43.2576 33.4431 38.9971 36.792 35.5189C40.1569 32.024 44.8384 29.2099 50.115 28.2172C50.6577 28.1151 51.1805 28.4724 51.2826 29.0151Z" fill="#000667"/>
<path fill-rule="evenodd" clip-rule="evenodd" d="M47.1187 28.3104C45.1532 27.8429 42.8451 27.7031 40.9646 28.6856C38.3277 30.0737 37.3161 31.7186 37.0457 33.1705C36.7673 34.6656 37.2374 36.1557 37.9372 37.2528C38.533 38.1409 39.5972 38.7204 40.9349 38.7001C42.2748 38.6798 43.9356 38.048 45.5875 36.3983C47.0659 34.8716 48.1567 32.8722 48.8841 31.2113C49.2449 30.3874 49.5095 29.6628 49.6833 29.1459C49.6311 29.1242 49.5765 29.1018 49.5197 29.0789C48.9222 28.8379 48.0834 28.5398 47.1187 28.3104ZM50.9001 28.6C51.8657 28.86 51.8656 28.8602 51.8656 28.8604L51.8638 28.8669L51.8599 28.8814L51.8456 28.9322C51.8333 28.9755 51.8153 29.0377 51.7916 29.1169C51.7442 29.2752 51.6737 29.5018 51.5792 29.7828C51.3905 30.344 51.1051 31.1254 50.7161 32.0137C49.9444 33.7757 48.7369 36.0235 47.018 37.7961L47.0072 37.8071C45.061 39.7533 42.9239 40.6702 40.9652 40.6999C39.0067 40.7295 37.2732 39.8624 36.268 38.3547L36.2578 38.339C35.3604 36.9369 34.6836 34.9307 35.0795 32.8044C35.4841 30.6316 36.9721 28.5268 40.0343 26.9151L40.0368 26.9138C42.556 25.5969 45.4474 25.8571 47.5814 26.3646C48.6668 26.6227 49.603 26.9559 50.268 27.2242C50.6014 27.3587 50.8688 27.4778 51.0553 27.5645C51.1486 27.6079 51.2218 27.6432 51.273 27.6684C51.2986 27.681 51.3188 27.6911 51.3332 27.6984L51.3505 27.7072L51.3559 27.7099L51.3578 27.7109C51.3581 27.711 51.3591 27.7116 50.9001 28.6ZM50.9001 28.6L51.3591 27.7116C51.7771 27.9275 51.9879 28.4061 51.8656 28.8604L50.9001 28.6Z" fill="#000667"/>
<path fill-rule="evenodd" clip-rule="evenodd" d="M8 54.8C8 54.2478 8.44772 53.8 9 53.8H35C35.5523 53.8 36 54.2478 36 54.8V58.7001C36 59.2523 35.5523 59.7001 35 59.7001H9C8.44772 59.7001 8 59.2523 8 58.7001V54.8ZM10 55.8V57.7001H34V55.8H10Z" fill="#000667"/>
<path fill-rule="evenodd" clip-rule="evenodd" d="M10.7998 30.2C10.7998 27.5477 12.9476 25.4 15.5998 25.4H28.4998C31.1521 25.4 33.2998 27.5477 33.2998 30.2V51.8C33.2998 52.3523 32.8521 52.8 32.2998 52.8C31.7476 52.8 31.2998 52.3523 31.2998 51.8V30.2C31.2998 28.6523 30.0476 27.4 28.4998 27.4H15.5998C14.0521 27.4 12.7998 28.6523 12.7998 30.2V51.8C12.7998 52.3523 12.3521 52.8 11.7998 52.8C11.2476 52.8 10.7998 52.3523 10.7998 51.8V30.2Z" fill="#000667"/>
<path fill-rule="evenodd" clip-rule="evenodd" d="M14.7998 31C14.7998 30.4477 15.2476 30 15.7998 30H28.3998C28.9521 30 29.3998 30.4477 29.3998 31V38C29.3998 38.5523 28.9521 39 28.3998 39H15.7998C15.2476 39 14.7998 38.5523 14.7998 38V31ZM16.7998 32V37H27.3998V32H16.7998Z" fill="#000667"/>
</g>
</svg>
