<svg width="60" height="60" viewBox="0 0 60 60" fill="none" xmlns="http://www.w3.org/2000/svg">
<g clip-path="url(#clip0_15239_41229)">
<path d="M32.7293 38.8706C24.5416 38.1558 17.8701 31.7227 17.8701 23.3494C17.8701 23.2473 18.0723 23.1452 18.4766 23.1452C18.6788 23.1452 19.0831 23.2473 19.0831 23.3494C19.4874 31.11 25.2492 36.9305 33.0326 37.441C32.8304 38.0537 32.8304 38.4622 32.7293 38.8706Z" fill="currentColor"/>
<path d="M32.7293 38.8706C24.5416 38.1558 17.8701 31.7227 17.8701 23.3494C17.8701 23.2473 18.0723 23.1452 18.4766 23.1452C18.6788 23.1452 19.0831 23.2473 19.0831 23.3494C19.4874 31.11 25.2492 36.9305 33.0326 37.441C32.8304 38.0537 32.8304 38.4622 32.7293 38.8706Z" stroke="currentColor" stroke-width="0.666667" stroke-miterlimit="10" stroke-linecap="round" stroke-linejoin="round"/>
<path d="M33.1338 34.5815C26.8666 34.071 22.6211 29.2717 22.2168 22.9407C22.2168 22.7364 23.2276 22.6343 23.3287 22.8386C23.5309 28.0463 27.6753 33.4583 33.2348 33.2541C33.1338 33.6625 33.1338 34.071 33.1338 34.5815Z" fill="currentColor"/>
<path d="M33.1338 34.5815C26.8666 34.071 22.6211 29.2717 22.2168 22.9407C22.2168 22.7364 23.2276 22.6343 23.3287 22.8386C23.5309 28.0463 27.6753 33.4583 33.2348 33.2541C33.1338 33.6625 33.1338 34.071 33.1338 34.5815Z" stroke="currentColor" stroke-width="0.666667" stroke-miterlimit="10" stroke-linecap="round" stroke-linejoin="round"/>
<path d="M33.336 30.395C29.2927 30.0887 26.6646 26.719 26.5635 22.5323C26.5635 22.3281 27.17 22.3281 27.2711 22.4302C27.3721 26.1063 30.0003 29.5781 33.4371 29.5781C33.4371 29.7823 33.4371 30.0887 33.336 30.395Z" fill="currentColor"/>
<path d="M33.336 30.395C29.2927 30.0887 26.6646 26.719 26.5635 22.5323C26.5635 22.3281 27.17 22.3281 27.2711 22.4302C27.3721 26.1063 30.0003 29.5781 33.4371 29.5781C33.4371 29.7823 33.4371 30.0887 33.336 30.395Z" stroke="currentColor" stroke-miterlimit="10" stroke-linecap="round" stroke-linejoin="round"/>
<path d="M41.1192 9.97269L39.704 11.4023C39.4008 11.7086 39.4008 12.3213 39.704 12.6276L43.7473 16.7121C44.0506 17.0185 44.6571 17.0185 44.9603 16.7121L46.3755 15.2826C46.6787 14.9762 46.6787 14.3635 46.3755 14.0572L42.3322 9.97269C42.0289 9.56424 41.5235 9.56424 41.1192 9.97269Z" stroke="currentColor" stroke-width="2.66667" stroke-miterlimit="10"/>
<path d="M29.7976 17.3244L20.2958 7.72583C19.9925 7.41949 19.9925 6.80681 20.2958 6.50048L23.6315 3.13075C23.9348 2.82441 24.5413 2.82441 24.8445 3.13075L34.3463 12.7294C34.6496 13.0357 34.6496 13.6484 34.3463 13.9547L31.0106 17.3244C30.7073 17.6308 30.1008 17.6308 29.7976 17.3244Z" stroke="currentColor" stroke-width="2.66667" stroke-miterlimit="10"/>
<path d="M48.8015 36.3177L39.2997 26.7191C38.9965 26.4127 38.9965 25.8001 39.2997 25.4937L42.6354 22.124C42.9387 21.8177 43.5452 21.8177 43.8484 22.124L53.3502 31.7226C53.6535 32.0289 53.6535 32.6416 53.3502 32.948L50.0145 36.3177C49.6102 36.7261 49.1048 36.7261 48.8015 36.3177Z" stroke="currentColor" stroke-width="2.66667" stroke-miterlimit="10"/>
<path d="M37.0758 11.0958L29.0902 19.1627C28.787 19.469 28.787 20.0817 29.0902 20.388L36.065 27.4338C36.3682 27.7402 36.9747 27.7402 37.278 27.4338L45.2635 19.3669C45.5668 19.0606 45.5668 18.4479 45.2635 18.1415L38.2888 11.0958C37.9855 10.7894 37.379 10.7894 37.0758 11.0958Z" stroke="currentColor" stroke-width="2.66667" stroke-miterlimit="10"/>

<mask id="mask0_15239_41229" style="mask-type:luminance" maskUnits="userSpaceOnUse" x="2" y="19" width="56" height="57">
<path d="M2 19.2648H58V75.9375H2V19.2648Z" fill="white"/>
</mask>
<g mask="url(#mask0_15239_41229)">
<path d="M6.75103 40.6066H17.8702C18.1734 40.6066 18.4767 40.9129 18.4767 41.2193V47.7545C18.4767 48.0608 18.1734 48.3672 17.8702 48.3672H6.75103C6.44778 48.3672 6.14453 48.0608 6.14453 47.7545V41.2193C6.14453 40.9129 6.44778 40.6066 6.75103 40.6066Z" stroke="currentColor" stroke-width="2.21773" stroke-miterlimit="10"/>
<path d="M49.2056 43.3637H50.2164C50.3175 43.3637 50.5197 43.4658 50.5197 43.67V48.0608C50.5197 48.163 50.4186 48.3672 50.2164 48.3672H49.2056C49.1045 48.3672 48.9023 48.2651 48.9023 48.0608V43.5679C48.9023 43.4658 49.0034 43.3637 49.2056 43.3637Z" stroke="currentColor" stroke-width="1.62627" stroke-miterlimit="10"/>
<path d="M2.80859 48.3668L5.63892 57.8633H50.823L56.7869 48.3668H2.80859Z" stroke="currentColor" stroke-width="2.21773" stroke-miterlimit="10"/>
<path d="M9.37891 37.7473H10.7941V40.6064H9.37891V37.7473Z" stroke="currentColor" stroke-width="1.62627" stroke-miterlimit="10"/>

</g>
</g>
<defs>
<clipPath id="clip0_15239_41229">
<rect width="60" height="60" fill="white"/>
</clipPath>
</defs>
</svg>
