<svg width="64" height="64" viewBox="0 0 64 64" fill="none" xmlns="http://www.w3.org/2000/svg">
<path d="M30 39C30.5523 39 31 39.4477 31 40C31 40.5523 30.5523 41 30 41H28C27.4477 41 27 40.5523 27 40C27 39.4477 27.4477 39 28 39H30Z" fill="#000667"/>
<path d="M36 39C36.5523 39 37 39.4477 37 40C37 40.5523 36.5523 41 36 41H34C33.4477 41 33 40.5523 33 40C33 39.4477 33.4477 39 34 39H36Z" fill="#000667"/>
<path fill-rule="evenodd" clip-rule="evenodd" d="M34 31C34.5523 31 35 31.4477 35 32V35H40C40.5523 35 41 35.4477 41 36V45.8525L44.2305 47.2686L40.6514 58.3086C40.5177 58.7208 40.1335 58.9999 39.7002 59H24.2998C23.8665 58.9999 23.4823 58.7208 23.3486 58.3086L19.7695 47.2686L23 45.8525V36C23 35.4477 23.4477 35 24 35H29V32C29 31.4477 29.4477 31 30 31H34ZM22.2305 48.373L25.0264 57H31V44.5293L22.2305 48.373ZM33 57H38.9736L41.7695 48.373L33 44.5293V57ZM25 44.9756L31.5986 42.084C31.613 42.0777 31.628 42.073 31.6426 42.0674C31.6604 42.0605 31.6782 42.0536 31.6963 42.0479C31.7166 42.0414 31.7372 42.0364 31.7578 42.0312C31.7773 42.0264 31.7967 42.0213 31.8164 42.0176C31.8372 42.0137 31.858 42.0113 31.8789 42.0088C31.8978 42.0065 31.9166 42.0042 31.9355 42.0029C31.9437 42.0024 31.9518 42.0013 31.96 42.001H32.04C32.0479 42.0013 32.0556 42.0024 32.0635 42.0029C32.0824 42.0041 32.1012 42.0065 32.1201 42.0088C32.141 42.0113 32.1619 42.0137 32.1826 42.0176C32.2023 42.0213 32.2217 42.0264 32.2412 42.0312C32.2618 42.0364 32.2824 42.0414 32.3027 42.0479C32.3209 42.0536 32.3386 42.0606 32.3564 42.0674C32.3713 42.0731 32.3867 42.0776 32.4014 42.084L39 44.9756V37H25V44.9756ZM31 35H33V33H31V35Z" fill="#000667"/>
<path fill-rule="evenodd" clip-rule="evenodd" d="M24.5 5C26.3092 5 27.9857 5.5687 29.3633 6.53223C30.3465 6.18836 31.4021 6 32.5 6C35.8231 6 38.7437 7.70774 40.4404 10.2881C41.096 10.1013 41.7868 10 42.5 10C43.2879 10 44.0474 10.1245 44.7617 10.3506C45.6448 8.94035 47.2108 8 49 8C51.7614 8 54 10.2386 54 13C54 15.423 52.2763 17.4426 49.9883 17.9014C49.7797 21.8569 46.5075 25 42.5 25C40.7327 25 39.1087 24.3857 37.8271 23.3633C36.9608 23.9509 35.9923 24.3988 34.9531 24.6758C34.9137 24.7394 34.8733 24.8021 34.832 24.8643C34.9394 25.2229 35 25.6037 35 26C35 28.2091 33.2091 30 31 30C29.4455 30 28.1014 29.1139 27.4395 27.8223C24.5242 27.1581 22.3008 24.6778 22.0283 21.6318C18.54 20.5729 16 17.3354 16 13.5C16 8.80558 19.8056 5 24.5 5ZM24.5 7C20.9101 7 18 9.91015 18 13.5C18 16.644 20.2335 19.2677 23.2012 19.8691L24.0234 20.0361L24.0029 20.874C24.0014 20.9365 24 20.966 24 21C24 23.4411 25.7507 25.474 28.0654 25.9111L28.292 25.9482L28.9072 26.0352L29.1016 26.626C29.365 27.4257 30.1166 28 31 28C32.1046 28 33 27.1046 33 26C33 25.6968 32.9299 25.408 32.8047 25.1445L32.5381 24.583L32.9238 24.0957C33.1116 23.8581 33.2772 23.6042 33.4189 23.3369L33.6367 22.9268L34.0918 22.8281C35.2716 22.5732 36.348 22.042 37.25 21.3027L37.9531 20.7266L38.5938 21.3721C39.5915 22.3785 40.9723 23 42.5 23C45.5376 23 48 20.5376 48 17.5C48 17.3657 47.9929 17.226 47.9814 17.0752L47.8994 15.9932L48.9834 15.999C48.9909 15.9991 48.9984 15.9989 49.0049 15.999C50.6595 15.9964 52 14.6552 52 13C52 11.3431 50.6569 10 49 10C47.7118 10 46.611 10.8127 46.1865 11.957L45.8086 12.9746L44.8252 12.5156C44.1193 12.1857 43.3325 12 42.5 12C41.7479 12 41.0334 12.1499 40.3838 12.4209L39.5459 12.7705L39.1172 11.9697C37.8528 9.60533 35.3635 8 32.5 8C31.4672 8 30.4854 8.20829 29.5928 8.58398L29.042 8.81543L28.5771 8.44043C27.4609 7.53963 26.0448 7 24.5 7Z" fill="#000667"/>
</svg>
