<svg width="64" height="64" viewBox="0 0 64 64" fill="none" xmlns="http://www.w3.org/2000/svg">
<path d="M12.3542 52C12.3543 54.2089 14.1735 55.9998 16.4172 56C18.6611 56 20.4801 54.209 20.4802 52H22.5117L22.5176 52.206C22.6267 54.3192 24.4012 55.9998 26.5747 56C28.8186 56 30.6376 54.209 30.6377 52H32.6692L32.6752 52.206C32.7842 54.3192 34.5587 55.9998 36.7322 56C38.9761 56 40.7951 54.209 40.7952 52H42.8267L42.8327 52.206C42.9417 54.3192 44.7162 55.9998 46.8897 56C49.1336 56 50.9526 54.209 50.9527 52H52.9842C52.9841 55.3136 50.2556 58 46.8897 58C44.7693 57.9999 42.9026 56.933 41.811 55.3154C40.7193 56.9329 38.8527 58 36.7322 58C34.6118 57.9999 32.7451 56.933 31.6535 55.3154C30.5617 56.9329 28.6951 58 26.5747 58C24.4543 57.9999 22.5876 56.933 21.4959 55.3154C20.4042 56.9329 18.5376 58 16.4172 58C13.0515 57.9998 10.3228 55.3135 10.3227 52H12.3542Z" fill="#000667"/>
<path d="M12.3542 44C12.3543 46.2089 14.1735 47.9998 16.4172 48C18.6611 48 20.4801 46.209 20.4802 44H22.5117L22.5176 44.206C22.6267 46.3192 24.4012 47.9998 26.5747 48C28.8186 48 30.6376 46.209 30.6377 44H32.6692L32.6752 44.206C32.7842 46.3192 34.5587 47.9998 36.7322 48C38.9761 48 40.7951 46.209 40.7952 44H42.8267L42.8327 44.206C42.9417 46.3192 44.7162 47.9998 46.8897 48C49.1336 48 50.9526 46.209 50.9527 44H52.9842C52.9841 47.3136 50.2556 50 46.8897 50C44.7693 49.9999 42.9026 48.9329 41.811 47.3154C40.7193 48.9329 38.8527 50 36.7322 50C34.6118 49.9999 32.7451 48.9329 31.6535 47.3154C30.5617 48.9329 28.6951 50 26.5747 50C24.4543 49.9999 22.5876 48.9329 21.4959 47.3154C20.4042 48.9329 18.5376 50 16.4172 50C13.0515 49.9998 10.3228 47.3135 10.3227 44H12.3542Z" fill="#000667"/>
<path fill-rule="evenodd" clip-rule="evenodd" d="M44.5597 29.2528L31.0881 32.7216C31.1609 32.8683 31.2191 33.0248 31.2616 33.1894L31.5662 34.3671C31.9 35.6613 31.1061 36.9802 29.7926 37.3134L24.6612 38.6152C23.3477 38.9482 22.0117 38.1691 21.6775 36.8749L21.3739 35.6972C21.3348 35.5453 21.3116 35.3931 21.3025 35.2421L18.3128 36.0126C18.1585 36.7002 17.7051 37.317 17.0193 37.6591L15.9371 38.1992C14.7272 38.8024 13.2543 38.3231 12.6478 37.1288L10.2602 32.4267C9.65382 31.2322 10.1435 29.7745 11.3533 29.1708L12.4355 28.6308C13.0791 28.3098 13.7961 28.2968 14.4184 28.5331L33.7296 10.3895L44.5597 29.2528ZM28.7788 33.3876L23.6475 34.6894C23.4209 34.7471 23.2838 34.9748 23.341 35.1982L23.6455 36.3759C23.7033 36.5996 23.9343 36.7342 24.1613 36.6767L29.2926 35.3749C29.5193 35.3171 29.6565 35.0897 29.5991 34.8661L29.2946 33.6884C29.2366 33.4649 29.0058 33.3301 28.7788 33.3876ZM13.9125 30.6044C13.8076 30.3981 13.5532 30.3158 13.3441 30.4198L12.2619 30.9599C12.0529 31.0643 11.9678 31.3159 12.0725 31.5224L14.4601 36.2245C14.565 36.431 14.8203 36.5143 15.0295 36.4101L16.1117 35.87C16.3205 35.7655 16.4049 35.513 16.3001 35.3066L13.9125 30.6044ZM15.8518 29.9511L17.9299 34.0448L41.4926 27.9745L33.2445 13.6102L15.8518 29.9511Z" fill="#000667"/>
<path d="M52.9842 20.9999C53.5452 20.9999 54 21.4476 54 21.9999C53.9999 22.5521 53.5452 22.9999 52.9842 22.9999H44.8582C44.2975 22.9997 43.8426 22.552 43.8425 21.9999C43.8425 21.4477 44.2974 21 44.8582 20.9999H52.9842Z" fill="#000667"/>
<path d="M50.5956 13.0633C51.1208 12.8695 51.7069 13.1314 51.904 13.6483C52.1009 14.1653 51.8349 14.7424 51.3098 14.9364L43.1838 17.9364C42.6588 18.1301 42.0725 17.8682 41.8755 17.3514C41.6786 16.8345 41.9448 16.2575 42.4696 16.0633L50.5956 13.0633Z" fill="#000667"/>
<path d="M44.0319 5.41878C44.358 4.96938 44.992 4.86537 45.4484 5.18636C45.9049 5.50737 46.0106 6.13148 45.6845 6.5809L40.6058 13.5809C40.2797 14.0302 39.6457 14.1343 39.1893 13.8133C38.7329 13.4924 38.6273 12.8682 38.9532 12.4188L44.0319 5.41878Z" fill="#000667"/>
</svg>
