<svg width="64" height="64" viewBox="0 0 64 64" fill="none" xmlns="http://www.w3.org/2000/svg">
<path d="M12.9996 37.3058C13.5516 37.306 13.9994 37.7538 13.9996 38.3058C13.9996 38.8579 13.5517 39.3055 12.9996 39.3058H11.9996C11.4473 39.3058 10.9996 38.8581 10.9996 38.3058C10.9997 37.7536 11.4474 37.3058 11.9996 37.3058H12.9996Z" fill="#000667"/>
<path fill-rule="evenodd" clip-rule="evenodd" d="M17.1285 34.3136C17.4246 34.3521 17.6908 34.5226 17.8502 34.7804C18.0322 35.0751 18.0489 35.4432 17.8941 35.753L17.0591 37.422L17.9029 40.795L20.4136 43.3058H43.7222L48.4849 40.4484L48.5972 40.3907C48.7121 40.3403 48.8364 40.3115 48.9625 40.3068L58.9625 39.9318C59.3228 39.9185 59.6623 40.1002 59.8511 40.4073C60.04 40.7147 60.0485 41.1006 59.8736 41.4161L56.9175 46.7452L55.9468 49.6251C55.8098 50.0317 55.4286 50.3056 54.9996 50.3058H6.99957C6.54071 50.3058 6.14114 49.9931 6.02985 49.548L4.02985 41.548C3.9553 41.2493 4.02205 40.9332 4.21149 40.6905C4.401 40.448 4.69175 40.3058 4.99957 40.3058H6.27887L8.05133 34.9894L8.11286 34.8429C8.28312 34.5168 8.62307 34.3058 8.99957 34.3058H16.9996L17.1285 34.3136ZM49.2935 42.295L44.5142 45.1632C44.3589 45.2564 44.1807 45.3057 43.9996 45.3058H19.9996C19.7344 45.3058 19.4801 45.2003 19.2925 45.0128L16.5855 42.3058H6.27985L7.77985 48.3058H54.2818L55.0523 46.0206L55.0845 45.9357C55.0967 45.9082 55.111 45.8809 55.1256 45.8546L57.2652 41.9962L49.2935 42.295ZM8.38629 40.3058H15.7193L15.0298 37.548C14.9721 37.3165 14.9983 37.0719 15.105 36.8585L15.3814 36.3058H9.72028L8.38629 40.3058Z" fill="#000667"/>
<path d="M30.9996 42.3058H20.9996V40.3058H30.9996V42.3058Z" fill="#000667"/>
<path d="M42.9996 42.3058H32.9996V40.3058H42.9996V42.3058Z" fill="#000667"/>
<path d="M30.9996 39.3058H20.9996V37.3058H30.9996V39.3058Z" fill="#000667"/>
<path d="M42.9996 39.3058H32.9996V37.3058H42.9996V39.3058Z" fill="#000667"/>
<path d="M31.8404 24.7863C33.2566 24.7815 34.6503 25.1471 35.8756 25.8458C37.1008 26.5446 38.1124 27.5503 38.8023 28.7599L37.0416 29.7091C36.5321 28.8159 35.7848 28.0708 34.8765 27.5529C33.9679 27.0347 32.9304 26.7622 31.8726 26.7657C30.8149 26.7694 29.776 27.049 28.8658 27.5763C27.9557 28.1037 27.2088 28.8587 26.7027 29.7609L24.9283 28.7902C25.6064 27.5812 26.6061 26.5732 27.8209 25.8693C29.0358 25.1653 30.4241 24.7911 31.8404 24.7863Z" fill="#000667"/>
<path d="M31.8179 18.8575C34.3268 18.849 36.7948 19.4954 38.9625 20.7316C41.13 21.9677 42.9178 23.7476 44.1373 25.8859L42.3765 26.8341C41.3374 25.0121 39.8131 23.4939 37.9625 22.4386C36.1117 21.3832 34.0012 20.8288 31.8511 20.8361C29.701 20.8434 27.5913 21.4125 25.7427 22.4835C23.8941 23.5546 22.3764 25.0884 21.3472 26.923L19.5728 25.9523C20.7739 23.8112 22.5439 22.0241 24.6968 20.7765C26.85 19.5289 29.3094 18.8661 31.8179 18.8575Z" fill="#000667"/>
<path d="M31.7974 13.0001C35.3851 12.988 38.913 13.9122 42.0113 15.6788C45.1097 17.4457 47.665 19.9902 49.4078 23.046L47.647 23.9952C46.0847 21.2558 43.7936 18.974 41.0123 17.3878C38.2307 15.8016 35.0599 14.9687 31.8306 14.9796C28.6012 14.9906 25.4324 15.8441 22.6568 17.4523C19.8812 19.0605 17.6019 21.3637 16.0562 24.1193L14.2828 23.1486C16.0005 20.0865 18.5328 17.5299 21.6129 15.7452C24.6928 13.9608 28.2099 13.0123 31.7974 13.0001Z" fill="#000667"/>
</svg>
