<svg width="60" height="60" viewBox="0 0 60 60" fill="none" xmlns="http://www.w3.org/2000/svg">
<path d="M13.1208 55.9879L15.7314 19.741H23.0611L25.9729 55.9879H13.1208Z" stroke="currentColor" stroke-width="1.60651" stroke-miterlimit="10" stroke-linecap="round" stroke-linejoin="round"/>
<path d="M8 55.9878H30.5916V59H8V55.9878Z" stroke="currentColor" stroke-width="1.60651" stroke-miterlimit="10" stroke-linecap="round" stroke-linejoin="round"/>
<path d="M36.616 48.5579V41.7302H49.3676V48.5579" stroke="currentColor" stroke-width="1.20488" stroke-miterlimit="10" stroke-linecap="round" stroke-linejoin="round"/>
<path d="M33.5034 49.7928L35.8831 59.0001H49.8898C50.7533 55.9277 51.6168 52.8552 52.4703 49.7928C49.2773 48.8088 46.0744 47.8349 42.8814 46.8509L33.5034 49.7928Z" stroke="currentColor" stroke-width="1.60651" stroke-miterlimit="10" stroke-linecap="round" stroke-linejoin="round"/>
<path d="M43.042 46.8509V59.0001" stroke="currentColor" stroke-width="1.60651" stroke-miterlimit="10" stroke-linecap="round" stroke-linejoin="round"/>
<path d="M47.8918 5.45317L12.1971 16.2971C11.5244 14.0681 12.7795 11.7085 15.0085 11.0358L42.6305 2.64177C44.8595 1.96905 47.209 3.22413 47.8918 5.45317Z" stroke="currentColor" stroke-width="1.60651" stroke-miterlimit="10" stroke-linecap="round" stroke-linejoin="round"/>
<path d="M44.247 27.6732H42.1384V8.84686C42.1384 7.8227 42.9718 6.98933 43.996 6.98933H44.247V27.6732Z" stroke="currentColor" stroke-width="1.60651" stroke-miterlimit="10"/>
<path d="M19.5467 14.9215C20.8776 14.9215 21.9565 16.0004 21.9565 17.3313C21.9565 18.6621 20.8776 19.741 19.5467 19.741C18.2158 19.741 17.137 18.6621 17.137 17.3313C17.137 16.0004 18.2158 14.9215 19.5467 14.9215Z" stroke="currentColor" stroke-width="1.60651" stroke-miterlimit="10" stroke-linecap="round" stroke-linejoin="round"/>
<path d="M47.7611 36.3082H38.2224V31.7397C38.2224 31.2075 38.6542 30.7858 39.1763 30.7858H46.9277C47.3896 30.7858 47.7611 31.1573 47.7611 31.6192V36.3082Z" stroke="currentColor" stroke-width="1.60651" stroke-miterlimit="10"/>
<path d="M43.2529 27.7836C44.0791 27.7836 44.749 28.4534 44.749 29.2797C44.749 30.1059 44.0791 30.7758 43.2529 30.7758C42.4267 30.7758 41.7568 30.1059 41.7568 29.2797C41.7568 28.4534 42.4267 27.7836 43.2529 27.7836Z" stroke="currentColor" stroke-width="1.4057" stroke-miterlimit="10"/>
<path d="M40.2305 43.5374C40.8959 43.5374 41.4354 44.0768 41.4354 44.7423C41.4354 45.4077 40.8959 45.9472 40.2305 45.9472C39.5651 45.9472 39.0256 45.4077 39.0256 44.7423C39.0256 44.0768 39.5651 43.5374 40.2305 43.5374Z" stroke="currentColor" stroke-width="1.00407" stroke-miterlimit="10"/>
<path d="M45.8533 43.5374C46.5187 43.5374 47.0582 44.0768 47.0582 44.7423C47.0582 45.4077 46.5187 45.9472 45.8533 45.9472C45.1879 45.9472 44.6484 45.4077 44.6484 44.7423C44.6484 44.0768 45.1879 43.5374 45.8533 43.5374Z" stroke="currentColor" stroke-width="1.00407" stroke-miterlimit="10"/>

</svg>
