<svg width="65" height="64" viewBox="0 0 65 64" fill="none" xmlns="http://www.w3.org/2000/svg">
<path d="M31.5356 9.74316C31.8301 8.77242 33.2696 8.80484 33.4878 9.84082L34.1655 13.0625C44.9874 13.8726 53.6262 22.5113 54.437 33.333L57.6587 34.0117L57.7563 34.0361C58.7271 34.3306 58.6947 35.7702 57.6587 35.9883L54.437 36.666C53.6267 47.4881 44.9877 56.1263 34.1655 56.9365L33.4878 60.1592C33.2696 61.1952 31.8301 61.2276 31.5356 60.2568L31.5112 60.1592L30.8325 56.9365C20.0111 56.1256 11.3723 47.4876 10.562 36.666L7.34033 35.9883C6.30472 35.77 6.27233 34.3307 7.24268 34.0361L7.34033 34.0117L10.562 33.333C11.3727 22.5119 20.0114 13.8734 30.8325 13.0625L31.5112 9.84082L31.5356 9.74316ZM32.4683 54.999C32.4787 54.999 32.4891 55 32.4995 55C32.5095 55 32.5198 54.999 32.5298 54.999L35.1509 42.5479C34.321 42.8393 33.429 43 32.4995 43C31.5695 43 30.6774 42.8387 29.8472 42.5469L32.4683 54.999ZM12.6089 37.0967C13.5851 46.4673 21.0314 53.9128 30.4019 54.8896L27.5522 41.3613L22.2065 46.707L20.7925 45.293L26.1382 39.9453L12.6089 37.0967ZM38.8589 39.9443L44.2065 45.293L42.7925 46.707L37.4448 41.3604L34.5962 54.8896C43.9674 53.9135 51.4138 46.4678 52.3901 37.0967L38.8589 39.9443ZM32.4995 29C29.186 29.0002 26.4995 31.6864 26.4995 35C26.4995 38.3136 29.186 40.9998 32.4995 41C35.8132 41 38.4995 38.3137 38.4995 35C38.4995 31.6863 35.8132 29 32.4995 29ZM12.4995 34.9688V35.0303L24.9517 37.6514C24.6602 36.8214 24.4995 35.9295 24.4995 35C24.4995 34.0701 24.66 33.1778 24.9517 32.3477L12.4995 34.9688ZM40.0474 32.3477C40.3391 33.1779 40.4995 34.07 40.4995 35C40.4995 35.9296 40.3389 36.8214 40.0474 37.6514L52.4985 35.0303C52.4986 35.0202 52.4995 35.0101 52.4995 35C52.4995 34.9896 52.4986 34.9792 52.4985 34.9688L40.0474 32.3477ZM30.4019 15.1094C21.0317 16.0862 13.5855 23.5321 12.6089 32.9023L26.1372 30.0527L20.7925 24.707L22.2065 23.293L27.5522 28.6377L30.4019 15.1094ZM37.4448 28.6387L42.7925 23.293L44.2065 24.707L38.8599 30.0537L52.3901 32.9023C51.4134 23.5316 43.9671 16.0855 34.5962 15.1094L37.4448 28.6387ZM29.8472 27.4521C30.6774 27.1604 31.5696 27 32.4995 27C33.4289 27 34.3211 27.1598 35.1509 27.4512L32.5298 15H32.4683L29.8472 27.4521ZM18.4995 3C19.0518 3 19.4995 3.44772 19.4995 4C19.4995 4.55228 19.0518 5 18.4995 5C16.7777 5.00012 15.1862 5.87843 14.063 7.3584C13.0999 8.62748 12.4995 10.3219 12.4995 12.2012C12.4995 14.2373 13.2043 16.0549 14.3101 17.3506C14.6686 17.7707 14.6188 18.4022 14.1987 18.7607C13.7788 19.1188 13.148 19.0691 12.7896 18.6494C11.3622 16.9771 10.4995 14.6939 10.4995 12.2012C10.4995 9.89917 11.2349 7.77724 12.4702 6.14941C13.9112 4.2507 16.0587 3.00012 18.4995 3ZM46.4995 3C48.9404 3 51.0877 4.25071 52.5288 6.14941C53.7642 7.77727 54.4995 9.89909 54.4995 12.2012C54.4995 14.694 53.6369 16.977 52.2095 18.6494C51.8509 19.069 51.2202 19.119 50.8003 18.7607C50.3805 18.4022 50.3306 17.7706 50.689 17.3506C51.7948 16.0549 52.4995 14.2374 52.4995 12.2012C52.4995 10.3219 51.8992 8.6275 50.936 7.3584C49.8127 5.87843 48.2214 5 46.4995 5C45.9474 4.99981 45.4995 4.55217 45.4995 4C45.4995 3.44783 45.9474 3.00019 46.4995 3ZM20.4995 7C21.0518 7 21.4995 7.44772 21.4995 8C21.4995 8.55228 21.0518 9 20.4995 9C19.6699 9.00012 18.8798 9.42206 18.3062 10.1777C17.8142 10.8261 17.4995 11.7033 17.4995 12.6865C17.4996 13.7522 17.8691 14.6909 18.4321 15.3506C18.7906 15.7707 18.7399 16.4022 18.3198 16.7607C17.8998 17.1187 17.2691 17.0691 16.9106 16.6494C16.0262 15.6131 15.4996 14.2087 15.4995 12.6865C15.4995 11.2805 15.9482 9.97581 16.7124 8.96875C17.6039 7.79408 18.9508 7.00012 20.4995 7ZM44.4995 7C46.0483 7 47.395 7.79409 48.2866 8.96875C49.0509 9.97583 49.4995 11.2804 49.4995 12.6865C49.4995 14.2087 48.9729 15.6131 48.0884 16.6494C47.7299 17.069 47.0991 17.1189 46.6792 16.7607C46.2594 16.4022 46.2087 15.7706 46.5669 15.3506C47.13 14.6909 47.4995 13.7523 47.4995 12.6865C47.4995 11.7032 47.1849 10.8261 46.6929 10.1777C46.1191 9.42206 45.3292 9 44.4995 9C43.9474 8.99981 43.4995 8.55217 43.4995 8C43.4995 7.44783 43.9474 7.00019 44.4995 7Z" fill="#000667"/>
</svg>
