<svg width="64" height="64" viewBox="0 0 64 64" fill="none" xmlns="http://www.w3.org/2000/svg">
<path fill-rule="evenodd" clip-rule="evenodd" d="M32 5C33.1046 5 34 5.89543 34 7C34 9 33 9 33 11V14.0273C37.2173 14.2583 41.0471 15.9418 44 18.585L46.1426 16.4434C47.5564 15.0294 46.8496 14.3223 48.2637 12.9082L48.415 12.7705C49.2006 12.1297 50.3595 12.176 51.0918 12.9082C51.8728 13.6892 51.8728 14.9553 51.0918 15.7363C49.6777 17.1504 48.9706 16.4436 47.5566 17.8574L45.4141 19.999C48.0578 22.952 49.7407 26.7822 49.9717 31H53C55 31 55 30 57 30L57.2041 30.0107C58.2128 30.113 59 30.9644 59 32C59 33.0356 58.2128 33.887 57.2041 33.9893L57 34L56.6475 33.9893C54.9922 33.8794 54.875 33 53 33H49.9717C49.7407 37.2175 48.0575 41.0471 45.4141 44L47.5703 46.1562C48.9751 47.5517 49.6823 46.8542 51.0918 48.2637L51.2285 48.415C51.8695 49.2005 51.824 50.3594 51.0918 51.0918C50.3596 51.824 49.2006 51.8701 48.415 51.2295L48.2637 51.0918L48.0215 50.835C46.9288 49.5869 47.4674 48.8815 46.1416 47.5557L44 45.4141C41.0471 48.0575 37.2175 49.7407 33 49.9717V53L33.0117 53.3525C33.1143 54.8974 33.8857 55.1026 33.9883 56.6475L34 57C34 58.1046 33.1046 59 32 59C30.9643 59 30.113 58.2128 30.0107 57.2041L30 57L30.0107 56.6475C30.1133 55.1025 30.8857 54.8974 30.9883 53.3525L31 53V49.9717C26.7822 49.7407 22.952 48.0578 19.999 45.4141L17.8564 47.5557L17.8584 47.5566C16.4442 48.9709 17.1505 49.6776 15.7363 51.0918C14.9553 51.8727 13.6892 51.8728 12.9082 51.0918C12.176 50.3596 12.1298 49.2006 12.7705 48.415L12.9082 48.2637C14.3171 46.8548 15.0232 47.5501 16.4268 46.1572L18.585 44C15.9418 41.0472 14.2593 37.2173 14.0283 33H11C9 33 9 34 7 34C5.89543 34 5 33.1046 5 32C5.00003 30.8955 5.89545 30 7 30C9 30 9 31 11 31H14.0283C14.2593 26.7825 15.9415 22.9519 18.585 19.999L16.4434 17.8574C15.1176 16.5319 14.4132 17.0705 13.165 15.9775L12.9082 15.7363C12.1272 14.9553 12.1272 13.6893 12.9082 12.9082C13.6403 12.1763 14.7985 12.1302 15.584 12.7705L15.7363 12.9082L15.9775 13.165C17.0705 14.4133 16.5319 15.1176 17.8574 16.4434L19.999 18.585C22.952 15.9415 26.7825 14.2583 31 14.0273V11C31 9 30 9 30 7C30 5.89543 30.8954 5 32 5ZM21.415 43.998C24.0024 46.2824 27.3341 47.7417 31 47.9678V37.915C30.088 37.762 29.2465 37.4038 28.5234 36.8887L21.415 43.998ZM35.4746 36.8887C34.7518 37.4033 33.9114 37.7621 33 37.915V47.9678C36.6654 47.7417 39.9958 46.2818 42.583 43.998L35.4746 36.8887ZM16.0322 33C16.2583 36.6654 17.7171 39.9968 20.001 42.584L27.1104 35.4746C26.5959 34.7519 26.2379 33.9112 26.085 33H16.0322ZM37.915 33C37.7621 33.9114 37.4033 34.7518 36.8887 35.4746L43.998 42.584C46.2821 39.9967 47.7417 36.6656 47.9678 33H37.915ZM32 28C29.7909 28 28 29.7909 28 32C28 34.2091 29.7909 36 32 36C34.2091 36 36 34.2091 36 32C36 29.7909 34.2091 28 32 28ZM36.8887 28.5234C37.4038 29.2465 37.762 30.088 37.915 31H47.9678C47.7417 27.3341 46.2824 24.0024 43.998 21.415L36.8887 28.5234ZM20.001 21.416C17.7171 24.0032 16.2583 27.3346 16.0322 31H26.085C26.2379 30.0885 26.5956 29.2472 27.1104 28.5244L20.001 21.416ZM28.5234 27.1094C29.2523 26.5903 30.1022 26.2309 31.0225 26.0801C31.015 26.0813 31.0075 26.0827 31 26.084V16.0312C27.3343 16.2573 24.0023 17.7169 21.415 20.001L28.5234 27.1094ZM33 26.084C32.9922 26.0827 32.9844 26.0814 32.9766 26.0801C33.8967 26.2307 34.7458 26.5906 35.4746 27.1094L42.584 20.001C39.9968 17.7171 36.6654 16.2573 33 16.0312V26.084Z" fill="#000667"/>
</svg>
