<svg width="60" height="60" viewBox="0 0 60 60" fill="none" xmlns="http://www.w3.org/2000/svg">
<g clip-path="url(#clip0_15239_41289)">
<path d="M57.283 27.283C56.8302 27.283 56.1132 27.4717 55.1321 27.849C54.2264 28.2265 53.3585 28.6415 52.5284 29.0943H49.0189C48.868 26.7547 48.3397 24.566 47.434 22.5284C46.6038 20.4905 45.4717 18.6792 44.0377 17.0943L46.415 14.717C47.2452 14.4151 48.151 14.0755 49.1321 13.6981C50.1886 13.3207 50.8679 12.9434 51.1698 12.566C51.698 12.0377 51.9623 11.3962 51.9623 10.6415C51.9623 9.88679 51.698 9.24528 51.1698 8.71698C50.6415 8.18868 50 7.92453 49.2453 7.92453C48.4905 7.92453 47.849 8.18868 47.3208 8.71698C47.0189 9.09434 46.6792 9.77359 46.3019 10.7547C45.9245 11.6604 45.5849 12.5283 45.283 13.3585L42.7924 15.849C41.2076 14.4151 39.3963 13.283 37.3585 12.4528C35.3208 11.5472 33.1321 11.0566 30.7924 10.9811V7.5849C31.1699 6.8302 31.585 5.96227 32.0377 4.98113C32.4905 3.92453 32.717 3.16981 32.717 2.71698C32.717 1.96226 32.4528 1.32075 31.9245 0.792453C31.3962 0.264151 30.7548 0 30 0C29.2452 0 28.6038 0.264151 28.0755 0.792453C27.5472 1.32075 27.283 1.96226 27.283 2.71698C27.283 3.16981 27.4717 3.88679 27.849 4.86792C28.3019 5.77358 28.717 6.60378 29.0943 7.3585V10.9811C26.7547 11.1321 24.566 11.6604 22.5284 12.566C20.4905 13.3962 18.6792 14.5283 17.0943 15.9623L14.717 13.5849C14.4905 12.7547 14.151 11.8491 13.6981 10.8679C13.3207 9.81132 12.9811 9.09434 12.6792 8.71698C12.1509 8.18868 11.5094 7.92453 10.7547 7.92453C10 7.92453 9.35849 8.18868 8.83019 8.71698C8.30189 9.24528 8.03774 9.88679 8.03774 10.6415C8.03774 11.3962 8.30189 12.0377 8.83019 12.566C9.13208 12.9434 9.73585 13.3207 10.6415 13.6981C11.6226 14.0755 12.5283 14.3774 13.3585 14.6037L15.9623 17.2076C14.5283 18.7924 13.3585 20.6037 12.4528 22.6415C11.6226 24.6038 11.1321 26.7547 10.9811 29.0943H7.4717C6.64151 28.6415 5.73585 28.2265 4.75471 27.849C3.84905 27.4717 3.16981 27.283 2.71698 27.283C1.96226 27.283 1.32075 27.5472 0.792453 28.0755C0.264151 28.6038 0 29.2452 0 30C0 30.7548 0.264151 31.3962 0.792453 31.9245C1.32075 32.4528 1.96226 32.717 2.71698 32.717C3.16981 32.717 3.88679 32.4905 4.86792 32.0377C5.92452 31.585 6.86793 31.1699 7.69811 30.7924H10.9811C11.1321 33.0566 11.6226 35.2076 12.4528 37.2453C13.3585 39.283 14.5283 41.132 15.9623 42.7924L13.3585 45.283C12.5283 45.5849 11.6226 45.9245 10.6415 46.3019C9.73585 46.6792 9.13208 47.0189 8.83019 47.3208C8.30189 47.849 8.03774 48.4905 8.03774 49.2453C8.03774 50 8.30189 50.6415 8.83019 51.1698C9.35849 51.698 10 51.9623 10.7547 51.9623C11.5094 51.9623 12.1509 51.698 12.6792 51.1698C12.9811 50.8679 13.3207 50.1886 13.6981 49.1321C14.151 48.0754 14.4905 47.132 14.717 46.3019L17.0943 43.9245C18.6792 45.4339 20.4905 46.6415 22.5284 47.5471C24.566 48.3773 26.7547 48.8302 29.0943 48.9057V52.5284C28.717 53.283 28.3019 54.151 27.849 55.1321C27.4717 56.1132 27.283 56.8302 27.283 57.283C27.283 58.0377 27.5472 58.6792 28.0755 59.2076C28.6038 59.7359 29.2452 60 30 60C30.7548 60 31.3962 59.7359 31.9245 59.2076C32.4528 58.6792 32.717 58.0377 32.717 57.283C32.717 56.7547 32.4905 56 32.0377 55.0189C31.585 54.0378 31.1699 53.132 30.7924 52.3019V48.9057C33.1321 48.8302 35.3208 48.3773 37.3585 47.5471C39.3963 46.6415 41.2076 45.4717 42.7924 44.0377L45.283 46.5284C45.5849 47.3585 45.9245 48.2641 46.3019 49.2453C46.6792 50.2264 47.0189 50.8679 47.3208 51.1698C47.849 51.698 48.4905 51.9623 49.2453 51.9623C50 51.9623 50.6415 51.698 51.1698 51.1698C51.698 50.6415 51.9623 50 51.9623 49.2453C51.9623 48.4905 51.698 47.849 51.1698 47.3208C50.8679 47.0189 50.1886 46.6792 49.1321 46.3019C48.151 45.849 47.2452 45.4717 46.415 45.1698L44.0377 42.7924C45.4717 41.2076 46.6038 39.3963 47.434 37.3585C48.3397 35.2452 48.868 33.0566 49.0189 30.7924H52.3019C53.132 31.1699 54.0378 31.585 55.0189 32.0377C56.0755 32.4905 56.8302 32.717 57.283 32.717C58.0377 32.717 58.6792 32.4528 59.2076 31.9245C59.7359 31.3962 60 30.7548 60 30C60 29.2452 59.7359 28.6038 59.2076 28.0755C58.6792 27.5472 58.0377 27.283 57.283 27.283ZM18.4529 19.6981L24.9057 26.151C24.6038 26.6037 24.3397 27.0944 24.1132 27.6226C23.9622 28.0755 23.849 28.566 23.7736 29.0943H14.6037C14.7547 27.283 15.1698 25.585 15.849 24C16.5284 22.415 17.3962 20.9812 18.4529 19.6981ZM14.6037 30.7924H23.7736C23.849 31.3208 23.9622 31.8491 24.1132 32.3774C24.3397 32.8302 24.6038 33.283 24.9057 33.7358L18.4529 40.1887C17.3962 38.9056 16.5284 37.4716 15.849 35.8868C15.1698 34.3019 14.7547 32.6037 14.6037 30.7924ZM29.0943 45.283C27.283 45.2075 25.585 44.8302 24 44.151C22.415 43.4716 20.9812 42.566 19.6981 41.434L26.151 34.9811C26.5283 35.283 26.9812 35.5471 27.5095 35.7736C28.0377 36 28.566 36.151 29.0943 36.2264V45.283ZM29.0943 23.6603C28.566 23.8113 28.0377 24 27.5095 24.2264C26.9812 24.3773 26.5283 24.6415 26.151 25.0189L19.6981 18.566C20.9812 17.434 22.415 16.5284 24 15.849C25.585 15.0944 27.283 14.6793 29.0943 14.6037V23.6603ZM45.3963 29.0943H36.2264C36.151 28.4906 36 27.9623 35.7736 27.5095C35.5471 26.9812 35.283 26.4905 34.9811 26.0377L41.434 19.6981C42.566 20.9056 43.4716 22.3396 44.151 24C44.8302 25.585 45.2453 27.283 45.3963 29.0943ZM40.1887 18.4529L33.7358 24.9057C33.3585 24.6038 32.9056 24.3397 32.3774 24.1132C31.8491 23.8868 31.3208 23.7359 30.7924 23.6603V14.6037C32.6037 14.6793 34.3019 15.0566 35.8868 15.7358C37.4716 16.415 38.9056 17.3208 40.1887 18.4529ZM30.7924 45.283V36.2264C31.3208 36.151 31.8491 36.0378 32.3774 35.8868C32.9056 35.6603 33.3585 35.3585 33.7358 34.9811L40.1887 41.434C38.9056 42.566 37.4716 43.4716 35.8868 44.151C34.3019 44.8302 32.6037 45.2075 30.7924 45.283ZM41.434 40.3019L34.9811 33.849C35.3585 33.3963 35.6227 32.9056 35.7736 32.3774C36 31.8491 36.151 31.3208 36.2264 30.7924H45.3963C45.2453 32.6037 44.8302 34.3396 44.151 36C43.4716 37.585 42.566 39.0188 41.434 40.3019Z" fill="#000667"/>
</g>
<defs>
<clipPath id="clip0_15239_41289">
<rect width="60" height="60" fill="white"/>
</clipPath>
</defs>
</svg>
