<svg width="60" height="60" viewBox="0 0 60 60" fill="none" xmlns="http://www.w3.org/2000/svg">
<path d="M30.5608 42.7713C30.5608 45.3756 32.6825 47.4791 35.3093 47.4791C37.9361 47.4791 40.0577 45.3756 40.0577 42.7713H42.2804C42.2804 46.5776 39.1485 49.6828 35.3093 49.6828C31.4701 49.6828 28.3381 46.5776 28.3381 42.7713H30.5608ZM47.0289 49.5826C43.1897 49.5826 40.0577 46.4775 40.0577 42.6711H42.2804C42.2804 45.2755 44.4021 47.379 47.0289 47.379C49.6557 47.379 51.7773 45.2755 51.7773 42.6711H54C53.899 46.4775 50.767 49.5826 47.0289 49.5826ZM23.6907 49.5826C19.8515 49.5826 16.7196 46.4775 16.7196 42.6711H18.9423C18.9423 45.2755 21.0639 47.379 23.6907 47.379C26.3175 47.379 28.4392 45.2755 28.4392 42.6711H30.6619C30.5608 46.4775 27.4289 49.5826 23.6907 49.5826ZM7.22268 42.7713C7.22268 45.3756 9.34433 47.4791 11.9711 47.4791C14.5979 47.4791 16.7196 45.3756 16.7196 42.7713H18.9423C18.9423 46.5776 15.8103 49.6828 11.9711 49.6828C8.13196 49.6828 5 46.5776 5 42.7713H7.22268ZM30.5608 53.0885C30.5608 55.6928 32.6825 57.7963 35.3093 57.7963C37.9361 57.7963 40.0577 55.6928 40.0577 53.0885H42.2804C42.2804 56.8948 39.1485 60 35.3093 60C31.4701 60 28.3381 56.8948 28.3381 53.0885H30.5608ZM47.0289 60C43.1897 60 40.0577 56.8948 40.0577 53.0885H42.2804C42.2804 55.6928 44.4021 57.7963 47.0289 57.7963C49.6557 57.7963 51.7773 55.6928 51.7773 53.0885H54C53.899 56.8948 50.767 60 47.0289 60ZM23.6907 60C19.8515 60 16.7196 56.8948 16.7196 53.0885H18.9423C18.9423 55.6928 21.0639 57.7963 23.6907 57.7963C26.3175 57.7963 28.4392 55.6928 28.4392 53.0885H30.6619C30.5608 56.8948 27.4289 60 23.6907 60ZM7.22268 53.0885C7.22268 55.6928 9.34433 57.7963 11.9711 57.7963C14.5979 57.7963 16.7196 55.6928 16.7196 53.0885H18.9423C18.9423 56.8948 15.8103 60 11.9711 60C8.13196 60 5 56.8948 5 53.0885H7.22268ZM39.3505 38.9649L43.2907 24.8414L29.4495 18.9316V38.9649H39.3505ZM13.8907 24.8414L17.8309 38.9649H27.732V18.9316L13.8907 24.8414ZM18.033 10.217V21.4357L28.2371 16.9282C28.3381 16.9282 28.3381 16.9282 28.3381 16.828H28.4392H28.5402H28.6412H28.7423H28.8433L38.9464 21.1352V10.1169L18.033 10.217ZM25.0041 5.20868V8.61436H31.8742V5.20868H25.0041ZM32.4804 0.601002H24.701V3.00501H32.4804V0.601002ZM44.5031 23.6394C44.9072 23.7396 45.1093 24.2404 44.9072 24.5409L40.5629 39.8664C40.4619 40.2671 40.1588 40.4674 39.7546 40.4674H17.3258C16.9216 40.4674 16.7196 40.2671 16.5175 39.8664L12.1732 24.5409C12.0722 24.1402 12.2742 23.7396 12.5773 23.6394L16.4165 22.0367V9.41569C16.4165 9.01502 16.8206 8.61436 17.2247 8.61436H23.4887V0.801334C23.4887 0.400665 23.8928 0 24.2969 0H32.7835C33.1876 0 33.5918 0.400665 33.5918 0.801334V8.61436H39.8557C40.2598 8.61436 40.6639 9.01502 40.6639 9.41569V22.0367L44.5031 23.6394Z" fill="#21255A"/>
</svg>
