<svg width="65" height="64" viewBox="0 0 65 64" fill="none" xmlns="http://www.w3.org/2000/svg">
<path d="M13.5 53C13.5 55.2091 15.2909 57 17.5 57C19.7091 57 21.5 55.2091 21.5 53H23.5C23.5 55.2091 25.2909 57 27.5 57C29.7091 57 31.5 55.2091 31.5 53H33.5C33.5 55.2091 35.2909 57 37.5 57C39.7091 57 41.5 55.2091 41.5 53H43.5C43.5 55.2091 45.2909 57 47.5 57C49.7091 57 51.5 55.2091 51.5 53H53.5C53.5 56.3137 50.8137 59 47.5 59C45.4126 59 43.5748 57.9336 42.5 56.3164C41.4252 57.9336 39.5874 59 37.5 59C35.4126 59 33.5748 57.9336 32.5 56.3164C31.4252 57.9336 29.5874 59 27.5 59C25.4126 59 23.5748 57.9336 22.5 56.3164C21.4252 57.9336 19.5874 59 17.5 59C14.1863 59 11.5 56.3137 11.5 53H13.5Z" fill="#000667"/>
<path d="M13.5 45C13.5 47.2091 15.2909 49 17.5 49C19.7091 49 21.5 47.2091 21.5 45H23.5C23.5 47.2091 25.2909 49 27.5 49C29.7091 49 31.5 47.2091 31.5 45H33.5C33.5 47.2091 35.2909 49 37.5 49C39.7091 49 41.5 47.2091 41.5 45H43.5C43.5 47.2091 45.2909 49 47.5 49C49.7091 49 51.5 47.2091 51.5 45H53.5C53.5 48.3137 50.8137 51 47.5 51C45.4126 51 43.5748 49.9336 42.5 48.3164C41.4252 49.9336 39.5874 51 37.5 51C35.4126 51 33.5748 49.9336 32.5 48.3164C31.4252 49.9336 29.5874 51 27.5 51C25.4126 51 23.5748 49.9336 22.5 48.3164C21.4252 49.9336 19.5874 51 17.5 51C14.1863 51 11.5 48.3137 11.5 45H13.5Z" fill="#000667"/>
<path d="M29.5 16C30.0523 16 30.5 16.4477 30.5 17C30.5 17.5523 30.0523 18 29.5 18H26.5C25.9477 18 25.5 17.5523 25.5 17C25.5 16.4477 25.9477 16 26.5 16H29.5Z" fill="#000667"/>
<path d="M38.5 16C39.0523 16 39.5 16.4477 39.5 17C39.5 17.5523 39.0523 18 38.5 18H35.5C34.9477 18 34.5 17.5523 34.5 17C34.5 16.4477 34.9477 16 35.5 16H38.5Z" fill="#000667"/>
<path fill-rule="evenodd" clip-rule="evenodd" d="M35.5 5C36.0523 5 36.5 5.44772 36.5 6V12H43.5C44.0523 12 44.5 12.4477 44.5 13V24.3027L48.7217 26.2031L43.9531 41.3008C43.8217 41.7168 43.4363 42 43 42H22C21.5637 42 21.1783 41.7168 21.0469 41.3008L16.2783 26.2031L20.5 24.3027V13C20.5 12.4477 20.9477 12 21.5 12H28.5V6C28.5 5.44772 28.9477 5 29.5 5H35.5ZM18.7217 27.2969L22.7324 40H31.5V21.5459L18.7217 27.2969ZM33.5 40H42.2676L46.2783 27.2969L33.5 21.5459V40ZM22.5 23.4033L32.0898 19.0879C32.1048 19.0811 32.1205 19.0763 32.1357 19.0703C32.1565 19.0622 32.1771 19.0536 32.1982 19.0469C32.2121 19.0425 32.2262 19.0389 32.2402 19.0352C32.2658 19.0283 32.2914 19.0214 32.3174 19.0166C32.3378 19.0128 32.3584 19.0113 32.3789 19.0088C32.3978 19.0065 32.4166 19.0032 32.4355 19.002C32.4411 19.0016 32.4466 19.0012 32.4521 19.001H32.5479C32.5531 19.0012 32.5583 19.0016 32.5635 19.002C32.5825 19.0032 32.6012 19.0065 32.6201 19.0088C32.6406 19.0113 32.6613 19.0128 32.6816 19.0166C32.7076 19.0214 32.7332 19.0283 32.7588 19.0352C32.7728 19.0389 32.7869 19.0425 32.8008 19.0469C32.822 19.0536 32.8425 19.0622 32.8633 19.0703C32.8788 19.0764 32.8949 19.081 32.9102 19.0879L42.5 23.4033V14H22.5V23.4033ZM30.5 12H34.5V10.5H30.5V12ZM30.5 8.5H34.5V7H30.5V8.5Z" fill="#000667"/>
</svg>
