<svg width="60" height="60" viewBox="0 0 60 60" fill="none" xmlns="http://www.w3.org/2000/svg">
<mask id="mask0_15239_41120" style="mask-type:luminance" maskUnits="userSpaceOnUse" x="8" y="1" width="45" height="59">
<path d="M52.6 1H8V59.9H52.6V1Z" fill="white"/>
</mask>
<g mask="url(#mask0_15239_41120)">
<path fill-rule="evenodd" clip-rule="evenodd" d="M29.363 11.4001V5.70007H31.2374V11.4001H29.363Z" fill="#000667"/>
<path fill-rule="evenodd" clip-rule="evenodd" d="M38.6628 6.76278L33.8628 11.5628L32.5374 10.2374L37.3374 5.43738L38.6628 6.76278Z" fill="#000667"/>
<path fill-rule="evenodd" clip-rule="evenodd" d="M52.4711 33.5542L48.5711 37.5542L47.229 36.2457L51.129 32.2457L52.4711 33.5542Z" fill="#000667"/>
<path fill-rule="evenodd" clip-rule="evenodd" d="M45.2698 6.85569L40.5698 11.6557L39.2305 10.3443L43.9305 5.54431L45.2698 6.85569Z" fill="#000667"/>
<path fill-rule="evenodd" clip-rule="evenodd" d="M52.1626 27.1627L48.4626 30.8627L47.1372 29.5373L50.8372 25.8373L52.1626 27.1627Z" fill="#000667"/>
<path fill-rule="evenodd" clip-rule="evenodd" d="M51.8627 7.06271L47.0627 11.8627L45.7373 10.5373L50.5373 5.7373L51.8627 7.06271Z" fill="#000667"/>
<path fill-rule="evenodd" clip-rule="evenodd" d="M52.2714 20.154L48.4714 24.054L47.1289 22.7459L50.9289 18.8459L52.2714 20.154Z" fill="#000667"/>
<path fill-rule="evenodd" clip-rule="evenodd" d="M52.2627 13.4627L48.5627 17.1627L47.2373 15.8373L50.9373 12.1373L52.2627 13.4627Z" fill="#000667"/>
<path fill-rule="evenodd" clip-rule="evenodd" d="M8.06274 5.26282H52.5371V41.7372H47.8999C47.3823 41.7372 46.9627 41.3176 46.9627 40.8C46.9627 40.2824 47.3823 39.8628 47.8999 39.8628H50.6627V7.13722H9.93714V39.8628H13.4999C14.0175 39.8628 14.4371 40.2824 14.4371 40.8C14.4371 41.3176 14.0175 41.7372 13.4999 41.7372H8.06274V5.26282Z" fill="#000667"/>
<path fill-rule="evenodd" clip-rule="evenodd" d="M8.90009 0.962769C9.41769 0.962769 9.83729 1.38237 9.83729 1.89997V58.9C9.83729 59.4176 9.41769 59.8372 8.90009 59.8372C8.38249 59.8372 7.96289 59.4176 7.96289 58.9V1.89997C7.96289 1.38237 8.38249 0.962769 8.90009 0.962769Z" fill="#000667"/>
<path fill-rule="evenodd" clip-rule="evenodd" d="M34 41.0764L47.9233 41.4002C48.4754 41.4131 48.9126 41.8711 48.8997 42.4232C48.8869 42.9753 48.4289 43.4125 47.8768 43.3997L36 43.1235V54.0999C36 54.6522 35.5523 55.0999 35 55.0999C34.4477 55.0999 34 54.6522 34 54.0999V41.0764Z" fill="#000667"/>
<path fill-rule="evenodd" clip-rule="evenodd" d="M12.7002 10H48.9002V43.2522L34.9774 55.5H12.7002V10ZM14.7002 12V53.5H34.2229L46.9002 42.3478V12H14.7002Z" fill="#000667"/>
<path fill-rule="evenodd" clip-rule="evenodd" d="M18.6001 34C18.6001 33.4477 19.0478 33 19.6001 33H43.0001C43.5524 33 44.0001 33.4477 44.0001 34C44.0001 34.5523 43.5524 35 43.0001 35H19.6001C19.0478 35 18.6001 34.5523 18.6001 34Z" fill="#000667"/>
<path fill-rule="evenodd" clip-rule="evenodd" d="M18.7002 26.8C18.7002 26.2478 19.1479 25.8 19.7002 25.8H42.3001C42.8524 25.8 43.3001 26.2478 43.3001 26.8C43.3001 27.3523 42.8524 27.8 42.3001 27.8H19.7002C19.1479 27.8 18.7002 27.3523 18.7002 26.8Z" fill="#000667"/>
<path fill-rule="evenodd" clip-rule="evenodd" d="M24 19.4C24 18.8477 24.4477 18.4 25 18.4H41.5C42.0523 18.4 42.5 18.8477 42.5 19.4C42.5 19.9523 42.0523 20.4 41.5 20.4H25C24.4477 20.4 24 19.9523 24 19.4Z" fill="#000667"/>
</g>
</svg>
