<svg width="65" height="64" viewBox="0 0 65 64" fill="none" xmlns="http://www.w3.org/2000/svg">
<path d="M13.5 53C13.5 55.2091 15.2909 57 17.5 57C19.7091 57 21.5 55.2091 21.5 53H23.5C23.5 55.2091 25.2909 57 27.5 57C29.7091 57 31.5 55.2091 31.5 53H33.5C33.5 55.2091 35.2909 57 37.5 57C39.7091 57 41.5 55.2091 41.5 53H43.5C43.5 55.2091 45.2909 57 47.5 57C49.7091 57 51.5 55.2091 51.5 53H53.5C53.5 56.3137 50.8137 59 47.5 59C45.4126 59 43.5748 57.9336 42.5 56.3164C41.4252 57.9336 39.5874 59 37.5 59C35.4126 59 33.5748 57.9336 32.5 56.3164C31.4252 57.9336 29.5874 59 27.5 59C25.4126 59 23.5748 57.9336 22.5 56.3164C21.4252 57.9336 19.5874 59 17.5 59C14.1863 59 11.5 56.3137 11.5 53H13.5ZM50.5 36.4395L50.1758 36.7373L37.8887 48H15.5V5H50.5V36.4395ZM17.5 46H36.5V35H48.5V7H17.5V46ZM38.5 44.7256L46.9287 37H38.5V44.7256ZM44.5 28C45.0523 28 45.5 28.4477 45.5 29C45.5 29.5523 45.0523 30 44.5 30H22.5C21.9477 30 21.5 29.5523 21.5 29C21.5 28.4477 21.9477 28 22.5 28H44.5ZM44.5 21C45.0523 21 45.5 21.4477 45.5 22C45.5 22.5523 45.0523 23 44.5 23H22.5C21.9477 23 21.5 22.5523 21.5 22C21.5 21.4477 21.9477 21 22.5 21H44.5ZM44.6025 14.0049C45.1067 14.0562 45.5 14.4823 45.5 15C45.5 15.5177 45.1067 15.9438 44.6025 15.9951L44.5 16H27.5C26.9477 16 26.5 15.5523 26.5 15C26.5 14.4477 26.9477 14 27.5 14H44.5L44.6025 14.0049Z" fill="currentColor"/>

</svg>
