<svg width="64" height="64" viewBox="0 0 64 64" fill="none" xmlns="http://www.w3.org/2000/svg">
<path d="M23.2744 20.8037L19.3604 25.5869L15.8574 22.6514L17.1426 21.1191L19.0938 22.7539L21.7256 19.5381L23.2744 20.8037Z" fill="#000667"/>
<path d="M32.5 23.1709H25.5V21.1709H32.5V23.1709Z" fill="#000667"/>
<path d="M23.2744 12.8037L19.3604 17.5869L15.8574 14.6514L17.1426 13.1191L19.0938 14.7539L21.7256 11.5381L23.2744 12.8037Z" fill="#000667"/>
<path d="M38.5 15.1709H25.5V13.1709H38.5V15.1709Z" fill="#000667"/>
<path fill-rule="evenodd" clip-rule="evenodd" d="M46.5 5.1709C47.0523 5.1709 47.5 5.61861 47.5 6.1709V30.1709C47.4998 30.5118 47.329 30.8128 47.0684 30.9932C47.1726 31.1836 47.2622 31.3839 47.3301 31.5938C47.8263 31.3239 48.3954 31.1709 49 31.1709C50.2532 31.1709 51.3515 31.8303 51.9697 32.8203C52.5423 32.4117 53.243 32.1709 54 32.1709C55.933 32.1709 57.5 33.7379 57.5 35.6709V42.6123C57.4999 45.7559 56.856 48.8666 55.6084 51.752L54.4561 54.416V57.1709C54.4558 57.723 54.0082 58.1709 53.4561 58.1709C52.9042 58.1706 52.4563 57.7228 52.4561 57.1709V54.209C52.4561 54.0728 52.4851 53.9376 52.5391 53.8125L53.7725 50.958C54.9117 48.3232 55.4999 45.4828 55.5 42.6123V35.6709C55.5 34.8425 54.8284 34.1709 54 34.1709C53.1716 34.1709 52.5 34.8425 52.5 35.6709V39.1709C52.4997 39.723 52.0521 40.1709 51.5 40.1709C50.9479 40.1709 50.5003 39.7229 50.5 39.1709V34.6709C50.5 33.8425 49.8284 33.1709 49 33.1709C48.1716 33.1709 47.5 33.8425 47.5 34.6709V39.1709C47.4997 39.723 47.0521 40.1709 46.5 40.1709C45.9479 40.1709 45.5003 39.7229 45.5 39.1709V32.6709C45.5 31.8425 44.8284 31.1709 44 31.1709C43.1716 31.1709 42.5 31.8425 42.5 32.6709V39.1709C42.4997 39.723 42.0521 40.1709 41.5 40.1709C40.9479 40.1709 40.5003 39.7229 40.5 39.1709V25.6709C40.5 24.8425 39.8284 24.1709 39 24.1709C38.1716 24.1709 37.5 24.8425 37.5 25.6709V44.1709C37.4998 44.5916 37.2364 44.968 36.8408 45.1113C36.4451 45.2545 36.001 45.1346 35.7314 44.8115L31.8789 40.1875C31.554 39.7976 30.9869 39.7148 30.5645 39.9961C30.1383 40.2804 29.9976 40.8428 30.2402 41.2939L36.3809 52.6973L36.4365 52.8193L37.9365 56.8193C38.1301 57.3362 37.8683 57.9134 37.3516 58.1074C36.8347 58.3011 36.2576 58.039 36.0635 57.5225L34.5859 53.584L28.4795 42.2422C27.7476 40.8826 28.1704 39.1887 29.4551 38.332C30.7279 37.4837 32.4358 37.7321 33.415 38.9072L35.5 41.4082V31.1709H28.5V34.1709H33.5V36.1709H21.5V34.1709H26.5V31.1709H8.5C7.94788 31.1709 7.50026 30.723 7.5 30.1709V6.1709C7.5 5.61861 7.94772 5.1709 8.5 5.1709H46.5ZM9.5 29.1709H35.5V25.6709C35.5 23.7379 37.067 22.1709 39 22.1709C40.933 22.1709 42.5 23.7379 42.5 25.6709V29.1709H45.5V7.1709H9.5V29.1709Z" fill="#000667"/>
</svg>
