<?xml version="1.0" encoding="UTF-8"?>
<svg id="Layer_1" data-name="Layer 1" xmlns="http://www.w3.org/2000/svg" xmlns:xlink="http://www.w3.org/1999/xlink" viewBox="0 0 618.36 83">
  <defs>
    <clipPath id="clippath">
      <rect y="0" width="330" height="83" style="fill: none;"/>
    </clipPath>
  </defs>
  <g style="clip-path: url(#clippath);">
    <g>
      <path d="M0,53.84c0,17.88,15.66,25.9,24.96,29.09l.14.07.14-.07c4.58-1.63,11.22-4.69,16.41-9.72,5.61-5.44,8.48-11.9,8.48-19.37V8.36l-.21-.07C41.79,2.79,33.38,0,25.03,0S8.34,2.79.14,8.29l-.14.07v45.48ZM.48,8.84C8.62,3.4,16.82.68,25.03.68s16.48,2.72,24.55,8.16l-.14-.27v45.27c0,7.27-2.8,13.6-8.28,18.9-5.13,4.96-11.7,7.95-16.21,9.58h.21c-9.16-3.06-24.48-10.94-24.48-28.41V8.57l-.21.27Z" style="fill: #00066d;"/>
      <path d="M14.64,19.1c-2.87,1.09-4.79,2.38-5.2,2.79-.89.82-.55,1.63-.55,1.63h.07s-.07-.61.75-1.36c.34-.34,2.19-1.56,5.13-2.72l-.21-.34Z" style="fill: #00066d;"/>
      <path d="M25.78,17.06h-1.3c-2.53.14-5.95.75-8.96,1.77l.14.34c2.94-1.02,6.36-1.56,8.89-1.7h1.23c2.53.14,5.88.75,8.89,1.7l.14-.34c-3.08-1.02-6.5-1.63-9.03-1.77Z" style="fill: #00066d;"/>
      <path d="M35.63,19.1c2.87,1.09,4.79,2.38,5.2,2.79.89.82.55,1.63.55,1.63h-.07s.07-.61-.75-1.36c-.34-.34-2.19-1.56-5.13-2.72l.21-.34Z" style="fill: #00066d;"/>
      <path d="M44.11,20.26c-1.44-1.9-4.58-2.58-7.66-2.79-.14-3.13-5.81-3.33-10.12-2.52-.41-.61-1.92-.54-2.33,0-4.38-.82-9.99-.61-10.12,2.52-3.15.2-6.29.88-7.73,2.79-1.37,1.9,1.37,3.87,1.37,3.87l.62-.54s-4.58-3.74,5.75-5.57c.48,1.36,1.44,2.04,1.44,2.04l.55-.34s-3.15-5.85,8.07-4.01l.68,2.38s0-.14.21-.14c0,0-.27-2.24-.21-2.45.14-.34.89-.34,1.03,0,.07.2-.21,2.45-.21,2.45.27,0,.21.14.21.14l.68-2.38c11.22-1.84,8.07,4.01,8.07,4.01l.55.34s.96-.68,1.44-2.04c10.4,1.84,5.75,5.57,5.75,5.57l.62.54s2.8-1.97,1.37-3.87ZM7.73,23.52q.07.07.14.14s-.14-.07-.27.07c-.21-.14-.41-.34-.62-.54-1.23-1.43-2.12-4.55,6.77-5.3-9.58,1.63-6.63,5.03-6.02,5.64ZM15.59,19.65c0,.14-.27,0-.27.07-.68-.75-1.03-1.56-1.03-2.31-.07-1.84,2.12-3.4,8-2.38.14,0,.21,0,.34.07h-.14c.34.07.75.14,1.16.2-10.53-1.16-8.48,3.33-8.07,4.35ZM35.02,19.78s0-.07,0,0c-.07-.07-.07,0-.07,0,.07-.2-.27.07-.27-.14v-.14c.48-1.02,2.53-5.44-8-4.21.34-.07.68-.14,1.03-.2h.07c4.86-.95,7.32,0,8,1.43.21.34.27.75.21,1.16-.07.75-.41,1.5-.96,2.11ZM42.81,23.72s0-.07,0,0h-.07c-.07-.07-.14-.07-.14-.07h-.21s.07-.07.14-.14c.07,0,0,0,0,0,.27-.27.82-.88.96-1.63.21-1.29-.89-2.99-6.84-4.08,10.53.88,7.39,5.1,6.16,5.91Z" style="fill: #00066d;"/>
      <path d="M43.82,24.5s-.34-.34-.96-.61c-3.15-1.43-2.39,1.77-2.39,2.04-.27-.82-2.19-2.04-2.67.2-.48,2.38,1.44,1.77,1.78,1.77-.48.68-1.44.68-3.56-.2-2.39-.95-2.8-1.63-2.26-2.79.21,1.43,1.98,1.77,2.53.34,1.3-3.19-1.44-2.31-1.78-2.18.41-.75,1.16-1.09,1.16-1.97.07-1.36-1.92-1.7-2.53-1.22-1.03.82-.41,2.65-.41,2.86-.27-.27-2.12-2.79-2.74.61-.27,1.5,1.37,2.18,2.39,1.02-.21,1.22-1.23,1.63-3.69,1.22-3.69-.54-2.94-2.31-2.94-2.31.07.07,1.44,2.31,2.6-.27,1.23-2.85-1.98-1.97-2.46-1.36.27-1.29,1.5-2.04.82-2.86-.89-1.09-2.6-1.02-3.35,0-.68.88.48,1.56.82,2.86-.48-.61-3.76-1.5-2.46,1.36,1.16,2.58,2.53.34,2.6.27,0,0,.75,1.77-2.94,2.31-2.46.41-3.49,0-3.69-1.22,1.03,1.16,2.67.48,2.39-1.02-.62-3.4-2.46-.88-2.74-.61,0-.2.68-2.04-.41-2.86-.68-.48-2.67-.14-2.53,1.22.07.88.89,1.29,1.16,1.97-.34-.14-3.08-1.09-1.78,2.11.55,1.43,2.33,1.09,2.53-.34.55,1.22.14,1.84-2.26,2.79-2.12.82-3.08.88-3.56.2.27-.07,2.19.68,1.78-1.77-.41-2.24-2.46-1.02-2.67-.2,0-.27.75-3.47-2.39-2.04-.62.27-.96.61-.96.61l-.14.14-.14.14,5.47,7.55s4.65-3.87,13.41-3.87,13.41,3.87,13.41,3.87l5.47-7.55.07-.14v-.07ZM43,25.11c-.62.82-4.51,6.12-4.58,6.19l-.14.2-.21-.14c-1.85-1.02-6.77-3.47-13.13-3.47s-11.29,2.38-13.13,3.47l-.14.14-.21-.2c-.07-.07-3.97-5.37-4.58-6.19l-.07-.07v-.14c0-.07.07-.34.41-.61.75-.48,1.44-.34,1.64-.27.41.27.34,2.04.34,2.24.34-.48.89-1.16,1.5-1.09.41,0,.68.27.89.82.34.88.07,1.36-.21,1.56-.41.27-1.03.2-1.5,0,.07.2.21.54.41.68.62.48,1.85.34,3.28-.14,1.71-.54,2.8-1.36,2.94-2.24.14-.54-.07-1.09-.41-1.43-.21.48-.62,1.29-1.16,1.36-.34,0-.68-.2-.96-.75-.41-.75-.48-1.29-.14-1.63.41-.48,1.85-.2,1.98-.14.21.07-.07-.27-.21-.34-.48-.54-.89-.95-.89-1.43s.21-.82.55-1.02c.48-.27,1.16-.2,1.44.07.27.27.34.82.14,2.11,0,.14-.21.75.07.41.27-.27,1.37-1.29,1.98-1.02.41.14.62.61.62,1.36,0,.54-.14.88-.48,1.09-.48.27-1.37-.2-1.78-.48-.07.34,0,.82.27,1.16.48.61,1.71.95,3.35.82,1.71-.2,2.67-.75,3.15-1.43.27-.41.55-1.22.34-1.9-.27.34-1.16,1.09-1.57,1.09s-.68-.34-.96-.88c-.21-.54-.21-1.16.07-1.43.41-.41,1.71.2,2.39.48-.07-.27-.14-.54-.27-.88-.07-.27-.21-.54-.27-.68-.14-.27-.48-.68-.27-1.09.27-.48.75-.75,1.3-.75.62,0,1.09.27,1.3.75.21.41-.07.75-.27,1.09-.07.2-.21.34-.27.68-.14.34-.21.61-.27.88.62-.27,1.92-.88,2.39-.48.27.27.27.82.07,1.43-.27.61-.55.88-.96.88s-1.37-.75-1.57-1.09c-.14,1.02.21,1.63.34,1.9.48.68,1.44,1.29,3.15,1.43,1.64.14,2.87-.2,3.35-.82.27-.34.34-1.02.34-1.36-.41.27-1.3.88-1.85.61-.34-.14-.48-.54-.48-1.09,0-.82.21-1.22.62-1.36.62-.27,1.92,1.09,1.98.88.07-.14,0-.34,0-.48-.07-.82-.14-1.77.27-1.97.34-.27.96-.27,1.37-.07.34.2.55.54.55,1.02s-.21.75-.68,1.36c-.07.14-.62.54-.34.48.27-.07,1.57-.27,1.92.2.27.34.27.88-.14,1.63-.27.54-.62.75-.96.75-.55-.07-.89-.95-1.16-1.36-.21.27-.62.95-.48,1.5.21.82,1.37,1.7,3.01,2.24,1.44.48,2.6.61,3.21.14.27-.2.41-.54.48-.75-.48.2-1.09.27-1.57.07-.27-.14-.55-.54-.27-1.63.14-.54.55-.82.89-.82.55-.07,1.09.48,1.44.95,0-.2.07-.34.07-.54-.07-.75.14-1.36.55-1.56.21-.14.68-.27,1.44.2.41.27.41.61.41.61v.14l.34.14Z" style="fill: #00066d;"/>
      <path d="M25.17,8.29c-1.64,0-3.01,1.36-3.01,2.99,0,1.36.89,2.45,2.12,2.86l.14.54c.14-.07.21-.07.34-.07,0-.14,0-.27-.07-.34h.68c0,.14,0,.27-.07.34.14,0,.27.07.34.07l.14-.54c1.23-.34,2.12-1.5,2.12-2.86.27-1.63-1.09-2.99-2.74-2.99ZM24.96,8.84h.41v2.72h-.41v-2.72ZM22.64,11.28c0-1.29.96-2.31,2.19-2.45v2.72h-2.19v-.27ZM25.17,13.73c-1.09,0-1.98-.68-2.33-1.56h4.65c-.34.88-1.3,1.56-2.33,1.56ZM27.56,11.83c-.07.14-.07.2-.07.2h-4.72s0-.07-.07-.2c0-.14-.07-.2-.07-.2h4.92c.07,0,.07.07,0,.2ZM25.51,11.49v-2.65c1.23.14,2.19,1.22,2.19,2.45v.27l-2.19-.07Z" style="fill: #00066d;"/>
      <path d="M25.85,5.03v-1.77h-1.44v1.77h-1.98v1.43h1.98v2.11h.14s.41-.07.62-.07.55.07.55.07h.14v-2.11h1.98v-1.43h-1.98Z" style="fill: #00066d;"/>
      <path d="M14.91,45.2l8.21.68.41-1.09-.14.48-8.48-.41s-.48,0-.48-.54.48-.61.48-.61l8.89-.27.55-6.59c0-.27.27-.48.82-.48.48,0,.75.2.75.48l.55,6.59,8.96.27s.48,0,.48.61c0,.54-.48.54-.48.54l-8.41.41.21.68,8.21-.68c.07,0,1.03-.07,1.03-.88,0-.95-.68-1.02-1.09-1.09l-8.21-.48c-.07-.82-.34-4.08-.41-5.51-.07-1.36-.89-1.63-1.23-1.7h-.55c-.34.07-1.16.34-1.23,1.7-.07,1.36-.34,4.62-.41,5.51l-8.21.48c-.41,0-1.09.14-1.09,1.09-.14.75.75.82.89.82ZM35.63,59.28l1.3.61s-.89,1.63-4.1,4.35l.27.41h.07c2.74-1.97,4.24-4.89,4.24-4.89l-1.16-.48,2.39-.88c-.41,1.29-1.44,4.42-4.92,6.93-.07.07-.14.14-.27.2l-.07-.27c-.07.07-.21.14-.27.2l.27.2c-2.46,1.56-5.47,2.31-8.14,2.31s-5.81-.82-8.28-2.45l.14-.27c-.07-.07-.21-.14-.27-.2l-.07.27c-.07,0-.07-.07-.14-.07-3.49-2.58-4.58-5.64-4.99-6.93l2.39.88-1.16.41s1.3,2.85,4.1,4.83l.21-.41c-3.21-2.72-3.9-4.21-3.9-4.21l1.3-.61-3.35-1.43s.68,4.69,5.13,7.95c2.67,1.97,5.75,3.13,8.69,3.13s6.09-1.16,8.69-3.13c4.58-3.19,5.27-7.89,5.27-7.89l-3.35,1.43ZM27.08,66.55c.89,0,3.42-.48,4.92-1.29l.48-.27.14-.07-.21-.41-.62.34c-1.44.75-3.9,1.09-4.58,1.09-.62,0-.82-.14-.82-.82v-4.83l-.75-.48v.07l.27.14v5.51c.07.88.68,1.02,1.16,1.02ZM23.12,65.94c-.62,0-3.08-.27-4.58-1.09l-.62-.34-.21.41.62.34c1.5.82,3.97,1.29,4.92,1.29.48,0,1.09-.07,1.09-1.02v-5.51l.27-.14v-.07l-.75.48v4.83c0,.61-.14.82-.75.82Z" style="fill: #00066d;"/>
      <path d="M38.78,49.69h-10.12l-3.28-9.24-.21-.68-.21.68-3.42,9.24h-10.12l.62.41,7.87,5.64-3.35,9.92,8.55-6.12,8.41,6.19-3.28-9.99,7.93-5.64.62-.41ZM29.48,55.47l-.14-.07v.07l.14.07v-.07l3.15,8.9-1.03-1.43.21.54.68.95-7.25-5.64v-.27l-.07-.07-.14.07v.27l-7.45,5.64.89-1.22-.41.27.07-.27-.75.95,3.15-8.77-7.73-5.3,1.09.34-.21-.07h.34l-1.16-.34,9.03.2.14.14h.07l-.14-.07,3.08-9.38v1.56l.07-.27.14.34v-1.7l2.94,9.24-.21.27h.21l.14-.14,8.89-.2-1.09.34h.27l-.27.2,1.3-.41-7.93,5.3Z" style="fill: #00066d;"/>
      <path d="M12.58,50.1l12.52,4.15-.07-.07,7.66,10.67.14-.14-7.59-10.67h-.07l-12.52-4.08-.07.14Z" style="fill: #00066d;"/>
      <path d="M17.37,64.71l7.87-10.54-.07.07,12.72-4.28-.07-.14-12.72,4.21h-.07l-7.8,10.6.14.07Z" style="fill: #00066d;"/>
      <path d="M25.03,40.79v18.08h.2v-18.08h-.2Z" style="fill: #00066d;"/>
      <path d="M19.97,55.81l5.2-1.56h-.07l5.06,1.56.07-.2-5.06-1.56h-.07l-5.2,1.56.07.2Z" style="fill: #00066d;"/>
      <path d="M21.48,49.69l3.56,4.49.14.07.07-.07,3.49-4.49-.14-.07-3.56,4.42h.21l-3.62-4.42-.14.07Z" style="fill: #00066d;"/>
      <path d="M13.95,66.69c-.27,0-.62.07-.89.14.07.07.14.14.21.2.21-.07.48-.14.68-.14,1.37,0,2.39,1.09,2.39,2.38v.14c.07,0,.14.07.21.14v-.27c.07-1.43-1.16-2.58-2.6-2.58ZM15.59,71.99c-.48.27-1.09.48-1.64.48-1.78,0-3.15-1.43-3.15-3.13,0-.27.07-.61.14-.88-.07,0-.14-.07-.14-.14-.07-.07-.14-.14-.14-.2-.14.34-.21.82-.21,1.22,0,1.97,1.64,3.53,3.56,3.53.75,0,1.44-.2,1.98-.61h-.07c-.14-.07-.27-.14-.34-.27ZM9.51,45.88c-.07.14-.14.27-.21.27.62.61.89,1.36.89,2.24,0,1.7-1.3,3.06-3.01,3.13-.07.2-.14.34-.14.48,1.98,0,3.56-1.63,3.56-3.53,0-1.02-.41-1.9-1.09-2.58ZM7.25,44.93h-.21c-1.98,0-3.56,1.56-3.56,3.53,0,1.29.68,2.38,1.64,2.99-.07-.2-.07-.41,0-.54-.75-.61-1.23-1.5-1.23-2.45,0-1.77,1.44-3.13,3.15-3.13,0-.07.07-.14.07-.2s.07-.14.14-.2ZM13.95,65.8c-.68,0-1.3.2-1.78.48.14.14.21.2.27.27.48-.27.96-.41,1.5-.41,1.78,0,3.15,1.43,3.15,3.13,0,.27,0,.54-.07.75v.07c.07,0,.21.07.41.14.07-.27.14-.61.14-.88,0-1.97-1.64-3.53-3.62-3.53ZM22.3,36.78h-.41c.34.82.96,1.43,1.78,1.84v-.48c-.62-.34-1.09-.82-1.37-1.36ZM5.06,46.7c-.41.48-.68,1.09-.68,1.77,0,.61.21,1.16.62,1.63,0-.07,0-.14.07-.2v-.07c-.27-.41-.41-.88-.41-1.36,0-1.09.75-2.04,1.85-2.31.07-.14.21-.27.34-.34-.68.07-1.3.41-1.78.88ZM36.32,71.78c-.27,0-.55-.07-.82-.14q-.07.07-.14.14c.27.14.62.2.96.2,1.44,0,2.67-1.16,2.67-2.65,0-.27-.07-.48-.14-.75h-.07s0,.2-.07.41v.34c0,1.36-1.09,2.45-2.39,2.45ZM42.88,51.05q.07,0,0,0c.07-.07,0-.14-.07-.2-1.16-.2-1.98-1.16-1.98-2.38,0-.54.21-1.02.48-1.36-.07-.07-.07-.14-.14-.27-.34.48-.55,1.02-.55,1.56-.07,1.36.96,2.52,2.26,2.65ZM7.18,51.05c1.44-.07,2.53-1.22,2.53-2.65,0-.54-.21-1.09-.48-1.5-.07.07-.07.14-.14.2.27.41.41.82.41,1.36,0,1.29-.96,2.31-2.26,2.38-.07.14-.07.2-.07.2ZM13.95,71.92c.27,0,.55-.07.82-.14-.07-.07-.14-.07-.14-.14-.21.07-.41.07-.62.07-1.37,0-2.39-1.09-2.39-2.38v-.07c-.14-.14-.14-.27-.21-.41,0,.14-.07.27-.07.41,0,1.5,1.16,2.65,2.6,2.65ZM23.05,36.64c-.14,0-.21-.07-.27-.07.21.34.48.68.89.95v-.2c-.27-.2-.41-.41-.62-.68ZM42.81,51.59c-1.57-.2-2.8-1.5-2.8-3.13,0-.88.34-1.7.96-2.31-.07-.07-.14-.2-.21-.34-.75.68-1.16,1.56-1.16,2.65,0,1.9,1.5,3.47,3.35,3.53,0-.07-.07-.2-.14-.41ZM45.62,48.47c0,.61-.21,1.16-.55,1.56v.27c.48-.48.82-1.16.82-1.9,0-1.29-.96-2.38-2.26-2.58.14.07.27.2.34.34.96.34,1.64,1.29,1.64,2.31ZM39.33,68.32c.14.34.14.68.14.95,0,1.77-1.44,3.13-3.15,3.13-.62,0-1.3-.2-1.78-.54-.07.07-.21.2-.41.27.62.48,1.37.75,2.19.75,1.98,0,3.56-1.56,3.56-3.53,0-.48-.14-.95-.27-1.43-.07.2-.14.34-.27.41ZM44.8,50.64q.07,0,0,0h0ZM43.22,44.93h-.07c.07.07.07.14.14.2,0,.07.07.14.07.2.82,0,1.57.34,2.19.95.62.61.89,1.36.89,2.18,0,1.02-.48,1.97-1.37,2.58,0,.14,0,.34-.14.61,1.16-.61,1.92-1.77,1.92-3.13-.07-1.97-1.64-3.6-3.62-3.6ZM27.22,34.26c.14,0,.21,0,.27.07-.41-.95-1.37-1.56-2.39-1.56-1.09,0-2.05.68-2.46,1.63.07-.07.21-.14.34-.14.41-.75,1.23-1.22,2.12-1.22.96-.07,1.71.48,2.12,1.22ZM27.49,36.64c-.07,0-.21.07-.34.07-.14.2-.34.41-.55.61v.27c.41-.27.68-.61.89-.95ZM28.04,36.78c-.27.54-.75,1.02-1.3,1.36v.48c.75-.34,1.37-1.02,1.71-1.77h-.27c-.07-.07-.14-.07-.14-.07ZM25.1,31.81c-1.78,0-3.28,1.29-3.56,2.99.14-.14.27-.2.41-.2v-.07c.34-1.36,1.64-2.38,3.08-2.38s2.74,1.02,3.08,2.38c.14,0,.27.07.48.14-.27-1.56-1.71-2.86-3.49-2.86ZM33.1,69.34c0-1.77,1.44-3.13,3.15-3.13.48,0,.96.14,1.37.27h.07c.07-.07.14-.2.27-.27-.48-.27-1.09-.41-1.71-.41-1.98,0-3.56,1.56-3.56,3.53,0,.34.07.68.14,1.02.07-.07.21-.14.27-.2.07,0,.07-.07.14-.07v-.07c-.14-.2-.14-.41-.14-.68ZM36.32,66.96c.21,0,.34,0,.55.07.07-.07.14-.14.27-.2-.27-.07-.48-.14-.75-.14-1.44,0-2.67,1.16-2.67,2.65,0,.2,0,.41.07.68.07-.07.14-.14.21-.2,0-.14-.07-.27-.07-.41-.07-1.36,1.03-2.45,2.39-2.45Z" style="fill: #00066d;"/>
      <path d="M37.89,41.47s.07.34.41.68c.27.34.82.54.82.54,0,0,.07.34.27.75.21.41.75.61.75.61,0,0,.07.48.21.68.14.27.55.54.55.54,0,0-.14.2-.07.48.14.34.27.48.27.48-.21.82.48,1.09.48,1.09.48.27,1.23-.2,1.23-.2,0,0,.68.07,1.09-.48.48-.61-.55-.95-.55-.95,0,0,.14-.2-.07-.61-.21-.41-.68-.54-.68-.54,0,0,0-.34-.14-.82-.14-.48-.82-.82-.82-.82,0,0,.07-.27-.14-.68-.27-.54-.96-.88-.96-.88,0,0-.14-.27-.34-.68-.55-.54-1.16-.54-1.16-.54,0,0-.14-.61-.34-.82-.34-.34-1.03-.48-1.03-.48,0,0-.07-.27-.48-.68-.34-.34-1.16-.41-1.16-.41,0,0-.07-.34-.48-.68-.48-.34-1.16-.27-1.16-.27,0,0,0-.2-.62-.61-.62-.41-1.16-.27-1.16-.27,0,0-.21-.27-.62-.48-.48-.27-1.16-.14-1.16-.14,0,0-.21-.27-.82-.48-.62-.2-1.16.07-1.16.07-.55-.48-1.03-.2-1.03-.2,0,0-.07-.48-.62-.41-1.09.2-.75,1.09-.75,1.09,0,0-.21.14-.27.61-.07.48.27.75.62.82.27.07.82-.14.82-.14,0,0,.21.2.48.2h.62s.21.2.68.34c.48.14,1.03,0,1.03,0,0,0,0,.2.48.41.48.2.96.07.96.07,0,0,.27.41.75.68.41.2.96.14.96.14,0,0,.27.34.68.61.34.27.96.34.96.34,0,0,.21.41.48.68.27.2.96.34.96.34,0,0,.27.48.48.68.14.07.75.34.75.34ZM42.2,47.24c-.07.07-.41,0-.55-.07-.14-.07-.21-.2-.21-.27s0-.07.07-.14h.14c.07.07.14.07.27.14.07,0,.14.07.21.07.07.07.14.07.14.14s0,.07-.07.14ZM43.09,46.16c.14.07.34.2.34.41,0,.14-.07.27-.48.41-.68.14-1.3-.34-1.5-.68-.14-.2-.14-.27-.07-.34s.27-.07.48.07c.41.2.68.2.89.14.07-.07.21-.07.34,0ZM42.61,45.14c.07.34.07.54-.07.61-.07.07-.21.07-.48-.07h-.07c-.82-.2-1.16-.34-1.37-1.16,0-.07,0-.2.07-.2.07-.07.27,0,.48.07.14.07.27.07.41.14.68.14,1.03.41,1.03.61ZM41.79,43.71c.14.34.14.54.07.61-.07.07-.21.07-.48,0h-.14c-.96-.27-1.3-.34-1.64-1.16,0-.07-.07-.14,0-.2.07-.07.27,0,.62.07.14.07.27.07.41.14.75.07,1.09.27,1.16.54ZM40.76,42.08c.14.34.14.48.07.61-.07.07-.21.07-.48.07h-.14c-.96-.07-1.37-.14-1.71-.88-.07-.07-.07-.14,0-.2.07-.14.34-.07.62,0,.14,0,.27.07.41.07.75,0,1.09.14,1.23.34ZM39.53,40.85c.14.2.21.34.14.41-.07.14-.21.14-.41.14-1.03,0-1.57-.2-1.92-.68-.07-.14-.07-.2-.07-.27.07-.14.34-.14.68-.14h.48c.48.07.89.27,1.09.54ZM26.74,34.87c0-.14.07-.2.21-.27h.27l.07.07s-.27.14-.34.27l-.07.07c-.14.07-.14,0-.14-.14ZM27.36,36.23c0,.07,0,.14-.07.2-.14.07-.41.07-.55-.07-.14-.14-.21-.27-.14-.48,0-.14.14-.34.41-.54.55-.34.96-.27.96-.27.07,0,.07.07.07.14s-.07.14-.21.27c-.34.14-.55.61-.48.75ZM27.97,36.37c-.14-.07-.21-.2-.21-.27,0-.27.41-.54.75-.68.48-.27.82-.27,1.09-.14,0,0,.07,0,.07.07.14.07.27.14.27.27,0,.07-.07.2-.27.27-.27.14-.55.34-.68.48-.34.14-.55.27-1.03,0ZM29.41,36.64c-.07-.07-.14-.14-.07-.2.07-.2.41-.41,1.03-.61.41-.14.89-.27,1.16-.07l.07.07c.14.07.27.2.27.34,0,.07-.14.14-.27.2-.27.07-.55.2-.75.27-.62.2-1.03.41-1.44,0ZM30.91,37.12c-.07-.07-.07-.14-.07-.14.07-.27.89-.48,1.16-.54.48-.14.89-.2,1.09.07,0,0,.07.07.14.14.14.14.27.2.27.34,0,.07-.14.14-.27.2-.27.07-.48.14-.68.27-.55,0-.96.2-1.64-.34ZM34.13,38.07c-.55.14-1.09.2-1.37-.34-.07-.07-.07-.2,0-.27.14-.27.68-.27,1.3-.34h.07c.55-.07.82.07,1.03.27l.07.07c.14.14.21.27.14.34-.07.07-.14.14-.34.14-.34.07-.62.07-.89.14ZM34.4,38.68c-.07-.14-.07-.2-.07-.27.14-.2.62-.27,1.03-.27h.21c.55-.07.82.07,1.03.27l.07.07c.14.14.21.27.14.34-.07.07-.14.14-.34.14-.27,0-.55.07-.75.07-.48.14-.96.2-1.3-.34ZM35.91,39.7c-.07-.14-.07-.2-.07-.27.07-.2.48-.2.82-.2h.27c.55-.07.82.07,1.03.27l.07.07c.14.14.21.27.14.34-.07.07-.14.14-.34.14-.27,0-.48.07-.68.07-.48.07-.82.14-1.23-.41ZM35.29,70.42s.14-.2-.14-.61c-.27-.41-.62-.41-.96-.27-.27.14-.62.61-.62.61,0,0-.27-.07-.48.07-.27.14-.48.34-.48.34,0,0-.27-.07-.75.14-.48.2-.82.61-.82.61,0,0-.14-.14-.68-.07-.55.07-.82.48-.82.48,0,0-.48-.2-1.03-.07-.41.07-.82.48-.82.48,0,0-.41-.14-.89-.07-.41,0-1.03.27-1.03.27,0,0-.41-.27-.75-.27-.34-.07-.96.27-.96.27,0,0-.55-.27-.82-.27-.27-.07-.89.14-.89.14,0,0-.27-.2-.75-.34-.48-.14-.96,0-.96,0,0,0-.27-.27-.68-.41-.41-.2-.96-.07-.96-.07,0,0-.27-.34-.55-.48-.27-.14-.75-.14-.75-.14,0,0,0-.27-.21-.41-.34-.2-.55-.27-.55-.27-.34-.82-1.03-.61-1.03-.61-.55.07-.89.88-.89.88,0,0-.55.27-.62,1.02,0,.75,1.03.41,1.03.41,0,0,0,.2.41.41.34.2.82.07.82.07,0,0,.21.27.62.54.41.27,1.16.14,1.16.14,0,0,.14.27.48.48.55.27,1.3.14,1.3.14,0,0,.27.2.68.34.75.27,1.23-.14,1.23-.14,0,0,.41.41.75.48.48.07,1.16-.2,1.16-.2,0,0,.27.2.75.27.48.07,1.23-.34,1.23-.34,0,0,.27.27.82.27.62,0,1.16-.41,1.16-.41,0,0,.14.14.82.14.75,0,1.09-.48,1.09-.48,0,0,.34.14.82.07.55-.07,1.03-.61,1.03-.61,0,0,.34.14.89-.07.62-.2.89-.75.89-.75.75.07.96-.41.96-.41,0,0,.34.34.75,0,.89-.75,0-1.29,0-1.29ZM15.53,70.08c.07-.14.34-.27.48-.27s.27.07.27.14.07.07,0,.14c0,0-.07.07-.14.07s-.21,0-.27.07c-.07,0-.14.07-.27.07,0-.07,0-.14-.07-.2q0,.07,0,0ZM15.8,71.24c-.07.07-.21.14-.27.2-.14.07-.41,0-.48-.14-.07-.07-.14-.27.14-.61.48-.54,1.23-.48,1.64-.34.21.07.27.14.27.27s-.14.2-.48.27c-.48,0-.68.2-.82.34ZM16.41,71.99c-.27-.27-.34-.41-.34-.54s.14-.14.41-.27h.07c.75-.27,1.16-.41,1.78.2.07.07.14.14.07.2,0,.14-.21.2-.48.27-.14.07-.27.07-.41.14-.48.14-.89.2-1.09,0ZM17.99,72.74c-.27-.2-.41-.34-.41-.48s.14-.14.34-.27l.14-.07c.89-.34,1.3-.48,1.98,0,0,0,.14.07.14.2s-.27.2-.55.27c-.14.07-.27.07-.41.14-.62.27-1.03.34-1.23.2ZM20.93,73.08c-.55.34-.96.41-1.16.27-.27-.2-.41-.27-.41-.41s.14-.2.34-.27l.07-.07c.82-.48,1.16-.68,1.91-.27.07.07.14.07.14.14,0,.14-.21.27-.48.41-.14.07-.27.14-.41.2ZM21.54,73.69c-.21-.07-.34-.2-.34-.27,0-.14.07-.27.27-.34.82-.61,1.37-.82,1.91-.54.14.07.21.14.21.2,0,.14-.21.27-.48.48-.14.07-.27.2-.34.27-.48.2-.96.27-1.23.2ZM24.49,73.55c-.41.34-.75.48-1.03.34h-.14c-.14-.07-.34-.07-.34-.2,0-.07.07-.2.21-.27.21-.14.34-.27.55-.48.41-.41.75-.68,1.3-.41.14.07.21.14.21.2,0,.2-.27.41-.55.61-.07.07-.14.14-.21.2ZM26.26,73.55c-.41.34-.75.48-1.03.34h-.14c-.14-.07-.34-.07-.34-.2,0-.07.07-.2.21-.27.21-.2.41-.34.55-.54.41-.41.75-.75,1.3-.48.14.07.21.14.21.2.07.27-.34.54-.68.82.07.07,0,.14-.07.14ZM28.18,73.42c-.48.41-.82.54-1.09.41h-.14c-.14-.07-.34-.07-.34-.2,0-.07.07-.2.21-.27.27-.2.41-.41.62-.54.41-.41.75-.82,1.37-.54.14.07.14.14.21.2.07.2-.34.61-.82.95ZM29.27,73.48h-.14c-.21,0-.34,0-.41-.14,0-.07,0-.2.14-.27.21-.2.27-.41.41-.61.27-.48.55-.82,1.37-.82.07,0,.14.07.14.07.07.27-.41.88-.62,1.16-.34.41-.62.68-.89.61ZM31.87,72.4c-.27.34-.55.75-.89.75h-.14c-.14,0-.34,0-.41-.14-.07-.07,0-.2.14-.34.21-.27.34-.48.48-.68.27-.48.48-.82,1.09-.82.14,0,.21.07.21.14.14.14-.07.54-.48,1.09ZM33.65,71.72c-.27.48-.48.75-.75.75h-.14c-.14,0-.34.07-.41-.07-.07-.07,0-.2.07-.34.21-.27.27-.54.27-.82.14-.41.21-.68.75-.68.14,0,.27.07.34.14.21.2.07.68-.14,1.02ZM34.88,70.76c-.21.61-.62.75-.62.75-.07,0-.14,0-.14-.07-.07-.07,0-.2.07-.34.21-.34.07-.82-.07-.88-.07-.07-.07-.14-.07-.2.07-.14.27-.27.48-.27s.27.14.41.27c0,.2.07.41-.07.75ZM35.29,71.38c-.07.07-.21.14-.27.14h-.07c0-.07.14-.27.14-.41,0-.07.07-.07.07-.07.07,0,.14.07.21.14.07-.07.07.07-.07.2ZM15.11,39.29s.62-.14.96-.34c.34-.27.68-.61.68-.61,0,0,.55.07.96-.14.48-.2.75-.68.75-.68,0,0,.48.14.96-.07.48-.2.48-.41.48-.41,0,0,.48.2,1.03,0,.48-.14.68-.34.68-.34h.62c.27,0,.48-.2.48-.2,0,0,.55.2.82.14.34-.07.68-.27.62-.82-.07-.48-.27-.61-.27-.61,0,0,.41-.88-.75-1.09-.55.07-.62.54-.62.54,0,0-.48-.27-1.03.2,0,0-.55-.27-1.16-.07-.62.2-.82.48-.82.48,0,0-.68-.14-1.16.14-.41.2-.62.48-.62.48,0,0-.55-.2-1.16.27-.62.41-.62.61-.62.61,0,0-.68-.07-1.16.27-.41.27-.48.68-.48.68,0,0-.82.07-1.16.41-.34.34-.48.68-.48.68,0,0-.75.14-1.03.48-.21.27-.34.82-.34.82,0,0-.62,0-1.09.61-.27.41-.34.68-.34.68,0,0-.75.34-.96.88-.21.34-.14.68-.14.68,0,0-.68.27-.82.82-.14.48-.14.82-.14.82,0,0-.48.2-.68.54-.21.41-.07.61-.07.61,0,0-1.03.34-.55.95.48.61,1.09.48,1.09.48,0,0,.68.48,1.23.2,0,0,.62-.27.48-1.09,0,0,.21-.14.27-.48.07-.2-.07-.48-.07-.48,0,0,.41-.27.55-.54.14-.27.21-.68.21-.68,0,0,.48-.27.75-.61.21-.34.27-.75.27-.75,0,0,.48-.2.82-.54.27-.34.41-.68.41-.68,0,0,.62-.2.82-.41.21-.2.48-.68.48-.68,0,0,.68-.14.96-.34.14-.34.34-.82.34-.82ZM23.05,34.74s.07-.07,0,0c.07-.14.21-.14.34-.07.14,0,.21.14.21.27,0,.07,0,.2-.07.2,0,0-.07,0-.07-.07-.07-.14-.34-.27-.41-.34ZM22.36,35.14s.41-.14.96.27c.34.2.41.41.41.54,0,.2-.07.34-.14.48-.14.14-.41.14-.55.07-.07-.07-.14-.14-.07-.2.07-.14-.14-.61-.48-.82-.14-.07-.21-.14-.21-.27,0-.07.07-.07.07-.07ZM20.72,35.28c.07,0,.07-.07.07-.07.27-.14.62-.14,1.09.14.34.2.68.41.75.68,0,.14-.07.2-.21.27-.48.34-.68.14-1.03-.14-.21-.14-.41-.34-.68-.48-.21-.07-.27-.14-.27-.27-.07,0,.14-.07.27-.14ZM18.74,35.82l.07-.07c.27-.2.75-.07,1.16.07.68.2,1.03.41,1.03.61,0,.07,0,.14-.07.2-.48.41-.82.2-1.37,0-.21-.14-.48-.2-.75-.27-.21-.07-.27-.14-.27-.2,0-.14.07-.2.21-.34ZM17.1,36.57q.07-.07.14-.14c.21-.27.62-.14,1.09-.07.27.07,1.09.27,1.16.54q0,.07-.07.14c-.68.54-1.03.41-1.57.2-.21-.07-.41-.2-.68-.27-.21-.07-.27-.07-.27-.2-.07,0,.07-.14.21-.2ZM15.18,37.46l.07-.07c.21-.27.48-.34,1.03-.27h.14c.55.07,1.16.14,1.3.34.07.07,0,.2,0,.27-.34.54-.82.41-1.37.34-.27-.07-.55-.07-.82-.14-.21,0-.27-.07-.34-.14-.21-.07-.07-.2,0-.34ZM8.69,47.18c-.14.07-.48.14-.55.07l-.07-.07c0-.07.07-.07.14-.14.07-.07.14-.07.21-.07.14-.07.21-.07.27-.14.07-.07.07,0,.14,0s.07.07.07.14c0,0-.07.14-.21.2ZM8.96,46.29c-.21.34-.82.82-1.5.68-.41-.07-.48-.27-.48-.41,0-.2.21-.34.34-.41.14-.07.27,0,.34,0,.21,0,.48.07.89-.14.27-.14.41-.14.48-.07.07,0,.07.2-.07.34ZM9.64,44.59c-.21.82-.55.95-1.37,1.16h-.07c-.27.07-.41.14-.48.07-.07-.07-.07-.27-.07-.61.07-.27.34-.48.96-.61.14-.07.27-.07.41-.14.27-.07.41-.14.48-.07.14,0,.21.07.14.2ZM10.67,43.1c-.34.82-.68.95-1.64,1.16h-.14c-.27.07-.41.07-.48,0-.07-.07-.07-.27.07-.61.07-.27.41-.48,1.09-.61.14,0,.27-.07.41-.14.27-.07.55-.2.62-.07.14.14.07.2.07.27ZM11.76,41.81c-.34.75-.68.82-1.71.88h-.14c-.27,0-.41.07-.48-.07-.07-.07,0-.27.07-.61.07-.27.48-.41,1.09-.48.14,0,.27,0,.41-.07.34-.07.55-.07.62,0,.21.2.21.27.14.34ZM13.06,40.79c-.34.48-.89.68-1.91.68-.21,0-.34-.07-.41-.14-.07-.14,0-.27.14-.41.21-.27.62-.48,1.09-.41h.48c.34,0,.62,0,.68.14,0-.07,0,0-.07.14ZM14.43,39.7c-.34.54-.75.48-1.3.41-.21,0-.41-.07-.68-.07-.21,0-.27-.07-.34-.14-.07-.14.07-.27.14-.34l.07-.07c.21-.27.48-.34,1.03-.27h.27c.34,0,.75,0,.82.2.07.07.07.14,0,.27ZM13.82,38.95c-.21,0-.27-.07-.34-.14-.07-.14.07-.27.14-.34l.07-.07c.21-.27.48-.34,1.03-.27h.21c.41,0,.89.07,1.03.27.07.07,0,.2-.07.27-.34.54-.82.48-1.37.34-.14,0-.41-.07-.68-.07ZM12.52,66.62s-.07-.2-.41-.41c-.21-.14-.41-.07-.41-.07,0,0-.21-.48-.34-.68-.21-.2-.62-.41-.62-.41,0,0-.07-.54-.34-.88-.27-.34-.62-.48-.62-.48,0,0-.07-.54-.27-.95-.27-.41-.55-.61-.55-.61,0,0,0-.68-.21-.88-.14-.2-.55-.61-.55-.61,0,0,.07-.68-.07-.95-.14-.27-.48-.61-.48-.61,0,0,.07-.61-.07-1.02-.14-.41-.34-.82-.34-.82,0,0,.21-.48.21-.88-.07-.48-.41-.88-.41-.88,0,0,.27-.41.21-.95-.07-.54-.27-.61-.27-.61,0,0,.27-.41.34-.95,0-.54-.14-.75-.14-.75,0,0,.14-.27.21-.61.07-.27-.07-.48-.07-.48,0,0,.34-.48.34-.75.07-.34-.07-.75-.55-.82-.48-.07-.68.14-.68.14,0,0-.89-.75-1.37.27-.27.48.21.75.21.75,0,0-.41.34-.07,1.02,0,0-.41.48-.41,1.09s.21.88.21.88c0,0-.34.61-.21,1.16.14.41.27.75.27.75,0,0-.34.48-.07,1.16.21.68.41.75.41.75,0,0-.27.61-.07,1.22.21.48.48.68.48.68,0,0-.21.82.07,1.22.27.48.48.61.48.61,0,0-.07.75.14,1.16.14.27.68.54.68.54,0,0-.21.61.27,1.22.27.34.55.54.55.54,0,0,.14.82.55,1.22.27.27.62.34.62.34,0,0,.07.75.48,1.02.41.27.75.34.75.34,0,0,0,.48.34.82.34.27.55.2.55.2,0,0,.07,1.09.75.82.68-.27.82-.88.82-.88,0,0,.68-.54.55-1.09,0-.07-.07-.75-.89-.88ZM6.16,50.03c.27-.27.55-.27.68-.27.21,0,.27.14.41.27.07.2,0,.41-.14.54-.07.07-.14.07-.21,0-.14-.07-.62-.07-.89.2-.14.14-.21.2-.27.14-.07,0-.07-.07-.07-.14-.07.14,0-.34.48-.75ZM5.47,49.83c.07-.14.21-.14.27-.14s.14.07.14.14c0,0,0,.07-.07.07-.14.07-.34.27-.34.27,0,0-.07,0-.07-.07s0-.14.07-.27ZM5.68,51.53c.27-.27.62-.54.89-.48.14,0,.21.14.27.27.21.54-.07.68-.41.88-.21.14-.41.27-.68.54-.14.14-.27.2-.34.2-.14-.07-.14-.2-.21-.34v-.14c-.07-.34.07-.61.48-.95ZM5.2,54.52c-.14-.27.14-.75.41-1.09.41-.54.75-.82.89-.82.07,0,.14.07.21.14.27.54-.07.88-.41,1.29-.14.2-.34.41-.48.68-.14.2-.21.27-.27.27-.14,0-.21-.2-.27-.34l-.07-.14ZM5.33,56.22c-.14-.27.07-.61.27-1.02.14-.27.62-.95.89-.95q.07,0,.14.14c.34.82.07,1.09-.27,1.56-.14.2-.27.34-.41.61-.07.14-.21.2-.27.2-.14,0-.21-.2-.27-.34,0-.07,0-.14-.07-.2ZM5.75,58.46l-.07-.07c-.21-.27-.21-.54.07-1.09l.07-.07c.21-.54.48-1.02.75-1.09.07,0,.21,0,.27.14.41.48.21.88-.14,1.43-.14.2-.27.48-.34.75-.07.2-.14.27-.21.27-.21,0-.34-.2-.41-.27ZM6.57,60.5c-.14,0-.21-.14-.27-.27l-.07-.07c-.21-.27-.21-.54.07-1.09,0-.07.07-.14.07-.2.14-.41.34-.82.55-.88.07,0,.21,0,.27.14.41.48.21.88-.07,1.36-.14.2-.21.41-.27.68-.14.2-.21.34-.27.34ZM7.39,61.86c-.07.2-.14.27-.21.27-.14,0-.21-.14-.27-.27l-.07-.07c-.21-.27-.21-.54.07-1.09.07-.07.07-.2.14-.27.14-.34.27-.68.41-.75.07,0,.14,0,.27.14.41.48.27.88,0,1.36-.14.2-.21.48-.34.68ZM8.07,63.83c-.14,0-.27-.07-.41-.27-.21-.27-.27-.68-.07-1.16.07-.14.07-.27.14-.41.07-.34.14-.61.27-.61.07,0,.14,0,.21.14.41.48.41,1.02.07,1.97,0,.2-.07.34-.21.34ZM9.3,64.85v.14c-.07.27-.07.41-.21.41s-.27-.07-.55-.27c-.21-.14-.27-.54-.14-1.16.07-.14.07-.27.07-.41.07-.34.07-.54.21-.61.07,0,.14,0,.21.07.62.48.62.88.41,1.84ZM10.46,66.28v.14c0,.27,0,.41-.14.41-.14.07-.27-.07-.55-.27-.27-.14-.34-.54-.27-1.22v-.41c0-.34,0-.54.14-.61.07-.07.21,0,.21.07.62.54.62.95.62,1.9ZM11.63,67.43c0,.34,0,.48-.14.54-.14.07-.27,0-.62-.14-.27-.14-.34-.48-.27-1.09v-.41c0-.27,0-.41.07-.48h.21c.75.34.82.75.75,1.56ZM12.58,68.59c-.21.34-.41.34-.55.34-.21-.07-.27-.27-.27-.41s.07-.27.14-.34c.07-.2.21-.41.14-.88-.07-.27,0-.48.07-.48.07-.07.21,0,.34.2.21.27.41.95.14,1.56ZM13.06,68.04q-.07,0,0,0c-.14,0-.14-.07-.14-.14v-.27c0-.14,0-.2-.07-.27v-.14s.07-.07.14,0c.07,0,.21.07.21.27,0,.14-.07.48-.14.54ZM45.07,53.63s.21-.27.21-.88-.41-1.09-.41-1.09c.34-.68-.07-1.02-.07-1.02,0,0,.48-.27.21-.75-.48-1.02-1.23-.34-1.23-.34,0,0-.14-.14-.68-.14-.48.07-.62.41-.55.82,0,.34.34.75.34.75,0,0-.14.2-.07.48.07.27.21.61.21.61,0,0-.14.27-.14.75,0,.54.34.95.34.95,0,0-.21.07-.27.61-.07.54.21.95.21.95,0,0-.34.41-.41.88-.07.41.21.88.21.88,0,0-.27.34-.34.82-.14.41-.07,1.02-.07,1.02,0,0-.34.34-.48.61-.14.27-.07.95-.07.95,0,0-.41.41-.55.61-.14.2-.21.88-.21.88,0,0-.27.2-.55.61-.27.41-.27.95-.27.95,0,0-.34.14-.62.48-.27.34-.34.88-.34.88,0,0-.41.2-.62.41-.21.2-.34.68-.34.68,0,0-.27-.07-.41.07-.34.2-.41.41-.41.41-.82.07-.89.75-.89.75-.14.54.55,1.09.55,1.09,0,0,.14.61.82.88.68.27.75-.82.75-.82,0,0,.21.07.55-.2.34-.27.34-.82.34-.82,0,0,.34-.14.75-.34.41-.27.48-1.02.48-1.02,0,0,.27-.07.62-.34.41-.41.55-1.22.55-1.22,0,0,.27-.2.55-.54.48-.61.27-1.22.27-1.22,0,0,.55-.27.68-.54.27-.41.14-1.16.14-1.16,0,0,.27-.2.48-.61.21-.41.07-1.22.07-1.22,0,0,.34-.2.48-.68.21-.61-.07-1.22-.07-1.22,0,0,.14-.07.34-.75.21-.68-.07-1.16-.07-1.16,0,0,.21-.27.27-.75.07-.34-.27-.95-.27-.95ZM44.18,49.83c0-.07.07-.14.14-.14.14,0,.27,0,.27.14.07.14.07.2.07.27s-.07.07-.07.07c0,0-.21-.2-.34-.27-.07,0-.07-.07-.07-.07ZM42.95,50.64c-.14-.14-.21-.34-.14-.54.07-.14.21-.27.41-.27.14,0,.41,0,.68.27.48.41.55.82.55.82,0,.07,0,.14-.07.14s-.21,0-.27-.14c-.27-.27-.75-.27-.89-.2-.07,0-.21,0-.27-.07ZM43.29,51.25c.07-.14.14-.27.27-.27.27-.07.62.2.89.48.34.34.55.68.48.95v.14c0,.14-.07.34-.21.34-.07,0-.21-.07-.34-.2-.21-.27-.48-.41-.68-.54-.41-.14-.62-.34-.41-.88ZM37.27,67.37c0,.07-.07.2-.07.27v.27c0,.07-.07.14-.07.14h-.07c-.07-.07-.14-.41-.14-.54s.14-.2.21-.27h.14v.14ZM38.03,68.93c-.14,0-.27,0-.55-.34-.34-.61-.07-1.36.21-1.63.14-.14.27-.27.34-.2.14.07.14.2.07.48-.07.48,0,.68.14.88.07.14.07.2.14.34-.07.2-.14.41-.34.48ZM39.12,67.77c-.34.14-.48.2-.62.14-.14-.07-.14-.2-.14-.48v-.07c0-.82,0-1.22.75-1.63.07-.07.14-.07.21,0,.14.07.07.27.07.48v.41c.07.68,0,1.09-.27,1.16ZM40.28,66.62c-.27.2-.48.27-.55.27-.07-.07-.14-.2-.14-.41v-.14c-.07-.95-.07-1.36.62-1.9,0,0,.14-.07.21-.07.14.07.14.27.14.61v.41c.07.61,0,1.09-.27,1.22ZM41.51,65.12c-.27.2-.41.27-.55.27-.14-.07-.14-.2-.21-.41v-.14c-.21-.95-.27-1.36.34-1.9.07-.07.14-.07.21-.07.14.07.14.27.21.61,0,.14.07.27.07.41.14.68.14,1.09-.07,1.22ZM42.34,63.56c-.14.2-.27.27-.41.27s-.21-.14-.27-.34c-.34-.95-.27-1.56.07-1.97.07-.07.14-.14.21-.14.14,0,.21.27.27.61.07.14.07.27.14.41.34.48.21.95,0,1.16ZM43.22,61.79l-.07.07c-.07.14-.21.27-.27.27s-.14-.14-.21-.27c-.07-.27-.21-.48-.27-.61-.27-.54-.41-.88,0-1.36.07-.07.21-.14.27-.14.21.07.27.34.41.75.07.14.07.2.14.27.14.48.21.82,0,1.02ZM43.84,60.09l-.07.07c-.07.14-.21.27-.27.27s-.14-.14-.21-.27c-.07-.27-.21-.48-.27-.68-.27-.54-.48-.88-.07-1.36.07-.07.14-.14.27-.14.27.07.41.48.55.88,0,.07.07.14.07.2.21.48.21.82,0,1.02ZM44.39,58.39l-.07.07c-.07.14-.21.27-.27.27s-.14-.14-.21-.27c-.07-.27-.21-.54-.34-.75-.27-.54-.48-.95-.14-1.43.07-.07.14-.14.27-.14.27.07.55.68.75,1.09l.07.07c.07.48.07.82-.07,1.09ZM44.73,56.22c0,.07-.07.07-.07.14-.07.14-.14.34-.27.34-.07,0-.14-.07-.27-.2-.14-.27-.27-.41-.41-.61-.34-.41-.62-.82-.27-1.56q.07-.07.14-.14c.27,0,.75.68.89.95.21.48.41.82.27,1.09ZM44.87,54.52s0,.07-.07.07c-.07.14-.14.27-.27.34-.07,0-.21-.07-.27-.27-.14-.27-.34-.48-.48-.68-.34-.41-.62-.75-.41-1.29.07-.07.07-.14.21-.14.21,0,.48.27.89.82.27.41.55.82.41,1.16Z" style="fill: #00066d;"/>
      <path d="M75.58,30.73h4.17v9.04l7.45-9.04h5.13l-8.55,9.92,8.82,11.15h-5.4l-7.45-9.79h-.07v9.79h-4.17v-21.07h.07Z" style="fill: #00066d;"/>
      <path d="M108.68,43.44l-7.52-12.71h4.86l4.86,8.84,4.99-8.84h4.38l-7.39,12.71v8.29h-4.17v-8.29Z" style="fill: #00066d;"/>
      <path d="M140.82,34.6c-1.3-.61-2.74-.95-4.24-.95s-3.28.61-3.28,2.92c0,3.67,9.1,2.11,9.1,9.18,0,4.62-3.62,6.39-7.8,6.39-2.26,0-3.28-.27-5.27-.82l.34-3.81c1.44.75,3.01,1.29,4.65,1.29s3.69-.82,3.69-2.72c0-4.01-9.1-2.38-9.1-9.38,0-4.69,3.62-6.46,7.25-6.46,1.78,0,3.42.27,4.99.75l-.34,3.6Z" style="fill: #00066d;"/>
      <path d="M158.95,34.06h-5.95v-3.33h16v3.33h-5.95v17.74h-4.17v-17.74h.07Z" style="fill: #00066d;"/>
      <path d="M178.58,30.73h4.45l5.27,16.59h.07l5.27-16.59h4.1l-6.98,21.07h-5.13l-7.04-21.07Z" style="fill: #00066d;"/>
      <path d="M209.01,30.73h12.24v3.33h-8.07v5.17h7.39v3.33h-7.39v5.91h8.14v3.33h-12.24v-21.07h-.07Z" style="fill: #00066d;"/>
      <path d="M234.52,30.73h4.51c4.45,0,9.71-.14,9.71,5.71,0,2.45-1.64,4.55-4.24,4.89v.07c1.09.07,1.78,1.22,2.19,2.18l3.35,8.23h-4.65l-2.46-6.59c-.62-1.56-1.1-2.18-2.87-2.18h-1.37v8.77h-4.17v-21.07ZM238.69,39.7h1.37c2.05,0,4.38-.27,4.38-2.92s-2.32-2.79-4.38-2.79h-1.37v5.71Z" style="fill: #00066d;"/>
      <path d="M262.36,30.73h4.17v9.04l7.45-9.04h5.13l-8.55,9.92,8.82,11.15h-5.4l-7.45-9.79h-.07v9.79h-4.17l.07-21.07Z" style="fill: #00066d;"/>
      <path d="M290.74,30.73h12.24v3.33h-8.07v5.17h7.39v3.33h-7.39v5.91h8.07v3.33h-12.24v-21.07Z" style="fill: #00066d;"/>
      <path d="M319.95,34.06h-5.95v-3.33h16v3.33h-5.95v17.74h-4.17v-17.74h.07Z" style="fill: #00066d;"/>
    </g>
  </g>
  <g>
    <path d="M356.82,47.88s2.19,2.31,5.52,2.31c2.31,0,4.2-1.38,4.2-3.66,0-5.31-10.52-3.96-10.52-10.49,0-3.03,2.67-5.67,6.57-5.67,3.66,0,5.64,2.04,5.64,2.04l-1.02,1.74s-1.86-1.8-4.62-1.8-4.44,1.77-4.44,3.63c0,5.01,10.52,3.57,10.52,10.49,0,3.15-2.43,5.7-6.39,5.7-4.32,0-6.69-2.7-6.69-2.7l1.23-1.59Z" style="fill: #00066d;"/>
    <path d="M376.57,30.74h11.87v1.86h-9.8v7.68h8v1.86h-8v7.82h10.34v1.86h-12.41v-21.08Z" style="fill: #00066d;"/>
    <path d="M396.99,30.74h2.07v19.22h9.77v1.86h-11.84v-21.08Z" style="fill: #00066d;"/>
    <path d="M411.38,30.74h2.22l5.85,16.01c.39,1.08.81,2.73.81,2.73h.06s.42-1.65.81-2.73l5.85-16.01h2.22l-7.83,21.08h-2.16l-7.83-21.08Z" style="fill: #00066d;"/>
    <path d="M435.91,30.74h7.2c3.33,0,5.7,2.01,5.7,5.31,0,2.19-1.05,3.78-2.67,4.59v.06c2.16.6,3.54,2.67,3.54,5.22,0,3.75-2.79,5.91-6.33,5.91h-7.44v-21.08ZM443.1,39.88c2.13,0,3.57-1.5,3.57-3.69s-1.35-3.6-3.6-3.6h-5.1v7.29h5.13ZM443.37,49.95c2.55,0,4.14-1.59,4.14-4.11s-1.71-4.17-4.17-4.17h-5.37v8.27h5.4Z" style="fill: #00066d;"/>
    <path d="M457.97,30.74h11.87v1.86h-9.8v7.68h8v1.86h-8v7.82h10.34v1.86h-12.41v-21.08Z" style="fill: #00066d;"/>
    <path d="M483.13,32.6h-7.58v-1.86h17.21v1.86h-7.55v19.22h-2.07v-19.22Z" style="fill: #00066d;"/>
    <path d="M496.29,45.07h2.07v.78c0,3.24,1.95,4.41,3.87,4.41s3.84-1.08,3.84-4.35v-13.31h-5.16v-1.86h7.23v15.17c0,4.56-3.03,6.27-5.94,6.27s-5.91-1.74-5.91-6.27v-.84Z" style="fill: #00066d;"/>
    <path d="M517.3,30.74h11.87v1.86h-9.8v7.68h8v1.86h-8v7.82h10.34v1.86h-12.41v-21.08Z" style="fill: #00066d;"/>
    <path d="M537.72,30.74h2.01l10.76,15.17c.72,1.05,1.74,2.85,1.74,2.85h.06s-.18-1.74-.18-2.85v-15.17h2.07v21.08h-2.01l-10.76-15.17c-.72-1.05-1.74-2.85-1.74-2.85h-.06s.18,1.74.18,2.85v15.17h-2.07v-21.08Z" style="fill: #00066d;"/>
    <path d="M563.59,30.74h2.07v21.08h-2.07v-21.08Z" style="fill: #00066d;"/>
    <path d="M575.08,30.74h2.01l10.76,15.17c.72,1.05,1.74,2.85,1.74,2.85h.06s-.18-1.74-.18-2.85v-15.17h2.07v21.08h-2.01l-10.76-15.17c-.72-1.05-1.74-2.85-1.74-2.85h-.06s.18,1.74.18,2.85v15.17h-2.07v-21.08Z" style="fill: #00066d;"/>
    <path d="M610.15,30.38c4.89,0,7.49,2.46,7.49,2.46l-1.11,1.56s-2.46-2.1-6.3-2.1c-5.1,0-8.54,3.93-8.54,8.93s3.57,9.02,8.36,9.02c4.11,0,6.63-3.09,6.63-3.09v-3.57h-3.6v-1.86h5.58v10.07h-1.92v-1.59c0-.45.03-.9.03-.9h-.06s-2.43,2.85-6.87,2.85c-5.76,0-10.31-4.65-10.31-10.91s4.56-10.88,10.61-10.88Z" style="fill: #00066d;"/>
  </g>
</svg>