<svg width="186" height="47" viewBox="0 0 186 47" fill="none" xmlns="http://www.w3.org/2000/svg">
<g clip-path="url(#clip0_7584_1130)">
<mask id="mask0_7584_1130" style="mask-type:luminance" maskUnits="userSpaceOnUse" x="0" y="0" width="186" height="47">
<path d="M185.714 0H0V46.71H185.714V0Z" fill="white"/>
</mask>
<g mask="url(#mask0_7584_1130)">
<path d="M0 30.2983C0 40.3595 8.81422 44.8737 14.0488 46.6717L14.1258 46.71L14.2028 46.6717C16.7816 45.7536 20.5152 44.0321 23.4404 41.2012C26.5966 38.1407 28.2132 34.5064 28.2132 30.2983V4.82019V4.70543L28.0977 4.66717C23.5174 1.56847 18.7831 0 14.0873 0C9.39157 0 4.69578 1.56847 0.0769803 4.66717L0 4.70543V4.82019V30.2983ZM0.26943 4.97321C4.84974 1.91277 9.46856 0.382555 14.0873 0.382555C18.7062 0.382555 23.3634 1.91277 27.9053 4.97321L27.8283 4.82019V30.2983C27.8283 34.3917 26.2502 37.9495 23.171 40.9334C20.2842 43.726 16.5892 45.4093 14.0488 46.3274H14.1643C9.00664 44.6059 0.3849 40.1683 0.3849 30.3366V4.82019L0.26943 4.97321Z" fill="#FFFFFF"/>
<path d="M8.23683 10.7498C6.62027 11.3619 5.54253 12.0887 5.31159 12.3183C4.81121 12.7773 5.00367 13.2364 5.00367 13.2364H5.04216C5.04216 13.2364 5.00367 12.8921 5.46555 12.4713C5.65799 12.28 6.69721 11.5914 8.35231 10.941L8.23683 10.7498Z" fill="#FFFFFF"/>
<path d="M14.5108 9.60205C14.5108 9.60205 14.3184 9.60205 14.1644 9.60205C14.0105 9.60205 13.7795 9.60205 13.7795 9.60205C12.3554 9.67859 10.4309 10.0229 8.7373 10.5967L8.81429 10.788C10.4693 10.2142 12.3938 9.90814 13.818 9.8316C13.818 9.8316 13.972 9.8316 14.1644 9.8316C14.3184 9.8316 14.5108 9.8316 14.5108 9.8316C15.935 9.90814 17.821 10.2524 19.5145 10.788L19.5915 10.5967C17.8594 10.0229 15.935 9.67859 14.5108 9.60205Z" fill="#FFFFFF"/>
<path d="M20.0535 10.7498C21.67 11.3619 22.7478 12.0887 22.9787 12.3183C23.4791 12.7773 23.2866 13.2364 23.2866 13.2364H23.2481C23.2481 13.2364 23.2866 12.8921 22.8247 12.4713C22.6323 12.28 21.593 11.5914 19.938 10.941L20.0535 10.7498Z" fill="#FFFFFF"/>
<path d="M24.826 11.4C24.0177 10.3289 22.2472 9.94629 20.5151 9.83154C20.4382 8.07182 17.2435 7.95701 14.8186 8.41606C14.5877 8.07182 13.7409 8.11003 13.5099 8.41606C11.0466 7.95701 7.89046 8.07182 7.81347 9.83154C6.04288 9.94629 4.27237 10.3289 3.46408 11.4C2.69428 12.4712 4.23388 13.5806 4.23388 13.5806L4.58029 13.2745C4.58029 13.2745 2.00146 11.1705 7.81347 10.1376C8.08287 10.9027 8.62172 11.2852 8.62172 11.2852L8.92967 11.094C8.92967 11.094 7.15914 7.80399 13.4715 8.8369L13.8564 10.1758C13.8564 10.1758 13.8564 10.0993 13.9719 10.0993C13.9719 10.0993 13.8179 8.8369 13.8564 8.72215C13.9334 8.53087 14.3567 8.53087 14.4337 8.72215C14.4722 8.8369 14.3183 10.0993 14.3183 10.0993C14.4722 10.0993 14.4337 10.1758 14.4337 10.1758L14.8186 8.8369C21.131 7.80399 19.3605 11.094 19.3605 11.094L19.6683 11.2852C19.6683 11.2852 20.2073 10.9027 20.4767 10.1376C26.3272 11.1705 23.7098 13.2745 23.7098 13.2745L24.0562 13.5806C24.0562 13.5806 25.6343 12.4712 24.826 11.4ZM4.34935 13.2363C4.38784 13.2745 4.38784 13.2745 4.42633 13.3128C4.42633 13.3128 4.34935 13.2745 4.27237 13.3511C4.1569 13.2745 4.04143 13.1598 3.92596 13.045C3.23314 12.2417 2.73277 10.4819 7.73648 10.0611C2.34787 10.9792 4.00294 12.892 4.34935 13.2363ZM8.77569 11.0557C8.77569 11.1322 8.62172 11.0557 8.62172 11.094C8.23684 10.6732 8.04437 10.2141 8.04437 9.79328C8.00588 8.76037 9.23756 7.88053 12.5477 8.45433C12.6247 8.45433 12.6632 8.45433 12.7402 8.4926C12.7017 8.4926 12.7017 8.4926 12.6632 8.4926C12.8556 8.53087 13.0866 8.56914 13.3175 8.60735C7.39004 7.95701 8.54473 10.4819 8.77569 11.0557ZM19.7068 11.1322C19.6683 11.094 19.6683 11.1322 19.6683 11.1322C19.7068 11.0175 19.5144 11.1705 19.5144 11.0557V11.0175V10.9792C19.7838 10.4054 20.9385 7.91874 15.0111 8.60735C15.2035 8.56914 15.396 8.53087 15.5884 8.4926H15.6269C18.3597 7.95701 19.7453 8.4926 20.1303 9.29595C20.2457 9.48724 20.2842 9.71679 20.2457 9.94629C20.2073 10.3671 20.0148 10.7879 19.7068 11.1322ZM24.0947 13.3511C24.0562 13.3511 24.0562 13.3511 24.0562 13.3511C24.0177 13.3128 23.9793 13.3128 23.9793 13.3128H23.9408C23.9023 13.3128 23.9023 13.3128 23.8638 13.3128C23.8638 13.3128 23.9023 13.2745 23.9408 13.2363C24.0947 13.0832 24.4027 12.739 24.4796 12.3181C24.5951 11.5913 23.9792 10.6349 20.6306 10.0228C26.5581 10.5201 24.7875 12.892 24.0947 13.3511Z" fill="#FFFFFF"/>
<path d="M24.6615 13.7882C24.6615 13.7882 24.469 13.5969 24.1226 13.4439C22.352 12.6405 22.7754 14.4385 22.7754 14.5915C22.6215 14.1325 21.5438 13.4439 21.2743 14.7063C21.0049 16.0453 22.0826 15.701 22.275 15.701C22.0056 16.0835 21.4668 16.0835 20.2736 15.5862C18.9264 15.0506 18.6955 14.6681 19.0034 14.0177C19.1189 14.8211 20.1196 15.0124 20.4275 14.209C21.1588 12.411 19.6193 12.9083 19.4268 12.9848C19.6578 12.564 20.0811 12.3728 20.0811 11.8754C20.1196 11.1103 19.0034 10.919 18.657 11.1868C18.0796 11.6459 18.4261 12.6788 18.4261 12.7935C18.2721 12.6405 17.2329 11.225 16.8864 13.1378C16.7325 13.9795 17.6563 14.362 18.2336 13.7117C18.1181 14.4002 17.5408 14.6298 16.1551 14.4002C14.0767 14.0942 14.5001 13.0996 14.5001 13.0996C14.5386 13.1378 15.3084 14.4002 15.9627 12.9466C16.6555 11.3398 14.8465 11.8372 14.5771 12.1815C14.731 11.4546 15.4239 11.0338 15.0389 10.5747C14.5386 9.96263 13.5763 10.0009 13.1529 10.5747C12.768 11.072 13.4224 11.4546 13.6148 12.1815C13.3454 11.8372 11.4979 11.3398 12.2292 12.9466C12.8835 14.4002 13.6533 13.1378 13.6918 13.0996C13.6918 13.0996 14.1152 14.0942 12.0367 14.4002C10.6511 14.6298 10.0737 14.4002 9.95823 13.7117C10.5356 14.362 11.4594 13.9795 11.3054 13.1378C10.959 11.225 9.91974 12.6405 9.76582 12.7935C9.76582 12.6788 10.1507 11.6459 9.53486 11.1868C9.14998 10.919 8.03373 11.1103 8.11072 11.8754C8.14921 12.3728 8.61113 12.6023 8.76505 12.9848C8.57264 12.9083 7.03301 12.3728 7.76433 14.1707C8.07222 14.9741 9.073 14.7828 9.18848 13.9795C9.49637 14.6681 9.26541 15.0124 7.9183 15.548C6.72512 16.007 6.18621 16.0453 5.91681 15.6627C6.07079 15.6244 7.14849 16.0453 6.91753 14.6681C6.68663 13.4056 5.5319 14.0942 5.41644 14.5533C5.41644 14.4002 5.83982 12.6022 4.06929 13.4056C3.72287 13.5587 3.53042 13.7499 3.53042 13.7499L3.45345 13.8264L3.37646 13.9029L6.45566 18.1493C6.45566 18.1493 9.073 15.9687 13.9997 15.9687C18.9264 15.9687 21.5438 18.1493 21.5438 18.1493L24.623 13.9029L24.6615 13.8264V13.7882ZM24.1995 14.1325C23.8532 14.5915 21.6592 17.5755 21.6208 17.6137L21.5438 17.7285L21.4283 17.652C20.3891 17.0781 17.6178 15.701 14.0382 15.701C10.4971 15.701 7.68734 17.0399 6.64813 17.652L6.57114 17.7285L6.45566 17.6137C6.41717 17.5755 4.22324 14.5915 3.87684 14.1325L3.83835 14.0942V14.0177C3.83835 13.9795 3.87684 13.8264 4.06929 13.6734C4.49268 13.4056 4.87758 13.4821 4.99305 13.5204C5.22398 13.6734 5.1855 14.6681 5.1855 14.7828C5.37795 14.5151 5.68585 14.1325 6.03229 14.1707C6.2632 14.1707 6.41717 14.3238 6.53265 14.6298C6.72512 15.1271 6.57114 15.3949 6.41717 15.5097C6.18621 15.6627 5.83982 15.6244 5.5704 15.5097C5.60889 15.6244 5.68585 15.8157 5.80133 15.8923C6.14777 16.16 6.84054 16.0835 7.64885 15.8157C8.61113 15.5097 9.22697 15.0506 9.3039 14.5533C9.38089 14.2472 9.26541 13.9412 9.073 13.7499C8.95752 14.0177 8.72656 14.4768 8.41866 14.5151C8.2262 14.5151 8.03373 14.4002 7.87981 14.0942C7.64885 13.6734 7.61036 13.3674 7.80282 13.1761C8.03373 12.9083 8.84204 13.0614 8.91902 13.0996C9.0345 13.1378 8.88053 12.9466 8.80354 12.9083C8.53414 12.6023 8.30318 12.3728 8.30318 12.1049C8.30318 11.8372 8.41866 11.6459 8.61113 11.5311C8.88053 11.3781 9.26541 11.4163 9.41938 11.5693C9.57336 11.7224 9.61185 12.0284 9.49637 12.7553C9.49637 12.8318 9.38089 13.1761 9.53486 12.9848C9.68884 12.8318 10.3047 12.2579 10.6511 12.411C10.882 12.4875 10.9975 12.7553 10.9975 13.1761C10.9975 13.4821 10.9205 13.6734 10.728 13.7882C10.4587 13.9412 9.95824 13.6734 9.72733 13.5204C9.68884 13.7117 9.72733 13.9795 9.88125 14.1707C10.1507 14.5151 10.8435 14.7063 11.7673 14.6298C12.7295 14.5151 13.2684 14.209 13.5378 13.8264C13.6918 13.5969 13.8457 13.1378 13.7303 12.7553C13.5763 12.9466 13.0759 13.3674 12.845 13.3674C12.6141 13.3674 12.4601 13.1761 12.3062 12.8701C12.1907 12.564 12.1907 12.2197 12.3447 12.0667C12.5756 11.8372 13.3069 12.1815 13.6918 12.3345C13.6533 12.1815 13.6148 12.0284 13.5378 11.8372C13.4994 11.6841 13.4224 11.5311 13.3839 11.4546C13.3069 11.3016 13.1144 11.072 13.2299 10.8425C13.3839 10.5747 13.6533 10.4217 13.9612 10.4217C14.3076 10.4217 14.5771 10.5747 14.6925 10.8425C14.808 11.072 14.654 11.2633 14.5386 11.4546C14.5001 11.5693 14.4231 11.6459 14.3846 11.8372C14.3076 12.0284 14.2691 12.1815 14.2306 12.3345C14.5771 12.1815 15.3084 11.8372 15.5778 12.0667C15.7318 12.2197 15.7318 12.5258 15.6163 12.8701C15.4623 13.2144 15.3084 13.3674 15.0774 13.3674C14.8465 13.3674 14.3076 12.9466 14.1922 12.7553C14.1152 13.3291 14.3076 13.6734 14.3846 13.8264C14.654 14.209 15.1929 14.5533 16.1551 14.6298C17.0789 14.7063 17.7717 14.5151 18.0411 14.1707C18.1951 13.9795 18.2336 13.5969 18.2336 13.4056C18.0026 13.5587 17.5023 13.9029 17.1944 13.7499C17.0019 13.6734 16.9249 13.4439 16.9249 13.1378C16.9249 12.6788 17.0404 12.4492 17.2714 12.3728C17.6178 12.2197 18.3491 12.9848 18.3876 12.8701C18.4261 12.7935 18.3876 12.6788 18.3876 12.6023C18.3491 12.1432 18.3106 11.6076 18.5415 11.4929C18.734 11.3398 19.0804 11.3398 19.3113 11.4546C19.5038 11.5693 19.6193 11.7606 19.6193 12.0284C19.6193 12.2962 19.5038 12.4492 19.2343 12.7935C19.1958 12.8701 18.8879 13.0996 19.0419 13.0613C19.1958 13.0231 19.9272 12.9083 20.1196 13.1761C20.2736 13.3674 20.2736 13.6734 20.0426 14.0942C19.8887 14.4002 19.6962 14.5151 19.5038 14.5151C19.1958 14.4768 19.0034 13.9795 18.8494 13.7499C18.734 13.9029 18.5031 14.2855 18.58 14.5915C18.6955 15.0506 19.3498 15.548 20.2736 15.854C21.0818 16.1218 21.7362 16.1983 22.0826 15.9305C22.2366 15.8157 22.3135 15.6244 22.352 15.5097C22.0826 15.6244 21.7362 15.6627 21.4668 15.548C21.3128 15.4714 21.1588 15.2419 21.3128 14.6298C21.3898 14.3238 21.6208 14.1707 21.8132 14.1707C22.1211 14.1325 22.429 14.4385 22.6215 14.7063C22.6215 14.5915 22.66 14.5151 22.66 14.4002C22.6215 13.9795 22.737 13.6352 22.9679 13.5204C23.0833 13.4439 23.3528 13.3674 23.7762 13.6352C24.0071 13.7882 24.0071 13.9795 24.0071 13.9795V14.056L24.1995 14.1325Z" fill="#FFFFFF"/>
<path d="M14.1642 4.66711C13.2405 4.66711 12.4707 5.43222 12.4707 6.35037C12.4707 7.11545 12.9711 7.72758 13.6639 7.95708L13.7409 8.26311C13.8179 8.2249 13.8564 8.2249 13.9333 8.2249C13.9333 8.14836 13.9333 8.07188 13.8949 8.03361C13.9718 8.03361 14.0488 8.03361 14.0873 8.03361C14.1642 8.03361 14.2412 8.03361 14.2797 8.03361C14.2797 8.11009 14.2797 8.18663 14.2412 8.2249C14.3182 8.2249 14.3952 8.26311 14.4337 8.26311L14.5107 7.95708C15.2035 7.76579 15.7039 7.11545 15.7039 6.35037C15.8579 5.43222 15.088 4.66711 14.1642 4.66711ZM14.0488 4.97316C14.0488 4.97316 14.0873 4.97316 14.1642 4.97316C14.2412 4.97316 14.2797 4.97316 14.2797 4.97316V6.50338H14.0488V4.97316ZM12.7402 6.35037C12.7402 5.6235 13.279 5.04967 13.9718 4.97316V6.50338H12.7402C12.7402 6.42685 12.7402 6.38863 12.7402 6.35037ZM14.1642 7.72758C13.5484 7.72758 13.048 7.34501 12.8556 6.84769H15.4729C15.2804 7.34501 14.7416 7.72758 14.1642 7.72758ZM15.5114 6.6564C15.4729 6.73294 15.4729 6.77115 15.4729 6.77115H12.8171C12.8171 6.77115 12.8171 6.73294 12.7787 6.6564C12.7787 6.57986 12.7402 6.54165 12.7402 6.54165H15.5114C15.5499 6.54165 15.5499 6.57986 15.5114 6.6564ZM14.3567 6.46512V4.97316C15.0495 5.04967 15.5884 5.66176 15.5884 6.35037C15.5884 6.38863 15.5884 6.42685 15.5884 6.50338L14.3567 6.46512Z" fill="#FFFFFF"/>
<path d="M14.549 2.83082V1.83618H13.7407V2.83082H12.6245V3.63419H13.7407V4.82011H13.8177C13.8177 4.82011 14.0486 4.78185 14.1641 4.78185C14.2796 4.78185 14.472 4.82011 14.472 4.82011H14.549V3.63419H15.6652V2.83082H14.549Z" fill="#FFFFFF"/>
<path d="M8.39092 25.4399L13.0098 25.8225L13.2407 25.2104L13.1637 25.4782L8.39092 25.2487C8.39092 25.2487 8.12153 25.2486 8.12153 24.9426C8.12153 24.6365 8.39092 24.5983 8.39092 24.5983L13.3946 24.4452L13.7026 20.7345C13.7026 20.5815 13.8566 20.4667 14.1644 20.4667C14.4339 20.4667 14.5878 20.5815 14.5878 20.7345L14.8958 24.4452L19.938 24.5983C19.938 24.5983 20.2074 24.5983 20.2074 24.9426C20.2074 25.2486 19.938 25.2487 19.938 25.2487L15.2037 25.4782L15.3191 25.8607L19.938 25.4782C19.9765 25.4782 20.5153 25.4399 20.5153 24.9808C20.5153 24.4452 20.1304 24.407 19.8995 24.3688L15.2806 24.1009C15.2421 23.6419 15.0882 21.8056 15.0497 21.0023C15.0112 20.2372 14.5493 20.0842 14.3569 20.0459C14.3569 20.0459 14.3184 20.0459 14.2414 20.0459H14.2029H14.1644C14.1259 20.0459 14.049 20.0459 14.049 20.0459C13.8566 20.0842 13.3946 20.2372 13.3561 21.0023C13.3177 21.7674 13.1637 23.6036 13.1252 24.1009L8.5064 24.3688C8.2755 24.3688 7.89056 24.4452 7.89056 24.9808C7.81358 25.4017 8.31399 25.4399 8.39092 25.4399ZM20.0534 33.3588L20.7847 33.7031C20.7847 33.7031 20.2843 34.6212 18.4753 36.1514L18.6293 36.381C18.6293 36.381 18.6293 36.381 18.6678 36.381C20.2074 35.2715 21.0542 33.6266 21.0542 33.6266L20.3998 33.3588L21.747 32.8615C21.516 33.5884 20.9387 35.3481 18.9757 36.7635C18.9372 36.8018 18.8987 36.84 18.8218 36.8783L18.7833 36.7253C18.7448 36.7635 18.6678 36.8018 18.6293 36.84L18.7833 36.9548C17.3976 37.8347 15.7041 38.2555 14.2029 38.2555C12.6634 38.2555 10.9313 37.7964 9.54567 36.8783L9.6226 36.7253C9.58417 36.687 9.50718 36.6488 9.46869 36.6105L9.43019 36.7635C9.3917 36.7635 9.3917 36.7253 9.3532 36.7253C7.39021 35.2715 6.77437 33.5501 6.5434 32.8232L7.89056 33.3205L7.23623 33.5501C7.23623 33.5501 7.96755 35.1568 9.54567 36.2662L9.6611 36.0367C7.85207 34.5065 7.46719 33.6648 7.46719 33.6648L8.19851 33.3205L6.3125 32.5172C6.3125 32.5172 6.69738 35.1568 9.19923 36.9931C10.7004 38.1024 12.4324 38.7528 14.0875 38.7528C15.7811 38.7528 17.5131 38.1024 18.9757 36.9931C21.5545 35.1951 21.9395 32.5554 21.9395 32.5554L20.0534 33.3588ZM15.2421 37.4521C15.7426 37.4521 17.1667 37.1843 18.0135 36.7253L18.2829 36.5723L18.3598 36.534L18.2444 36.3045L17.898 36.4957C17.0897 36.9166 15.7041 37.1078 15.3191 37.1078C14.9728 37.1078 14.8573 37.0313 14.8573 36.6488V33.9326L14.4339 33.6648V33.7031L14.5878 33.7796V36.8783C14.6263 37.3756 14.9728 37.4521 15.2421 37.4521ZM13.0098 37.1078C12.6634 37.1078 11.2777 36.9548 10.4309 36.4957L10.0845 36.3045L9.96905 36.534L10.3154 36.7253C11.1622 37.1843 12.5479 37.4521 13.0867 37.4521C13.3561 37.4521 13.7026 37.4139 13.7026 36.8783V33.7796L13.8566 33.7031V33.6648L13.4331 33.9326V36.6488C13.4331 36.9931 13.3561 37.1078 13.0098 37.1078Z" fill="#FFFFFF"/>
<path d="M21.8237 27.9647H16.1272L14.2797 22.762L14.1642 22.3794L14.0488 22.762L12.1243 27.9647H6.42773L6.77412 28.1942L11.2005 31.3694L9.31447 36.9547L14.1257 33.5117L18.86 36.993L17.0125 31.3694L21.4773 28.1942L21.8237 27.9647ZM16.5891 31.2164L16.5121 31.1781V31.2164L16.5891 31.2547V31.2164L18.3597 36.2279L17.7823 35.4245L17.8977 35.7306L18.2827 36.2662L14.2027 33.0909V32.9379L14.1642 32.8997L14.0872 32.9379V33.0909L9.89181 36.2662L10.3922 35.5775L10.1613 35.7306L10.1998 35.5775L9.77633 36.1131L11.5469 31.1781L7.19755 28.1942L7.81339 28.3855L7.69791 28.3472H7.89032L7.23604 28.156L12.3167 28.2708L12.3937 28.3472H12.4322L12.3552 28.309L14.0872 23.0297V23.9096L14.1257 23.7566L14.2027 23.9478V22.9915L15.8578 28.1942L15.7423 28.3472H15.8578L15.9347 28.2708L20.9384 28.156L20.3226 28.3472H20.4766L20.3226 28.462L21.0539 28.2325L16.5891 31.2164Z" fill="#FFFFFF"/>
<path d="M7.08203 28.1942L14.1257 30.5278L14.0872 30.4895L18.3981 36.4956L18.475 36.4191L14.2027 30.413H14.1642L7.12052 28.1177L7.08203 28.1942Z" fill="#FFFFFF"/>
<path d="M9.77664 36.4191L14.203 30.4895L14.1645 30.5277L21.3237 28.1177L21.2852 28.0411L14.126 30.413H14.0875L9.69971 36.3808L9.77664 36.4191Z" fill="#FFFFFF"/>
<path d="M14.0874 22.9532V30.4513V33.1292H14.2025V30.4513V22.9532H14.0874Z" fill="#FFFFFF"/>
<path d="M11.2392 31.4077L14.1644 30.5279H14.1259L16.9742 31.4077L17.0127 31.293L14.1644 30.4131H14.1259L11.2007 31.293L11.2392 31.4077Z" fill="#FFFFFF"/>
<path d="M12.0859 27.9647L14.0874 30.4896L14.1644 30.5279L14.2029 30.4896L16.1659 27.9647L16.0889 27.9265L14.0874 30.4131H14.2029L12.1629 27.9265L12.0859 27.9647Z" fill="#FFFFFF"/>
<path d="M7.85183 37.5287C7.69792 37.5287 7.50545 37.5669 7.35147 37.6051C7.38997 37.6434 7.42846 37.6817 7.46696 37.72C7.58244 37.6817 7.73641 37.6434 7.85183 37.6434C8.62165 37.6434 9.19899 38.2555 9.19899 38.9824C9.19899 39.0206 9.19899 39.0589 9.19899 39.0589C9.23749 39.0589 9.27598 39.0971 9.31447 39.1354C9.31447 39.0589 9.31447 39.0206 9.31447 38.9824C9.35297 38.179 8.66014 37.5287 7.85183 37.5287ZM8.77562 40.5126C8.50617 40.6656 8.15978 40.7804 7.85183 40.7804C6.85112 40.7804 6.0813 39.977 6.0813 39.0206C6.0813 38.8676 6.1198 38.6763 6.15829 38.5233C6.1198 38.5233 6.0813 38.485 6.0813 38.4468C6.04281 38.4085 6.00431 38.3703 6.00431 38.332C5.92738 38.5233 5.88889 38.7911 5.88889 39.0206C5.88889 40.13 6.81262 41.0099 7.89033 41.0099C8.31376 41.0099 8.69864 40.8952 9.00658 40.6656C9.00658 40.6656 9.00658 40.6656 8.96809 40.6656C8.8911 40.6273 8.81412 40.5891 8.77562 40.5126ZM5.35001 25.8225C5.31152 25.899 5.27303 25.9755 5.23454 25.9755C5.58095 26.3198 5.73492 26.7406 5.73492 27.2379C5.73492 28.1943 5.0036 28.9594 4.04135 28.9977C4.00286 29.1124 3.96437 29.189 3.96437 29.2655C5.08058 29.2655 5.96588 28.3473 5.96588 27.2762C5.96588 26.7024 5.73492 26.205 5.35001 25.8225ZM4.07984 25.2869C4.04135 25.2869 4.00286 25.2869 3.96437 25.2869C2.84816 25.2869 1.96289 26.1668 1.96289 27.2762C1.96289 28.003 2.34779 28.6151 2.88665 28.9594C2.84816 28.8447 2.84816 28.7299 2.88665 28.6534C2.46326 28.3091 2.19383 27.8118 2.19383 27.2762C2.19383 26.2815 3.00212 25.5164 3.96437 25.5164C3.96437 25.4782 4.00286 25.4399 4.00286 25.4016C4.00286 25.3634 4.04135 25.3252 4.07984 25.2869ZM7.85183 37.0313C7.46696 37.0313 7.12057 37.1461 6.85112 37.2991C6.9281 37.3757 6.9666 37.4139 7.00509 37.4521C7.27449 37.2991 7.54394 37.2226 7.85183 37.2226C8.85261 37.2226 9.62242 38.026 9.62242 38.9824C9.62242 39.1354 9.62242 39.2884 9.58393 39.4031V39.4414C9.62242 39.4414 9.69935 39.4797 9.81483 39.5179C9.85333 39.3649 9.89182 39.1736 9.89182 39.0206C9.89182 37.9112 8.96809 37.0313 7.85183 37.0313ZM12.5476 20.6963C12.4322 20.6963 12.3552 20.6963 12.3167 20.6963C12.5092 21.1553 12.8555 21.4996 13.3175 21.7291C13.3175 21.6526 13.3175 21.5379 13.3175 21.4613C12.971 21.2701 12.7016 21.0023 12.5476 20.6963ZM2.84816 26.2815C2.61722 26.5493 2.46326 26.8936 2.46326 27.2762C2.46326 27.6205 2.57873 27.9265 2.80967 28.1943C2.80967 28.1561 2.80967 28.1178 2.84816 28.0795C2.84816 28.0795 2.84816 28.0795 2.84816 28.0413C2.6942 27.8118 2.61722 27.544 2.61722 27.2762C2.61722 26.6641 3.04061 26.1285 3.65645 25.9755C3.69494 25.899 3.77192 25.8225 3.8489 25.7842C3.464 25.8225 3.11759 26.0138 2.84816 26.2815ZM20.4381 40.3978C20.2841 40.3978 20.1302 40.3596 19.9762 40.3213C19.9377 40.3596 19.9377 40.3596 19.8992 40.3978C20.0532 40.4743 20.2456 40.5126 20.4381 40.5126C21.2464 40.5126 21.9392 39.8623 21.9392 39.0206C21.9392 38.8676 21.9007 38.7528 21.8622 38.5998C21.8237 38.5998 21.8237 38.5998 21.8237 38.5998C21.8237 38.5998 21.8237 38.7146 21.7852 38.8293C21.7852 38.9058 21.7852 38.9824 21.7852 39.0206C21.7852 39.7857 21.1694 40.3978 20.4381 40.3978ZM24.1331 28.7299C24.1716 28.7299 24.1716 28.7299 24.1331 28.7299C24.1716 28.6917 24.1331 28.6534 24.0946 28.6151C23.4403 28.5004 22.9784 27.9648 22.9784 27.2762C22.9784 26.9701 23.0939 26.7024 23.2479 26.5111C23.2094 26.4728 23.2094 26.4345 23.1709 26.3581C22.9784 26.6258 22.863 26.9319 22.863 27.2379C22.8245 28.003 23.4018 28.6534 24.1331 28.7299ZM4.04135 28.7299C4.84964 28.6917 5.46548 28.0413 5.46548 27.2379C5.46548 26.9319 5.35001 26.6258 5.19605 26.3963C5.15756 26.4345 5.15756 26.4728 5.11907 26.5111C5.27303 26.7406 5.35001 26.9701 5.35001 27.2762C5.35001 28.003 4.81115 28.5768 4.07984 28.6151C4.04135 28.6917 4.04135 28.7299 4.04135 28.7299ZM7.85183 40.4743C8.00581 40.4743 8.15978 40.4361 8.31376 40.3978C8.27526 40.3596 8.23677 40.3596 8.23677 40.3213C8.12129 40.3596 8.00581 40.3596 7.89033 40.3596C7.12057 40.3596 6.54322 39.7474 6.54322 39.0206V38.9824C6.46624 38.9058 6.46624 38.8293 6.42774 38.7528C6.42774 38.8293 6.38925 38.9058 6.38925 38.9824C6.38925 39.824 7.04358 40.4743 7.85183 40.4743ZM12.971 20.6197C12.894 20.6197 12.8555 20.5815 12.817 20.5815C12.9325 20.7727 13.0865 20.964 13.3175 21.117C13.3175 21.0788 13.3175 21.0406 13.3175 21.0023C13.1635 20.8875 13.0865 20.7727 12.971 20.6197ZM24.0946 29.036C23.2094 28.9211 22.5166 28.1943 22.5166 27.2762C22.5166 26.7789 22.709 26.3198 23.0554 25.9755C23.0169 25.9372 22.9784 25.8607 22.9399 25.7842C22.5166 26.1668 22.2856 26.6641 22.2856 27.2762C22.2856 28.3473 23.1324 29.2272 24.1716 29.2655C24.1716 29.2272 24.1331 29.1507 24.0946 29.036ZM25.6728 27.2762C25.6728 27.6205 25.5573 27.9265 25.3648 28.1561C25.3648 28.2325 25.3648 28.2708 25.3648 28.3091C25.6343 28.0413 25.8267 27.6587 25.8267 27.2379C25.8267 26.5111 25.2878 25.899 24.5565 25.7842C24.6335 25.8225 24.7105 25.899 24.749 25.9755C25.2878 26.1668 25.6728 26.7024 25.6728 27.2762ZM22.1316 38.4468C22.2086 38.6381 22.2086 38.8293 22.2086 38.9824C22.2086 39.977 21.4004 40.7421 20.4381 40.7421C20.0917 40.7421 19.7068 40.6273 19.4374 40.4361C19.3989 40.4743 19.3219 40.5509 19.2064 40.5891C19.5528 40.8569 19.9762 41.0099 20.4381 41.0099C21.5543 41.0099 22.4396 40.13 22.4396 39.0206C22.4396 38.7528 22.3626 38.485 22.2856 38.2173C22.2471 38.332 22.2086 38.4085 22.1316 38.4468ZM25.2108 28.5004C25.2493 28.5004 25.2493 28.5004 25.2108 28.5004V28.5004ZM24.3256 25.2869H24.2871C24.3256 25.3252 24.3256 25.3634 24.3641 25.4016C24.3641 25.4399 24.4026 25.4782 24.4026 25.5164C24.8644 25.5164 25.2878 25.7077 25.6343 26.052C25.9806 26.3963 26.1346 26.8171 26.1346 27.2762C26.1346 27.85 25.8652 28.3856 25.3648 28.7299C25.3648 28.8064 25.3648 28.9211 25.2878 29.0742C25.9422 28.7299 26.3656 28.0795 26.3656 27.3144C26.3271 26.205 25.4418 25.2869 24.3256 25.2869ZM15.3189 19.2808C15.3959 19.2808 15.4344 19.2808 15.4729 19.319C15.242 18.7835 14.7031 18.4392 14.1257 18.4392C13.5099 18.4392 12.971 18.8217 12.7401 19.3573C12.7786 19.319 12.8555 19.2808 12.9325 19.2808C13.1635 18.86 13.6254 18.5922 14.1257 18.5922C14.6646 18.5539 15.088 18.86 15.3189 19.2808ZM15.4729 20.6197C15.4344 20.6197 15.3574 20.658 15.2804 20.658C15.2035 20.7727 15.088 20.8875 14.9725 21.0023V21.0406C14.9725 21.0788 14.9725 21.117 14.9725 21.1553C15.2035 21.0023 15.3574 20.811 15.4729 20.6197ZM15.7808 20.6963C15.6268 21.0023 15.3574 21.2701 15.0495 21.4613C15.0495 21.5379 15.0495 21.6144 15.0495 21.7291C15.4729 21.5379 15.8193 21.1553 16.0117 20.7345C15.9732 20.7345 15.8962 20.7345 15.8578 20.7345C15.8193 20.6963 15.7808 20.6963 15.7808 20.6963ZM14.1257 17.9036C13.125 17.9036 12.2782 18.6304 12.1243 19.5868C12.2012 19.5103 12.2782 19.4721 12.3552 19.4721V19.4338C12.5476 18.6687 13.279 18.0948 14.0872 18.0948C14.8955 18.0948 15.6268 18.6687 15.8193 19.4338C15.8962 19.4338 15.9732 19.4721 16.0887 19.5103C15.9347 18.6304 15.1265 17.9036 14.1257 17.9036ZM18.6291 39.0206C18.6291 38.026 19.4374 37.2608 20.3996 37.2608C20.669 37.2608 20.9384 37.3374 21.1694 37.4139H21.2079C21.2464 37.3756 21.2849 37.2991 21.3619 37.2608C21.0924 37.1078 20.746 37.0313 20.3996 37.0313C19.2834 37.0313 18.3981 37.9112 18.3981 39.0206C18.3981 39.2119 18.4366 39.4031 18.4751 39.5944C18.5136 39.5562 18.5906 39.5179 18.6291 39.4797C18.6676 39.4797 18.6676 39.4414 18.706 39.4414V39.4031C18.6291 39.2884 18.6291 39.1736 18.6291 39.0206ZM20.4381 37.6817C20.5536 37.6817 20.6306 37.6817 20.746 37.72C20.7845 37.6817 20.823 37.6434 20.8999 37.6051C20.746 37.5669 20.6306 37.5287 20.4766 37.5287C19.6683 37.5287 18.9754 38.179 18.9754 39.0206C18.9754 39.1354 18.9755 39.2501 19.0139 39.4031C19.0524 39.3649 19.0909 39.3267 19.1294 39.2884C19.1294 39.2119 19.0909 39.1354 19.0909 39.0589C19.0524 38.2938 19.6683 37.6817 20.4381 37.6817Z" fill="#FFFFFF"/>
<path d="M21.3236 23.3358C21.3236 23.3358 21.3621 23.5271 21.5545 23.7184C21.7085 23.9097 22.0164 24.0244 22.0164 24.0244C22.0164 24.0244 22.0549 24.2157 22.1704 24.4453C22.2858 24.6747 22.5938 24.7895 22.5938 24.7895C22.5938 24.7895 22.6322 25.0573 22.7092 25.1721C22.7862 25.3251 23.0172 25.4781 23.0172 25.4781C23.0172 25.4781 22.9402 25.5929 22.9787 25.7459C23.0557 25.9372 23.1327 26.0137 23.1327 26.0137C23.0172 26.4727 23.4021 26.6258 23.4021 26.6258C23.6715 26.7788 24.0949 26.511 24.0949 26.511C24.0949 26.511 24.4798 26.5493 24.7107 26.2432C24.9802 25.8989 24.4028 25.7077 24.4028 25.7077C24.4028 25.7077 24.4798 25.5929 24.3643 25.3634C24.2488 25.1338 23.9794 25.0573 23.9794 25.0573C23.9794 25.0573 23.9794 24.866 23.9024 24.5983C23.8255 24.3304 23.4405 24.1392 23.4405 24.1392C23.4405 24.1392 23.479 23.9861 23.3636 23.7566C23.2096 23.4506 22.8247 23.2593 22.8247 23.2593C22.8247 23.2593 22.7477 23.1063 22.6322 22.8768C22.3243 22.5707 21.978 22.5707 21.978 22.5707C21.978 22.5707 21.901 22.2264 21.7855 22.1116C21.593 21.9204 21.2081 21.8438 21.2081 21.8438C21.2081 21.8438 21.1697 21.6908 20.9387 21.4613C20.7463 21.27 20.2844 21.2318 20.2844 21.2318C20.2844 21.2318 20.2459 21.0405 20.015 20.8492C19.7455 20.6579 19.3606 20.6962 19.3606 20.6962C19.3606 20.6962 19.3606 20.5814 19.0142 20.3519C18.6678 20.1223 18.3598 20.1989 18.3598 20.1989C18.3598 20.1989 18.2444 20.0458 18.0135 19.9311C17.744 19.778 17.3591 19.8546 17.3591 19.8546C17.3591 19.8546 17.2437 19.7015 16.8973 19.5868C16.5508 19.472 16.2429 19.625 16.2429 19.625C15.935 19.3572 15.6656 19.5103 15.6656 19.5103C15.6656 19.5103 15.6271 19.2425 15.3191 19.2807C14.7033 19.3955 14.8958 19.8928 14.8958 19.8928C14.8958 19.8928 14.7803 19.9693 14.7418 20.2371C14.7033 20.5049 14.8958 20.6579 15.0882 20.6962C15.2422 20.7345 15.5501 20.6196 15.5501 20.6196C15.5501 20.6196 15.6656 20.7345 15.8195 20.7345C15.9735 20.7345 16.1659 20.7345 16.1659 20.7345C16.1659 20.7345 16.2814 20.8492 16.5508 20.9257C16.8203 21.0022 17.1282 20.9257 17.1282 20.9257C17.1282 20.9257 17.1282 21.0405 17.3976 21.1552C17.6671 21.27 17.9365 21.1935 17.9365 21.1935C17.9365 21.1935 18.0905 21.4231 18.3598 21.5761C18.5908 21.6908 18.8988 21.6526 18.8988 21.6526C18.8988 21.6526 19.0527 21.8438 19.2836 21.9969C19.4761 22.1499 19.8225 22.1881 19.8225 22.1881C19.8225 22.1881 19.938 22.4177 20.0919 22.5707C20.2459 22.6855 20.6308 22.762 20.6308 22.762C20.6308 22.762 20.7847 23.0298 20.9002 23.1445C20.9772 23.1828 21.3236 23.3358 21.3236 23.3358ZM23.7485 26.5875C23.71 26.6258 23.5175 26.5875 23.4405 26.5493C23.3636 26.511 23.3251 26.4345 23.3251 26.3963C23.3251 26.358 23.3251 26.358 23.3636 26.3197C23.3636 26.3197 23.402 26.3197 23.4405 26.3197C23.479 26.358 23.5175 26.358 23.5945 26.3963C23.633 26.3963 23.6715 26.4345 23.71 26.4345C23.7485 26.4727 23.787 26.4727 23.787 26.511C23.787 26.5493 23.787 26.5493 23.7485 26.5875ZM24.2488 25.9754C24.3258 26.0137 24.4413 26.0902 24.4413 26.205C24.4413 26.2815 24.4028 26.358 24.1719 26.4345C23.787 26.511 23.4405 26.2432 23.3251 26.052C23.2481 25.9372 23.2481 25.8989 23.2866 25.8607C23.3251 25.8224 23.4405 25.8224 23.556 25.8989C23.787 26.0137 23.9409 26.0137 24.0564 25.9754C24.0949 25.9372 24.1719 25.9372 24.2488 25.9754ZM23.9794 25.4016C24.0179 25.5929 24.0179 25.7077 23.9409 25.7459C23.9024 25.7841 23.8255 25.7841 23.6715 25.7077H23.633C23.1711 25.5929 22.9787 25.5164 22.8632 25.0573C22.8632 25.019 22.8632 24.9425 22.9017 24.9425C22.9402 24.9043 23.0557 24.9426 23.1711 24.9808C23.2481 25.0191 23.3251 25.019 23.4021 25.0573C23.787 25.1338 23.9794 25.2868 23.9794 25.4016ZM23.5175 24.5983C23.5945 24.7895 23.5945 24.9043 23.556 24.9425C23.5175 24.9808 23.4405 24.9808 23.2866 24.9425H23.2096C22.6707 24.7895 22.4783 24.7513 22.2858 24.2922C22.2858 24.254 22.2474 24.2157 22.2858 24.1774C22.3243 24.1392 22.4398 24.1774 22.6322 24.2157C22.7092 24.254 22.7862 24.254 22.8632 24.2922C23.2866 24.3304 23.479 24.4453 23.5175 24.5983ZM22.9402 23.6801C23.0172 23.8714 23.0172 23.9479 22.9787 24.0244C22.9402 24.0627 22.8632 24.0627 22.7092 24.0627H22.6322C22.0934 24.0244 21.8625 23.9861 21.67 23.5654C21.6315 23.5271 21.6315 23.4888 21.67 23.4506C21.7085 23.3741 21.8625 23.4123 22.0164 23.4506C22.0934 23.4506 22.1704 23.4888 22.2474 23.4888C22.6707 23.4888 22.8632 23.5654 22.9402 23.6801ZM22.2474 22.9915C22.3243 23.1063 22.3628 23.1828 22.3243 23.2211C22.2859 23.2975 22.2089 23.2975 22.0934 23.2975C21.516 23.2975 21.2081 23.1828 21.0157 22.915C20.9772 22.8385 20.9772 22.8002 20.9772 22.762C21.0157 22.6855 21.1697 22.6855 21.3621 22.6855C21.439 22.6855 21.5545 22.6855 21.6315 22.6855C21.901 22.7237 22.1319 22.8385 22.2474 22.9915ZM15.0497 19.625C15.0497 19.5485 15.0882 19.5103 15.1652 19.472C15.2422 19.472 15.2807 19.472 15.3191 19.472L15.3576 19.5103C15.3576 19.5103 15.2037 19.5868 15.1652 19.6633C15.1267 19.7015 15.1267 19.7015 15.1267 19.7015C15.0497 19.7398 15.0497 19.7015 15.0497 19.625ZM15.3961 20.3902C15.3961 20.4284 15.3961 20.4666 15.3576 20.5049C15.2807 20.5432 15.1267 20.5432 15.0497 20.4666C14.9728 20.3901 14.9343 20.3136 14.9728 20.1989C14.9728 20.1223 15.0497 20.0076 15.2037 19.8928C15.5116 19.7015 15.7426 19.7398 15.7426 19.7398C15.7811 19.7398 15.7811 19.778 15.7811 19.8163C15.7811 19.8546 15.7426 19.8928 15.6656 19.9693C15.4731 20.0458 15.3576 20.3136 15.3961 20.3902ZM15.7426 20.4666C15.6656 20.4284 15.6271 20.3519 15.6271 20.3136C15.6271 20.1606 15.858 20.0076 16.0505 19.9311C16.3199 19.778 16.5123 19.778 16.6663 19.8546C16.6663 19.8546 16.7048 19.8546 16.7048 19.8928C16.7818 19.9311 16.8588 19.9693 16.8588 20.0458C16.8588 20.0841 16.8203 20.1606 16.7048 20.1989C16.5508 20.2753 16.3969 20.3901 16.3199 20.4666C16.1275 20.5432 16.012 20.6196 15.7426 20.4666ZM16.5508 20.6196C16.5123 20.5814 16.4738 20.5432 16.5123 20.5049C16.5508 20.3901 16.7433 20.2753 17.0897 20.1606C17.3206 20.0841 17.5901 20.0076 17.744 20.1223L17.7825 20.1606C17.8595 20.1989 17.9365 20.2753 17.9365 20.3519C17.9365 20.3901 17.8595 20.4284 17.7825 20.4666C17.6286 20.5049 17.4746 20.5814 17.3591 20.6196C17.0127 20.7345 16.7818 20.8492 16.5508 20.6196ZM17.3976 20.8875C17.3591 20.8492 17.3591 20.8109 17.3591 20.8109C17.3976 20.6579 17.8595 20.5432 18.0135 20.5049C18.2829 20.4284 18.5138 20.3902 18.6293 20.5432C18.6293 20.5432 18.6678 20.5814 18.7063 20.6196C18.7833 20.6962 18.8603 20.7345 18.8603 20.8109C18.8603 20.8492 18.7833 20.8875 18.7063 20.9257C18.5523 20.9639 18.4368 21.0022 18.3214 21.0788C18.0135 21.0788 17.7825 21.1935 17.3976 20.8875ZM19.2067 21.4231C18.8988 21.4995 18.5908 21.5378 18.4368 21.2318C18.3983 21.1935 18.3983 21.117 18.4368 21.0788C18.5138 20.9257 18.8218 20.9257 19.1682 20.8875H19.2067C19.5146 20.8492 19.6685 20.9257 19.784 21.0405L19.8225 21.0788C19.8995 21.1552 19.938 21.2318 19.8995 21.27C19.861 21.3083 19.8225 21.3465 19.707 21.3465C19.5146 21.3848 19.3606 21.3848 19.2067 21.4231ZM19.3606 21.7674C19.3221 21.6908 19.3221 21.6526 19.3221 21.6143C19.3991 21.4995 19.6685 21.4613 19.8995 21.4613C19.938 21.4613 19.9765 21.4613 20.015 21.4613C20.3229 21.4231 20.4768 21.4995 20.5923 21.6143L20.6308 21.6526C20.7078 21.7291 20.7463 21.8056 20.7078 21.8438C20.6693 21.8821 20.6308 21.9204 20.5153 21.9204C20.3613 21.9204 20.2074 21.9586 20.0919 21.9586C19.8225 22.0351 19.553 22.0734 19.3606 21.7674ZM20.2074 22.3412C20.1689 22.2647 20.1689 22.2264 20.1689 22.1881C20.2074 22.0734 20.4383 22.0734 20.6308 22.0734C20.7078 22.0734 20.7463 22.0734 20.7847 22.0734C21.0927 22.0351 21.2466 22.1116 21.3621 22.2264L21.4006 22.2647C21.4775 22.3412 21.516 22.4177 21.4775 22.4559C21.439 22.4942 21.4006 22.5324 21.2851 22.5324C21.1312 22.5324 21.0157 22.5707 20.9002 22.5707C20.6308 22.6089 20.4383 22.6472 20.2074 22.3412ZM19.861 39.6326C19.861 39.6326 19.938 39.5179 19.784 39.2884C19.63 39.0588 19.4376 39.0588 19.2451 39.1353C19.0912 39.2118 18.8988 39.4796 18.8988 39.4796C18.8988 39.4796 18.7448 39.4414 18.6293 39.5179C18.4753 39.5944 18.3598 39.7092 18.3598 39.7092C18.3598 39.7092 18.2059 39.6709 17.9365 39.7857C17.6671 39.9004 17.4746 40.1299 17.4746 40.1299C17.4746 40.1299 17.3976 40.0535 17.0897 40.0917C16.7818 40.13 16.6278 40.3595 16.6278 40.3595C16.6278 40.3595 16.3584 40.2448 16.0505 40.3212C15.8196 40.3595 15.5886 40.5891 15.5886 40.5891C15.5886 40.5891 15.3576 40.5125 15.0882 40.5508C14.8573 40.5508 14.5109 40.7038 14.5109 40.7038C14.5109 40.7038 14.2799 40.5508 14.0875 40.5508C13.8951 40.5125 13.5486 40.7038 13.5486 40.7038C13.5486 40.7038 13.2407 40.5508 13.0867 40.5508C12.9328 40.5125 12.5864 40.6273 12.5864 40.6273C12.5864 40.6273 12.4324 40.5125 12.163 40.436C11.8936 40.3595 11.6241 40.436 11.6241 40.436C11.6241 40.436 11.4702 40.283 11.2392 40.2065C11.0083 40.0917 10.7004 40.1682 10.7004 40.1682C10.7004 40.1682 10.5464 39.9769 10.3924 39.9004C10.2385 39.8239 9.96905 39.8239 9.96905 39.8239C9.96905 39.8239 9.96905 39.6709 9.85357 39.5944C9.66111 39.4796 9.54568 39.4414 9.54568 39.4414C9.35321 38.9823 8.96834 39.0971 8.96834 39.0971C8.66039 39.1353 8.46792 39.5944 8.46792 39.5944C8.46792 39.5944 8.16003 39.7474 8.12153 40.1682C8.12153 40.5891 8.69888 40.3978 8.69888 40.3978C8.69888 40.3978 8.69888 40.5125 8.92984 40.6273C9.12225 40.7421 9.39171 40.6655 9.39171 40.6655C9.39171 40.6655 9.50719 40.8186 9.73809 40.9716C9.96905 41.1246 10.3924 41.0481 10.3924 41.0481C10.3924 41.0481 10.4694 41.2011 10.6619 41.3159C10.9698 41.4689 11.3932 41.3924 11.3932 41.3924C11.3932 41.3924 11.5471 41.5072 11.7781 41.5837C12.2015 41.7367 12.4709 41.5072 12.4709 41.5072C12.4709 41.5072 12.7019 41.7367 12.8943 41.775C13.1637 41.8132 13.5486 41.6602 13.5486 41.6602C13.5486 41.6602 13.7026 41.775 13.972 41.8132C14.2414 41.8515 14.6648 41.622 14.6648 41.622C14.6648 41.622 14.8188 41.775 15.1267 41.775C15.4731 41.775 15.7811 41.5454 15.7811 41.5454C15.7811 41.5454 15.858 41.622 16.2429 41.622C16.6663 41.622 16.8588 41.3541 16.8588 41.3541C16.8588 41.3541 17.0512 41.4307 17.3206 41.3924C17.6286 41.3541 17.898 41.0481 17.898 41.0481C17.898 41.0481 18.0905 41.1246 18.3983 41.0098C18.7448 40.8951 18.8988 40.5891 18.8988 40.5891C19.3221 40.6273 19.4376 40.3595 19.4376 40.3595C19.4376 40.3595 19.63 40.5508 19.861 40.3595C20.3613 39.9387 19.861 39.6326 19.861 39.6326ZM8.73737 39.4414C8.77587 39.3649 8.92984 39.2884 9.00683 39.2884C9.08376 39.2884 9.16075 39.3266 9.16075 39.3649C9.16075 39.4031 9.19924 39.4031 9.16075 39.4414C9.16075 39.4414 9.12225 39.4796 9.08376 39.4796C9.04527 39.4796 8.96834 39.4796 8.92984 39.5179C8.89135 39.5179 8.85285 39.5561 8.77587 39.5561C8.77587 39.5179 8.77587 39.4796 8.73737 39.4414C8.73737 39.4796 8.73737 39.4796 8.73737 39.4414ZM8.89135 40.0917C8.85285 40.13 8.77587 40.1682 8.73737 40.2065C8.66039 40.2448 8.50641 40.2065 8.46792 40.1299C8.42943 40.0917 8.39099 39.9769 8.54491 39.7857C8.81436 39.4796 9.23773 39.5179 9.46869 39.5944C9.58418 39.6326 9.62267 39.6709 9.62267 39.7474C9.62267 39.8239 9.54568 39.8622 9.35321 39.9004C9.08376 39.9004 8.96834 40.0152 8.89135 40.0917ZM9.23773 40.5125C9.08376 40.3595 9.04527 40.283 9.04527 40.2065C9.04527 40.1299 9.12225 40.1299 9.27623 40.0535H9.31472C9.73809 39.9004 9.96905 39.8239 10.3154 40.1682C10.3539 40.2065 10.3924 40.2448 10.3539 40.283C10.3539 40.3595 10.2385 40.3978 10.0845 40.436C10.0075 40.4743 9.93056 40.4743 9.85357 40.5125C9.58418 40.5891 9.35321 40.6273 9.23773 40.5125ZM10.123 40.9334C9.96905 40.8186 9.89207 40.7421 9.89207 40.6655C9.89207 40.5891 9.96905 40.5891 10.0845 40.5125L10.1615 40.4743C10.6619 40.283 10.8928 40.2065 11.2777 40.4743C11.2777 40.4743 11.3547 40.5125 11.3547 40.5891C11.3547 40.6655 11.2007 40.7038 11.0468 40.7421C10.9698 40.7803 10.8928 40.7803 10.8159 40.8186C10.4694 40.9716 10.2385 41.0098 10.123 40.9334ZM11.7781 41.1246C11.4702 41.3159 11.2392 41.3541 11.1237 41.2777C10.9698 41.1629 10.8928 41.1246 10.8928 41.0481C10.8928 40.9716 10.9698 40.9334 11.0853 40.8951L11.1237 40.8568C11.5856 40.5891 11.7781 40.4743 12.2015 40.7038C12.2399 40.7421 12.2784 40.7421 12.2784 40.7803C12.2784 40.8568 12.163 40.9334 12.009 41.0098C11.9321 41.0481 11.8551 41.0864 11.7781 41.1246ZM12.1245 41.4689C12.009 41.4307 11.9321 41.3541 11.9321 41.3159C11.9321 41.2394 11.9705 41.1629 12.086 41.1246C12.5479 40.7803 12.8558 40.6655 13.1637 40.8186C13.2407 40.8568 13.2792 40.8951 13.2792 40.9334C13.2792 41.0098 13.1637 41.0864 13.0098 41.2011C12.9328 41.2394 12.8558 41.3159 12.8173 41.3541C12.5479 41.4689 12.2784 41.5072 12.1245 41.4689ZM13.7796 41.3924C13.5486 41.5837 13.3561 41.6602 13.2022 41.5837C13.2022 41.5837 13.1637 41.5837 13.1252 41.5837C13.0483 41.5454 12.9328 41.5454 12.9328 41.4689C12.9328 41.4307 12.9713 41.3541 13.0483 41.3159C13.1637 41.2394 13.2407 41.1629 13.3562 41.0481C13.5871 40.8186 13.7796 40.6655 14.0875 40.8186C14.1645 40.8568 14.2029 40.8951 14.2029 40.9334C14.2029 41.0481 14.049 41.1629 13.8951 41.2777C13.8566 41.3159 13.8181 41.3541 13.7796 41.3924ZM14.7803 41.3924C14.5494 41.5837 14.3569 41.6602 14.2029 41.5837C14.2029 41.5837 14.1645 41.5837 14.126 41.5837C14.049 41.5454 13.9335 41.5454 13.9335 41.4689C13.9335 41.4307 13.972 41.3541 14.049 41.3159C14.1645 41.2011 14.2799 41.1246 14.3569 41.0098C14.5878 40.7803 14.7803 40.5891 15.0882 40.7421C15.1652 40.7803 15.2037 40.8186 15.2037 40.8568C15.2422 41.0098 15.0113 41.1629 14.8188 41.3159C14.8573 41.3541 14.8188 41.3924 14.7803 41.3924ZM15.858 41.3159C15.5886 41.5454 15.3961 41.622 15.2422 41.5454C15.2422 41.5454 15.2037 41.5454 15.1652 41.5454C15.0882 41.5072 14.9728 41.5072 14.9728 41.4307C14.9728 41.3924 15.0113 41.3159 15.0882 41.2777C15.2422 41.1629 15.3191 41.0481 15.4346 40.9716C15.6656 40.7421 15.858 40.5125 16.2044 40.6655C16.2814 40.7038 16.2814 40.7421 16.3199 40.7803C16.3584 40.8951 16.1275 41.1246 15.858 41.3159ZM16.4738 41.3541C16.4354 41.3541 16.3969 41.3541 16.3969 41.3541C16.2814 41.3541 16.2044 41.3541 16.1659 41.2777C16.1659 41.2394 16.1659 41.1629 16.2429 41.1246C16.3584 41.0098 16.3969 40.8951 16.4738 40.7803C16.6278 40.5125 16.7818 40.3212 17.2437 40.3212C17.2821 40.3212 17.3206 40.3595 17.3206 40.3595C17.3591 40.5125 17.0897 40.8568 16.9743 41.0098C16.7818 41.2394 16.6278 41.3924 16.4738 41.3541ZM17.9365 40.7421C17.7825 40.9334 17.6286 41.1629 17.4361 41.1629C17.4361 41.1629 17.3976 41.1629 17.3591 41.1629C17.2821 41.1629 17.1667 41.1629 17.1282 41.0864C17.0897 41.0481 17.1282 40.9716 17.2052 40.8951C17.3206 40.7421 17.3976 40.6273 17.4746 40.5125C17.6286 40.2448 17.744 40.0535 18.0905 40.0535C18.1674 40.0535 18.2059 40.0917 18.2059 40.1299C18.2829 40.2065 18.1674 40.436 17.9365 40.7421ZM18.9372 40.3595C18.7833 40.6273 18.6678 40.7803 18.5138 40.7803C18.5138 40.7803 18.4753 40.7803 18.4368 40.7803C18.3599 40.7803 18.2444 40.8186 18.2059 40.7421C18.1674 40.7038 18.2059 40.6273 18.2444 40.5508C18.3599 40.3978 18.3983 40.2448 18.3983 40.0917C18.4753 39.8622 18.5138 39.7092 18.8218 39.7092C18.8988 39.7092 18.9757 39.7474 19.0142 39.7857C19.1297 39.9004 19.0527 40.1682 18.9372 40.3595ZM19.63 39.8239C19.5146 40.1682 19.2836 40.2448 19.2836 40.2448C19.2451 40.2448 19.2067 40.2448 19.2067 40.2065C19.1682 40.1682 19.2067 40.0917 19.2451 40.0152C19.3606 39.8239 19.2836 39.5561 19.2067 39.5179C19.1682 39.4796 19.1682 39.4414 19.1682 39.4031C19.2067 39.3266 19.3221 39.2501 19.4376 39.2501C19.553 39.2501 19.5915 39.3266 19.6685 39.4031C19.6685 39.5179 19.707 39.6326 19.63 39.8239ZM19.861 40.1682C19.8225 40.2065 19.7455 40.2448 19.707 40.2448C19.6685 40.2448 19.6685 40.2448 19.6685 40.2448C19.6685 40.2065 19.7455 40.0917 19.7455 40.0152C19.7455 39.9769 19.784 39.9769 19.784 39.9769C19.8225 39.9769 19.861 40.0152 19.8995 40.0535C19.938 40.0152 19.938 40.0917 19.861 40.1682ZM8.50641 22.1116C8.50641 22.1116 8.85286 22.0351 9.04527 21.9204C9.23773 21.7674 9.4302 21.5761 9.4302 21.5761C9.4302 21.5761 9.73809 21.6143 9.96905 21.4995C10.2385 21.3848 10.3924 21.117 10.3924 21.117C10.3924 21.117 10.6619 21.1935 10.9313 21.0788C11.2007 20.964 11.2007 20.8492 11.2007 20.8492C11.2007 20.8492 11.4702 20.964 11.7781 20.8492C12.0475 20.7727 12.163 20.6579 12.163 20.6579C12.163 20.6579 12.3554 20.6579 12.5094 20.6579C12.6634 20.6579 12.7788 20.5432 12.7788 20.5432C12.7788 20.5432 13.0867 20.6579 13.2407 20.6196C13.4331 20.5814 13.6256 20.4666 13.5871 20.1606C13.5486 19.8928 13.4331 19.8163 13.4331 19.8163C13.4331 19.8163 13.6641 19.319 13.0098 19.2042C12.7019 19.2425 12.6634 19.5103 12.6634 19.5103C12.6634 19.5103 12.3939 19.3572 12.086 19.625C12.086 19.625 11.7781 19.472 11.4317 19.5868C11.0853 19.7015 10.9698 19.8546 10.9698 19.8546C10.9698 19.8546 10.5849 19.778 10.3154 19.9311C10.0845 20.0458 9.96905 20.1989 9.96905 20.1989C9.96905 20.1989 9.66111 20.0841 9.31472 20.3519C8.96834 20.5814 8.96834 20.6962 8.96834 20.6962C8.96834 20.6962 8.5834 20.6579 8.314 20.8492C8.08304 21.0022 8.04455 21.2318 8.04455 21.2318C8.04455 21.2318 7.58268 21.27 7.39021 21.4613C7.19775 21.6526 7.12082 21.8438 7.12082 21.8438C7.12082 21.8438 6.69739 21.9204 6.54347 22.1116C6.42799 22.2647 6.351 22.5707 6.351 22.5707C6.351 22.5707 6.00456 22.5707 5.73516 22.915C5.58119 23.1445 5.5427 23.2975 5.5427 23.2975C5.5427 23.2975 5.11931 23.4888 5.00384 23.7949C4.88837 23.9861 4.92687 24.1774 4.92687 24.1774C4.92687 24.1774 4.54197 24.3304 4.46498 24.6365C4.388 24.9043 4.388 25.0956 4.388 25.0956C4.388 25.0956 4.11858 25.2103 4.0031 25.4016C3.88763 25.6311 3.96461 25.7459 3.96461 25.7459C3.96461 25.7459 3.38726 25.9372 3.65669 26.2815C3.92613 26.6258 4.27253 26.5493 4.27253 26.5493C4.27253 26.5493 4.65743 26.817 4.96535 26.664C4.96535 26.664 5.31176 26.511 5.23479 26.052C5.23479 26.052 5.35026 25.9754 5.38874 25.7841C5.42723 25.6694 5.35026 25.5164 5.35026 25.5164C5.35026 25.5164 5.58119 25.3634 5.65818 25.2103C5.73516 25.0573 5.77366 24.8278 5.77366 24.8278C5.77366 24.8278 6.04305 24.6747 6.19703 24.4835C6.31251 24.2922 6.351 24.0627 6.351 24.0627C6.351 24.0627 6.6204 23.9479 6.81287 23.7566C6.96684 23.5654 7.04383 23.3741 7.04383 23.3741C7.04383 23.3741 7.39021 23.2593 7.50569 23.1445C7.62118 23.0298 7.77515 22.762 7.77515 22.762C7.77515 22.762 8.16003 22.6855 8.314 22.5707C8.39099 22.3794 8.50641 22.1116 8.50641 22.1116ZM12.9713 19.5485C13.0098 19.472 13.0867 19.472 13.1637 19.5103C13.2407 19.5103 13.2792 19.5868 13.2792 19.6633C13.2792 19.7015 13.2792 19.778 13.2407 19.778C13.2407 19.778 13.2022 19.778 13.2022 19.7398C13.1637 19.6633 13.0098 19.5868 12.9713 19.5485ZM12.5864 19.778C12.5864 19.778 12.8173 19.7015 13.1252 19.9311C13.3177 20.0458 13.3562 20.1606 13.3562 20.2371C13.3562 20.3519 13.3177 20.4284 13.2792 20.5049C13.2022 20.5814 13.0483 20.5814 12.9713 20.5432C12.9328 20.5049 12.8943 20.4666 12.9328 20.4284C12.9713 20.3519 12.8558 20.0841 12.6634 19.9693C12.5864 19.9311 12.5479 19.8928 12.5479 19.8163C12.5479 19.778 12.5864 19.778 12.5864 19.778ZM11.6626 19.8546C11.7011 19.8546 11.7011 19.8163 11.7011 19.8163C11.8551 19.7398 12.0475 19.7398 12.3169 19.8928C12.5094 20.0076 12.7019 20.1223 12.7403 20.2753C12.7403 20.3519 12.7019 20.3902 12.6249 20.4284C12.3554 20.6196 12.2399 20.5049 12.0475 20.3519C11.9321 20.2753 11.8166 20.1606 11.6626 20.0841C11.5471 20.0458 11.5086 20.0076 11.5086 19.9311C11.4702 19.9311 11.5856 19.8928 11.6626 19.8546ZM10.5464 20.1606L10.5849 20.1223C10.7389 20.0076 11.0083 20.0841 11.2392 20.1606C11.6241 20.2753 11.8166 20.3901 11.8166 20.5049C11.8166 20.5432 11.8166 20.5814 11.7781 20.6196C11.5086 20.8492 11.3162 20.7345 11.0083 20.6196C10.8928 20.5432 10.7389 20.5049 10.5849 20.4666C10.4694 20.4284 10.4309 20.3901 10.4309 20.3519C10.4309 20.2753 10.4694 20.2371 10.5464 20.1606ZM9.62267 20.5814C9.66111 20.5432 9.66111 20.5432 9.6996 20.5049C9.81508 20.3519 10.046 20.4284 10.3154 20.4666C10.4694 20.5049 10.9313 20.6196 10.9698 20.7727C10.9698 20.8109 10.9698 20.8109 10.9313 20.8492C10.5464 21.1552 10.3539 21.0788 10.046 20.964C9.93056 20.9257 9.81508 20.8492 9.66111 20.8109C9.54568 20.7727 9.50719 20.7727 9.50719 20.6962C9.46869 20.6962 9.54568 20.6196 9.62267 20.5814ZM8.54491 21.0788L8.5834 21.0405C8.69888 20.8875 8.85286 20.8492 9.16075 20.8875H9.23773C9.54568 20.9257 9.89207 20.964 9.96905 21.0788C10.0075 21.117 9.96905 21.1935 9.96905 21.2318C9.77659 21.5378 9.50719 21.4613 9.19924 21.4231C9.04527 21.3848 8.89135 21.3848 8.73737 21.3465C8.62189 21.3465 8.5834 21.3083 8.54491 21.27C8.42943 21.2318 8.50641 21.1552 8.54491 21.0788ZM4.88837 26.5493C4.81139 26.5875 4.61894 26.6258 4.58045 26.5875L4.54197 26.5493C4.54197 26.511 4.58045 26.511 4.61894 26.4727C4.65743 26.4345 4.69592 26.4345 4.73442 26.4345C4.81139 26.3963 4.84989 26.3963 4.88837 26.358C4.92686 26.3197 4.92686 26.358 4.96535 26.358C5.00384 26.358 5.00384 26.3963 5.00384 26.4345C5.00384 26.4345 4.96535 26.511 4.88837 26.5493ZM5.04234 26.052C4.92687 26.2432 4.58045 26.511 4.19555 26.4345C3.96461 26.3963 3.92613 26.2815 3.92613 26.205C3.92613 26.0902 4.04159 26.0137 4.11858 25.9754C4.19555 25.9372 4.27253 25.9754 4.31102 25.9754C4.4265 25.9754 4.58045 26.0137 4.81139 25.8989C4.96535 25.8224 5.04234 25.8224 5.08082 25.8607C5.11931 25.8607 5.11931 25.9754 5.04234 26.052ZM5.42723 25.0956C5.31176 25.5546 5.11931 25.6311 4.65743 25.7459H4.61894C4.46498 25.7841 4.388 25.8224 4.34951 25.7841C4.31102 25.7459 4.31102 25.6311 4.31102 25.4399C4.34951 25.2868 4.50347 25.1721 4.84989 25.0956C4.92687 25.0573 5.00384 25.0573 5.08082 25.0191C5.23479 24.9808 5.31176 24.9426 5.35026 24.9808C5.42723 24.9808 5.46572 25.0191 5.42723 25.0956ZM6.00456 24.254C5.81215 24.713 5.61968 24.7895 5.08082 24.9043H5.00384C4.84989 24.9425 4.7729 24.9425 4.73442 24.9043C4.69592 24.866 4.69592 24.7513 4.7729 24.56C4.81139 24.407 5.00384 24.2922 5.38874 24.2157C5.46573 24.2157 5.54271 24.1774 5.61968 24.1392C5.77366 24.1009 5.92763 24.0244 5.96607 24.1009C6.04305 24.1774 6.00456 24.2157 6.00456 24.254ZM6.6204 23.5271C6.42799 23.9479 6.23552 23.9861 5.65818 24.0244H5.58119C5.42723 24.0244 5.35026 24.0627 5.31176 23.9861C5.27327 23.9479 5.31176 23.8331 5.35026 23.6418C5.38874 23.4888 5.61968 23.4123 5.96607 23.3741C6.04305 23.3741 6.12004 23.3741 6.19703 23.3358C6.3895 23.2975 6.50498 23.2975 6.54347 23.3358C6.65889 23.4506 6.65889 23.4888 6.6204 23.5271ZM7.35172 22.9532C7.15931 23.2211 6.85136 23.3358 6.27402 23.3358C6.15854 23.3358 6.08155 23.2975 6.04305 23.2593C6.00456 23.1828 6.04305 23.1063 6.12004 23.0298C6.23552 22.8768 6.46648 22.762 6.73588 22.8002C6.81287 22.8002 6.88985 22.8002 7.00534 22.8002C7.19775 22.8002 7.35172 22.8002 7.39021 22.8768C7.39021 22.8385 7.39021 22.8768 7.35172 22.9532ZM8.12153 22.3412C7.92907 22.6472 7.69816 22.6089 7.39021 22.5707C7.27473 22.5707 7.15931 22.5324 7.00534 22.5324C6.88985 22.5324 6.85136 22.4942 6.81287 22.4559C6.77437 22.3794 6.85136 22.3029 6.88986 22.2647L6.92835 22.2264C7.04383 22.0734 7.19775 22.0351 7.50569 22.0734C7.54419 22.0734 7.62118 22.0734 7.65967 22.0734C7.85208 22.0734 8.08304 22.0734 8.12153 22.1881C8.16003 22.2264 8.16003 22.2647 8.12153 22.3412ZM7.77515 21.9204C7.65967 21.9204 7.62118 21.8821 7.58268 21.8438C7.54419 21.7674 7.62118 21.6908 7.65967 21.6526L7.69816 21.6143C7.81359 21.4613 7.96756 21.4231 8.27551 21.4613C8.314 21.4613 8.3525 21.4613 8.39099 21.4613C8.62189 21.4613 8.89135 21.4995 8.96834 21.6143C9.00683 21.6526 8.96834 21.7291 8.92984 21.7674C8.73737 22.0734 8.46792 22.0351 8.16003 21.9586C8.08304 21.9586 7.92907 21.9204 7.77515 21.9204ZM7.04383 37.4903C7.04383 37.4903 7.00534 37.3756 6.81287 37.2608C6.69739 37.1843 6.58191 37.2226 6.58191 37.2226C6.58191 37.2226 6.46648 36.9548 6.3895 36.84C6.27402 36.7252 6.04305 36.6105 6.04305 36.6105C6.04305 36.6105 6.00456 36.3044 5.85064 36.1132C5.69667 35.9219 5.50421 35.8454 5.50421 35.8454C5.50421 35.8454 5.46573 35.5393 5.35026 35.3098C5.19629 35.0803 5.04234 34.9655 5.04234 34.9655C5.04234 34.9655 5.04234 34.5829 4.92687 34.4681C4.84989 34.3534 4.61894 34.1238 4.61894 34.1238C4.61894 34.1238 4.65743 33.7413 4.58045 33.5883C4.50347 33.4353 4.31102 33.244 4.31102 33.244C4.31102 33.244 4.34951 32.8997 4.27253 32.6701C4.19555 32.4406 4.08008 32.2111 4.08008 32.2111C4.08008 32.2111 4.19555 31.9433 4.19555 31.7138C4.15706 31.446 3.96461 31.2164 3.96461 31.2164C3.96461 31.2164 4.11858 30.9869 4.08008 30.6809C4.04159 30.3748 3.92613 30.3366 3.92613 30.3366C3.92613 30.3366 4.08008 30.1071 4.11858 29.801C4.11858 29.4949 4.04159 29.3802 4.04159 29.3802C4.04159 29.3802 4.11858 29.2272 4.15706 29.0359C4.19555 28.8829 4.11858 28.7681 4.11858 28.7681C4.11858 28.7681 4.31102 28.5003 4.31102 28.3473C4.34951 28.156 4.27253 27.9265 4.0031 27.8882C3.73367 27.85 3.61821 27.9647 3.61821 27.9647C3.61821 27.9647 3.11784 27.5439 2.8484 28.1177C2.69445 28.3855 2.96387 28.5386 2.96387 28.5386C2.96387 28.5386 2.73293 28.7298 2.92538 29.1124C2.92538 29.1124 2.69445 29.3802 2.69445 29.7245C2.69445 30.0688 2.80992 30.2218 2.80992 30.2218C2.80992 30.2218 2.61746 30.5661 2.69445 30.8721C2.77142 31.1017 2.8484 31.2929 2.8484 31.2929C2.8484 31.2929 2.65595 31.5608 2.80992 31.9433C2.92538 32.3258 3.04085 32.3641 3.04085 32.3641C3.04085 32.3641 2.8869 32.7084 3.00237 33.0527C3.11784 33.3205 3.27179 33.4353 3.27179 33.4353C3.27179 33.4353 3.15632 33.8943 3.31029 34.1238C3.46424 34.3917 3.57971 34.4681 3.57971 34.4681C3.57971 34.4681 3.54122 34.889 3.65669 35.1185C3.73367 35.2715 4.04159 35.4246 4.04159 35.4246C4.04159 35.4246 3.92613 35.7689 4.19555 36.1132C4.34951 36.3044 4.50347 36.4192 4.50347 36.4192C4.50347 36.4192 4.58045 36.8783 4.81139 37.1078C4.96535 37.2608 5.1578 37.299 5.1578 37.299C5.1578 37.299 5.19629 37.7199 5.42723 37.8729C5.65818 38.0259 5.85064 38.0642 5.85064 38.0642C5.85064 38.0642 5.85064 38.3319 6.04305 38.5232C6.23552 38.6763 6.351 38.638 6.351 38.638C6.351 38.638 6.3895 39.2501 6.77437 39.0971C7.15931 38.9441 7.23624 38.5998 7.23624 38.5998C7.23624 38.5998 7.62118 38.2937 7.54419 37.9876C7.54419 37.9494 7.50569 37.5669 7.04383 37.4903ZM3.46424 28.156C3.61821 28.003 3.77216 28.003 3.84914 28.003C3.96461 28.003 4.0031 28.0795 4.08008 28.156C4.11858 28.2708 4.08008 28.3855 4.0031 28.462C3.96461 28.5003 3.92613 28.5003 3.88763 28.462C3.81066 28.4238 3.54122 28.4238 3.38726 28.5768C3.31029 28.6533 3.27179 28.6916 3.2333 28.6533C3.19482 28.6533 3.19482 28.615 3.19482 28.5768C3.15632 28.6533 3.19482 28.3855 3.46424 28.156ZM3.07934 28.0412C3.11784 27.9647 3.19482 27.9647 3.2333 27.9647C3.27179 27.9647 3.31029 28.003 3.31029 28.0412C3.31029 28.0412 3.31029 28.0795 3.27179 28.0795C3.19482 28.1177 3.07934 28.2325 3.07934 28.2325C3.07934 28.2325 3.04085 28.2325 3.04085 28.1943C3.04085 28.156 3.04085 28.1177 3.07934 28.0412ZM3.19482 28.9976C3.34877 28.8446 3.54122 28.6916 3.69518 28.7298C3.77216 28.7298 3.81066 28.8063 3.84914 28.8829C3.96461 29.1889 3.81066 29.2654 3.61821 29.3802C3.50274 29.4567 3.38726 29.5332 3.2333 29.6862C3.15632 29.7628 3.07934 29.801 3.04085 29.801C2.96387 29.7628 2.96387 29.6862 2.92538 29.6097C2.92538 29.5715 2.92538 29.5715 2.92538 29.5332C2.8869 29.3419 2.96387 29.1889 3.19482 28.9976ZM2.92538 30.6809C2.8484 30.5278 3.00237 30.2601 3.15632 30.0688C3.38726 29.7628 3.57971 29.6097 3.65669 29.6097C3.69518 29.6097 3.73367 29.648 3.77216 29.6862C3.92613 29.9923 3.73367 30.1835 3.54122 30.4131C3.46424 30.5278 3.34877 30.6426 3.27179 30.7956C3.19482 30.9104 3.15632 30.9487 3.11783 30.9487C3.04085 30.9487 3.00237 30.8339 2.96387 30.7574C2.92538 30.6809 2.92538 30.6809 2.92538 30.6809ZM3.00237 31.6372C2.92538 31.4842 3.04085 31.2929 3.15632 31.0634C3.2333 30.9104 3.50274 30.5278 3.65669 30.5278C3.69518 30.5278 3.69518 30.5278 3.73367 30.6044C3.92613 31.0634 3.77216 31.2164 3.57971 31.4842C3.50274 31.599 3.42576 31.6755 3.34877 31.8285C3.31029 31.9051 3.2333 31.9433 3.19482 31.9433C3.11784 31.9433 3.07934 31.8285 3.04085 31.752C3.04085 31.7138 3.04085 31.6755 3.00237 31.6372ZM3.2333 32.8997L3.19482 32.8614C3.07934 32.7084 3.07934 32.5554 3.2333 32.2494L3.27179 32.2111C3.38726 31.9051 3.54122 31.6372 3.69518 31.599C3.73368 31.599 3.81066 31.599 3.84914 31.6755C4.08008 31.9433 3.96461 32.1728 3.77216 32.4789C3.69518 32.5937 3.61821 32.7467 3.57971 32.8997C3.54122 33.0144 3.50274 33.0527 3.46424 33.0527C3.34877 33.0527 3.27179 32.938 3.2333 32.8997ZM3.69518 34.0474C3.61821 34.0474 3.57971 33.9708 3.54122 33.8943L3.50274 33.8561C3.38726 33.7031 3.38726 33.55 3.54122 33.244C3.54122 33.2057 3.57971 33.1675 3.57971 33.1292C3.65669 32.8997 3.77216 32.6701 3.88763 32.6319C3.92613 32.6319 4.0031 32.6319 4.04159 32.7084C4.27253 32.9762 4.15706 33.2057 4.0031 33.4735C3.92613 33.5883 3.88763 33.7031 3.84914 33.8561C3.77216 33.9708 3.73368 34.0474 3.69518 34.0474ZM4.15706 34.8124C4.11858 34.9272 4.08008 34.9655 4.04159 34.9655C3.96461 34.9655 3.92613 34.889 3.88763 34.8124L3.84914 34.7742C3.73367 34.6212 3.73368 34.4681 3.88763 34.1621C3.92613 34.1239 3.92613 34.0474 3.96461 34.0091C4.04159 33.8178 4.11858 33.6265 4.19555 33.5883C4.23405 33.5883 4.27253 33.5883 4.34951 33.6648C4.58045 33.9326 4.50347 34.1621 4.34951 34.4299C4.27253 34.5447 4.23405 34.6977 4.15706 34.8124ZM4.54197 35.9219C4.46498 35.9219 4.388 35.8836 4.31102 35.7689C4.19555 35.6159 4.15706 35.3863 4.27253 35.1185C4.31103 35.042 4.31102 34.9655 4.34951 34.889C4.388 34.6977 4.4265 34.5447 4.50347 34.5447C4.54197 34.5447 4.58045 34.5447 4.61894 34.6212C4.84989 34.889 4.84988 35.195 4.65743 35.7306C4.65743 35.8454 4.61894 35.9219 4.54197 35.9219ZM5.23479 36.4957V36.5722C5.19629 36.7252 5.19629 36.8017 5.11931 36.8017C5.04234 36.8017 4.96535 36.7635 4.81139 36.6487C4.69592 36.5722 4.65743 36.3427 4.73442 35.9984C4.7729 35.9219 4.7729 35.8453 4.7729 35.7689C4.81139 35.5776 4.81139 35.4628 4.88837 35.4246C4.92686 35.4246 4.96535 35.4246 5.00384 35.4628C5.35026 35.7306 5.35026 35.9601 5.23479 36.4957ZM5.88914 37.299V37.3756C5.88914 37.5286 5.88914 37.6051 5.81215 37.6051C5.73516 37.6433 5.65818 37.5669 5.50421 37.4521C5.35026 37.3756 5.31176 37.146 5.35026 36.7635C5.35026 36.687 5.35026 36.6105 5.35026 36.534C5.35026 36.3427 5.35026 36.2279 5.42723 36.1897C5.46572 36.1514 5.5427 36.1897 5.5427 36.2279C5.88914 36.534 5.88914 36.7635 5.88914 37.299ZM6.54347 37.9494C6.54347 38.1407 6.54347 38.2172 6.46648 38.2555C6.3895 38.2937 6.31251 38.2555 6.12004 38.1789C5.96607 38.1025 5.92763 37.9112 5.96607 37.5669C5.96607 37.4903 5.96607 37.4138 5.96607 37.3373C5.96607 37.1843 5.96607 37.1078 6.00456 37.0695C6.04305 37.0695 6.08155 37.0695 6.12004 37.0695C6.54347 37.2608 6.58191 37.4903 6.54347 37.9494ZM7.08232 38.5998C6.96684 38.7911 6.85136 38.7911 6.77437 38.7911C6.65889 38.7528 6.6204 38.638 6.6204 38.5615C6.6204 38.485 6.65889 38.4085 6.69739 38.3702C6.73588 38.2555 6.81287 38.1407 6.77437 37.8729C6.73588 37.7199 6.77437 37.6051 6.81287 37.6051C6.85136 37.5669 6.92835 37.6051 7.00534 37.7199C7.12082 37.8729 7.23624 38.2555 7.08232 38.5998ZM7.35172 38.2937C7.31323 38.2937 7.31323 38.2937 7.35172 38.2937C7.27473 38.2937 7.27473 38.2555 7.27473 38.2172C7.27473 38.1789 7.27473 38.1025 7.27473 38.0642C7.27473 37.9876 7.27473 37.9494 7.23624 37.9112C7.23624 37.8729 7.23624 37.8729 7.23624 37.8346C7.23624 37.8346 7.27473 37.7964 7.31323 37.8346C7.35172 37.8346 7.42871 37.8729 7.42871 37.9876C7.42871 38.0642 7.39021 38.2555 7.35172 38.2937ZM25.365 30.1835C25.365 30.1835 25.4805 30.0305 25.4805 29.6862C25.4805 29.3419 25.2496 29.0741 25.2496 29.0741C25.442 28.6916 25.2111 28.5003 25.2111 28.5003C25.2111 28.5003 25.4805 28.3473 25.3266 28.0795C25.0572 27.5057 24.6337 27.8882 24.6337 27.8882C24.6337 27.8882 24.5567 27.8117 24.2488 27.8117C23.9794 27.85 23.9024 28.0412 23.9409 28.2708C23.9409 28.462 24.1334 28.6916 24.1334 28.6916C24.1334 28.6916 24.0564 28.8063 24.0949 28.9593C24.1334 29.1124 24.2104 29.3036 24.2104 29.3036C24.2104 29.3036 24.1334 29.4567 24.1334 29.7245C24.1334 30.0305 24.3258 30.2601 24.3258 30.2601C24.3258 30.2601 24.2104 30.2983 24.1719 30.6044C24.1334 30.9104 24.2873 31.1399 24.2873 31.1399C24.2873 31.1399 24.0949 31.3695 24.0564 31.6372C24.0179 31.8668 24.1719 32.1346 24.1719 32.1346C24.1719 32.1346 24.0179 32.3258 23.9794 32.5937C23.9024 32.8232 23.9409 33.1675 23.9409 33.1675C23.9409 33.1675 23.7485 33.3587 23.6715 33.5118C23.5945 33.6648 23.633 34.0474 23.633 34.0474C23.633 34.0474 23.4021 34.2769 23.3251 34.3917C23.2481 34.5064 23.2096 34.889 23.2096 34.889C23.2096 34.889 23.0557 35.0037 22.9017 35.2333C22.7477 35.4628 22.7477 35.7689 22.7477 35.7689C22.7477 35.7689 22.5553 35.8454 22.4013 36.0366C22.2474 36.2279 22.2089 36.534 22.2089 36.534C22.2089 36.534 21.978 36.6487 21.8625 36.7635C21.747 36.8783 21.67 37.146 21.67 37.146C21.67 37.146 21.516 37.1078 21.439 37.1843C21.2466 37.299 21.2081 37.4138 21.2081 37.4138C20.7463 37.4521 20.7078 37.8346 20.7078 37.8346C20.6308 38.1407 21.0157 38.4468 21.0157 38.4468C21.0157 38.4468 21.0927 38.7911 21.4775 38.9441C21.8625 39.0971 21.901 38.485 21.901 38.485C21.901 38.485 22.0164 38.5232 22.2089 38.3702C22.4013 38.2172 22.4013 37.9112 22.4013 37.9112C22.4013 37.9112 22.5938 37.8346 22.8247 37.7199C23.0557 37.5669 23.0942 37.146 23.0942 37.146C23.0942 37.146 23.2481 37.1078 23.4405 36.9548C23.6715 36.7252 23.7485 36.2662 23.7485 36.2662C23.7485 36.2662 23.9024 36.1514 24.0564 35.9601C24.3258 35.6159 24.2104 35.2715 24.2104 35.2715C24.2104 35.2715 24.5182 35.1185 24.5952 34.9655C24.7492 34.736 24.6722 34.3151 24.6722 34.3151C24.6722 34.3151 24.8262 34.2004 24.9417 33.9708C25.0572 33.7413 24.9802 33.2823 24.9802 33.2823C24.9802 33.2823 25.1726 33.1675 25.2496 32.8997C25.365 32.5554 25.2111 32.2111 25.2111 32.2111C25.2111 32.2111 25.2881 32.1728 25.4035 31.7902C25.519 31.4077 25.365 31.1399 25.365 31.1399C25.365 31.1399 25.4805 30.9869 25.519 30.7191C25.5575 30.5278 25.365 30.1835 25.365 30.1835ZM24.8647 28.0412C24.8647 28.003 24.9032 27.9647 24.9417 27.9647C25.0187 27.9647 25.0956 27.9647 25.0956 28.0412C25.1341 28.1177 25.1341 28.156 25.1341 28.1943C25.1341 28.2325 25.0956 28.2325 25.0956 28.2325C25.0956 28.2325 24.9802 28.1177 24.9032 28.0795C24.8647 28.0795 24.8647 28.0412 24.8647 28.0412ZM24.1719 28.5003C24.0949 28.4238 24.0564 28.309 24.0949 28.1943C24.1334 28.1177 24.2104 28.0412 24.3258 28.0412C24.4028 28.0412 24.5567 28.0412 24.7107 28.1943C24.9802 28.4238 25.0187 28.6533 25.0187 28.6533C25.0187 28.6916 25.0187 28.7298 24.9802 28.7298C24.9417 28.7298 24.8647 28.7298 24.8262 28.6533C24.6722 28.5003 24.4028 28.5003 24.3258 28.5386C24.2873 28.5386 24.2104 28.5386 24.1719 28.5003ZM24.3643 28.8446C24.4028 28.7681 24.4413 28.6916 24.5182 28.6916C24.6722 28.6533 24.8647 28.8063 25.0187 28.9593C25.2111 29.1506 25.3266 29.3419 25.2881 29.4949C25.2881 29.4949 25.2881 29.5332 25.2881 29.5715C25.2881 29.648 25.2496 29.7628 25.1726 29.7628C25.1341 29.7628 25.0572 29.7245 24.9802 29.648C24.8647 29.4949 24.7107 29.4185 24.5952 29.3419C24.3643 29.2654 24.2488 29.1506 24.3643 28.8446ZM20.9772 37.9112C20.9772 37.9494 20.9387 38.0259 20.9387 38.0642C20.9387 38.1025 20.9387 38.1407 20.9387 38.2172C20.9387 38.2555 20.9002 38.2937 20.9002 38.2937H20.8617C20.8232 38.2555 20.7847 38.0642 20.7847 37.9876C20.7847 37.9112 20.8617 37.8729 20.9002 37.8346C20.9387 37.8346 20.9387 37.8346 20.9772 37.8346C20.9772 37.8729 20.9772 37.8729 20.9772 37.9112ZM21.4006 38.7911C21.3236 38.7911 21.2466 38.7911 21.0927 38.5998C20.9002 38.2555 21.0542 37.8346 21.2081 37.6816C21.2851 37.6051 21.3621 37.5286 21.4006 37.5669C21.4775 37.6051 21.4775 37.6816 21.439 37.8346C21.4006 38.1025 21.439 38.2172 21.516 38.332C21.5545 38.4085 21.5545 38.4468 21.593 38.5232C21.5545 38.638 21.516 38.7528 21.4006 38.7911ZM22.0164 38.1407C21.824 38.2172 21.747 38.2555 21.67 38.2172C21.593 38.1789 21.593 38.1025 21.593 37.9494V37.9112C21.593 37.4521 21.593 37.2226 22.0164 36.993C22.0549 36.9548 22.0934 36.9548 22.1319 36.993C22.2089 37.0313 22.1704 37.146 22.1704 37.2608C22.1704 37.3373 22.1704 37.4138 22.1704 37.4903C22.2089 37.8729 22.1704 38.1025 22.0164 38.1407ZM22.6707 37.4903C22.5168 37.6051 22.4013 37.6433 22.3628 37.6433C22.3243 37.6051 22.2858 37.5286 22.2858 37.4138V37.3373C22.2474 36.8017 22.2474 36.5722 22.6322 36.2662C22.6322 36.2662 22.7092 36.2279 22.7477 36.2279C22.8247 36.2662 22.8247 36.3809 22.8247 36.5722C22.8247 36.6487 22.8247 36.7252 22.8247 36.8017C22.8632 37.146 22.8247 37.4138 22.6707 37.4903ZM23.3636 36.6487C23.2096 36.7635 23.1327 36.8017 23.0557 36.8017C22.9787 36.7635 22.9787 36.687 22.9402 36.5722V36.4957C22.8247 35.9601 22.7862 35.7306 23.1327 35.4246C23.1711 35.3863 23.2096 35.3863 23.2481 35.3863C23.3251 35.4246 23.3251 35.5393 23.3636 35.7306C23.3636 35.8071 23.4021 35.8836 23.4021 35.9601C23.479 36.3427 23.479 36.5722 23.3636 36.6487ZM23.8255 35.7689C23.7485 35.8836 23.6715 35.9219 23.5945 35.9219C23.5175 35.9219 23.479 35.8454 23.4405 35.7306C23.2481 35.195 23.2866 34.8507 23.479 34.6212C23.5175 34.5829 23.556 34.5447 23.5945 34.5447C23.6715 34.5447 23.71 34.6977 23.7485 34.889C23.787 34.9655 23.787 35.042 23.8255 35.1185C24.0179 35.3863 23.9409 35.6541 23.8255 35.7689ZM24.3258 34.7742L24.2873 34.8124C24.2488 34.889 24.1719 34.9655 24.1334 34.9655C24.0949 34.9655 24.0564 34.889 24.0179 34.8124C23.9794 34.6594 23.9024 34.5447 23.8639 34.4681C23.71 34.1621 23.633 33.9708 23.8639 33.7031C23.9024 33.6648 23.9794 33.6265 24.0179 33.6265C24.1334 33.6648 24.1719 33.8178 24.2488 34.0474C24.2873 34.1238 24.2873 34.1621 24.3258 34.2004C24.4028 34.4681 24.4413 34.6594 24.3258 34.7742ZM24.6722 33.8178L24.6337 33.8561C24.5952 33.9326 24.5182 34.0091 24.4798 34.0091C24.4413 34.0091 24.4028 33.9326 24.3643 33.8561C24.3258 33.7031 24.2488 33.5883 24.2104 33.4735C24.0564 33.1675 23.9409 32.9762 24.1719 32.7084C24.2104 32.6701 24.2488 32.6319 24.3258 32.6319C24.4798 32.6701 24.5567 32.8997 24.6337 33.1292C24.6337 33.1675 24.6722 33.2057 24.6722 33.244C24.7877 33.5118 24.7877 33.703 24.6722 33.8178ZM24.9802 32.8614L24.9417 32.8997C24.9032 32.9762 24.8262 33.0527 24.7877 33.0527C24.7492 33.0527 24.7107 32.9762 24.6722 32.8997C24.6337 32.7467 24.5567 32.5937 24.4798 32.4789C24.3258 32.1728 24.2104 31.9433 24.4028 31.6755C24.4413 31.6372 24.4798 31.599 24.5567 31.599C24.7107 31.6372 24.8647 31.9815 24.9802 32.2111L25.0187 32.2494C25.0572 32.5171 25.0572 32.7084 24.9802 32.8614ZM25.1726 31.6372C25.1726 31.6755 25.1341 31.6755 25.1341 31.7138C25.0956 31.7903 25.0572 31.9051 24.9802 31.9051C24.9417 31.9051 24.9032 31.8668 24.8262 31.7902C24.7492 31.6372 24.6722 31.5608 24.5952 31.446C24.4028 31.2164 24.2488 30.9869 24.4413 30.5661C24.4798 30.5278 24.4798 30.5278 24.5182 30.4896C24.6722 30.4896 24.9417 30.8721 25.0187 31.0252C25.1341 31.2929 25.2496 31.4842 25.1726 31.6372ZM25.2496 30.6809C25.2496 30.6809 25.2496 30.7191 25.2111 30.7191C25.1726 30.7956 25.1341 30.8721 25.0572 30.9104C25.0187 30.9104 24.9417 30.8721 24.9032 30.7574C24.8262 30.6044 24.7107 30.4896 24.6337 30.3748C24.4413 30.1453 24.2873 29.954 24.4028 29.648C24.4413 29.6097 24.4413 29.5715 24.5182 29.5715C24.6337 29.5715 24.7877 29.7245 25.0187 30.0305C25.1726 30.2601 25.3266 30.4896 25.2496 30.6809Z" fill="#FFFFFF"/>
<path d="M42.5317 17.2915H44.8796V22.3795L49.075 17.2915H51.9617L47.1505 22.8768L52.1157 29.1507H49.075L44.8796 23.6419H44.8411V29.1507H42.4932V17.2915H42.5317Z" fill="#FFFFFF"/>
<path d="M61.1606 24.4453L56.9263 17.2915H59.6591L62.3919 22.2647L65.2018 17.2915H67.6651L63.5084 24.4453V29.1124H61.1606V24.4453Z" fill="#FFFFFF"/>
<path d="M79.2512 19.472C78.5196 19.1277 77.7115 18.9364 76.8645 18.9364C76.0564 18.9364 75.017 19.2807 75.017 20.5814C75.017 22.6472 80.1365 21.7673 80.1365 25.7459C80.1365 28.3473 78.0964 29.3419 75.7486 29.3419C74.4784 29.3419 73.901 29.1889 72.785 28.8828L72.9775 26.7405C73.7856 27.1614 74.6709 27.4674 75.5944 27.4674C76.4796 27.4674 77.6732 27.0084 77.6732 25.9372C77.6732 23.6801 72.5537 24.5982 72.5537 20.6579C72.5537 18.0183 74.5938 17.0237 76.6338 17.0237C77.6344 17.0237 78.5585 17.1767 79.4437 17.4445L79.2512 19.472Z" fill="#FFFFFF"/>
<path d="M89.4505 19.166H86.1021V17.2915H95.1086V19.166H91.7601V29.1507H89.4123V19.166H89.4505Z" fill="#FFFFFF"/>
<path d="M100.497 17.2915H102.999L105.963 26.6258H106.001L108.965 17.2915H111.274L107.348 29.1507H104.462L100.497 17.2915Z" fill="#FFFFFF"/>
<path d="M117.625 17.2915H124.515V19.166H119.973V22.0734H124.131V23.948H119.973V27.2762H124.554V29.1507H117.664V17.2915H117.625Z" fill="#FFFFFF"/>
<path d="M131.982 17.2914H134.522C137.024 17.2914 139.988 17.2149 139.988 20.5049C139.988 21.8821 139.064 23.068 137.602 23.2593V23.2975C138.217 23.3358 138.602 23.9861 138.833 24.5217L140.72 29.1506H138.102L136.717 25.4398C136.37 24.5599 136.1 24.2157 135.1 24.2157H134.33V29.1506H131.982V17.2914ZM134.33 22.3412H135.1C136.254 22.3412 137.563 22.1881 137.563 20.6962C137.563 19.2807 136.254 19.1277 135.1 19.1277H134.33V22.3412Z" fill="#FFFFFF"/>
<path d="M147.648 17.2915H149.996V22.3795L154.19 17.2915H157.077L152.266 22.8768L157.232 29.1507H154.19L149.996 23.6419H149.957V29.1507H147.609L147.648 17.2915Z" fill="#FFFFFF"/>
<path d="M163.621 17.2915H170.511V19.166H165.969V22.0734H170.126V23.948H165.969V27.2762H170.511V29.1507H163.621V17.2915Z" fill="#FFFFFF"/>
<path d="M180.056 19.166H176.708V17.2915H185.714V19.166H182.366V29.1507H180.018V19.166H180.056Z" fill="#FFFFFF"/>
</g>
</g>
<defs>
<clipPath id="clip0_7584_1130">
<rect width="185.714" height="46.71" fill="white"/>
</clipPath>
</defs>
</svg>
