<svg width="64" height="64" viewBox="0 0 64 64" fill="none" xmlns="http://www.w3.org/2000/svg">
<path d="M64 45.5746C64 45.5297 63.9776 45.5072 63.9326 45.5072C63.9326 45.4623 63.9102 45.4399 63.8653 45.4399H53.4905C53.4456 45.4399 53.4007 45.4399 53.3558 45.4399C53.3558 45.4399 53.3333 45.4399 53.2884 45.4399C53.1537 45.4399 52.9965 45.4623 52.8168 45.5072C52.6821 45.5072 52.5249 45.5297 52.3453 45.5746C52.1656 45.5746 51.986 45.597 51.8063 45.642C51.6716 45.642 51.5368 45.6869 51.4021 45.7767C50.8182 45.9563 50.2344 46.1809 49.6505 46.4504C49.1116 46.7199 48.5502 47.0342 47.9663 47.3935C47.4274 47.663 46.9558 47.9325 46.5516 48.202C46.1474 48.4265 45.833 48.6511 45.6084 48.8756C45.5186 48.9206 45.4288 48.9879 45.339 49.0777C45.294 49.1227 45.2267 49.19 45.1368 49.2799C45.047 49.3248 44.9797 49.3472 44.9347 49.3472C44.8898 49.3472 44.8449 49.3472 44.8 49.3472H18.0547L14.4842 45.4399C14.4842 45.4399 14.4618 45.4399 14.4168 45.4399C14.4168 45.4399 14.1249 45.4399 13.5411 45.4399C13.0021 45.4399 12.1937 45.4399 11.1158 45.4399C10.0379 45.4399 9.00491 45.4399 8.01684 45.4399C7.02877 45.4399 6.08561 45.4399 5.18737 45.4399C4.64842 45.4399 4.15439 45.4399 3.70526 45.4399C3.30105 45.4399 2.94175 45.4399 2.62737 45.4399C2.35789 45.4399 2.13333 45.4399 1.95368 45.4399C1.81895 45.4399 1.72912 45.4399 1.68421 45.4399H1.54947C1.19018 45.4399 0.898246 45.5072 0.673684 45.642C0.449123 45.7767 0.314386 45.9563 0.269474 46.1809C0.179649 46.4055 0.112281 46.5851 0.0673684 46.7199C0.0224561 46.8097 0 46.8546 0 46.8546L2.02105 53.4567C2.02105 53.5016 2.02105 53.5465 2.02105 53.5914C2.06597 53.5914 2.08842 53.5914 2.08842 53.5914C2.13333 53.5914 2.15579 53.5914 2.15579 53.5914H58.9474C58.9923 53.5914 59.0147 53.5914 59.0147 53.5914C59.0147 53.5465 59.0147 53.5016 59.0147 53.4567C59.0147 53.4567 59.0147 53.4118 59.0147 53.322C59.0597 53.2321 59.1046 53.0749 59.1495 52.8504C59.1944 52.6707 59.2393 52.4911 59.2842 52.3114C59.374 52.1318 59.4863 51.9746 59.6211 51.8399C59.8456 51.5704 60.0926 51.2785 60.3621 50.9641C60.6765 50.6497 60.9909 50.3128 61.3053 49.9535C61.6197 49.5942 61.934 49.2125 62.2484 48.8083C62.6077 48.3591 62.9895 47.8876 63.3937 47.3935C63.5733 47.169 63.7081 46.9669 63.7979 46.7872C63.9326 46.5627 64 46.3606 64 46.1809C64 45.9563 64 45.7992 64 45.7093C64 45.6195 64 45.5746 64 45.5746ZM32.4042 48.2693H44.0589C44.1039 48.2693 44.1263 48.2693 44.1263 48.2693C44.1712 48.2693 44.1937 48.2693 44.1937 48.2693C44.1937 48.2244 44.1937 48.202 44.1937 48.202C44.1937 48.157 44.1937 48.1346 44.1937 48.1346V45.5746C44.1937 45.5297 44.1712 45.5072 44.1263 45.5072C44.1263 45.4623 44.1039 45.4399 44.0589 45.4399H32.4042C32.3593 45.4399 32.3144 45.4623 32.2695 45.5072C32.2695 45.5072 32.2695 45.5297 32.2695 45.5746V48.1346C32.2246 48.1346 32.2021 48.157 32.2021 48.202C32.2021 48.202 32.2021 48.2244 32.2021 48.2693C32.2021 48.2693 32.2246 48.2693 32.2695 48.2693C32.3144 48.2693 32.3593 48.2693 32.4042 48.2693ZM32.4042 44.1599H44.0589C44.0589 44.1149 44.0589 44.0925 44.0589 44.0925C44.0589 44.0476 44.0589 44.0027 44.0589 43.9577V41.5999C44.0589 41.5549 44.0589 41.5325 44.0589 41.5325C44.0589 41.4876 44.0589 41.4651 44.0589 41.4651C44.0589 41.4202 44.0365 41.3977 43.9916 41.3977C43.9916 41.3977 43.9691 41.3977 43.9242 41.3977H32.4042C32.3593 41.3977 32.3144 41.3977 32.2695 41.3977C32.2695 41.3977 32.2695 41.4202 32.2695 41.4651V43.9577C32.2246 44.0027 32.2021 44.0476 32.2021 44.0925C32.2021 44.0925 32.2021 44.1149 32.2021 44.1599C32.2021 44.1599 32.2246 44.1599 32.2695 44.1599C32.3144 44.1599 32.3593 44.1599 32.4042 44.1599ZM19.1326 48.2693H30.7874C30.8323 48.2693 30.8547 48.2693 30.8547 48.2693C30.8547 48.2244 30.8547 48.202 30.8547 48.202C30.8547 48.157 30.8547 48.1346 30.8547 48.1346V45.5746C30.8547 45.5297 30.8547 45.5072 30.8547 45.5072C30.8547 45.4623 30.8323 45.4399 30.7874 45.4399H19.1326C19.0877 45.4399 19.0428 45.4623 18.9979 45.5072C18.9979 45.5072 18.9979 45.5297 18.9979 45.5746V48.1346C18.953 48.1346 18.9081 48.157 18.8632 48.202C18.8632 48.202 18.8632 48.2244 18.8632 48.2693C18.9081 48.2693 18.953 48.2693 18.9979 48.2693C19.0428 48.2693 19.0877 48.2693 19.1326 48.2693ZM19.1326 44.1599H30.7874C30.8323 44.1599 30.8547 44.1599 30.8547 44.1599C30.8547 44.1149 30.8547 44.0925 30.8547 44.0925V41.5999C30.8547 41.5549 30.8547 41.5325 30.8547 41.5325C30.8547 41.4876 30.8323 41.4651 30.7874 41.4651H19.1326C19.0877 41.4651 19.0428 41.4876 18.9979 41.5325C18.9979 41.5325 18.9979 41.5549 18.9979 41.5999V44.0925C18.953 44.0925 18.9081 44.0925 18.8632 44.0925C18.8632 44.0925 18.8632 44.1149 18.8632 44.1599C18.9081 44.1599 18.953 44.1599 18.9979 44.1599C19.0428 44.1599 19.0877 44.1599 19.1326 44.1599ZM2.15579 44.2946H14.2821C14.327 44.2946 14.3495 44.2946 14.3495 44.2946C14.3944 44.2946 14.4168 44.2946 14.4168 44.2946C14.4168 44.2497 14.4168 44.2272 14.4168 44.2272C14.4168 44.1823 14.4168 44.1599 14.4168 44.1599L13.0021 39.7809L13.4737 37.6925C13.4737 37.6476 13.4737 37.6251 13.4737 37.6251C13.4737 37.5802 13.4737 37.5577 13.4737 37.5577H4.98526C4.98526 37.5577 4.96281 37.5577 4.9179 37.5577C4.9179 37.5577 4.89544 37.5577 4.85053 37.5577C4.85053 37.5577 4.85053 37.5802 4.85053 37.6251C4.85053 37.6251 4.85053 37.6476 4.85053 37.6925L2.02105 44.1599C2.02105 44.1599 2.02105 44.1823 2.02105 44.2272C2.02105 44.2272 2.02105 44.2497 2.02105 44.2946C2.06597 44.2946 2.11088 44.2946 2.15579 44.2946ZM11.3179 40.3872V41.6672H5.32211V40.3872H11.3179ZM31.9326 12.4293C28.5642 12.4293 25.3081 12.8784 22.1642 13.7767C19.0653 14.63 16.146 15.8427 13.4063 17.4146L11.9916 14.922C14.9558 13.2153 18.0996 11.9128 21.4232 11.0146C24.7916 10.0714 28.2947 9.59985 31.9326 9.59985C35.5705 9.59985 39.0737 10.0714 42.4421 11.0146C45.8554 11.9577 49.0442 13.2827 52.0084 14.9893L50.5937 17.482C47.854 15.91 44.9123 14.6749 41.7684 13.7767C38.6246 12.8784 35.346 12.4293 31.9326 12.4293ZM22.6358 33.5156C24.0281 32.7072 25.5102 32.1009 27.0821 31.6967C28.654 31.2476 30.2709 31.023 31.9326 31.023C33.6393 31.023 35.2786 31.2476 36.8505 31.6967C38.4674 32.1458 39.9719 32.7746 41.3642 33.583L42.7789 31.0904C41.1621 30.1472 39.433 29.4286 37.5916 28.9346C35.7951 28.3956 33.9088 28.1262 31.9326 28.1262C30.0014 28.1262 28.1151 28.3956 26.2737 28.9346C24.4772 29.4286 22.793 30.1248 21.2211 31.023L22.6358 33.5156ZM18.0547 25.4988C20.1207 24.2862 22.3214 23.3655 24.6568 22.7367C26.9923 22.063 29.4175 21.7262 31.9326 21.7262C34.4926 21.7262 36.9404 22.063 39.2758 22.7367C41.6561 23.4104 43.8793 24.3535 45.9453 25.5662L47.36 23.0735C45.1144 21.7262 42.6891 20.6932 40.0842 19.9746C37.4793 19.256 34.7621 18.8967 31.9326 18.8967C29.1481 18.8967 26.4533 19.256 23.8484 19.9746C21.2884 20.6932 18.8856 21.7037 16.64 23.0062L18.0547 25.4988Z" fill="currentColor"/>

</svg>
