<svg width="64" height="64" viewBox="0 0 64 64" fill="none" xmlns="http://www.w3.org/2000/svg">
<path d="M61.1019 29.1019C60.6189 29.1019 59.8541 29.3031 58.8075 29.7057C57.8415 30.1082 56.9157 30.5509 56.0302 31.034H52.2868C52.1258 28.5384 51.5623 26.2038 50.5962 24.0302C49.7107 21.8566 48.5031 19.9245 46.9736 18.234L49.5094 15.6981C50.395 15.3761 51.361 15.0138 52.4075 14.6113C53.5346 14.2088 54.2591 13.8063 54.5811 13.4038C55.1447 12.8403 55.4264 12.156 55.4264 11.3509C55.4264 10.5459 55.1447 9.86164 54.5811 9.29811C54.0176 8.73459 53.3333 8.45283 52.5283 8.45283C51.7233 8.45283 51.039 8.73459 50.4755 9.29811C50.1535 9.70063 49.7912 10.4252 49.3887 11.4717C48.9862 12.4377 48.6239 13.3635 48.3019 14.2491L45.6453 16.9057C43.9547 15.3761 42.0226 14.1686 39.8491 13.283C37.6755 12.317 35.3409 11.7937 32.8453 11.7132V8.09057C33.2478 7.28553 33.6906 6.35975 34.1736 5.31321C34.6566 4.18616 34.8981 3.38113 34.8981 2.89811C34.8981 2.09308 34.6164 1.40881 34.0528 0.845283C33.4893 0.281761 32.805 0 32 0C31.195 0 30.5107 0.281761 29.9472 0.845283C29.3836 1.40881 29.1019 2.09308 29.1019 2.89811C29.1019 3.38113 29.3031 4.14591 29.7057 5.19245C30.1887 6.15849 30.6314 7.04403 31.034 7.84906V11.7132C28.5384 11.8742 26.2038 12.4377 24.0302 13.4038C21.8566 14.2893 19.9245 15.4969 18.234 17.0264L15.6981 14.4906C15.4566 13.605 15.0943 12.639 14.6113 11.5925C14.2088 10.4654 13.8465 9.70063 13.5245 9.29811C12.961 8.73459 12.2767 8.45283 11.4717 8.45283C10.6667 8.45283 9.98239 8.73459 9.41887 9.29811C8.85535 9.86164 8.57358 10.5459 8.57358 11.3509C8.57358 12.156 8.85535 12.8403 9.41887 13.4038C9.74088 13.8063 10.3849 14.2088 11.3509 14.6113C12.3975 15.0138 13.3635 15.3358 14.2491 15.5774L17.0264 18.3547C15.4969 20.0453 14.2491 21.9774 13.283 24.1509C12.3975 26.244 11.8742 28.5384 11.7132 31.034H7.96981C7.08428 30.5509 6.11824 30.1082 5.0717 29.7057C4.10566 29.3031 3.38113 29.1019 2.89811 29.1019C2.09308 29.1019 1.40881 29.3836 0.845283 29.9472C0.281761 30.5107 0 31.195 0 32C0 32.805 0.281761 33.4893 0.845283 34.0528C1.40881 34.6164 2.09308 34.8981 2.89811 34.8981C3.38113 34.8981 4.14591 34.6566 5.19245 34.1736C6.3195 33.6906 7.32579 33.2478 8.21132 32.8453H11.7132C11.8742 35.2604 12.3975 37.5547 13.283 39.7283C14.2491 41.9019 15.4969 43.8742 17.0264 45.6453L14.2491 48.3019C13.3635 48.6239 12.3975 48.9862 11.3509 49.3887C10.3849 49.7912 9.74088 50.1535 9.41887 50.4755C8.85535 51.039 8.57358 51.7233 8.57358 52.5283C8.57358 53.3333 8.85535 54.0176 9.41887 54.5811C9.98239 55.1447 10.6667 55.4264 11.4717 55.4264C12.2767 55.4264 12.961 55.1447 13.5245 54.5811C13.8465 54.2591 14.2088 53.5346 14.6113 52.4075C15.0943 51.2805 15.4566 50.2742 15.6981 49.3887L18.234 46.8528C19.9245 48.4629 21.8566 49.7509 24.0302 50.717C26.2038 51.6025 28.5384 52.0855 31.034 52.166V56.0302C30.6314 56.8352 30.1887 57.761 29.7057 58.8075C29.3031 59.8541 29.1019 60.6189 29.1019 61.1019C29.1019 61.9069 29.3836 62.5912 29.9472 63.1547C30.5107 63.7182 31.195 64 32 64C32.805 64 33.4893 63.7182 34.0528 63.1547C34.6164 62.5912 34.8981 61.9069 34.8981 61.1019C34.8981 60.5384 34.6566 59.7333 34.1736 58.6868C33.6906 57.6403 33.2478 56.6742 32.8453 55.7887V52.166C35.3409 52.0855 37.6755 51.6025 39.8491 50.717C42.0226 49.7509 43.9547 48.5031 45.6453 46.9736L48.3019 49.6302C48.6239 50.5157 48.9862 51.4818 49.3887 52.5283C49.7912 53.5748 50.1535 54.2591 50.4755 54.5811C51.039 55.1447 51.7233 55.4264 52.5283 55.4264C53.3333 55.4264 54.0176 55.1447 54.5811 54.5811C55.1447 54.0176 55.4264 53.3333 55.4264 52.5283C55.4264 51.7233 55.1447 51.039 54.5811 50.4755C54.2591 50.1535 53.5346 49.7912 52.4075 49.3887C51.361 48.9057 50.395 48.5031 49.5094 48.1811L46.9736 45.6453C48.5031 43.9547 49.7107 42.0226 50.5962 39.8491C51.5623 37.595 52.1258 35.2604 52.2868 32.8453H55.7887C56.6742 33.2478 57.6403 33.6906 58.6868 34.1736C59.8138 34.6566 60.6189 34.8981 61.1019 34.8981C61.9069 34.8981 62.5912 34.6164 63.1547 34.0528C63.7182 33.4893 64 32.805 64 32C64 31.195 63.7182 30.5107 63.1547 29.9472C62.5912 29.3836 61.9069 29.1019 61.1019 29.1019ZM19.683 21.0113L26.566 27.8943C26.244 28.3774 25.9623 28.9006 25.7208 29.4642C25.5597 29.9472 25.439 30.4704 25.3585 31.034H15.5774C15.7384 29.1019 16.1811 27.2906 16.9057 25.6C17.6302 23.9094 18.556 22.3799 19.683 21.0113ZM15.5774 32.8453H25.3585C25.439 33.4088 25.5597 33.9723 25.7208 34.5359C25.9623 35.0189 26.244 35.5019 26.566 35.9849L19.683 42.8679C18.556 41.4994 17.6302 39.9698 16.9057 38.2792C16.1811 36.5887 15.7384 34.7774 15.5774 32.8453ZM31.034 48.3019C29.1019 48.2214 27.2906 47.8189 25.6 47.0943C23.9094 46.3698 22.3799 45.4038 21.0113 44.1962L27.8943 37.3132C28.2969 37.6352 28.7799 37.917 29.3434 38.1585C29.9069 38.4 30.4704 38.561 31.034 38.6415V48.3019ZM31.034 25.2377C30.4704 25.3987 29.9069 25.6 29.3434 25.8415C28.7799 26.0025 28.2969 26.2843 27.8943 26.6868L21.0113 19.8038C22.3799 18.5962 23.9094 17.6302 25.6 16.9057C27.2906 16.1006 29.1019 15.6579 31.034 15.5774V25.2377ZM48.4226 31.034H38.6415C38.561 30.3899 38.4 29.8264 38.1585 29.3434C37.917 28.7799 37.6352 28.2566 37.3132 27.7736L44.1962 21.0113C45.4038 22.2994 46.3698 23.8289 47.0943 25.6C47.8189 27.2906 48.2616 29.1019 48.4226 31.034ZM42.8679 19.683L35.9849 26.566C35.5824 26.244 35.0994 25.9623 34.5359 25.7208C33.9723 25.4792 33.4088 25.3182 32.8453 25.2377V15.5774C34.7774 15.6579 36.5887 16.0604 38.2792 16.7849C39.9698 17.5094 41.4994 18.4755 42.8679 19.683ZM32.8453 48.3019V38.6415C33.4088 38.561 33.9723 38.4403 34.5359 38.2792C35.0994 38.0377 35.5824 37.7157 35.9849 37.3132L42.8679 44.1962C41.4994 45.4038 39.9698 46.3698 38.2792 47.0943C36.5887 47.8189 34.7774 48.2214 32.8453 48.3019ZM44.1962 42.9887L37.3132 36.1057C37.7157 35.6226 37.9975 35.0994 38.1585 34.5359C38.4 33.9723 38.561 33.4088 38.6415 32.8453H48.4226C48.2616 34.7774 47.8189 36.6289 47.0943 38.4C46.3698 40.0906 45.4038 41.6201 44.1962 42.9887Z" fill="currentColor"/>

</svg>
