<svg width="64" height="64" viewBox="0 0 64 64" fill="none" xmlns="http://www.w3.org/2000/svg">
<path d="M54 56V58H10V56H54ZM56 54V10C56 8.89543 55.1046 8 54 8H10C8.89543 8 8 8.89543 8 10V54C8 55.1046 8.89543 56 10 56V58L9.79395 57.9951C7.7488 57.8913 6.10865 56.2512 6.00488 54.2061L6 54V10C6 7.79086 7.79086 6 10 6H54C56.2091 6 58 7.79086 58 10V54C58 56.14 56.3194 57.8879 54.2061 57.9951L54 58V56C55.1046 56 56 55.1046 56 54Z" fill="currentColor"/>
<path d="M24 40.5877L25.8884 38.0808C25.8884 38.0808 27.7768 40.727 31.2103 40.727C34.0601 40.727 36.5322 38.7423 36.5322 35.7479C36.5322 32.7883 34.1288 30.6992 31.0043 30.6992C28.6352 30.6992 26.9185 31.9178 26.9185 31.9178L24.9614 31.1866L26.1631 19H38.3863V21.9944H29.1159L28.5322 27.1825C28.4979 27.9137 28.3605 28.4708 28.3605 28.4708H28.4292C28.4292 28.4708 29.7682 27.7047 31.5536 27.7047C36.6695 27.7047 40 31.2911 40 35.7131C40 40.4485 36.3262 44 31.4163 44C26.4378 44 24 40.5877 24 40.5877Z" fill="currentColor"/>

</svg>
