<svg width="64" height="64" viewBox="0 0 64 64" fill="none" xmlns="http://www.w3.org/2000/svg">
<path d="M9 49.6675C9.00024 52.4287 11.2387 54.6675 14 54.6675C16.7613 54.6675 18.9998 52.4287 19 49.6675H21C21.0002 52.4287 23.2387 54.6675 26 54.6675C28.7613 54.6675 30.9998 52.4287 31 49.6675H33C33.0002 52.4287 35.2387 54.6675 38 54.6675C40.7613 54.6675 42.9998 52.4287 43 49.6675H45C45.0002 52.4287 47.2387 54.6675 50 54.6675C52.7613 54.6675 54.9998 52.4287 55 49.6675H57C56.9998 53.5333 53.8658 56.6675 50 56.6675C47.4532 56.6675 45.2247 55.3065 44 53.273C42.7753 55.3065 40.5468 56.6675 38 56.6675C35.4532 56.6675 33.2247 55.3065 32 53.273C30.7753 55.3065 28.5468 56.6675 26 56.6675C23.4532 56.6675 21.2247 55.3065 20 53.273C18.7753 55.3065 16.5468 56.6675 14 56.6675C10.1342 56.6675 7.00024 53.5333 7 49.6675H9Z" fill="currentColor"/>
<path d="M9 40.6675C9.00024 43.4287 11.2387 45.6675 14 45.6675C16.7613 45.6675 18.9998 43.4287 19 40.6675H21C21.0002 43.4287 23.2387 45.6675 26 45.6675C28.7613 45.6675 30.9998 43.4287 31 40.6675H33C33.0002 43.4287 35.2387 45.6675 38 45.6675C40.7613 45.6675 42.9998 43.4287 43 40.6675H45C45.0002 43.4287 47.2387 45.6675 50 45.6675C52.7613 45.6675 54.9998 43.4287 55 40.6675H57C56.9998 44.5333 53.8658 47.6675 50 47.6675C47.4532 47.6675 45.2247 46.3065 44 44.273C42.7753 46.3065 40.5468 47.6675 38 47.6675C35.4532 47.6675 33.2247 46.3065 32 44.273C30.7753 46.3065 28.5468 47.6675 26 47.6675C23.4532 47.6675 21.2247 46.3065 20 44.273C18.7753 46.3065 16.5468 47.6675 14 47.6675C10.1342 47.6675 7.00024 44.5333 7 40.6675H9Z" fill="currentColor"/>
<path fill-rule="evenodd" clip-rule="evenodd" d="M31.4727 7.00932L36.3447 7.47905C37.34 7.57514 38.1108 8.39208 38.1504 9.39116L38.9551 29.7544C38.9608 29.8993 38.9494 30.0406 38.9258 30.1773L43.7354 31.6646C44.6277 31.9407 45.2105 32.7977 45.1387 33.7291L45 37.5H42.9951L43.1445 33.5757L37.8096 31.9253L25.543 30.9273L20.3057 31.7955L20 37.5H17.9932L18.3115 31.6421C18.3825 30.7248 19.0709 29.9745 19.9785 29.8238L24.7314 29.0347C24.7302 28.8829 24.745 28.7281 24.7803 28.5728L29.3291 8.55718C29.5522 7.57592 30.471 6.91275 31.4727 7.00932ZM26.7314 29.0162L36.957 29.8345L36.6123 21.1285L28.6631 20.5142L26.7314 29.0162ZM29.1113 18.5435L36.5332 19.1167L36.1523 9.46929L31.2803 9.00054L29.1113 18.5435Z" fill="currentColor"/>
</svg>
