<svg width="64" height="64" viewBox="0 0 64 64" fill="none" xmlns="http://www.w3.org/2000/svg">
<path d="M45.9999 36C46.5521 36.0001 46.9999 36.4478 46.9999 37C46.9999 37.5522 46.5521 37.9999 45.9999 38H23.9999C23.4476 38 22.9999 37.5523 22.9999 37C22.9999 36.4477 23.4476 36 23.9999 36H45.9999Z" fill="currentColor"/>
<path d="M45.9999 29C46.5521 29.0001 46.9999 29.4478 46.9999 30C46.9999 30.5522 46.5521 30.9999 45.9999 31H23.9999C23.4476 31 22.9999 30.5523 22.9999 30C22.9999 29.4477 23.4476 29 23.9999 29H45.9999Z" fill="currentColor"/>
<path d="M46.1024 22.0049C46.6065 22.0563 46.9999 22.4824 46.9999 23C46.9999 23.5176 46.6065 23.9437 46.1024 23.9951L45.9999 24H28.9999C28.4476 24 27.9999 23.5523 27.9999 23C27.9999 22.4477 28.4476 22 28.9999 22H45.9999L46.1024 22.0049Z" fill="currentColor"/>
<path fill-rule="evenodd" clip-rule="evenodd" d="M17.9999 2C18.4224 2.0001 18.8002 2.26613 18.9423 2.66406L21.204 9H26.9999C27.4244 9.00009 27.8027 9.26834 27.9433 9.66895C28.0838 10.0696 27.9564 10.516 27.6249 10.7812L24.8515 13H51.9999V44.4395L51.6757 44.7373L39.3886 56H16.9999V18.8672L12.5546 21.832C12.2058 22.0644 11.7486 22.0546 11.41 21.8076C11.0717 21.5604 10.9239 21.1285 11.039 20.7256L12.8544 14.3652L8.37489 10.7812C8.04327 10.5159 7.91596 10.0697 8.05653 9.66895C8.19716 9.26831 8.57527 9 8.99989 9H14.7958L17.0585 2.66406L17.122 2.52051C17.2951 2.20323 17.6303 2.00008 17.9999 2ZM24.9618 20.7256C25.0767 21.1285 24.9281 21.5605 24.5897 21.8076C24.2512 22.0548 23.794 22.0645 23.4452 21.832L18.9999 18.8672V54H37.9999V43H49.9999V15H23.3261L24.9618 20.7256ZM39.9999 45V52.7256L48.4286 45H39.9999ZM16.4413 10.3359C16.2992 10.7338 15.9224 10.9999 15.4999 11H11.8515L14.6249 13.2188C14.9394 13.4705 15.0723 13.887 14.9618 14.2744L13.7089 18.6582L17.4452 16.168L17.5761 16.0947C17.8893 15.948 18.2608 15.9722 18.5546 16.168L22.2909 18.6582L21.038 14.2744C20.9274 13.8869 21.0602 13.4705 21.3749 13.2188L24.1483 11H20.4999C20.0773 11 19.7006 10.7339 19.5585 10.3359L17.9999 5.97266L16.4413 10.3359Z" fill="currentColor"/>

</svg>
