<svg width="65" height="64" viewBox="0 0 65 64" fill="none" xmlns="http://www.w3.org/2000/svg">
<path d="M23.4998 37C24.6043 37.0001 25.4998 37.8955 25.4998 39C25.4998 39.7397 25.0969 40.3835 24.4998 40.7295V46.8252C25.6643 46.413 26.4998 45.3057 26.4998 44C26.4998 43.4477 26.9476 43 27.4998 43C28.0521 43.0001 28.4998 43.4478 28.4998 44C28.4998 46.7614 26.2612 48.9999 23.4998 49C20.7384 49 18.4998 46.7614 18.4998 44C18.4998 43.4477 18.9476 43 19.4998 43C20.0521 43.0001 20.4998 43.4478 20.4998 44C20.4998 45.3058 21.3352 46.413 22.4998 46.8252V40.7295C21.9027 40.3835 21.4998 39.7398 21.4998 39C21.4998 37.8954 22.3953 37 23.4998 37Z" fill="currentColor"/>
<path fill-rule="evenodd" clip-rule="evenodd" d="M24.4998 21C26.1566 21.0001 27.4998 22.3432 27.4998 24C27.4998 25.6568 26.1566 26.9999 24.4998 27C22.843 27 21.4998 25.6569 21.4998 24C21.4998 22.3431 22.843 21 24.4998 21ZM24.4998 23C23.9476 23 23.4998 23.4477 23.4998 24C23.4998 24.5523 23.9476 25 24.4998 25C25.0521 24.9999 25.4998 24.5522 25.4998 24C25.4998 23.4478 25.0521 23.0001 24.4998 23Z" fill="currentColor"/>
<path fill-rule="evenodd" clip-rule="evenodd" d="M32.4998 21C34.1566 21.0001 35.4998 22.3432 35.4998 24C35.4998 25.6568 34.1566 26.9999 32.4998 27C30.843 27 29.4998 25.6569 29.4998 24C29.4998 22.3431 30.843 21 32.4998 21ZM32.4998 23C31.9476 23 31.4998 23.4477 31.4998 24C31.4998 24.5523 31.9476 25 32.4998 25C33.0521 24.9999 33.4998 24.5522 33.4998 24C33.4998 23.4478 33.0521 23.0001 32.4998 23Z" fill="currentColor"/>
<path fill-rule="evenodd" clip-rule="evenodd" d="M40.4998 21C42.1566 21.0001 43.4998 22.3432 43.4998 24C43.4998 25.6568 42.1566 26.9999 40.4998 27C38.843 27 37.4998 25.6569 37.4998 24C37.4998 22.3431 38.843 21 40.4998 21ZM40.4998 23C39.9476 23 39.4998 23.4477 39.4998 24C39.4998 24.5523 39.9476 25 40.4998 25C41.0521 24.9999 41.4998 24.5522 41.4998 24C41.4998 23.4478 41.0521 23.0001 40.4998 23Z" fill="currentColor"/>
<path fill-rule="evenodd" clip-rule="evenodd" d="M37.4998 6C38.0521 6.00009 38.4998 6.44777 38.4998 7V17H47.4998C48.0521 17.0001 48.4998 17.4478 48.4998 18V34.7129L52.8914 36.5801C53.3518 36.7762 53.5964 37.283 53.4637 37.7656L47.9637 57.7656C47.8442 58.1993 47.4497 58.4999 46.9998 58.5H17.9998C17.5499 58.5 17.1555 58.1994 17.036 57.7656L11.536 37.7656C11.4032 37.2829 11.6476 36.7761 12.1082 36.5801L16.4998 34.7129V18C16.4998 17.4477 16.9476 17 17.4998 17H26.4998V7C26.4998 6.44772 26.9476 6 27.4998 6H37.4998ZM13.6952 38.0771L18.7616 56.5H31.4998V30.5107L13.6952 38.0771ZM33.4998 56.5H46.2381L51.3036 38.0771L33.4998 30.5107V56.5ZM18.4998 33.8633L32.0936 28.0859C32.2177 28.0307 32.3553 28 32.4998 28L32.6024 28.0049C32.707 28.0155 32.8067 28.0426 32.8993 28.083L46.4998 33.8633V19H18.4998V33.8633ZM28.4998 17H36.4998V13H28.4998V17ZM28.4998 11H36.4998V8H28.4998V11Z" fill="currentColor"/>

</svg>
