<svg width="65" height="64" viewBox="0 0 65 64" fill="none" xmlns="http://www.w3.org/2000/svg">
<path d="M13.5 9.5H53.5V42.5H49.5V45.4395L37.9971 56H16.5V42.5H13.5V59H11.5V6H13.5V9.5ZM18.5 54H36.5V44H47.5V16.5H18.5V54ZM38.5 46V52.8232L45.9316 46H38.5ZM13.5 40.5H16.5V14.5H31.5V11.5H13.5V40.5ZM49.5 36.9141V40.5H51.5V34.9141L49.5 36.9141ZM44.5 36C45.0523 36 45.5 36.4477 45.5 37C45.5 37.5523 45.0523 38 44.5 38H22.5C21.9477 38 21.5 37.5523 21.5 37C21.5 36.4477 21.9477 36 22.5 36H44.5ZM49.5 29.9141V34.0859L51.5 32.0859V27.9141L49.5 29.9141ZM44.5 29C45.0523 29 45.5 29.4477 45.5 30C45.5 30.5523 45.0523 31 44.5 31H22.5C21.9477 31 21.5 30.5523 21.5 30C21.5 29.4477 21.9477 29 22.5 29H44.5ZM49.5 22.9141V27.0859L51.5 25.0859V20.9141L49.5 22.9141ZM44.5 22C45.0523 22 45.5 22.4477 45.5 23C45.5 23.5523 45.0523 24 44.5 24H22.5C21.9477 24 21.5 23.5523 21.5 23C21.5 22.4477 21.9477 22 22.5 22H44.5ZM49.5 15.9141V20.0859L51.5 18.0859V13.9141L49.5 15.9141ZM33.5 14.5H34.0859L37.0859 11.5H33.5V14.5ZM36.9141 14.5H41.0859L44.0859 11.5H39.9141L36.9141 14.5ZM43.9141 14.5H48.0859L51.0859 11.5H46.9141L43.9141 14.5Z" fill="currentColor"/>

</svg>
