<svg width="64" height="64" viewBox="0 0 64 64" fill="none" xmlns="http://www.w3.org/2000/svg">
<path d="M12 53.8271C12 56.0363 13.7909 57.8271 16 57.8271C18.2091 57.8271 20 56.0363 20 53.8271H22C22 56.0363 23.7909 57.8271 26 57.8271C28.2091 57.8271 30 56.0363 30 53.8271H32C32 56.0363 33.7909 57.8271 36 57.8271C38.2091 57.8271 40 56.0363 40 53.8271H42C42 56.0363 43.7909 57.8271 46 57.8271C48.2091 57.8271 50 56.0363 50 53.8271H52C52 57.1409 49.3137 59.8271 46 59.8271C43.9126 59.8271 42.0748 58.7608 41 57.1436C39.9252 58.7608 38.0874 59.8271 36 59.8271C33.9126 59.8271 32.0748 58.7608 31 57.1436C29.9252 58.7608 28.0874 59.8271 26 59.8271C23.9126 59.8271 22.0748 58.7608 21 57.1436C19.9252 58.7608 18.0874 59.8271 16 59.8271C12.6863 59.8271 10 57.1409 10 53.8271H12Z" fill="currentColor"/>
<path fill-rule="evenodd" clip-rule="evenodd" d="M49 29.8271H54V37.8271H41V50.8271H39V37.8271H36V50.8271H34V37.8271H24V50.8271H22V37.8271H19V50.8271H17V37.8271H11V35.8271H52V31.8271H11V22.8271H49V29.8271ZM13 29.8271H17V24.8271H13V29.8271ZM19 29.8271H23V24.8271H19V29.8271ZM25 29.8271H29V24.8271H25V29.8271ZM31 29.8271H35V24.8271H31V29.8271ZM37 29.8271H41V24.8271H37V29.8271ZM43 29.8271H47V24.8271H43V29.8271Z" fill="currentColor"/>
<path d="M34.7412 14.9746L46.0469 11.9873L38.8486 19.8271H36.1328L39.9521 15.666L33.3301 17.417L33.0713 16.457L31.5 10.6523L29.9287 16.457L29.6699 17.417L23.0469 15.666L26.8672 19.8271H24.1514L16.9531 11.9873L28.2578 14.9746L31.5 3L34.7412 14.9746Z" fill="currentColor"/>
</svg>
