<svg width="64" height="64" viewBox="0 0 64 64" fill="none" xmlns="http://www.w3.org/2000/svg">
<circle cx="32" cy="32" r="25" fill="#D4F2FD"/>
<rect x="11" y="31" width="42" height="6" fill="white"/>
<rect x="11" y="24" width="37" height="7" fill="#A9E5FB"/>
<rect x="35" y="37" width="5" height="14" fill="#77D6F9"/>
<rect x="18" y="37" width="5" height="14" fill="#77D6F9"/>
<path d="M20.5 14.5L25.5 20H37.5L43 14L34 16.5L31.5 7.5L29 16.5L20.5 14.5Z" fill="white"/>
<path d="M12 54C12 56.2091 13.7909 58 16 58C18.2091 58 20 56.2091 20 54H22C22 56.2091 23.7909 58 26 58C28.2091 58 30 56.2091 30 54H32C32 56.2091 33.7909 58 36 58C38.2091 58 40 56.2091 40 54H42C42 56.2091 43.7909 58 46 58C48.2091 58 50 56.2091 50 54H52C52 57.3137 49.3137 60 46 60C43.9126 60 42.0748 58.9336 41 57.3164C39.9252 58.9336 38.0874 60 36 60C33.9126 60 32.0748 58.9336 31 57.3164C29.9252 58.9336 28.0874 60 26 60C23.9126 60 22.0748 58.9336 21 57.3164C19.9252 58.9336 18.0874 60 16 60C12.6863 60 10 57.3137 10 54H12Z" fill="currentColor"/>
<path fill-rule="evenodd" clip-rule="evenodd" d="M49 30H54V38H41V51H39V38H36V51H34V38H24V51H22V38H19V51H17V38H11V36H52V32H11V23H49V30ZM13 30H17V25H13V30ZM19 30H23V25H19V30ZM25 30H29V25H25V30ZM31 30H35V25H31V30ZM37 30H41V25H37V30ZM43 30H47V25H43V30Z" fill="currentColor"/>
<path d="M34.7412 15.1475L46.0469 12.1602L38.8486 20H36.1328L39.9521 15.8389L33.3301 17.5898L33.0713 16.6299L31.5 10.8252L29.9287 16.6299L29.6699 17.5898L23.0469 15.8389L26.8672 20H24.1514L16.9531 12.1602L28.2578 15.1475L31.5 3L34.7412 15.1475Z" fill="currentColor"/>
</svg>
