<svg width="64" height="64" viewBox="0 0 64 64" fill="none" xmlns="http://www.w3.org/2000/svg">
<path d="M8 51C8 53.2091 9.79086 55 12 55C14.2091 55 16 53.2091 16 51H18C18 53.2091 19.7909 55 22 55C24.2091 55 26 53.2091 26 51H28C28 53.2091 29.7909 55 32 55C34.2091 55 36 53.2091 36 51H38C38 53.2091 39.7909 55 42 55C44.2091 55 46 53.2091 46 51H48C48 53.2091 49.7909 55 52 55C54.2091 55 56 53.2091 56 51H58C58 54.3137 55.3137 57 52 57C49.9126 57 48.0748 55.9336 47 54.3164C45.9252 55.9336 44.0874 57 42 57C39.9126 57 38.0748 55.9336 37 54.3164C35.9252 55.9336 34.0874 57 32 57C29.9126 57 28.0748 55.9336 27 54.3164C25.9252 55.9336 24.0874 57 22 57C19.9126 57 18.0748 55.9336 17 54.3164C15.9252 55.9336 14.0874 57 12 57C8.68629 57 6 54.3137 6 51H8Z" fill="currentColor"/>
<path fill-rule="evenodd" clip-rule="evenodd" d="M25 7C25.5523 7 26 7.44772 26 8V14.0166C28.2304 14.0855 30.8036 14.362 32.8994 14.6338C34.1142 14.7913 35.1802 14.9483 35.9424 15.0664C36.3235 15.1255 36.629 15.1754 36.8398 15.21C36.9453 15.2273 37.0273 15.2406 37.083 15.25C37.1108 15.2547 37.132 15.2583 37.1465 15.2607C37.1537 15.262 37.1593 15.263 37.1631 15.2637H37.168L37.1689 15.2646C37.6489 15.3471 38 15.763 38 16.25V20C38 20.5523 37.5523 21 37 21H36V29.7324L40.4707 32.1172C40.8932 32.3425 41.0968 32.8363 40.9561 33.2939L36.9561 46.2939C36.8269 46.7135 36.439 47 36 47H14C13.561 47 13.1731 46.7135 13.0439 46.2939L9.04395 33.2939C8.90323 32.8363 9.10681 32.3425 9.5293 32.1172L14 29.7324V21H13C12.4477 21 12 20.5523 12 20V16.25C12 15.763 12.3511 15.3471 12.8311 15.2646L12.832 15.2637H12.8369C12.8407 15.263 12.8463 15.262 12.8535 15.2607C12.868 15.2583 12.8892 15.2547 12.917 15.25C12.9727 15.2406 13.0547 15.2273 13.1602 15.21C13.371 15.1754 13.6765 15.1255 14.0576 15.0664C14.8198 14.9483 15.8858 14.7913 17.1006 14.6338C19.1964 14.362 21.7696 14.0855 24 14.0166V8C24 7.44772 24.4477 7 25 7ZM12.8086 38.7275L14.7393 45H24V33.5625L12.8086 38.7275ZM26 45H35.2607L37.1904 38.7275L26 33.5625V45ZM11.1992 33.4941L12.2158 36.7979L24 31.3594V26.667L11.1992 33.4941ZM26 31.3594L37.7832 36.7979L38.8008 33.4941L26 26.667V31.3594ZM16 28.666L24.5293 24.1172C24.5443 24.1092 24.56 24.1029 24.5752 24.0957C24.5898 24.0889 24.6043 24.0823 24.6191 24.0762C24.6423 24.0666 24.6658 24.0585 24.6895 24.0508C24.7086 24.0445 24.7277 24.0383 24.7471 24.0332C24.7688 24.0275 24.7906 24.0227 24.8125 24.0186C24.831 24.015 24.8495 24.0113 24.8682 24.0088C24.8915 24.0057 24.915 24.0044 24.9385 24.0029C24.9505 24.0022 24.9625 24.0003 24.9746 24H25.0254C25.0371 24.0003 25.0488 24.0022 25.0605 24.0029C25.084 24.0043 25.1075 24.0057 25.1309 24.0088C25.1495 24.0113 25.168 24.015 25.1865 24.0186C25.2085 24.0227 25.2302 24.0276 25.252 24.0332C25.2714 24.0383 25.2904 24.0445 25.3096 24.0508C25.3332 24.0585 25.3567 24.0666 25.3799 24.0762C25.3947 24.0823 25.4093 24.0889 25.4238 24.0957C25.4393 24.103 25.4555 24.1091 25.4707 24.1172L34 28.666V21H16V28.666ZM25 16C22.7063 16 19.7591 16.3047 17.3574 16.6162C16.1627 16.7711 15.1141 16.9267 14.3643 17.043C14.2335 17.0632 14.1117 17.0829 14 17.1006V19H36V17.1006C35.8883 17.0829 35.7665 17.0632 35.6357 17.043C34.8859 16.9267 33.8373 16.7711 32.6426 16.6162C30.2409 16.3047 27.2937 16 25 16Z" fill="currentColor"/>
<path d="M59 37H45V40H59V42H55V47H53V42H48V47H46V42H44C43.4477 42 43 41.5523 43 41V36C43 35.4477 43.4477 35 44 35H59V37Z" fill="currentColor"/>
</svg>
