<svg width="64" height="64" viewBox="0 0 64 64" fill="none" xmlns="http://www.w3.org/2000/svg">
<circle cx="32" cy="32" r="25" fill="#D4F2FD"/>
<rect x="5" y="51" width="36" height="6" fill="white"/>
<path d="M46 46V44L49.5 41L50.5 35L49 32L50 30L45 15.5L34.5 24.5L31 29L31.5 35H34V43H33L35 47.5L32.5 51H11.5L10 47L12 43H7V36L8 35H18L19.5 25H27L28.5 20.5L44.5 11.5L44 10L50 9L52 13L53.5 29L54.5 30V35L58.5 37V43.5L54.5 46H46Z" fill="white"/>
<path d="M34.5 24.5L31 29.5L30 25H27.5L29 20L44.5 12L45.5 15.5L34.5 24.5Z" fill="#BBE2F7"/>
<rect x="10" y="43" width="25" height="8" rx="4" fill="#BBE2F7"/>
<path d="M28 35L27.5 28.5H22.5L21.5 35H28Z" fill="#D4F2FD"/>
<path d="M50 41V35L56.5 35.5L59 39.5L58.5 43L55 46H46L46.5 43.5L50 41Z" fill="white"/>
<path d="M49.5 30L44 10L50 9L52 13L53.5 29L49.5 30Z" fill="#D4F2FD"/>
<path d="M15 45C16.1046 45 17 45.8954 17 47C17 48.1045 16.1046 49 15 49C13.8954 49 13 48.1045 13 47C13 45.8954 13.8954 45 15 45Z" fill="currentColor"/>
<path d="M20 45C21.1046 45 22 45.8954 22 47C22 48.1045 21.1046 49 20 49C18.8954 49 18 48.1045 18 47C18 45.8954 18.8954 45 20 45Z" fill="currentColor"/>
<path d="M25 45C26.1046 45 27 45.8954 27 47C27 48.1045 26.1046 49 25 49C23.8954 49 23 48.1045 23 47C23 45.8954 23.8954 45 25 45Z" fill="currentColor"/>
<path d="M30 45C31.1046 45 32 45.8954 32 47C32 48.1045 31.1046 49 30 49C28.8954 49 28 48.1045 28 47C28 45.8954 28.8954 45 30 45Z" fill="currentColor"/>
<path fill-rule="evenodd" clip-rule="evenodd" d="M29.0801 36H20.334L21.6416 27.5H28.4258L29.0801 36ZM22.666 34H26.9199L26.5742 29.5H23.3574L22.666 34Z" fill="currentColor"/>
<path fill-rule="evenodd" clip-rule="evenodd" d="M49.835 8.01363C50.2678 7.94154 50.6981 8.16027 50.8945 8.5527L52.8945 12.5527C52.949 12.6616 52.984 12.7802 52.9961 12.9013L54.5898 28.9531C55.4522 29.6868 56 30.779 56 32C56 32.8367 55.742 33.6127 55.3027 34.2548C58.0154 35.0365 60 37.5357 60 40.5C60 44.0898 57.0899 47 53.5 47H46C45.4477 47 45 46.5522 45 46V43.7998C45.0001 43.4794 45.1538 43.1783 45.4131 42.9902L48.792 40.539V35C48.792 34.8322 48.8332 34.674 48.9062 34.5351C48.3401 33.845 48 32.9623 48 32C48 31.2681 48.1968 30.5823 48.54 29.9922L44.9199 17.0175L35.2588 25.167L32.0293 30.2451L32.4053 34H34C34.5523 34 35 34.4477 35 35V43C35 43.2612 34.8984 43.4976 34.7344 43.6757C35.5214 44.5593 36 45.7236 36 47C36 48.1256 35.6278 49.1643 35 50H41C41.2652 50 41.5195 50.1054 41.707 50.2929C41.8946 50.4805 42 50.7347 42 51V56H40V52H6V56H4V51C4.00003 50.4477 4.44773 50 5 50H10C9.37223 49.1643 9 48.1256 9 47C9 45.8743 9.37223 44.8357 10 44H7C6.44772 44 6 43.5522 6 43V37C6 35.3431 7.34315 34 9 34H17.1387L18.5107 24.8515L18.5293 24.7617C18.6378 24.3185 19.0359 24 19.5 24H26.3232L27.8066 20.292C28.064 19.6486 28.5359 19.1139 29.1426 18.7793L43.2412 11.0029L43.0371 10.2685L43.0137 10.166C42.9729 9.92348 43.0229 9.67241 43.1562 9.46285C43.3086 9.22364 43.5562 9.0603 43.8359 9.01363L49.835 8.01363ZM14 44C12.3431 44 11 45.3431 11 47C11 48.6568 12.3431 50 14 50H31C32.6569 50 34 48.6568 34 47C34 45.3431 32.6569 44 31 44H14ZM50.792 41.0498C50.792 41.3701 50.6382 41.6712 50.3789 41.8593L47 44.3095V45H53.5C55.9853 45 58 42.9852 58 40.5C58 38.0147 55.9853 36 53.5 36H50.792V41.0498ZM18.8613 36H9C8.44772 36 8 36.4477 8 37V42H33V36H30.5947L29.5947 26H20.3613L18.8613 36ZM52 30C51.5206 30 51.0808 30.1689 50.7363 30.4502C50.3795 30.7415 50.1257 31.1535 50.0361 31.624C50.013 31.7458 50 31.8714 50 32C50 33.1045 50.8954 34 52 34C53.1046 34 54 33.1045 54 32C54 31.6025 53.8825 31.2332 53.6826 30.9218C53.4521 30.5626 53.111 30.2839 52.7061 30.1308C52.4863 30.0478 52.2489 30 52 30ZM45.2617 10.8037L50.1816 28.4365C50.7272 28.1575 51.3452 28 52 28C52.1653 28 52.3282 28.0108 52.4883 28.0302L51.0225 13.2822L49.4355 10.1084L45.2617 10.8037ZM30.1084 20.5302C29.9062 20.6418 29.7489 20.8207 29.6631 21.0351L28.4775 24H30.5C31.0137 24 31.444 24.3892 31.4951 24.9004L31.707 27.0244L33.6562 23.9629C33.7106 23.8775 33.7782 23.8015 33.8555 23.7363L44.3281 14.8984L43.7939 12.9824L30.1084 20.5302Z" fill="currentColor"/>
<circle cx="52" cy="32" r="2" fill="#D4F2FD"/>
</svg>
