<svg width="64" height="64" viewBox="0 0 64 64" fill="none" xmlns="http://www.w3.org/2000/svg">
<circle cx="32" cy="32" r="25" fill="#D4F2FD"/>
<ellipse cx="12.7157" cy="24.6157" rx="5.16317" ry="7.33073" transform="rotate(7.96543 12.7157 24.6157)" fill="white"/>
<path d="M15 17.5L36.5 20L42 14.5L46.5 15L43.5 20.5L52.5 22L55.5 25.5L56 32H15L18 24.5L15 17.5Z" fill="#A9E5FB"/>
<path d="M24.6025 48.3949C25.1067 48.4463 25.5 48.8724 25.5 49.39C25.4999 49.9076 25.1066 50.3338 24.6025 50.3852L24.5 50.39H23.5C22.9478 50.39 22.5001 49.9422 22.5 49.39C22.5 48.8378 22.9477 48.39 23.5 48.39H24.5L24.6025 48.3949Z" fill="currentColor"/>
<path d="M39.6025 48.3949C40.1067 48.4463 40.5 48.8724 40.5 49.39C40.4999 49.9076 40.1066 50.3338 39.6025 50.3852L39.5 50.39H31.5C30.9478 50.39 30.5001 49.9422 30.5 49.39C30.5 48.8378 30.9477 48.39 31.5 48.39H39.5L39.6025 48.3949Z" fill="currentColor"/>
<path d="M22.5 42.39C23.0523 42.39 23.5 42.8378 23.5 43.39C23.4999 43.9422 23.0522 44.39 22.5 44.39H15.5C14.9478 44.39 14.5001 43.9422 14.5 43.39C14.5 42.8378 14.9477 42.39 15.5 42.39H22.5Z" fill="currentColor"/>
<path d="M28.6025 42.3949C29.1067 42.4463 29.5 42.8724 29.5 43.39C29.4999 43.9076 29.1066 44.3338 28.6025 44.3852L28.5 44.39H27.5C26.9478 44.39 26.5001 43.9422 26.5 43.39C26.5 42.8378 26.9477 42.39 27.5 42.39H28.5L28.6025 42.3949Z" fill="currentColor"/>
<path d="M48.5 42.39C49.0523 42.39 49.5 42.8378 49.5 43.39C49.4999 43.9422 49.0522 44.39 48.5 44.39H37.5C36.9478 44.39 36.5001 43.9422 36.5 43.39C36.5 42.8378 36.9477 42.39 37.5 42.39H48.5Z" fill="currentColor"/>
<path d="M24.5 36.39C25.0523 36.39 25.5 36.8378 25.5 37.39C25.4999 37.9422 25.0522 38.39 24.5 38.39H6.5C5.94779 38.39 5.50012 37.9422 5.5 37.39C5.5 36.8378 5.94772 36.39 6.5 36.39H24.5Z" fill="currentColor"/>
<path d="M39.5 36.39C40.0523 36.39 40.5 36.8378 40.5 37.39C40.4999 37.9422 40.0522 38.39 39.5 38.39H28.5C27.9478 38.39 27.5001 37.9422 27.5 37.39C27.5 36.8378 27.9477 36.39 28.5 36.39H39.5Z" fill="currentColor"/>
<path d="M55.5 36.39C56.0523 36.39 56.5 36.8378 56.5 37.39C56.4999 37.9422 56.0522 38.39 55.5 38.39H47.5C46.9478 38.39 46.5001 37.9422 46.5 37.39C46.5 36.8378 46.9477 36.39 47.5 36.39H55.5Z" fill="currentColor"/>
<path d="M12.3965 21.5883C12.8286 21.2448 13.457 21.3165 13.8008 21.7484C14.5435 22.6824 14.7761 23.9166 14.6494 25.0287C14.5226 26.1408 14.0188 27.2907 13.085 28.0336C12.6531 28.3771 12.0247 28.3057 11.6807 27.8744C11.3368 27.4422 11.4086 26.813 11.8408 26.4691C12.2656 26.131 12.5803 25.5197 12.6621 24.8022C12.7438 24.0847 12.574 23.4186 12.2363 22.9936C11.8925 22.5614 11.9643 21.9321 12.3965 21.5883Z" fill="currentColor"/>
<path fill-rule="evenodd" clip-rule="evenodd" d="M42.6836 13.6195L45.9814 13.9955C47.0352 14.116 47.6352 15.2616 47.1328 16.1957L45.0488 20.0678L51.5117 20.8041L51.2852 22.7914L44.0889 21.9721C43.0346 21.852 42.4347 20.7052 42.9375 19.7709L45.0225 15.8988L42.6963 15.6342L37.1211 21.1781L17.293 18.9193C17.429 19.1282 17.5564 19.3459 17.6719 19.5707C18.0431 20.2935 18.3191 21.1101 18.4902 21.9867L27.7744 23.0453C28.323 23.108 28.7168 23.6031 28.6543 24.1518C28.5918 24.7004 28.0965 25.0941 27.5479 25.0316L18.6904 24.0229C18.6943 24.5012 18.6713 24.9887 18.6152 25.4809C18.4015 27.3561 17.7676 29.0625 16.8506 30.39H54.3184C54.3723 30.1209 54.4189 29.845 54.4512 29.5619C54.6621 27.7096 54.3458 26.0191 53.7158 24.7924C53.0819 23.5586 52.197 22.8955 51.2852 22.7914L51.5117 20.8041C53.2945 21.0076 54.6648 22.2622 55.4951 23.8783C56.3292 25.5022 56.6879 27.5985 56.4385 29.7885C56.4154 29.9912 56.3853 30.1916 56.3525 30.39H60.5C61.0523 30.39 61.5 30.8378 61.5 31.39C61.4999 31.9422 61.0522 32.39 60.5 32.39H3.5C2.94779 32.39 2.50012 31.9422 2.5 31.39C2.5 30.8378 2.94772 30.39 3.5 30.39H7.99609C7.93167 30.2793 7.86948 30.1668 7.81055 30.0522C6.9763 28.4283 6.61784 26.3321 6.86719 24.142C7.11669 21.9519 7.93724 19.9908 9.11523 18.5961C10.288 17.2078 11.9052 16.2934 13.6885 16.4965L36.3936 19.0824L41.457 14.0463L41.584 13.934C41.8929 13.6896 42.2877 13.5746 42.6836 13.6195ZM13.4609 18.4828C12.5491 18.3794 11.5386 18.8275 10.6436 19.8871C9.75365 20.9407 9.06551 22.516 8.85449 24.3686C8.6436 26.2211 8.95965 27.9114 9.58984 29.1381C9.85602 29.656 10.1669 30.0726 10.5049 30.39H14.1807C14.4046 30.2062 14.6252 29.9887 14.8389 29.7357C15.7287 28.6822 16.4168 27.1067 16.6279 25.2543C16.8389 23.402 16.5226 21.7115 15.8926 20.4848C15.259 19.2518 14.3751 18.5886 13.4639 18.4838L13.4609 18.4828Z" fill="currentColor"/>
<path d="M25.6123 26.3959L35.374 27.5082C35.9226 27.5708 36.3164 28.066 36.2539 28.6147C36.1914 29.1634 35.6962 29.558 35.1475 29.4955L25.3867 28.3832C24.838 28.3207 24.4434 27.8255 24.5059 27.2768C24.5683 26.7282 25.0637 26.3337 25.6123 26.3959Z" fill="currentColor"/>
<path d="M43.6357 24.852L48.5166 25.4076C49.0653 25.4701 49.4599 25.9654 49.3975 26.5141C49.335 27.0628 48.8388 27.4574 48.29 27.3949L43.4102 26.8383C42.8614 26.7758 42.4668 26.2806 42.5293 25.7318C42.5918 25.1832 43.0872 24.7897 43.6357 24.852Z" fill="currentColor"/>
</svg>
