<svg width="60" height="60" viewBox="0 0 60 60" fill="none" xmlns="http://www.w3.org/2000/svg">
<path fill-rule="evenodd" clip-rule="evenodd" d="M38.3916 44.3683L52.3311 44.8005C52.8832 44.8176 53.3168 45.279 53.2997 45.831C53.2825 46.383 52.8212 46.8167 52.2691 46.7996L40.4087 46.4318L40.5001 57.4918C40.5047 58.044 40.0607 58.4954 39.5084 58.5C38.9561 58.5046 38.5047 58.0606 38.5002 57.5083L38.3916 44.3683Z" fill="#000667"/>
<path fill-rule="evenodd" clip-rule="evenodd" d="M22 14.4C22 13.8477 22.4477 13.4 23 13.4H53.2999V46.6499L39.4793 58.9H17.2V19.4C17.2 18.8477 17.6477 18.4 18.2 18.4C18.7522 18.4 19.2 18.8477 19.2 19.4V56.9H38.7206L51.2999 45.7501V15.4H23C22.4477 15.4 22 14.9523 22 14.4Z" fill="#000667"/>
<path fill-rule="evenodd" clip-rule="evenodd" d="M23.1001 38.5C23.1001 37.9477 23.5478 37.5 24.1001 37.5H47.4001C47.9524 37.5 48.4001 37.9477 48.4001 38.5C48.4001 39.0523 47.9524 39.5 47.4001 39.5H24.1001C23.5478 39.5 23.1001 39.0523 23.1001 38.5Z" fill="#000667"/>
<path fill-rule="evenodd" clip-rule="evenodd" d="M23.1001 31C23.1001 30.4477 23.5478 30 24.1001 30H46.6001C47.1524 30 47.6001 30.4477 47.6001 31C47.6001 31.5523 47.1524 32 46.6001 32H24.1001C23.5478 32 23.1001 31.5523 23.1001 31Z" fill="#000667"/>
<path fill-rule="evenodd" clip-rule="evenodd" d="M28.5 23.6C28.5 23.0477 28.9477 22.6 29.5 22.6H46C46.5523 22.6 47 23.0477 47 23.6C47 24.1523 46.5523 24.6 46 24.6H29.5C28.9477 24.6 28.5 24.1523 28.5 23.6Z" fill="#000667"/>
<path fill-rule="evenodd" clip-rule="evenodd" d="M18.2062 2.00002C18.6298 2.00263 19.0058 2.27184 19.1447 2.67199L21.4178 9.21854L28.3264 9.40035C28.7513 9.41153 29.1228 9.69017 29.2524 10.095C29.3821 10.4999 29.2416 10.9425 28.9022 11.1984L23.3586 15.3788L25.3575 22.0114C25.4802 22.4186 25.332 22.8588 24.988 23.1089C24.6441 23.3589 24.1796 23.3641 23.8302 23.1217L18.1955 19.2138L12.4638 23.1259C12.1137 23.3649 11.651 23.3572 11.3091 23.1067C10.9671 22.8562 10.8203 22.4173 10.9426 22.0114L12.9415 15.3788L7.39797 11.1984C7.05855 10.9425 6.91805 10.4999 7.0477 10.095C7.17734 9.69017 7.54879 9.41153 7.97375 9.40035L14.8914 9.2183L17.2595 2.66036C17.4034 2.26195 17.7827 1.99741 18.2062 2.00002ZM18.1816 5.99544L16.5406 10.5396C16.4008 10.9269 16.0379 11.1888 15.6264 11.1997L10.8867 11.3244L14.7022 14.2016C15.0365 14.4537 15.1784 14.8876 15.0575 15.2886L13.6743 19.8783L17.6363 17.1741C17.9786 16.9404 18.4295 16.9421 18.77 17.1783L22.616 19.8457L21.2426 15.2886C21.1217 14.8876 21.2636 14.4537 21.598 14.2016L25.4134 11.3244L20.6738 11.1997C20.2577 11.1887 19.8919 10.9212 19.7554 10.528L18.1816 5.99544Z" fill="#000667"/>
</svg>
