<svg width="60" height="60" viewBox="0 0 60 60" fill="none" xmlns="http://www.w3.org/2000/svg">
<path fill-rule="evenodd" clip-rule="evenodd" d="M27.1001 13.1215C27.1112 14.8419 28.4428 16.1 30.1001 16.1C31.7643 16.1 33.1001 14.8314 33.1001 13.1C33.1001 11.3686 31.7643 10.1 30.1001 10.1C28.4817 10.1 27.1881 11.3278 27.1001 13.1215ZM30.1001 8.09998C27.325 8.09998 25.2225 10.2622 25.101 13.0565C25.1004 13.071 25.1001 13.0855 25.1001 13.1C25.1001 15.9686 27.3643 18.1 30.1001 18.1C32.8359 18.1 35.1001 15.9686 35.1001 13.1C35.1001 10.2576 32.8771 8.13904 30.1751 8.1005L30.1001 8.09998Z" fill="#000667"/>
<path fill-rule="evenodd" clip-rule="evenodd" d="M30.1999 3.04565C24.3834 3.04565 19.7456 7.77156 19.7456 13.5C19.7456 16.0366 20.1064 17.7328 21.5807 20.0363C22.3702 21.2699 24.734 24.7537 26.9137 27.9481C28.0007 29.5411 29.0377 31.0561 29.8031 32.1729C29.9375 32.369 30.0635 32.5528 30.1799 32.7226C31.1284 31.2912 32.4629 29.3109 33.8016 27.3244C33.9413 27.1172 34.081 26.9099 34.2203 26.7032C36.191 23.7784 38.0746 20.9774 38.7109 19.9496L38.7192 19.9363C40.1935 17.6328 40.5543 15.9366 40.5543 13.4C40.5543 7.67749 35.9225 3.04565 30.1999 3.04565ZM30.1999 34.6C29.3381 35.1921 29.338 35.192 29.338 35.1919L28.9952 34.6926C28.776 34.3731 28.461 33.914 28.078 33.3552C27.3122 32.2376 26.2742 30.7214 25.1862 29.1269C23.0159 25.9463 20.6297 22.4301 19.8192 21.1637C18.0935 18.4672 17.6543 16.3634 17.6543 13.5C17.6543 6.62843 23.2165 0.954346 30.1999 0.954346C37.0774 0.954346 42.6456 6.5225 42.6456 13.4C42.6456 16.261 42.2071 18.3637 40.4849 21.057C39.8174 22.1343 37.9048 24.9775 35.9546 27.8718C35.8182 28.0742 35.6816 28.277 35.5451 28.4795C33.7131 31.1979 31.9097 33.874 31.0795 35.1654C30.8902 35.46 30.566 35.6402 30.2159 35.6455C29.8659 35.6509 29.5362 35.4805 29.338 35.1919L30.1999 34.6Z" fill="#000667"/>
<path fill-rule="evenodd" clip-rule="evenodd" d="M10 52C10 54.4354 11.9399 56.3 14.3 56.3C16.6477 56.3 18.6 54.3477 18.6 52H20.6C20.6 55.4523 17.7523 58.3 14.3 58.3C10.8601 58.3 8 55.5646 8 52H10Z" fill="#000667"/>
<path fill-rule="evenodd" clip-rule="evenodd" d="M24.9001 58.3C21.4478 58.3 18.6001 55.4523 18.6001 52H20.6001C20.6001 54.3477 22.5524 56.3 24.9001 56.3C27.2478 56.3 29.2001 54.3477 29.2001 52H31.2001C31.2001 55.4523 28.3524 58.3 24.9001 58.3Z" fill="#000667"/>
<path fill-rule="evenodd" clip-rule="evenodd" d="M46 58.3C42.5477 58.3 39.7 55.4523 39.7 52H41.7C41.7 54.3477 43.6522 56.3 46 56.3C48.3477 56.3 50.2999 54.3477 50.2999 52H52.2999C52.2999 55.4523 49.4522 58.3 46 58.3Z" fill="#000667"/>
<path fill-rule="evenodd" clip-rule="evenodd" d="M31.1001 52C31.1001 54.3477 33.0524 56.3 35.4001 56.3C37.7478 56.3 39.7001 54.3477 39.7001 52H41.7001C41.7001 55.4523 38.8524 58.3 35.4001 58.3C31.9478 58.3 29.1001 55.4523 29.1001 52H31.1001Z" fill="#000667"/>
<path fill-rule="evenodd" clip-rule="evenodd" d="M10 42.5C10 44.9354 11.9399 46.8 14.3 46.8C16.6477 46.8 18.6 44.8477 18.6 42.5H20.6C20.6 45.9523 17.7523 48.8 14.3 48.8C10.8601 48.8 8 46.0646 8 42.5H10Z" fill="#000667"/>
<path fill-rule="evenodd" clip-rule="evenodd" d="M24.9001 48.8C21.4478 48.8 18.6001 45.9523 18.6001 42.5H20.6001C20.6001 44.8477 22.5524 46.8 24.9001 46.8C27.2478 46.8 29.2001 44.8477 29.2001 42.5H31.2001C31.2001 45.9523 28.3524 48.8 24.9001 48.8Z" fill="#000667"/>
<path fill-rule="evenodd" clip-rule="evenodd" d="M46 48.8C42.5477 48.8 39.7 45.9523 39.7 42.5H41.7C41.7 44.8477 43.6522 46.8 46 46.8C48.3477 46.8 50.2999 44.8477 50.2999 42.5H52.2999C52.2999 45.9523 49.4522 48.8 46 48.8Z" fill="#000667"/>
<path fill-rule="evenodd" clip-rule="evenodd" d="M31.1001 42.5C31.1001 44.8477 33.0524 46.8 35.4001 46.8C37.7478 46.8 39.7001 44.8477 39.7001 42.5H41.7001C41.7001 45.9523 38.8524 48.8 35.4001 48.8C31.9478 48.8 29.1001 45.9523 29.1001 42.5H31.1001Z" fill="#000667"/>
</svg>
