<svg width="60" height="60" viewBox="0 0 60 60" fill="none" xmlns="http://www.w3.org/2000/svg">
<path fill-rule="evenodd" clip-rule="evenodd" d="M41.6426 6.38544C41.9268 5.91186 42.541 5.75829 43.0146 6.04244C44.7987 7.11289 46.0001 9.02915 46.0001 11.2999C46.0001 12.3307 45.7734 13.4578 45.1139 14.3812C44.7929 14.8306 44.1683 14.9347 43.7189 14.6137C43.2695 14.2927 43.1654 13.6681 43.4864 13.2187C43.8268 12.7421 44.0001 12.0691 44.0001 11.2999C44.0001 9.77071 43.2016 8.48697 41.9856 7.75742C41.5121 7.47328 41.3585 6.85902 41.6426 6.38544Z" fill="#000667"/>
<path fill-rule="evenodd" clip-rule="evenodd" d="M43.3055 2.55276C43.5525 2.05878 44.1532 1.85856 44.6472 2.10555C47.9778 3.77085 50.2999 7.31215 50.2999 11.3C50.2999 12.9715 49.8562 14.6144 49.2079 16.019C48.9765 16.5205 48.3823 16.7394 47.8809 16.5079C47.3794 16.2765 47.1605 15.6824 47.392 15.1809C47.9437 13.9855 48.2999 12.6284 48.2999 11.3C48.2999 8.08781 46.4221 5.2291 43.7527 3.8944C43.2588 3.64741 43.0585 3.04674 43.3055 2.55276Z" fill="#000667"/>
<path fill-rule="evenodd" clip-rule="evenodd" d="M17.2574 6.38544C17.5416 6.85902 17.388 7.47328 16.9144 7.75742C15.6985 8.48697 14.8999 9.77071 14.8999 11.2999C14.8999 12.0691 15.0732 12.7421 15.4137 13.2187C15.7347 13.6681 15.6306 14.2927 15.1812 14.6137C14.7318 14.9347 14.1072 14.8306 13.7862 14.3812C13.1266 13.4578 12.8999 12.3307 12.8999 11.2999C12.8999 9.02915 14.1013 7.11289 15.8854 6.04244C16.359 5.75829 16.9733 5.91186 17.2574 6.38544Z" fill="#000667"/>
<path fill-rule="evenodd" clip-rule="evenodd" d="M15.5945 2.55276C15.8415 3.04674 15.6413 3.64741 15.1473 3.8944C12.4779 5.2291 10.6001 8.08781 10.6001 11.3C10.6001 12.6284 10.9563 13.9855 11.508 15.1809C11.7395 15.6824 11.5206 16.2765 11.0191 16.5079C10.5177 16.7394 9.92358 16.5205 9.69214 16.019C9.04386 14.6144 8.6001 12.9715 8.6001 11.3C8.6001 7.31215 10.9223 3.77085 14.2529 2.10555C14.7468 1.85856 15.3475 2.05878 15.5945 2.55276Z" fill="#000667"/>
<path fill-rule="evenodd" clip-rule="evenodd" d="M29.5999 15.5C19.5483 15.5 11.3999 23.6484 11.3999 33.7C11.3999 43.7516 19.5483 51.9 29.5999 51.9C39.6515 51.9 47.7999 43.7516 47.7999 33.7C47.7999 23.6484 39.6515 15.5 29.5999 15.5ZM9.3999 33.7C9.3999 22.5438 18.4438 13.5 29.5999 13.5C40.7561 13.5 49.7999 22.5438 49.7999 33.7C49.7999 44.8562 40.7561 53.9 29.5999 53.9C18.4438 53.9 9.3999 44.8562 9.3999 33.7Z" fill="#000667"/>
<path fill-rule="evenodd" clip-rule="evenodd" d="M29.9 9C30.363 9 30.7654 9.31779 30.8728 9.76815L35.3302 28.4698L54.0318 32.9272C54.4822 33.0346 54.8 33.437 54.8 33.9C54.8 34.363 54.4822 34.7654 54.0318 34.8728L35.3302 39.3302L30.8728 58.0318C30.7654 58.4822 30.363 58.8 29.9 58.8C29.437 58.8 29.0346 58.4822 28.9272 58.0318L24.4698 39.3302L5.76815 34.8728C5.31779 34.7654 5 34.363 5 33.9C5 33.437 5.31779 33.0346 5.76815 32.9272L24.4698 28.4698L28.9272 9.76815C29.0346 9.31779 29.437 9 29.9 9ZM29.9 14.3132L26.2728 29.5318C26.1853 29.8988 25.8988 30.1853 25.5318 30.2728L10.3132 33.9L25.5318 37.5272C25.8988 37.6147 26.1853 37.9012 26.2728 38.2682L29.9 53.4868L33.5272 38.2682C33.6147 37.9012 33.9012 37.6147 34.2682 37.5272L49.4868 33.9L34.2682 30.2728C33.9012 30.1853 33.6147 29.8988 33.5272 29.5318L29.9 14.3132Z" fill="#000667"/>
<path fill-rule="evenodd" clip-rule="evenodd" d="M18.5928 43.7929L39.7928 22.5929L41.207 24.0071L20.007 45.2071L18.5928 43.7929Z" fill="#000667"/>
<path fill-rule="evenodd" clip-rule="evenodd" d="M39.7928 45.2071L18.5928 24.0071L20.007 22.5929L41.207 43.7929L39.7928 45.2071Z" fill="#000667"/>
<path d="M29.8999 40.4C33.4898 40.4 36.3999 37.4899 36.3999 33.9C36.3999 30.3102 33.4898 27.4 29.8999 27.4C26.3101 27.4 23.3999 30.3102 23.3999 33.9C23.3999 37.4899 26.3101 40.4 29.8999 40.4Z" fill="white"/>
<path fill-rule="evenodd" clip-rule="evenodd" d="M29.8999 28.4C26.8624 28.4 24.3999 30.8625 24.3999 33.9C24.3999 36.9376 26.8624 39.4 29.8999 39.4C32.9375 39.4 35.3999 36.9376 35.3999 33.9C35.3999 30.8625 32.9375 28.4 29.8999 28.4ZM22.3999 33.9C22.3999 29.7579 25.7578 26.4 29.8999 26.4C34.0421 26.4 37.3999 29.7579 37.3999 33.9C37.3999 38.0422 34.0421 41.4 29.8999 41.4C25.7578 41.4 22.3999 38.0422 22.3999 33.9Z" fill="#222160"/>
</svg>
