<svg width="60" height="60" viewBox="0 0 60 60" fill="none" xmlns="http://www.w3.org/2000/svg">
<path d="M52.6001 34.6C53.1001 34.8 53.4001 35.4 53.2001 35.9L47.1001 57.6C47.0001 58.1 46.5001 58.4 46.0001 58.4H14.2001C13.7001 58.4 13.3001 58.1 13.1001 57.6L7.0001 35.9C6.9001 35.4 7.1001 34.8 7.6001 34.6L13.0001 32.3V14.3C13.0001 13.7 13.5001 13.2 14.1001 13.2H22.9001V2.1C22.9001 1.5 23.4001 1 24.0001 1H36.0001C36.6001 1 37.1001 1.5 37.1001 2.1V13.2H45.9001C46.5001 13.2 47.0001 13.7 47.0001 14.3V32.2L52.6001 34.6ZM34.9001 3.2H25.2001V6.2H34.9001V3.2ZM25.1001 8.4V13.2H34.8001V8.4H25.1001ZM15.2001 15.4V31.3L29.7001 25C29.8001 25 29.8001 25 29.9001 24.9H30.0001H30.1001H30.2001H30.3001H30.4001L44.6001 31V15.4H15.2001ZM9.4001 36.3L15.0001 56.3H29.0001V27.8L9.4001 36.3ZM45.3001 56.3L50.9001 36.3L31.3001 27.8V56.3H45.3001ZM25.0001 41.4C25.6001 41.4 26.1001 41.9 26.1001 42.5C26.1001 45.7 23.4001 48.2 20.1001 48.2C16.8001 48.2 14.1001 45.6 14.1001 42.5C14.1001 41.9 14.6001 41.4 15.2001 41.4C15.8001 41.4 16.3001 41.9 16.3001 42.5C16.3001 44.1 17.4001 45.4 18.9001 45.8V39.4C18.1001 39 17.5001 38.2 17.5001 37.2C17.5001 35.8 18.6001 34.7 20.0001 34.7C21.4001 34.7 22.5001 35.8 22.5001 37.2C22.5001 38.2 21.9001 39 21.1001 39.4V45.8C22.7001 45.4 23.9001 44 23.9001 42.4C23.9001 41.8 24.4001 41.4 25.0001 41.4ZM21.2001 17C23.1001 17 24.6001 18.5 24.6001 20.4C24.6001 22.3 23.1001 23.8 21.2001 23.8C19.3001 23.8 17.8001 22.3 17.8001 20.4C17.8001 18.6 19.3001 17 21.2001 17ZM21.2001 21.7C21.9001 21.7 22.4001 21.1 22.4001 20.5C22.4001 19.8 21.8001 19.3 21.2001 19.3C20.5001 19.3 20.0001 19.9 20.0001 20.5C20.0001 21.2 20.5001 21.7 21.2001 21.7ZM38.8001 23.9C36.9001 23.9 35.4001 22.4 35.4001 20.5C35.4001 18.6 36.9001 17.1 38.8001 17.1C40.7001 17.1 42.2001 18.6 42.2001 20.5C42.2001 22.4 40.7001 23.9 38.8001 23.9ZM38.8001 19.3C38.1001 19.3 37.6001 19.9 37.6001 20.5C37.6001 21.2 38.2001 21.7 38.8001 21.7C39.4001 21.7 40.0001 21.1 40.0001 20.5C40.0001 19.8 39.5001 19.3 38.8001 19.3ZM33.4001 20.5C33.4001 22.4 31.9001 23.9 30.0001 23.9C28.1001 23.9 26.6001 22.4 26.6001 20.5C26.6001 18.6 28.1001 17.1 30.0001 17.1C31.9001 17 33.4001 18.6 33.4001 20.5ZM28.8001 20.5C28.8001 21.2 29.4001 21.7 30.0001 21.7C30.7001 21.7 31.2001 21.1 31.2001 20.5C31.2001 19.8 30.6001 19.3 30.0001 19.3C29.3001 19.3 28.8001 19.8 28.8001 20.5Z" fill="#000667"/>
</svg>
