<svg width="60" height="60" viewBox="0 0 60 60" fill="none" xmlns="http://www.w3.org/2000/svg">
<path d="M17.7073 3.78276L7.25165 16.3731C6.66606 17.0815 7.16665 18.1582 8.09227 18.1582H29.0037C29.9293 18.1582 30.4299 17.0815 29.8443 16.3731L19.3886 3.78276C18.9446 3.25384 18.1418 3.25384 17.7073 3.78276Z" stroke="#21255A" stroke-width="1.32231" stroke-miterlimit="10"/>
<path d="M26.4913 59.2918H10.6803C9.73576 59.2918 8.9707 58.5268 8.9707 57.5822V19.868C8.9707 18.9235 9.73576 18.1584 10.6803 18.1584H26.4913C27.4358 18.1584 28.2009 18.9235 28.2009 19.868V57.5728C28.2009 58.5268 27.4358 59.2918 26.4913 59.2918Z" stroke="#21255A" stroke-width="1.41676" stroke-miterlimit="10"/>
<path d="M21.4192 23.2114H25.4711V35.3011H21.4192V23.2114Z" fill="#21255A"/>
<path d="M21.4192 23.2114H25.4711V35.3011H21.4192V23.2114Z" stroke="#21255A" stroke-width="0.0472255" stroke-miterlimit="10"/>
<path d="M25.4712 23.2114H26.888V35.3011H25.4712V23.2114Z" fill="#21255A"/>
<path d="M25.4712 23.2114H26.888V35.3011H25.4712V23.2114Z" stroke="#21255A" stroke-width="0.0472255" stroke-miterlimit="10"/>
<path d="M18.5857 23.2114H20.0025V35.3011H18.5857V23.2114Z" fill="#21255A"/>
<path d="M18.5857 23.2114H20.0025V35.3011H18.5857V23.2114Z" stroke="#21255A" stroke-width="0.0472255" stroke-miterlimit="10"/>
<path d="M18.3023 0.382893L15.8088 3.57534C15.6766 3.74535 15.7993 4.00037 16.0166 4.00037H21.013C21.2303 4.00037 21.353 3.74535 21.2208 3.57534L18.7179 0.382893C18.614 0.250662 18.4062 0.250662 18.3023 0.382893Z" fill="#21255A"/>
<path d="M18.3023 0.382893L15.8088 3.57534C15.6766 3.74535 15.7993 4.00037 16.0166 4.00037H21.013C21.2303 4.00037 21.353 3.74535 21.2208 3.57534L18.7179 0.382893C18.614 0.250662 18.4062 0.250662 18.3023 0.382893Z" stroke="#21255A" stroke-width="0.566706" stroke-miterlimit="10"/>
<path d="M18.5857 38.3235H20.0025V50.4133H18.5857V38.3235Z" fill="#21255A"/>
<path d="M18.5857 38.3235H20.0025V50.4133H18.5857V38.3235Z" stroke="#21255A" stroke-width="0.0472255" stroke-miterlimit="10"/>
<path d="M21.4192 38.3235H25.4711V50.4133H21.4192V38.3235Z" fill="#21255A"/>
<path d="M21.4192 38.3235H25.4711V50.4133H21.4192V38.3235Z" stroke="#21255A" stroke-width="0.0472255" stroke-miterlimit="10"/>
<path d="M25.4712 38.3235H26.888V50.4133H25.4712V38.3235Z" fill="#21255A"/>
<path d="M25.4712 38.3235H26.888V50.4133H25.4712V38.3235Z" stroke="#21255A" stroke-width="0.0472255" stroke-miterlimit="10"/>
<path fill-rule="evenodd" clip-rule="evenodd" d="M53.7121 37.5205C53.7121 38.2384 52.9092 38.824 51.9364 38.5595H37.986C37.0037 38.7673 36.2197 38.1817 36.2197 37.4639C36.2197 36.746 37.0226 36.1604 37.9954 35.5371H51.9553C52.9281 36.2171 53.7215 36.8027 53.7121 37.5205Z" fill="#21255A"/>
<path fill-rule="evenodd" clip-rule="evenodd" d="M51.4169 25.157C51.8986 25.7804 51.6058 26.5832 50.7557 26.9422L38.2126 32.2314C37.3626 32.5903 36.2764 32.3731 35.7947 31.7403C35.313 31.1169 35.6058 30.3141 36.4558 29.9551L48.9989 24.6659C49.849 24.3164 50.9352 24.5337 51.4169 25.157Z" fill="#21255A"/>
<path fill-rule="evenodd" clip-rule="evenodd" d="M35.1053 42.8288C35.6059 42.2054 36.6921 41.9976 37.5327 42.366L50.5103 48.033C51.3509 48.4014 51.6343 49.2042 51.1337 49.8276C50.6331 50.451 49.5469 50.6588 48.7063 50.2904L35.7287 44.6233C34.8881 44.2455 34.6048 43.4427 35.1053 42.8288Z" fill="#21255A"/>
</svg>
