<?xml version="1.0" encoding="UTF-8" standalone="no"?>
<!-- Created with Inkscape (http://www.inkscape.org/) -->

<svg
   width="125.80257mm"
   height="152.1599mm"
   viewBox="0 0 125.80257 152.1599"
   version="1.1"
   id="svg1"
   inkscape:version="1.3 (0e150ed6c4, 2023-07-21)"
   sodipodi:docname="coast-stroke.svg"
   xmlns:inkscape="http://www.inkscape.org/namespaces/inkscape"
   xmlns:sodipodi="http://sodipodi.sourceforge.net/DTD/sodipodi-0.dtd"
   xmlns="http://www.w3.org/2000/svg"
   xmlns:svg="http://www.w3.org/2000/svg">
  <sodipodi:namedview
     id="namedview1"
     pagecolor="#ffffff"
     bordercolor="#000000"
     borderopacity="0.25"
     inkscape:showpageshadow="2"
     inkscape:pageopacity="0.0"
     inkscape:pagecheckerboard="0"
     inkscape:deskcolor="#d1d1d1"
     inkscape:document-units="mm"
     inkscape:zoom="1.0449705"
     inkscape:cx="300.00846"
     inkscape:cy="491.40141"
     inkscape:window-width="5120"
     inkscape:window-height="1369"
     inkscape:window-x="-8"
     inkscape:window-y="-8"
     inkscape:window-maximized="1"
     inkscape:current-layer="layer1" />
  <defs
     id="defs1">
    <clipPath
       clipPathUnits="userSpaceOnUse"
       id="clipPath27">
      <path
         d="M 0,0 H 1058.267 V 595.276 H 0 Z"
         transform="matrix(1.8096577,0,0,-1.8096577,-1064.2381,746.57716)"
         id="path27" />
    </clipPath>
  </defs>
  <g
     inkscape:label="Layer 1"
     inkscape:groupmode="layer"
     id="layer1"
     transform="translate(-25.503054,-18.416263)">
    <g
       id="group-MC1"
       transform="matrix(0.26458333,0,0,0.26458333,-61.587997,-25.291257)">
      <path
         id="path26"
         d="m 0,0 h -0.667 l -16.88,-3.778 -0.493,-1.32 11.093,-15.005 -24.398,-3.681 -0.438,-0.222 -15.601,-12.845 0.629,-1.349 25.815,1.124 12.898,-14.362 1.221,-0.078 10.217,8.827 23.696,-11.407 -22.602,-8.608 -0.58,-0.833 -0.086,-12.597 -27.318,-2.409 -0.762,-0.55 -6.378,-15.01 -16.468,15.41 -3.755,22.201 -1.183,0.651 -8.86,-3.718 -0.513,-1.052 10.232,-38.022 -18.928,-7.421 -10.184,44.582 -0.702,0.683 -12.741,2.649 -0.937,-1.081 4.378,-12.147 0.556,-17.878 -3.522,-6.93 -17.784,27.124 -9.098,34.529 -0.95,0.66 -12.769,-1.188 -0.75,-1.103 16.539,-56.184 -18.75,5.146 -0.945,-0.301 -10.032,-12.398 -4.735,9.594 6.535,11.536 -0.015,0.924 -6.563,10.627 -15.693,22.555 4.058,20.863 -0.478,0.976 -7.526,3.83 -1.187,-0.414 -13.262,-28.688 -23.277,-1.127 -3.532,7.182 12.725,7.523 0.421,0.948 -3.754,19.483 -1.309,0.506 -10.095,-7.469 -19.588,11.94 -0.569,0.103 -15.306,-1.201 -3.687,16.486 -1.375,0.405 -8.679,-8.535 -19.074,23.215 -1.196,-0.684 10.143,-27.138 -8.569,-6.04 -18.196,19.765 -0.306,0.2 -26.196,11.993 -1.146,13.75 11.232,1.17 17.976,-11.736 1.027,0.973 -7.575,12.823 -1.223,17.091 -0.311,0.632 -24.329,20.789 22.638,8.62 -0.22,1.38 -36.185,1.549 1.322,12.321 18.044,6.306 0.385,1.327 -16.772,20.912 -1.412,-0.2 -11.578,-27.764 -0.453,0.72 -7.969,13.904 4.91,6.066 -0.283,1.31 -9.965,5.082 1.349,12.645 11.419,7.494 -0.414,1.386 -12.489,0.085 -10.01,18.989 20.153,6.285 -0.131,1.408 -24.616,2.758 -27.58,21.322 -3.784,15.56 9.012,11.443 -0.417,1.329 -12.543,3.857 0.08,11.263 -0.975,0.87 -9.774,-1.156 -1.17,12.602 -0.374,0.66 -8.933,6.469 0.167,23.523 6.352,8.783 -0.781,1.225 -12.496,-2.409 -8.612,14.775 16.16,5.066 -0.261,1.503 -11.256,-0.039 -12.67,8.996 6.231,9.819 -0.679,1.257 -9.954,0.07 -13.307,21.426 -20.391,14.22 20.413,12.57 0.233,1.274 -8.875,11.58 -1.356,-0.003 -11.579,-15.223 -7.265,4.913 -1.158,16.583 -1.395,0.359 -8.695,-13.442 -13.783,20.345 8.967,11.358 -0.251,1.288 -11.446,6.463 -1.225,-0.409 -7.763,-17.778 -20.136,10.251 6.353,13.323 -0.823,1.197 -19.417,-2.013 -12.41,13.835 18.696,6.094 -0.097,1.419 -30.018,5.432 -8.227,5.966 18.771,7.319 -0.114,1.411 -21.857,4.008 5.878,26.293 47.02,-0.496 0.957,0.861 0.206,11.172 -0.491,0.815 -1.276,1.328 -1.202,-0.443 -5.15,-8.853 -45.556,5.532 3.831,13.727 7.918,10.412 0.177,0.702 -2.509,15.75 6.423,17.596 17.422,-17.705 1.212,0.763 -10.28,23.567 -0.2,0.272 -23.283,23.596 8.467,5.958 20.519,-14.317 1.179,0.851 -8.889,29.961 -1.35,0.396 -6.984,-5.698 -1.101,13.192 22.474,15.642 0.385,0.738 0.09,12.726 38.254,11.292 7.548,-12.783 0.701,-0.213 0.025,-0.043 0.046,0.027 0.384,-0.117 16.477,6.247 24.33,-22.291 0.729,-0.364 9.906,-0.054 9.969,-21.981 0.655,-0.773 19.558,-5.429 -0.041,-14.937 0.102,-1.073 17.883,-20.635 0.431,0.164 0.396,0.149 0.529,0.201 -3.622,25.593 10.261,6.312 0.406,0.959 -1.861,14.72 10.726,12.551"
         style="fill:none;stroke:#000667 icc-color(sRGB-IEC61966-2, 0.1, 0, 0.02398682, 0.4039917);stroke-width:0.6;stroke-linecap:butt;stroke-linejoin:miter;stroke-miterlimit:10;stroke-dasharray:none;stroke-opacity:1"
         transform="matrix(0.7367876,0,0,0.7367876,784.11744,243.63254)"
         clip-path="url(#clipPath27)" />
    </g>
  </g>
</svg>
