<?xml version="1.0" encoding="UTF-8" standalone="no"?>
<!-- Created with Inkscape (http://www.inkscape.org/) -->

<svg
   width="125.19615mm"
   height="16.685425mm"
   viewBox="0 0 125.19616 16.685425"
   version="1.1"
   id="svg1"
   inkscape:version="1.3 (0e150ed6c4, 2023-07-21)"
   sodipodi:docname="coast-clip-stroke.svg"
   xmlns:inkscape="http://www.inkscape.org/namespaces/inkscape"
   xmlns:sodipodi="http://sodipodi.sourceforge.net/DTD/sodipodi-0.dtd"
   xmlns="http://www.w3.org/2000/svg"
   xmlns:svg="http://www.w3.org/2000/svg">
  <sodipodi:namedview
     id="namedview1"
     pagecolor="#ffffff"
     bordercolor="#000000"
     borderopacity="0.25"
     inkscape:showpageshadow="2"
     inkscape:pageopacity="0.0"
     inkscape:pagecheckerboard="0"
     inkscape:deskcolor="#d1d1d1"
     inkscape:document-units="mm"
     inkscape:zoom="1.4778115"
     inkscape:cx="762.95251"
     inkscape:cy="69.359319"
     inkscape:window-width="5120"
     inkscape:window-height="1369"
     inkscape:window-x="-8"
     inkscape:window-y="-8"
     inkscape:window-maximized="1"
     inkscape:current-layer="layer1" />
  <defs
     id="defs1">
    <clipPath
       clipPathUnits="userSpaceOnUse"
       id="clipPath27">
      <path
         d="M 0,0 H 1058.267 V 595.276 H 0 Z"
         transform="matrix(1.8096577,0,0,-1.8096577,-1064.2381,746.57716)"
         id="path27" />
    </clipPath>
  </defs>
  <g
     inkscape:label="Layer 1"
     inkscape:groupmode="layer"
     id="layer1"
     transform="translate(-25.697786,-59.897919)">
    <path
       id="path26"
       clip-path="url(#clipPath27)"
       style="fill:none;stroke:#000667 icc-color(sRGB-IEC61966-2, 0.1, 0, 0.02398682, 0.4039917);stroke-width:0.6;stroke-linecap:butt;stroke-linejoin:miter;stroke-miterlimit:10;stroke-dasharray:none;stroke-opacity:1"
       d="m -328.08558,19.466553 -1.14513,13.751457 11.232,1.16994 17.97626,-11.737961 1.02524,0.974728 -7.57395,12.823424 -1.22377,17.090776 -0.31033,0.62945 -24.32946,20.791094 22.6388,8.619521 -0.22089,1.379235 -36.18564,1.549947 1.32353,12.321524 18.04422,6.304822 0.3835,1.32819 -16.76942,20.9108 -1.41336,-0.19932 -11.57734,-27.762914 -0.45203,0.718634 -7.97006,13.90534 4.90868,6.06542 -0.28167,1.30853 -9.96418,5.08244 1.34763,12.64687 11.41868,7.49313 -0.41435,1.3846 -12.48792,0.0866 -10.00929,18.98836 20.15259,6.28378 -0.1316,1.40844 -24.61667,2.75845 -27.57882,21.32107 -3.78532,15.56206 9.01307,11.44306 -0.41723,1.32794 -12.54396,3.85641 0.0811,11.26506 -0.97544,0.86714 -9.77267,-1.15453 -1.17157,12.60109 -0.37327,0.66018 -8.93298,6.46975 0.16723,23.52431 6.35204,8.78133 -0.78123,1.22575 -12.4969,-2.40907 -8.61169,14.77351 16.16017,5.068 -0.26087,1.50294 -11.25526,-0.0409 -12.67002,8.99652 6.23005,9.82005 -0.68019,1.25659 -9.95168,0.0701 -13.30904,21.42644 -20.38913,14.21941 20.41258,12.57051 0.23208,1.27238 -8.87556,11.58157 -1.35435,-0.004 -11.57821,-15.22255 -7.26549,4.91384 -1.1578,16.58288 -1.3955,0.35976 -8.69592,-13.44447 -13.78205,20.34552 8.965,11.35856 -0.24904,1.28913 -11.44685,6.46303 -1.22363,-0.40988 -7.76432,-17.77691 -20.13545,10.25094 6.35132,13.32248 -0.82274,1.19723 -19.41639,-2.01461 -12.40951,13.8362 18.69718,6.09417 -0.0972,1.41921 -30.01972,5.43015 -0.50739,0.36859 53.39913,36.69597 363.39105,-528.798295 -21.5458,-14.806305 -2.51542,5.116022 12.72635,7.52331 0.41973,0.947818 -3.75449,19.481595 -1.30714,0.507325 -10.09696,-7.469368 -19.58791,11.9395278 -0.56984,0.1037391 -15.30432,-1.2022909 -3.68807,16.4876908 -1.37406,0.4034413 -8.67976,-8.534699 -19.07392,23.2158329 -1.19625,-0.683755 10.14388,-27.136431 -8.56853,-6.042703 -18.19594,19.7664491 -0.30796,0.2000737 z"
       transform="matrix(0.11040755,0.16066253,-0.16066253,0.11040755,166.55191,110.52747)" />
  </g>
</svg>
