<?xml version="1.0" encoding="UTF-8" standalone="no"?>
<!-- Created with Inkscape (http://www.inkscape.org/) -->

<svg
   width="135.53127mm"
   height="18.789036mm"
   viewBox="0 0 135.53127 18.789036"
   version="1.1"
   id="svg1"
   inkscape:version="1.3 (0e150ed6c4, 2023-07-21)"
   sodipodi:docname="cost-clip-fill.svg"
   xmlns:inkscape="http://www.inkscape.org/namespaces/inkscape"
   xmlns:sodipodi="http://sodipodi.sourceforge.net/DTD/sodipodi-0.dtd"
   xmlns="http://www.w3.org/2000/svg"
   xmlns:svg="http://www.w3.org/2000/svg">
  <sodipodi:namedview
     id="namedview1"
     pagecolor="#ffffff"
     bordercolor="#000000"
     borderopacity="0.25"
     inkscape:showpageshadow="2"
     inkscape:pageopacity="0.0"
     inkscape:pagecheckerboard="0"
     inkscape:deskcolor="#d1d1d1"
     inkscape:document-units="mm"
     inkscape:zoom="1.4778115"
     inkscape:cx="351.53333"
     inkscape:cy="273.03888"
     inkscape:window-width="5120"
     inkscape:window-height="1369"
     inkscape:window-x="-8"
     inkscape:window-y="-8"
     inkscape:window-maximized="1"
     inkscape:current-layer="group-MC0" />
  <defs
     id="defs1" />
  <g
     inkscape:label="Layer 1"
     inkscape:groupmode="layer"
     id="layer1"
     transform="translate(-17.026865,-56.860609)">
    <g
       id="group-MC0"
       transform="matrix(0.26458333,0,0,0.26458333,-195.49775,-26.364755)">
      <path
         id="path19"
         style="fill:#a9e5fb icc-color(sRGB-IEC61966-2, 0.1, 0.66299438, 0.897995, 0.98399353);fill-opacity:1;fill-rule:nonzero;stroke:none;stroke-width:0.872313"
         d="m 1236.3579,314.55256 -10.6777,5.55665 4.3652,8.83007 17.0254,7.79883 -0.2403,1.21094 -12.9863,0.38086 -13.1777,7.05273 -0.6113,0.0645 -26.6602,-8.27149 4.1777,20.71289 -1.1211,0.48047 -17.9863,-25.97461 -8.4746,6.71094 3.7461,16.24609 -0.7988,0.90235 -23.2344,-2.64063 -0.5098,-1.13476 15.0938,-21.46485 -0.7422,0.002 -13.9668,0.59179 -2.1895,6.44531 -1.0996,0.40235 -8.3867,-4.98633 -8.6992,6.88086 -0.2149,11.91211 -1.2148,0.33984 -5.8769,-9.17383 -18.668,1.45508 4.7441,17.79297 -1.0996,0.55664 -13.4941,-16.875 -28.5664,-10.42187 -13.2422,4.45117 -4.2461,11.97266 -1.1758,0.3125 -8.6816,-7.45899 -8.2735,5.30274 -1.0957,-0.31446 -3.6972,-7.75 -9.8399,5.00391 -0.6621,0.0312 -8.9297,-3.58008 -17.27733,11.07227 -3.52343,8.77539 -1.26758,-0.006 -4.03711,-10.3418 -14.90821,0.52539 3.78321,14.2793 -1.23047,0.50781 -5.21094,-8.32226 -12.5332,-5.16016 -4.34375,9.16797 -1.24219,0.084 -4.68555,-7.3125 -22.00195,0.15625 -19.98242,-8.42383 0.22851,20.91016 -0.83203,0.76563 -12.67383,-1.15821 -0.6289,-1.00195 5.84179,-15.62695 -7.00585,-3.07227 -12.77344,6.86328 -0.91406,-0.86133 5.86914,-12.67187 -21.42579,-0.69922 -4.20507,11.9043 -1.06641,0.41211 -10.09766,-5.43555 -0.26562,-1.09375 9.50195,-14.00195 -16.93555,-10.08594 -6.87304,10.89062 -1.26563,-0.0508 -7.55273,-15.26172 -10.19141,-1.73242 v 67.66602 h 512.24415 v -8.36914 l -14.7598,-7.32227 -0.3398,-0.37305 -6.2383,-11.85156 -13.8789,4.95508 -0.9395,-0.82617 2.2579,-10.37696 -26.0059,-3.26562 -0.053,-1.19922 24.7422,-5.15039 0.4687,-9.13281 -23.0527,-4.22461 -0.2891,-0.13281 z" />
    </g>
  </g>
</svg>
