<?xml version="1.0" encoding="UTF-8" standalone="no"?>
<!-- Created with Inkscape (http://www.inkscape.org/) -->

<svg
   width="135.9818mm"
   height="152.01146mm"
   viewBox="0 0 135.9818 152.01146"
   version="1.1"
   id="svg1"
   inkscape:version="1.3 (0e150ed6c4, 2023-07-21)"
   sodipodi:docname="coast-fill.svg"
   xmlns:inkscape="http://www.inkscape.org/namespaces/inkscape"
   xmlns:sodipodi="http://sodipodi.sourceforge.net/DTD/sodipodi-0.dtd"
   xmlns="http://www.w3.org/2000/svg"
   xmlns:svg="http://www.w3.org/2000/svg">
  <sodipodi:namedview
     id="namedview1"
     pagecolor="#ffffff"
     bordercolor="#000000"
     borderopacity="0.25"
     inkscape:showpageshadow="2"
     inkscape:pageopacity="0.0"
     inkscape:pagecheckerboard="0"
     inkscape:deskcolor="#d1d1d1"
     inkscape:document-units="mm"
     inkscape:zoom="0.52248527"
     inkscape:cx="330.15285"
     inkscape:cy="825.8606"
     inkscape:window-width="5120"
     inkscape:window-height="1369"
     inkscape:window-x="-8"
     inkscape:window-y="-8"
     inkscape:window-maximized="1"
     inkscape:current-layer="group-MC0" />
  <defs
     id="defs1" />
  <g
     inkscape:label="Layer 1"
     inkscape:groupmode="layer"
     id="layer1"
     transform="translate(-16.668748,-17.462498)">
    <g
       id="group-MC0"
       transform="matrix(0.26458333,0,0,0.26458333,-195.49775,-26.364755)">
      <path
         id="path19"
         d="m 0,0 -38.255,-11.292 -0.09,-12.726 -0.384,-0.738 -22.473,-15.641 1.1,-13.194 6.985,5.7 1.349,-0.396 8.889,-29.962 -1.179,-0.851 -20.518,14.317 -8.468,-5.958 23.284,-23.596 0.2,-0.272 10.279,-23.567 -1.211,-0.762 -17.423,17.704 -6.423,-17.596 2.509,-15.749 -0.177,-0.702 -7.918,-10.412 -3.831,-13.729 45.557,-5.531 5.15,8.854 1.2,0.443 1.277,-1.328 0.491,-0.816 -0.206,-11.172 -0.957,-0.861 -47.019,0.496 -5.878,-26.293 21.856,-4.008 0.114,-1.411 -18.771,-7.319 8.227,-5.966 30.019,-5.431 0.097,-1.42 -18.698,-6.094 12.411,-13.834 19.417,2.012 0.823,-1.197 -6.353,-13.324 20.136,-10.25 7.764,17.778 1.224,0.41 11.446,-6.463 0.252,-1.288 -8.968,-11.359 13.783,-20.345 8.696,13.443 1.394,-0.359 1.159,-16.584 7.265,-4.913 11.578,15.223 1.356,0.003 8.875,-11.579 -0.233,-1.274 -20.413,-12.571 20.392,-14.22 13.306,-21.426 9.955,-0.07 0.679,-1.257 -6.232,-9.819 12.671,-8.995 11.256,0.038 0.261,-1.503 -16.16,-5.066 8.611,-14.775 12.496,2.41 0.781,-1.225 -6.352,-8.784 -0.168,-23.523 8.934,-6.469 0.374,-0.66 1.17,-12.601 9.774,1.155 0.976,-0.869 -0.081,-11.264 12.543,-3.856 0.417,-1.33 -9.012,-11.442 3.785,-15.56 27.579,-21.322 24.616,-2.759 0.131,-1.407 -20.152,-6.285 10.009,-18.99 12.489,-0.085 0.415,-1.386 -11.419,-7.494 -1.349,-12.645 9.964,-5.081 0.283,-1.311 -4.91,-6.066 7.969,-13.903 0.454,-0.721 11.577,27.764 1.412,0.2 16.772,-20.911 -0.385,-1.327 -18.044,-6.306 -1.322,-12.322 36.186,-1.549 0.219,-1.38 -22.637,-8.62 24.328,-20.788 0.311,-0.633 1.223,-17.09 7.575,-12.823 -1.027,-0.974 -17.976,11.736 -11.231,-1.169 1.145,-13.751 26.196,-11.993 0.306,-0.199 18.197,-19.766 8.568,6.04 -10.143,27.139 1.197,0.683 19.073,-23.215 8.679,8.535 1.376,-0.405 3.686,-16.486 15.307,1.202 0.569,-0.104 19.587,-11.939 10.095,7.468 1.309,-0.506 3.754,-19.483 -0.421,-0.948 -12.724,-7.523 3.531,-7.182 23.277,1.127 13.262,28.688 1.188,0.414 7.525,-3.829 0.478,-0.976 -4.059,-20.864 15.694,-22.555 6.563,-10.627 0.015,-0.924 -6.535,-11.536 4.736,-9.593 10.032,12.398 0.944,0.301 18.75,-5.147 -16.539,56.185 0.75,1.102 12.769,1.188 0.951,-0.659 9.097,-34.53 17.785,-27.124 3.521,6.931 -0.556,17.877 -4.377,12.147 0.936,1.082 12.741,-2.649 0.702,-0.684 10.184,-44.581 18.928,7.421 -10.232,38.021 0.513,1.052 8.86,3.718 1.182,-0.65 3.757,-22.202 16.467,-15.409 6.379,15.009 0.761,0.551 27.319,2.408 0.085,12.597 0.581,0.833 22.6,8.608 -23.696,11.407 -10.217,-8.827 -1.22,0.079 -12.898,14.361 -25.814,-1.124 -0.63,1.349 15.601,12.845 0.438,0.222 24.398,3.681 -11.093,15.005 0.493,1.32 16.881,3.779 h 0.667 80.428 V -33.77 H 125.538 l -10.726,-12.55 1.861,-14.721 -0.406,-0.959 -10.261,-6.312 3.623,-25.593 -0.53,-0.2 -0.396,-0.15 -0.43,-0.164 -17.883,20.635 -0.103,1.073 0.041,14.938 -19.558,5.428 -0.655,0.773 -9.969,21.981 -9.905,0.055 -0.73,0.363 -24.33,22.291 -16.477,-6.247 -0.384,0.117 -0.045,-0.027 -0.027,0.044 -0.7,0.213 z"
         style="fill:#a9e5fb icc-color(sRGB-IEC61966-2, 0.1, 0.66299438, 0.897995, 0.98399353);fill-opacity:1;fill-rule:nonzero;stroke:none"
         transform="matrix(0.7367876,0,0,0.7367876,856.51457,740.17781)" />
    </g>
  </g>
</svg>
