<svg xmlns="http://www.w3.org/2000/svg" width="152" height="110" fill="none">
    <g clip-path="url(#a)">
        <mask id="b" width="152" height="110" x="0" y="0" maskUnits="userSpaceOnUse" style="mask-type:luminance">
            <path fill="#fff" d="M152 0H0v109.662h152z"/>
        </mask>
        <g fill="#fff" mask="url(#b)">
            <path d="M50.674 54.655c.022 18.174 15.822 26.29 25.226 29.51l.11.044.111-.043c4.67-1.676 11.33-4.743 16.641-9.86 5.687-5.491 8.563-12.086 8.563-19.651V8.514l-.154-.089C92.939 2.823 84.464 0 76.011 0 67.58 0 59.105 2.823 50.829 8.425l-.155.089v46.141m.509-45.7C59.37 3.44 67.713.662 76.01.662c8.32 0 16.662 2.8 24.828 8.315l-.155-.265v45.965c0 7.366-2.81 13.807-8.365 19.167-5.222 5.05-11.816 8.072-16.419 9.726h.221c-9.25-3.154-24.761-11.116-24.783-28.893V8.712z"/>
            <path d="M65.478 19.41c-2.898 1.102-4.868 2.425-5.288 2.8-.908.86-.554 1.633-.554 1.677h.089s-.044-.64.73-1.39c.332-.33 2.213-1.61 5.156-2.735zM76.764 17.336s-.376-.022-.642-.022c-.265 0-.664.022-.664.022-2.589.132-6.04.75-9.072 1.764l.11.353c2.988-1.014 6.418-1.61 8.962-1.742 0 0 .31-.022.642-.022.31 0 .642.022.642.022 2.567.132 5.975.728 8.984 1.742l.11-.353c-3.031-1.036-6.483-1.632-9.072-1.764M86.744 19.41c2.898 1.102 4.868 2.425 5.289 2.8.907.86.553 1.633.553 1.677h-.089s.044-.64-.73-1.39c-.332-.33-2.213-1.61-5.156-2.735z"/>
            <path d="M95.33 20.556c-1.44-1.963-4.626-2.625-7.746-2.823-.154-3.154-5.864-3.375-10.268-2.537-.442-.595-1.903-.573-2.367 0-4.404-.838-10.135-.64-10.268 2.537-3.12.176-6.306.86-7.745 2.823-1.416 1.941 1.372 3.904 1.372 3.904l.62-.53s-4.67-3.77 5.842-5.646c.509 1.39 1.482 2.052 1.482 2.052l.532-.375s-3.165-5.933 8.165-4.059l.686 2.426s-.023-.132.221-.11c0 0-.31-2.25-.221-2.492.132-.331.885-.331 1.018 0 .088.22-.222 2.492-.222 2.492.244 0 .222.11.222.11l.686-2.426c11.33-1.874 8.165 4.059 8.165 4.059l.531.375s.974-.662 1.483-2.052c10.489 1.875 5.842 5.647 5.842 5.647l.62.529c-.045 0 2.765-1.963 1.35-3.904m-36.867 3.308.11.11v.023c-.021 0-.11-.088-.287.044-.199-.132-.442-.33-.642-.573-1.239-1.434-2.168-4.61 6.86-5.404-9.626 1.72-6.66 5.183-6.04 5.8m8.01-3.925q0 .033 0 0c0 .132-.243-.023-.243.088v.022c-.686-.75-1.062-1.566-1.062-2.316-.044-1.875 2.124-3.419 8.077-2.448.11.022.221.022.332.044h-.11c.376.066.774.132 1.194.22-10.71-1.213-8.652 3.353-8.187 4.39m19.607.132c0-.022 0-.066-.022-.066a.3.3 0 0 0-.067.088c.044-.177-.287.044-.244-.132 0-.022.022-.045.022-.067-.022-.022-.022-.044-.022-.066.465-1.036 2.59-5.492-8.098-4.256a21 21 0 0 1 1.017-.221h-.022.045c4.89-.949 7.39.022 8.099 1.478.199.352.266.772.221 1.169 0 .705-.354 1.433-.93 2.073m7.943 3.97c-.021 0-.021-.022-.043-.022-.023 0-.023.022-.045.022-.067-.044-.11-.066-.155-.066-.022 0-.044.022-.044.022l.022-.022c-.066 0-.089.022-.11.022l.11-.11c.022 0 .067.022 0 0 .265-.265.863-.883.996-1.677.177-1.323-.93-3.065-6.948-4.146 10.643.926 7.457 5.183 6.217 5.977"/>
            <path d="M95.196 24.637c-.022-.023-.354-.375-.973-.64-3.187-1.434-2.413 1.786-2.435 2.051-.243-.816-2.213-2.095-2.7.199-.508 2.426 1.483 1.764 1.77 1.808-.464.684-1.46.684-3.584-.176-2.434-.993-2.854-1.632-2.3-2.846.22 1.456 1.99 1.81 2.566.375 1.305-3.22-1.438-2.315-1.815-2.183.443-.728 1.173-1.125 1.195-1.985.044-1.39-1.903-1.72-2.567-1.235-1.04.794-.398 2.669-.398 2.867-.244-.309-2.125-2.823-2.766.618-.288 1.521 1.394 2.205 2.412 1.014-.177 1.213-1.239 1.632-3.74 1.235-3.717-.573-2.987-2.36-2.987-2.36.044.066 1.46 2.338 2.611-.264 1.261-2.868-2.036-1.985-2.523-1.346.288-1.323 1.505-2.051.797-2.911-.885-1.08-2.611-1.015-3.364 0-.664.904.51 1.588.797 2.911-.465-.64-3.784-1.522-2.523 1.346 1.151 2.602 2.567.33 2.612.264 0 0 .73 1.787-2.988 2.36-2.5.397-3.562-.022-3.74-1.235 1.04 1.191 2.7.507 2.413-1.014-.642-3.441-2.523-.927-2.766-.618 0-.198.663-2.073-.399-2.867-.664-.485-2.677-.155-2.567 1.235.089.904.93 1.323 1.195 2.029-.376-.11-3.12-1.08-1.814 2.14.575 1.433 2.345 1.08 2.567-.375.553 1.213.132 1.852-2.302 2.845-2.124.86-3.12.882-3.584.176.287-.066 2.235.662 1.77-1.808-.42-2.294-2.479-1.037-2.7-.221 0-.265.752-3.485-2.434-2.051-.62.287-.952.64-.974.64l-.11.11.088.132 5.554 7.654s4.692-3.904 13.543-3.904 13.542 3.904 13.542 3.904l5.555-7.654.088-.132zm-.84.64c-.643.837-4.581 6.219-4.626 6.263l-.155.198-.221-.132c-1.859-1.037-6.86-3.485-13.254-3.507-6.396.022-11.397 2.448-13.255 3.507l-.222.132-.155-.198c-.044-.044-3.983-5.426-4.625-6.264l-.066-.088v-.11c0-.044.044-.375.443-.64.73-.507 1.438-.375 1.66-.243.42.243.331 2.074.353 2.25.354-.485.93-1.147 1.505-1.103.398.022.708.31.93.838.354.905.044 1.39-.222 1.566-.42.243-1.04.199-1.527.022.089.199.2.53.42.706.62.485 1.86.353 3.298-.132 1.704-.574 2.81-1.412 2.987-2.25a1.79 1.79 0 0 0-.398-1.478c-.221.464-.642 1.324-1.173 1.368-.376.022-.708-.22-.996-.75-.398-.75-.464-1.28-.155-1.632.399-.463 1.837-.199 1.992-.133.177.067-.089-.264-.177-.374-.465-.574-.907-.97-.907-1.478 0-.463.199-.838.553-1.037.465-.264 1.173-.22 1.483.066.287.265.331.86.132 2.162-.022.132-.199.728.044.397.244-.309 1.416-1.28 2.014-1.037.398.155.62.618.62 1.412 0 .551-.155.904-.487 1.08-.51.243-1.372-.198-1.792-.463-.045.331 0 .794.287 1.191.487.618 1.704.949 3.364.794 1.725-.176 2.721-.727 3.208-1.433.31-.441.554-1.213.355-1.897-.244.353-1.151 1.103-1.594 1.08-.398-.021-.708-.33-.951-.926-.222-.573-.2-1.169.066-1.433.442-.397 1.748.22 2.39.485-.067-.287-.155-.53-.266-.882a3 3 0 0 0-.287-.684c-.155-.309-.465-.684-.244-1.08.244-.464.73-.729 1.328-.729.597 0 1.084.265 1.328.728.221.397-.089.772-.244 1.081a6 6 0 0 0-.287.684c-.11.353-.2.595-.266.882.642-.265 1.947-.904 2.39-.485.288.242.31.838.066 1.433-.243.596-.553.927-.951.927-.443.022-1.35-.728-1.616-1.081-.154 1.059.222 1.676.354 1.897.51.706 1.483 1.279 3.21 1.433 1.659.155 2.876-.176 3.362-.794.288-.375.377-1.036.332-1.345-.442.265-1.328.882-1.836.64-.332-.155-.487-.53-.487-1.081.022-.794.222-1.257.62-1.412.597-.242 1.903 1.125 2.014.927.044-.11-.023-.331-.023-.463-.088-.86-.11-1.765.265-2.03.355-.242.952-.308 1.417-.044.354.199.553.552.553 1.037 0 .507-.221.772-.708 1.345-.089.11-.597.53-.354.463.265-.066 1.57-.286 1.97.177.31.353.265.882-.155 1.632-.288.53-.62.772-.996.75-.531-.044-.93-.948-1.151-1.412-.22.31-.597.949-.487 1.5.177.838 1.35 1.698 3.054 2.272 1.438.485 2.633.595 3.275.132.243-.176.398-.551.487-.75-.487.177-1.129.243-1.594.088-.31-.11-.553-.529-.243-1.632.155-.551.531-.816.93-.838.553-.044 1.106.508 1.46.993q.034-.265.066-.53c-.088-.771.111-1.345.532-1.588.221-.132.708-.286 1.46.221.398.287.443.618.443.64v.11zM76.123 8.425a3.03 3.03 0 0 0-3.032 3.022c0 1.367.907 2.514 2.168 2.89l.155.573a1.7 1.7 0 0 1 .354-.088c-.022-.133-.022-.265-.044-.375.133.022.265.022.376.022.133 0 .265 0 .377-.022 0 .11-.023.242-.045.375.11.022.244.044.354.088l.155-.552a3.01 3.01 0 0 0 2.169-2.889c.043-1.698-1.328-3.044-2.987-3.044m-.2.508s.088-.022.2-.022c.11 0 .22.022.22.022v2.757h-.42zM73.6 11.425c0-1.28.951-2.338 2.19-2.492v2.735H73.6zm2.523 2.514a2.48 2.48 0 0 1-2.346-1.61h4.713c-.376.927-1.306 1.61-2.367 1.61M78.578 12a1.4 1.4 0 0 1-.066.198h-4.78s-.022-.044-.066-.199c-.022-.132-.044-.176-.044-.176h5c0-.022 0 .044-.044.176m-2.124-.332V8.956a2.51 2.51 0 0 1 2.19 2.492c0 .088 0 .154-.022.243z"/>
            <path d="M76.83 5.117V3.308h-1.439v1.787h-2.013v1.434h2.013V8.69l.134-.022s.398-.044.597-.044c.2 0 .553.044.553.044l.133.022V6.529h2.013V5.095zM65.744 45.899l8.298.661.398-1.103h-.022l-.155.463-8.52-.419s-.464 0-.464-.573c0-.551.465-.595.465-.595l8.984-.287.575-6.683c.022-.309.31-.507.819-.507.465 0 .752.198.774.507l.553 6.683 9.073.287s.465.022.465.595c0 .552-.465.574-.465.574l-8.541.418.22.662 8.299-.662c.089 0 1.018-.066 1.018-.904 0-.948-.708-1.058-1.129-1.08l-8.32-.464c-.067-.86-.376-4.146-.443-5.558-.066-1.345-.885-1.632-1.239-1.698 0 0-.088-.022-.177-.022h-.177c-.088 0-.177.022-.177.022-.354.066-1.173.353-1.24 1.698-.065 1.39-.353 4.698-.441 5.558l-8.32.463c-.443.023-1.13.133-1.13 1.081 0 .816.93.883 1.019.883m21 14.248 1.327.595s-.907 1.676-4.138 4.39l.244.396c.022 0 .022-.022.043-.022 2.79-2.007 4.272-4.962 4.272-4.962l-1.151-.397 2.39-.927c-.399 1.28-1.46 4.456-5.001 7.058-.089.066-.155.11-.244.177l-.089-.31c-.088.067-.198.133-.287.2l.266.198c-2.479 1.588-5.532 2.338-8.255 2.338-2.765-.022-5.885-.794-8.386-2.47l.244-.177c-.089-.066-.177-.11-.244-.176l-.066.242a.4.4 0 0 1-.11-.088c-3.541-2.603-4.67-5.757-5.068-7.014l2.39.927-1.151.397s1.328 2.889 4.138 4.896l.221-.419c-3.23-2.735-3.939-4.279-3.939-4.279l1.328-.595-3.408-1.434s.708 4.786 5.2 8.072c2.678 1.986 5.798 3.154 8.808 3.177h.044c3.031-.023 6.13-1.191 8.807-3.177 4.47-3.286 5.178-8.072 5.178-8.072zm-8.675 7.344c.93 0 3.452-.463 4.957-1.279l.487-.287.11-.066-.22-.419-.62.353c-1.46.772-3.962 1.08-4.603 1.08-.642 0-.797-.154-.797-.793l.023-4.919-.775-.463v.066l.287.133v5.58c.022.926.687 1.014 1.151 1.014m-4.027-.617c-.642 0-3.143-.287-4.603-1.081l-.642-.353-.221.42h.022l.62.352c1.504.816 4.027 1.28 4.957 1.28.464 0 1.128-.089 1.128-1.015v-5.603l.288-.132v-.044l-.775.463.022 4.919c0 .64-.155.794-.796.794"/>
            <path d="M89.908 50.398H79.663l-3.32-9.374-.22-.684-.222.684-3.453 9.374H62.204l.62.419 8.01 5.734-3.363 10.102 8.652-6.176 8.52 6.264-3.364-10.19 8.01-5.734zm-9.383 5.889-.154-.044.022.088.154.044v-.022l3.142 8.999-1.04-1.456.178.552.708.992-7.325-5.757v-.286l-.088-.066-.11.066v.286l-7.524 5.69.907-1.234-.42.309.088-.243-.73.992 3.186-8.888h-.022l-7.811-5.36 1.106.353-.243-.176h.332l-1.151-.375 9.095.22.132.155h.045l-.088-.11 3.12-9.485v1.588l.088-.264.11.33v-1.698l2.966 9.352-.2.265h.2l.11-.155 9.029-.22-1.129.375h.266l-.288.198 1.306-.419z"/>
            <path d="m63.398 50.839 12.68 4.169-.044-.044 7.722 10.807.155-.088-7.723-10.83-.022-.022h-.021l-12.68-4.168z"/>
            <path d="m68.266 65.683 7.922-10.72-.044.044 12.834-4.278-.066-.177-12.834 4.28h-.023l-.022.021-7.922 10.72z"/>
            <path d="M76.01 41.355v18.373h.2V41.355z"/>
            <path d="m70.856 56.618 5.289-1.61H76.1l5.112 1.61.044-.177-5.111-1.61-.022-.022-.023.022-5.288 1.61z"/>
            <path d="m72.383 50.442 3.65 4.521.09.11.065-.11 3.541-4.521-.155-.11-3.54 4.521h.154l-3.65-4.521zM64.815 67.668c-.31 0-.62.044-.908.154a.6.6 0 0 1 .2.22 2.5 2.5 0 0 1 .708-.11 2.46 2.46 0 0 1 2.456 2.448v.155c.066.022.133.044.2.11 0-.11.021-.198.021-.286 0-1.5-1.217-2.691-2.677-2.691m1.66 5.403a3.2 3.2 0 0 1-1.682.464 3.206 3.206 0 0 1-3.21-3.198c0-.287.045-.596.134-.883a.7.7 0 0 1-.155-.11.6.6 0 0 1-.155-.176 3.7 3.7 0 0 0-.221 1.212c0 1.985 1.637 3.618 3.629 3.618.752 0 1.438-.22 2.013-.618-.022 0-.022-.022-.044-.022a1.3 1.3 0 0 1-.31-.287m-6.197-26.489a1 1 0 0 1-.199.309v.022c.598.596.93 1.39.93 2.25a3.204 3.204 0 0 1-3.054 3.198c-.044.176-.11.353-.133.463 1.992-.022 3.607-1.632 3.607-3.617a3.58 3.58 0 0 0-1.15-2.625m-2.301-.97H57.8a3.625 3.625 0 0 0-3.63 3.617c0 1.28.665 2.404 1.66 3.044-.066-.22-.066-.42-.022-.552l-.022-.022a3.17 3.17 0 0 1-1.217-2.492 3.206 3.206 0 0 1 3.209-3.198h.022l.066-.199a.43.43 0 0 1 .111-.198m6.838 21.151c-.664 0-1.284.177-1.815.486.133.11.221.198.266.286h.022a3.35 3.35 0 0 1 1.527-.397 3.206 3.206 0 0 1 3.208 3.199c0 .264-.022.53-.088.771v.045c.066.021.221.043.398.154.089-.287.133-.618.133-.927a3.66 3.66 0 0 0-3.651-3.617m8.408-29.444h-.044c-.133.022-.287.022-.398.022a3.58 3.58 0 0 0 1.77 1.83c.022-.154.022-.33.022-.485l-.022-.022a3 3 0 0 1-1.328-1.345M55.808 47.376a2.67 2.67 0 0 0-.708 1.787c0 .617.222 1.19.598 1.676q0-.099.066-.198c0-.023.022-.023.022-.045a2.36 2.36 0 0 1-.442-1.39c0-1.124.774-2.094 1.836-2.36.067-.131.222-.242.355-.33a2.7 2.7 0 0 0-1.727.86m31.578 25.43c-.288 0-.576-.044-.841-.153-.045.043-.066.088-.11.131l-.023.023c.31.132.642.176.974.176a2.67 2.67 0 0 0 2.678-2.669 2.8 2.8 0 0 0-.111-.75h-.067s0 .2-.088.42c.022.132.022.242.022.375.022 1.367-1.084 2.448-2.434 2.448m6.66-20.996h.044c.023-.023.023-.045.023-.045s-.045-.066-.11-.154a2.445 2.445 0 0 1-2.037-2.404c0-.53.177-1.015.465-1.412a2 2 0 0 1-.133-.242 2.68 2.68 0 0 0-.553 1.61 2.615 2.615 0 0 0 2.301 2.647m-36.113.021h.022a2.683 2.683 0 0 0 2.523-2.668 2.65 2.65 0 0 0-.487-1.522.8.8 0 0 1-.155.22c.265.397.42.86.42 1.346 0 1.28-.995 2.338-2.257 2.426a.5.5 0 0 1-.088.132s0 .044.022.066m6.882 21.174c.265 0 .53-.044.796-.11-.066-.044-.133-.088-.155-.154-.199.043-.398.088-.62.088a2.46 2.46 0 0 1-2.455-2.449v-.066c-.111-.11-.155-.264-.2-.397-.022.155-.044.287-.044.442 0 1.455 1.195 2.646 2.678 2.646m9.205-35.797c-.11-.022-.199-.044-.288-.066.2.375.51.706.886.97v-.242a2.8 2.8 0 0 1-.598-.662m20.004 15.13a3.184 3.184 0 0 1-2.832-3.175c0-.882.354-1.699.995-2.316-.044-.066-.132-.177-.199-.33a3.608 3.608 0 0 0 2.213 6.286c-.066-.09-.133-.266-.177-.464m2.832-3.131c0 .595-.22 1.147-.575 1.566a.6.6 0 0 1 0 .286c.51-.507.797-1.19.797-1.896a2.7 2.7 0 0 0-2.28-2.647c.134.088.266.199.333.353.995.33 1.725 1.257 1.725 2.338M90.44 69.344a3.206 3.206 0 0 1-3.054 4.19 3.16 3.16 0 0 1-1.815-.573.84.84 0 0 1-.42.243 3.625 3.625 0 0 0 5.864-2.845c0-.508-.111-.993-.31-1.434a.85.85 0 0 1-.265.419m5.576-17.976c.022.022.022.022.022 0zM94.4 45.612h-.088c.044.044.067.11.11.176l.067.199h.022c.84.022 1.615.375 2.213.97.597.596.907 1.39.907 2.228 0 1.036-.509 2.029-1.372 2.624h-.022c.022.155 0 .353-.11.596a3.62 3.62 0 0 0 1.925-3.198c-.023-1.985-1.66-3.595-3.652-3.595M78.246 34.738a.4.4 0 0 1 .288.044 2.7 2.7 0 0 0-2.434-1.566c-1.084 0-2.08.662-2.478 1.676a.46.46 0 0 1 .332-.132 2.45 2.45 0 0 1 2.146-1.257 2.39 2.39 0 0 1 2.146 1.235m.266 2.404a4 4 0 0 1-.332.066c-.154.221-.332.442-.553.596v.265c.377-.22.664-.552.885-.927m.509.177a3.17 3.17 0 0 1-1.328 1.367h-.022c0 .155.022.287.022.463a3.62 3.62 0 0 0 1.726-1.808c-.088 0-.199 0-.31-.022zm-2.92-5.007a3.634 3.634 0 0 0-3.585 3.022c.154-.11.287-.177.42-.199.022-.022.022-.044.022-.044.376-1.39 1.682-2.382 3.142-2.382 1.438 0 2.744 1.015 3.12 2.426h-.022c.133 0 .288.044.465.155-.332-1.72-1.793-2.978-3.563-2.978m8.054 38.025a3.206 3.206 0 0 1 4.58-2.89l.044.022c.067-.066.156-.176.288-.264a3.7 3.7 0 0 0-1.703-.42 3.625 3.625 0 0 0-3.63 3.618c0 .353.045.705.155 1.036.089-.066.177-.132.266-.176.044-.022.067-.044.11-.044v-.045a4 4 0 0 1-.11-.837m3.23-2.405c.178 0 .377.022.554.067.066-.067.133-.155.244-.199a2.3 2.3 0 0 0-.775-.11 2.67 2.67 0 0 0-2.678 2.669c0 .22.022.44.088.661a1.5 1.5 0 0 1 .178-.198 2.433 2.433 0 0 1 2.39-2.89"/>
            <path d="M89 42.06s.09.332.399.706c.31.375.819.574.819.574s.066.375.287.75.752.617.752.617.067.464.2.706c.132.265.553.574.553.574s-.133.22-.045.463c.133.375.31.507.31.507-.177.86.465 1.103.465 1.103.51.287 1.217-.199 1.217-.199s.664.089 1.107-.507c.464-.595-.576-.97-.576-.97s.11-.199-.066-.596c-.177-.397-.664-.573-.664-.573s0-.331-.132-.816c-.134-.486-.864-.794-.864-.794s.044-.31-.133-.684c-.265-.551-.996-.882-.996-.882s-.11-.31-.376-.706c-.443-.64-1.084-.618-1.084-.618s-.132-.595-.332-.816c-.332-.353-1.062-.485-1.062-.485s-.088-.309-.465-.684c-.353-.353-1.195-.419-1.195-.419s-.088-.375-.486-.684c-.51-.375-1.195-.308-1.195-.308s-.023-.177-.62-.596c-.598-.419-1.151-.264-1.151-.264s-.2-.287-.597-.508c-.51-.287-1.195-.132-1.195-.132s-.2-.309-.797-.485c-.62-.177-1.194.088-1.194.088-.554-.507-1.019-.22-1.019-.22s-.088-.508-.62-.42c-1.128.177-.73 1.081-.73 1.081s-.199.11-.287.596c-.089.485.243.727.62.793.31.067.863-.11.863-.11s.177.199.464.22c.288.023.62 0 .62 0s.2.2.708.332c.51.132 1.018-.022 1.018-.022s.022.198.509.419.974.088.974.088.31.44.774.661c.42.177.952.11.952.11s.287.332.663.596c.376.265.996.375.996.375s.2.441.465.684c.243.22.951.33.951.33s.288.508.465.707c.089.176.73.419.73.419m4.404 5.846c-.089.066-.443.022-.575-.067a.32.32 0 0 1-.177-.264c0-.044.022-.089.066-.11.022 0 .066-.023.11.021.067.045.156.089.288.133.067.022.133.066.221.088.09.044.11.066.11.11-.02.044-.02.066-.043.089m.84-1.103c.155.044.332.22.332.419 0 .11-.066.309-.486.397-.686.132-1.306-.331-1.55-.662-.11-.176-.154-.309-.088-.375.066-.088.243-.066.51.066.442.22.685.177.906.155.134-.022.244-.022.377 0m-.464-.97c.044.352.044.529-.044.617-.089.066-.222.044-.487-.044l-.066-.022c-.797-.22-1.173-.375-1.35-1.191-.022-.088 0-.177.044-.199.088-.088.265-.022.509.066.132.044.288.088.42.133.62.154.952.375.974.64m-.796-1.5c.11.352.154.529.066.617-.066.088-.221.044-.465-.022l-.11-.022c-.974-.243-1.328-.353-1.66-1.191-.022-.044-.044-.132 0-.199.088-.088.31-.022.642.067.132.044.288.088.442.11.642.154.996.353 1.085.64m-1.085-1.61c.11.33.155.485.088.595-.065.088-.22.066-.464.044h-.11c-.996-.088-1.372-.154-1.705-.926q-.065-.133 0-.199c.089-.11.333-.066.642-.022.155.022.288.044.443.044.641.066 1.017.199 1.106.463m-1.261-1.302c.133.199.176.33.133.441-.045.11-.177.155-.399.155-1.04.022-1.571-.177-1.925-.684-.067-.11-.088-.177-.044-.243.066-.132.354-.132.708-.11.155 0 .332.022.465 0 .465-.044.885.199 1.062.441M77.737 35.4c.022-.133.088-.22.2-.243.132-.022.22-.022.287.022.022.022.044.044.044.066v.023l-.022.021s-.265.155-.332.265c-.044.044-.089.044-.089.044-.066-.022-.088-.11-.088-.198m.62 1.367c.022.088-.022.155-.09.22a.47.47 0 0 1-.552-.065.52.52 0 0 1-.155-.463c.022-.155.11-.375.42-.574.531-.353.952-.265.974-.243.044.022.089.067.089.133 0 .088-.067.154-.222.242-.354.155-.509.596-.464.75m.597.11c-.133-.088-.199-.198-.177-.308.022-.265.398-.53.73-.706.487-.265.819-.309 1.085-.154.022.022.066.022.088.044.133.066.288.154.288.286 0 .089-.089.177-.266.243-.31.132-.531.33-.708.463-.332.287-.553.463-1.04.133m1.46.331c-.088-.088-.11-.154-.088-.22.044-.199.398-.42 1.062-.64.42-.132.908-.264 1.173-.044.022.022.044.044.088.066.133.089.266.199.244.331-.022.088-.11.154-.31.199-.287.088-.553.198-.775.286-.53.22-.929.397-1.393.022m1.571.442c-.066-.045-.066-.11-.066-.155.066-.265.885-.485 1.173-.551.487-.11.885-.199 1.107.044.022.022.066.066.132.11.133.11.266.22.244.33-.022.09-.111.133-.288.177a4.4 4.4 0 0 0-.708.243c-.509.176-.93.353-1.594-.198m3.209.97c-.575.11-1.084.199-1.416-.33a.23.23 0 0 1-.022-.266c.132-.242.686-.308 1.283-.374h.089c.531-.045.863.044 1.04.286a.3.3 0 0 1 .066.088c.11.11.222.265.155.375-.044.089-.155.133-.354.133-.288 0-.575.044-.841.088m.288.617c-.067-.11-.067-.198-.044-.264.11-.22.597-.243 1.04-.287.066 0 .155 0 .22-.022.532-.044.864.044 1.041.287.022.022.044.044.066.088.111.11.221.265.155.375-.044.088-.155.132-.353.132-.288 0-.554.044-.775.089-.553.088-1.018.154-1.35-.398m1.55 1.037c-.067-.11-.09-.198-.045-.264.088-.177.464-.199.84-.199.111 0 .222 0 .31-.022.531-.044.863.044 1.04.287.022.022.045.044.067.088.11.11.221.264.155.375-.045.088-.155.132-.354.132-.266 0-.488.044-.708.066-.553.044-.952.088-1.306-.463m-.643 31.21s.11-.2-.11-.64c-.222-.442-.62-.442-.974-.287-.288.132-.62.596-.62.596s-.266-.067-.508.088c-.244.154-.51.375-.51.375s-.287-.044-.774.132c-.51.176-.819.618-.819.618s-.132-.155-.664-.044c-.531.11-.84.507-.84.507s-.51-.176-1.019-.088c-.442.088-.84.463-.84.463s-.443-.11-.886-.088c-.442 0-1.017.286-1.017.286s-.443-.242-.775-.287-.974.265-.974.265-.53-.242-.796-.309c-.266-.066-.908.133-.908.133s-.265-.221-.752-.331c-.464-.11-.995.022-.995.022s-.266-.265-.665-.44c-.398-.178-.973-.067-.973-.067s-.31-.33-.576-.464c-.265-.132-.774-.132-.774-.132s-.022-.264-.221-.397c-.332-.22-.553-.242-.553-.242-.377-.794-1.018-.618-1.018-.618-.576.066-.886.882-.886.882s-.575.309-.597 1.059 1.04.441 1.04.441.022.22.398.441c.377.22.863.066.863.066s.2.287.598.574c.398.308 1.172.154 1.172.154s.155.287.51.463c.553.287 1.327.133 1.327.133s.266.198.709.353c.73.243 1.239-.133 1.239-.133s.442.397.774.464c.487.088 1.15-.221 1.15-.221s.245.198.775.287c.487.088 1.217-.353 1.217-.353s.31.264.797.264c.62.023 1.15-.441 1.15-.441s.133.132.863.11c.73 0 1.085-.463 1.085-.463s.332.11.796.066c.576-.066 1.063-.595 1.063-.595s.354.132.93-.066c.618-.22.929-.772.929-.772.73.088.973-.42.973-.42s.377.376.753-.021c.796-.817-.067-1.324-.067-1.324m-19.982-.376c.044-.11.332-.286.51-.286.154-.023.243.044.287.11.022.044.044.088.022.133 0 .021-.044.043-.11.043-.09 0-.178.022-.31.045a.8.8 0 0 1-.244.043c-.088.023-.133 0-.155-.021q-.033 0 0-.067m.244 1.17a1.1 1.1 0 0 1-.31.22c-.155.066-.398.022-.51-.132-.066-.089-.132-.287.156-.596.487-.53 1.261-.507 1.637-.375.2.067.31.155.288.265 0 .11-.155.199-.465.242-.442.067-.642.243-.796.375m.663.75c-.243-.265-.354-.398-.331-.53.022-.11.154-.154.42-.265l.066-.022c.775-.287 1.173-.397 1.793.177.066.066.11.132.088.176-.022.11-.199.177-.464.243-.133.044-.288.088-.42.154-.576.243-.974.265-1.151.066m1.527.749c-.31-.22-.442-.353-.42-.463s.155-.154.376-.264l.11-.045c.93-.375 1.284-.485 2.037-.022.022.022.132.088.11.177-.022.132-.243.198-.553.308-.133.044-.288.089-.42.155-.598.264-.996.309-1.24.154m2.987.376c-.553.33-.951.44-1.172.286-.288-.198-.42-.309-.42-.42s.132-.175.353-.308l.089-.066c.863-.507 1.195-.662 1.925-.265.089.044.111.088.111.155 0 .132-.221.242-.51.397-.11.066-.242.154-.376.22m.62.595c-.221-.067-.354-.177-.376-.287s.067-.243.244-.375c.84-.618 1.371-.794 1.969-.573.11.044.177.11.199.176.022.155-.221.309-.487.507-.132.088-.266.177-.376.265-.398.33-.863.375-1.173.287m2.987-.133c-.398.353-.73.486-1.017.375-.022 0-.067-.022-.111-.022-.155-.044-.332-.088-.354-.199-.022-.088.044-.176.2-.308q.297-.23.53-.463c.42-.397.73-.684 1.328-.441q.166.066.199.198c.022.199-.266.419-.553.64-.045.088-.133.154-.222.22m1.837.044c-.398.353-.73.486-1.018.376-.022 0-.066-.023-.11-.023-.155-.044-.332-.088-.355-.198-.022-.088.045-.176.2-.309a4.5 4.5 0 0 0 .575-.53c.42-.418.73-.727 1.328-.485.11.045.177.11.177.199.044.243-.332.552-.664.838zm1.925-.154-.066.066c-.398.353-.73.485-1.018.376-.022 0-.067-.023-.11-.023-.156-.044-.333-.088-.355-.198-.021-.088.044-.177.2-.31.243-.175.442-.396.62-.572.42-.42.774-.794 1.35-.574.11.044.154.11.176.198.067.265-.354.662-.797 1.037m1.084.066h-.154c-.177 0-.354 0-.399-.11-.022-.066 0-.177.134-.308.177-.199.309-.42.442-.596.31-.486.531-.86 1.394-.794.088 0 .11.044.133.088.088.242-.443.926-.62 1.147-.354.353-.62.64-.93.573m2.656-1.124c-.243.352-.575.75-.93.727h-.11c-.155 0-.332 0-.398-.11-.045-.088 0-.199.132-.353.2-.243.332-.485.465-.706.266-.485.487-.86 1.107-.816.132 0 .177.067.199.11.11.177-.044.574-.465 1.148m1.815-.706c-.244.485-.487.727-.775.75-.022 0-.066 0-.11.022-.156.022-.333.044-.398-.045-.045-.066-.023-.198.066-.353.177-.308.243-.573.309-.793.111-.398.178-.684.752-.684.156 0 .266.044.333.154.132.177-.022.618-.177.949m1.239-.927c-.222.596-.62.772-.641.772-.045 0-.112 0-.156-.044-.044-.066-.022-.176.044-.33.177-.332.045-.795-.088-.905-.066-.044-.089-.132-.044-.22.066-.155.287-.31.486-.265.177.022.31.132.399.264.066.133.132.376 0 .728m.42.574c-.088.088-.177.154-.243.154-.045 0-.066-.022-.066-.022l-.022-.022.022-.022c.021-.066.11-.287.11-.419 0-.067.045-.088.067-.088.066-.022.132.044.177.11.066.088.043.22-.045.309M65.942 39.899s.62-.11.996-.375c.376-.264.664-.595.664-.595s.531.066.952-.11c.464-.2.774-.662.774-.662s.487.132.974-.088c.487-.221.509-.42.509-.42s.509.177 1.017.023c.51-.133.709-.331.709-.331s.332.022.62 0a.75.75 0 0 0 .464-.22s.531.176.863.11c.376-.089.708-.31.62-.795-.09-.485-.288-.595-.288-.595s.398-.904-.73-1.08c-.554-.089-.62.418-.62.418s-.487-.287-1.018.22c0 0-.575-.264-1.195-.087-.597.176-.796.485-.796.485s-.686-.155-1.195.132c-.399.22-.598.507-.598.507s-.553-.176-1.15.265c-.598.42-.62.596-.62.596s-.708-.067-1.195.308c-.398.31-.487.684-.487.684s-.863.088-1.195.42c-.376.374-.464.683-.464.683s-.73.132-1.062.485c-.222.243-.332.816-.332.816s-.642-.022-1.085.618c-.265.397-.376.706-.376.706s-.73.33-.996.882c-.177.375-.133.684-.133.684s-.708.308-.863.794c-.132.485-.132.816-.132.816s-.487.176-.664.573-.066.596-.066.596-1.018.375-.576.97c.465.596 1.107.507 1.107.507s.708.486 1.217.199c0 0 .62-.243.464-1.103 0 0 .177-.132.31-.507.066-.22-.044-.463-.044-.463s.398-.31.553-.574c.133-.264.2-.706.2-.706s.508-.264.752-.617c.22-.375.287-.75.287-.75s.51-.199.82-.574.397-.705.397-.705.62-.22.797-.42c.177-.198.465-.705.465-.705s.708-.11.951-.331c.2-.243.398-.684.398-.684m8.078-4.654c0-.022.022-.044.043-.066.045-.044.156-.044.288-.022.11.022.2.11.2.243 0 .066-.023.176-.067.198-.022 0-.066.022-.088-.044-.09-.11-.333-.265-.333-.265l-.021-.022zm-.687.397c.022 0 .443-.11.996.243.332.199.42.441.42.574a.6.6 0 0 1-.154.463.48.48 0 0 1-.553.066c-.09-.044-.133-.133-.09-.22.045-.155-.11-.618-.463-.795-.156-.088-.222-.154-.222-.242-.022-.044.044-.089.066-.089m-1.704.133c.045-.022.067-.044.089-.044.266-.155.598-.11 1.084.154.332.177.708.441.73.706 0 .11-.043.22-.177.309-.464.33-.708.154-1.017-.11a2.6 2.6 0 0 0-.709-.464c-.177-.088-.265-.154-.265-.242-.044-.155.11-.243.265-.31m-1.969.595c.022-.022.067-.044.088-.066.266-.22.753-.088 1.173.044.664.22 1.018.441 1.063.64 0 .044 0 .132-.089.22-.465.397-.863.22-1.372-.022a3.5 3.5 0 0 0-.775-.286c-.199-.044-.287-.11-.31-.199-.044-.132.09-.242.222-.33m-1.704.728c.044-.044.089-.066.133-.11.221-.243.597-.155 1.106-.044.288.066 1.107.308 1.173.551 0 .044 0 .088-.066.155-.664.55-1.062.397-1.593.176a4.4 4.4 0 0 0-.709-.243c-.177-.044-.265-.088-.287-.176-.044-.11.11-.22.243-.309m-1.903.926c.022-.022.044-.066.067-.088.177-.242.508-.33 1.04-.286h.088c.575.044 1.15.11 1.283.374.045.089.023.177-.022.265-.332.53-.84.441-1.416.33a8 8 0 0 0-.84-.11c-.2 0-.31-.043-.355-.132-.066-.088.067-.22.155-.353m-6.572 9.815c-.155.089-.487.11-.575.067-.023-.023-.045-.045-.045-.067 0-.044.045-.066.111-.11.088-.044.155-.066.221-.088.11-.044.2-.088.288-.132.044-.045.088-.023.11-.023a.12.12 0 0 1 .067.11c0 .067-.044.177-.177.243m.265-.882c-.22.331-.863.794-1.549.662-.42-.088-.486-.287-.486-.397 0-.199.177-.375.332-.42.132-.043.243-.021.376 0 .221.023.465.067.907-.154.266-.132.443-.154.509-.066.066.066.022.22-.089.375m.709-1.742c-.177.816-.553.97-1.35 1.19l-.066.023c-.266.066-.399.11-.487.044-.089-.088-.089-.265-.045-.618.045-.264.354-.485.974-.617.155-.044.31-.089.42-.133.244-.088.42-.154.51-.066.044 0 .066.067.044.177m.995-1.5c-.332.816-.686.948-1.66 1.19l-.11.023c-.243.066-.398.088-.465.022-.066-.088-.044-.265.067-.618.088-.264.442-.485 1.084-.617.133-.022.288-.066.443-.11.31-.089.553-.177.641-.067.067.045.022.133 0 .177m1.129-1.28c-.332.75-.708.839-1.704.927h-.11c-.266.022-.399.044-.465-.044-.067-.088-.022-.265.088-.596.089-.264.465-.419 1.107-.463.155 0 .287-.022.442-.044.332-.044.576-.088.642.022q.066.066 0 .199m1.283-1.08c-.354.507-.885.706-1.925.684-.221 0-.354-.067-.398-.155-.044-.11-.022-.264.133-.44.177-.244.597-.486 1.106-.442.133.022.31 0 .465 0 .332-.022.62-.022.708.11a.53.53 0 0 1-.089.243m1.395-1.08c-.355.55-.753.507-1.328.44-.2-.022-.443-.044-.708-.066-.2 0-.31-.044-.354-.132-.045-.11.066-.243.155-.375.022-.022.044-.066.066-.088.177-.243.509-.331 1.04-.287.088 0 .2.022.31.022.354.022.73.022.84.198.067.089.045.177-.022.287m-.598-.729c-.2 0-.31-.044-.354-.132-.044-.11.066-.243.155-.375.022-.022.044-.066.066-.088.177-.243.51-.331 1.04-.287.067 0 .133 0 .222.022.442.022.929.066 1.04.287.044.088.022.176-.045.264-.332.53-.796.464-1.372.375-.199-.022-.464-.066-.752-.066m-1.35 28.078s-.088-.221-.398-.442c-.2-.132-.443-.088-.443-.088s-.177-.463-.376-.683-.62-.398-.62-.398-.088-.573-.376-.882c-.287-.33-.62-.485-.62-.485s-.044-.551-.309-.948c-.266-.397-.553-.596-.553-.596s-.022-.662-.177-.882c-.133-.22-.553-.64-.553-.64s.088-.706-.045-.992c-.155-.31-.509-.64-.509-.64s.067-.64-.066-1.059a3.8 3.8 0 0 0-.376-.794s.221-.485.177-.926c-.067-.507-.398-.926-.398-.926s.287-.42.199-.949c-.067-.53-.266-.617-.266-.617s.31-.441.332-.97c.022-.53-.11-.773-.11-.773s.132-.308.176-.595c.067-.287-.088-.508-.088-.508s.332-.463.354-.772c.044-.374-.089-.771-.575-.838-.487-.066-.664.11-.664.11s-.753-.639-1.261.376c-.244.485.22.727.22.727s-.42.376-.088 1.037c0 0-.42.463-.442 1.125 0 .618.22.904.22.904s-.353.618-.22 1.191c.11.441.31.728.31.728s-.333.463-.09 1.17c.222.705.4.771.4.771s-.266.64-.045 1.235c.177.463.509.662.509.662s-.177.838.044 1.257c.244.463.51.64.51.64s-.09.727.154 1.147c.155.264.686.573.686.573s-.221.618.265 1.213c.288.375.554.551.554.551s.11.794.553 1.214c.31.286.62.33.62.33s.088.772.508 1.06c.421.286.753.374.753.374s.022.507.354.794.553.22.553.22.044 1.081.752.84c.709-.266.82-.905.82-.905s.663-.53.552-1.103c.023-.067-.022-.75-.907-.838m-6.417-16.83c.288-.242.531-.264.686-.242.177.022.31.133.398.287a.5.5 0 0 1-.11.551c-.067.066-.155.089-.222.023-.132-.089-.62-.067-.885.198-.11.132-.221.176-.288.154s-.088-.088-.088-.132c-.022 0 0-.441.509-.838m-.686-.22a.27.27 0 0 1 .288-.132c.066.022.155.066.155.132 0 .022 0 .067-.067.089-.133.044-.354.242-.354.242l-.022.022-.022-.022c-.022 0-.044-.022-.044-.066q-.034-.099.066-.265m.2 1.677c.265-.265.619-.552.884-.486.111.022.2.11.244.265.177.551-.067.706-.42.926-.2.133-.421.287-.665.552-.132.154-.243.198-.331.176-.111-.044-.155-.198-.178-.353 0-.044-.022-.066-.022-.11-.044-.287.111-.595.487-.97m-.466 3.043c-.132-.308.133-.75.399-1.102.42-.574.73-.839.93-.817.043 0 .132.045.176.155.244.573-.044.882-.42 1.301-.155.177-.354.397-.51.662-.11.176-.198.242-.287.242-.133-.022-.177-.176-.243-.33-.022-.067-.045-.089-.045-.11m.155 1.765c-.155-.287.045-.618.288-1.059.155-.242.62-.97.885-.948.044 0 .089.022.133.11.332.794.044 1.125-.31 1.566-.133.176-.288.375-.442.596-.089.154-.178.22-.244.22-.11 0-.177-.176-.243-.33-.022-.067-.044-.111-.067-.155m.399 2.25c-.023-.023-.045-.067-.067-.089-.177-.242-.177-.573.044-1.08l.045-.089c.221-.529.465-1.058.73-1.102.088-.023.177.022.243.11.399.463.177.926-.11 1.456-.11.22-.244.485-.354.771-.067.199-.133.287-.222.287-.11 0-.22-.154-.31-.264m.818 2.05c-.132.023-.22-.132-.31-.264-.022-.022-.044-.066-.066-.088-.177-.243-.177-.574.044-1.08a.8.8 0 0 1 .089-.2c.155-.396.332-.86.575-.904.089-.022.177.022.244.11.42.486.221.883-.044 1.412-.111.199-.222.441-.31.706-.067.198-.133.309-.222.309m.863 1.412c-.066.199-.132.287-.22.287-.134.022-.222-.132-.31-.265-.023-.022-.045-.066-.067-.088-.177-.242-.177-.573.044-1.08.044-.089.067-.2.11-.287.111-.331.244-.706.443-.728.089-.022.155.022.244.11.42.485.265.882.022 1.39q-.133.297-.266.661m.664 1.963c-.11.022-.243-.066-.398-.242-.2-.243-.288-.706-.089-1.191.045-.133.089-.287.133-.442.089-.33.155-.595.31-.64.066-.021.155.023.221.133.399.485.42 1.059.089 2.03-.044.242-.133.352-.266.352m1.24 1.059-.023.11c-.044.265-.088.397-.199.441-.11.044-.265-.044-.53-.242-.222-.155-.267-.552-.112-1.191a2.6 2.6 0 0 0 .089-.441c.044-.331.088-.574.221-.618.044-.022.11 0 .177.066.62.53.576.905.376 1.875m1.172 1.478v.11c-.022.265-.022.397-.11.441-.111.044-.266-.044-.576-.243-.243-.154-.332-.573-.265-1.213.022-.154.022-.308.022-.44 0-.332 0-.574.11-.618.09-.044.177.022.2.044.664.551.664.926.62 1.919m1.217 1.124v.067c0 .264 0 .419-.11.485s-.288 0-.598-.154c-.243-.11-.354-.486-.31-1.103v-.441c0-.265-.022-.441.089-.508.044-.022.11-.022.2.022.73.397.752.816.73 1.632m.908 1.213c-.2.375-.42.375-.532.354-.177-.045-.31-.265-.287-.442 0-.132.044-.242.11-.352.089-.199.2-.42.111-.905-.044-.309-.022-.463.089-.507.088-.044.22.022.332.198.243.31.509 1.037.177 1.654m.486-.573c-.022.022-.044.022-.066.022-.044-.022-.066-.066-.066-.154-.022-.088-.022-.177-.022-.243-.023-.132-.023-.22-.045-.309-.022-.066 0-.088.022-.11.023-.022.067-.044.133-.022a.29.29 0 0 1 .2.243c0 .154-.067.485-.156.573m32.44-14.6s.222-.288.222-.905c0-.64-.443-1.125-.443-1.125.332-.662-.088-1.037-.088-1.037s.464-.242.221-.727c-.51-1.015-1.261-.375-1.261-.375s-.155-.155-.664-.11c-.487.065-.62.44-.575.837.022.331.354.772.354.772s-.133.22-.089.508c.066.286.177.595.177.595s-.133.243-.11.772c.022.53.332.97.332.97s-.178.089-.266.618c-.067.53.2.948.2.948s-.332.42-.4.927c-.044.441.178.926.178.926s-.244.375-.376.794c-.133.42-.067 1.059-.067 1.059s-.376.33-.509.64c-.132.286-.044.992-.044.992s-.399.42-.553.64c-.133.22-.177.882-.177.882s-.31.176-.553.595c-.266.42-.31.949-.31.949s-.332.154-.62.485c-.287.33-.376.882-.376.882s-.42.199-.62.397c-.199.22-.376.684-.376.684s-.243-.044-.442.088c-.332.22-.398.441-.398.441-.864.089-.93.772-.93.772-.11.574.553 1.103.553 1.103s.11.64.82.904c.707.265.752-.838.752-.838s.22.044.553-.22c.332-.287.354-.794.354-.794s.332-.11.752-.375c.42-.287.509-1.059.509-1.059s.31-.044.62-.33c.442-.42.553-1.214.553-1.214s.265-.176.553-.551c.464-.596.265-1.213.265-1.213s.532-.287.687-.574c.243-.419.154-1.147.154-1.147s.266-.176.51-.64c.22-.44.044-1.256.044-1.256s.331-.199.508-.662c.222-.596-.043-1.235-.043-1.235s.154-.089.376-.772c.22-.706-.09-1.17-.09-1.17s.222-.286.31-.727c.177-.507-.177-1.125-.177-1.125m-.951-3.883c0-.066.089-.11.155-.132.133-.022.243.022.288.132q.1.166.066.265c-.022.044-.044.044-.044.066l-.022.022-.022-.022s-.222-.198-.355-.242c-.066-.023-.066-.067-.066-.089m-1.217.838a.49.49 0 0 1-.11-.551.54.54 0 0 1 .398-.287c.154-.022.398-.022.686.243.486.419.531.838.531.86 0 .044-.022.11-.089.132-.066.023-.177-.022-.287-.154-.266-.265-.753-.287-.885-.199-.067.045-.156.023-.244-.044m.31.64c.044-.154.132-.243.243-.265.266-.066.62.22.885.486.376.375.531.683.465.97 0 .022-.022.066-.022.11-.022.155-.067.331-.177.353-.089.022-.199-.044-.332-.176-.221-.265-.465-.42-.664-.552-.332-.22-.575-.375-.398-.926M88.38 68.351c-.021.089-.043.177-.043.31 0 .065-.023.154-.023.242-.022.088-.044.132-.066.154-.022 0-.045 0-.067-.022-.088-.066-.154-.419-.11-.573a.29.29 0 0 1 .2-.243c.043-.022.088 0 .132.022-.023.022 0 .044-.023.11m.775 1.61c-.11.022-.31.022-.53-.353-.333-.617-.068-1.345.176-1.676.133-.154.244-.242.332-.198.11.044.133.22.089.507-.067.485.022.706.11.904.044.11.089.221.111.353 0 .199-.111.397-.288.464m1.085-1.168c-.333.154-.51.22-.598.154-.11-.066-.11-.199-.11-.485v-.067c-.023-.816 0-1.235.73-1.632.088-.044.155-.066.198-.022.112.067.09.243.09.508v.44c.044.618-.045.993-.31 1.104m1.217-1.214c-.31.221-.465.31-.576.243-.088-.044-.11-.198-.11-.441v-.11c-.067-.993-.045-1.368.641-1.92.022-.021.111-.087.2-.043.11.066.11.286.11.617 0 .155 0 .309.023.441.043.64-.045 1.059-.288 1.213m1.217-1.5c-.288.2-.42.287-.532.243-.11-.044-.132-.176-.199-.44l-.021-.111c-.222-.97-.244-1.346.376-1.897.066-.066.132-.088.177-.066.132.044.154.287.22.617.023.155.045.287.09.442.132.661.11 1.058-.111 1.213m.863-1.587c-.155.198-.266.264-.399.242q-.165-.033-.265-.33c-.332-.993-.31-1.567.088-2.03.09-.088.155-.132.222-.132.154.022.221.309.31.617.044.155.088.31.133.442.22.485.11.948-.09 1.19m.885-1.787a.3.3 0 0 0-.066.088c-.09.133-.177.287-.31.265-.089-.022-.155-.11-.222-.287a6 6 0 0 0-.265-.64c-.244-.529-.399-.904.022-1.389.088-.088.177-.132.243-.11.2.044.31.375.443.728.044.11.066.198.11.308.2.464.222.816.045 1.037m.62-1.698a.3.3 0 0 0-.067.088c-.088.132-.177.287-.31.265-.089-.022-.155-.11-.221-.287a4 4 0 0 0-.31-.706c-.266-.53-.465-.926-.044-1.411.089-.089.155-.133.243-.11.243.043.421.507.576.904.022.066.043.132.088.198.221.485.244.838.044 1.059m.508-1.787a.3.3 0 0 0-.066.089c-.089.132-.177.286-.31.264-.088-.022-.155-.11-.222-.287a3.5 3.5 0 0 0-.353-.772c-.266-.529-.51-.97-.11-1.455.066-.088.154-.11.243-.11.287.044.553.683.73 1.102l.044.088c.221.486.221.839.044 1.081m.354-2.161c-.021.044-.044.088-.066.154-.066.154-.11.331-.243.331-.089 0-.155-.066-.244-.22a2.6 2.6 0 0 0-.442-.596c-.354-.441-.642-.794-.31-1.566.044-.088.088-.088.133-.11.265-.022.73.706.885.948.243.441.443.794.287 1.059m.156-1.765c-.023.022-.023.066-.045.089-.044.154-.11.308-.243.33-.089 0-.178-.066-.288-.242-.155-.265-.354-.463-.51-.662-.353-.419-.64-.75-.42-1.301.044-.088.089-.155.178-.155.199-.022.509.243.93.816.264.375.552.817.398 1.125M0 96.826h2.478v5.426l4.47-5.426h3.054l-5.09 5.955 5.29 6.683H6.97l-4.447-5.867h-.045v5.867H0zM19.783 104.457l-4.514-7.631h2.898l2.921 5.293 2.988-5.293h2.61l-4.425 7.631v4.985h-2.478zM38.99 99.142a6.1 6.1 0 0 0-2.522-.551c-.841 0-1.948.374-1.948 1.764 0 2.183 5.422 1.257 5.422 5.491 0 2.78-2.147 3.816-4.647 3.816-1.35 0-1.947-.176-3.165-.485l.222-2.272c.84.463 1.814.772 2.788.772.93 0 2.19-.485 2.19-1.632 0-2.404-5.42-1.411-5.42-5.602 0-2.823 2.146-3.86 4.314-3.86 1.062 0 2.058.154 2.965.463zM49.811 98.81h-3.54v-1.984h9.559v1.985h-3.54v10.631H49.81zM61.517 96.826h2.655l3.164 9.925h.045l3.142-9.925h2.456l-4.16 12.616h-3.054zM79.729 96.826h7.302v1.985h-4.824v3.11h4.403v1.985h-4.403v3.551h4.846v1.985h-7.324zM94.953 96.826h2.678c2.655 0 5.82-.089 5.82 3.418 0 1.478-.974 2.714-2.546 2.934v.044c.665.044 1.063.75 1.307 1.301l1.991 4.941h-2.766l-1.483-3.948c-.354-.949-.664-1.301-1.726-1.301h-.796v5.249h-2.479zm2.479 5.381h.819c1.216 0 2.611-.176 2.611-1.764 0-1.522-1.372-1.654-2.611-1.654h-.82zM111.571 96.826h2.479v5.426l4.47-5.426h3.053l-5.089 5.955 5.289 6.683h-3.231l-4.448-5.867h-.044v5.867h-2.479zM128.521 96.826h7.303v1.985H131v3.11h4.403v1.985H131v3.551h4.846v1.985h-7.325zM145.981 98.81h-3.541v-1.984H152v1.985h-3.541v10.631h-2.478z"/>
        </g>
    </g>
    <defs>
        <clipPath id="a">
            <path fill="#fff" d="M0 0h152v109.662H0z"/>
        </clipPath>
    </defs>
</svg>
